<svg width="273" height="273" viewBox="0 0 273 273" fill="none" xmlns="http://www.w3.org/2000/svg">
<g clip-path="url(#clip0_1070_2667)">
<path d="M245.646 217.576H227.562V217.713H245.646V217.576Z" fill="#EBEBEB"/>
<path d="M180.846 219.061H176.102V219.198H180.846V219.061Z" fill="#EBEBEB"/>
<path d="M227.016 212.509H216.538V212.645H227.016V212.509Z" fill="#EBEBEB"/>
<path d="M52.2251 213.426H28.6433V213.563H52.2251V213.426Z" fill="#EBEBEB"/>
<path d="M60.546 213.426H57.0898V213.563H60.546V213.426Z" fill="#EBEBEB"/>
<path d="M122.932 215.73H71.7827V215.866H122.932V215.73Z" fill="#EBEBEB"/>
<path d="M129.402 184.439H23.9747C23.1488 184.437 22.3573 184.108 21.7738 183.524C21.1903 182.939 20.8625 182.147 20.8625 181.321V33.1201C20.8697 32.299 21.2006 31.5138 21.7833 30.9352C22.3661 30.3565 23.1535 30.0312 23.9747 30.0298H129.402C130.229 30.0298 131.022 30.3583 131.606 30.9429C132.191 31.5276 132.52 32.3206 132.52 33.1474V181.321C132.52 182.148 132.191 182.941 131.606 183.525C131.022 184.11 130.229 184.439 129.402 184.439ZM23.9747 30.139C23.185 30.1404 22.4282 30.4552 21.8703 31.0141C21.3124 31.573 20.999 32.3304 20.999 33.1201V181.321C20.999 182.111 21.3124 182.868 21.8703 183.427C22.4282 183.986 23.185 184.301 23.9747 184.302H129.402C130.192 184.301 130.95 183.986 131.508 183.427C132.067 182.869 132.382 182.111 132.383 181.321V33.1201C132.382 32.3299 132.067 31.5725 131.508 31.0137C130.95 30.455 130.192 30.1404 129.402 30.139H23.9747Z" fill="#EBEBEB"/>
<path d="M247.507 184.439H142.075C141.248 184.437 140.456 184.108 139.872 183.524C139.287 182.939 138.958 182.147 138.957 181.321V33.1201C138.966 32.2985 139.298 31.5133 139.881 30.9348C140.465 30.3564 141.253 30.0312 142.075 30.0298H247.507C248.328 30.0326 249.114 30.3586 249.695 30.9371C250.277 31.5156 250.607 32.2999 250.614 33.1201V181.321C250.614 182.146 250.287 182.937 249.705 183.522C249.122 184.106 248.332 184.436 247.507 184.439ZM142.075 30.139C141.284 30.1404 140.527 30.455 139.968 31.0137C139.41 31.5725 139.095 32.3299 139.094 33.1201V181.321C139.095 182.111 139.41 182.869 139.968 183.427C140.527 183.986 141.284 184.301 142.075 184.302H247.507C248.298 184.301 249.055 183.986 249.614 183.427C250.172 182.869 250.487 182.111 250.488 181.321V33.1201C250.487 32.3299 250.172 31.5725 249.614 31.0137C249.055 30.455 248.298 30.1404 247.507 30.139H142.075Z" fill="#EBEBEB"/>
<path d="M273 208.791H0V208.927H273V208.791Z" fill="#EBEBEB"/>
<path d="M248.79 38.9678H209.888V170.941H248.79V38.9678Z" fill="#FAFAFA"/>
<path d="M249.779 85.6841H201.141V169.79H249.779V85.6841Z" fill="#E0E0E0"/>
<path d="M210.483 73.9336V95.0256H214.321H236.604H240.442V73.9336H210.483Z" fill="#E0E0E0"/>
<path d="M210.483 88.8018H204.259V95.0262H210.483V88.8018Z" fill="#FAFAFA"/>
<path d="M222.544 88.8018H216.32V95.0262H222.544V88.8018Z" fill="#FAFAFA"/>
<path d="M234.606 88.8018H228.381V95.0262H234.606V88.8018Z" fill="#FAFAFA"/>
<path d="M246.672 88.8018H240.442V95.0262H246.672V88.8018Z" fill="#F0F0F0"/>
<path d="M210.483 100.114H204.259V106.344H210.483V100.114Z" fill="#F0F0F0"/>
<path d="M222.544 100.114H216.32V106.344H222.544V100.114Z" fill="#F0F0F0"/>
<path d="M234.606 100.114H228.381V106.344H234.606V100.114Z" fill="#FAFAFA"/>
<path d="M246.672 100.114H240.442V106.344H246.672V100.114Z" fill="#FAFAFA"/>
<path d="M210.483 111.428H204.259V117.652H210.483V111.428Z" fill="#F0F0F0"/>
<path d="M222.544 111.428H216.32V117.652H222.544V111.428Z" fill="#FAFAFA"/>
<path d="M234.606 111.428H228.381V117.652H234.606V111.428Z" fill="#FAFAFA"/>
<path d="M222.544 79.0176H216.32V85.242H222.544V79.0176Z" fill="#FAFAFA"/>
<path d="M234.606 79.0176H228.381V85.242H234.606V79.0176Z" fill="#F0F0F0"/>
<path d="M246.672 111.428H240.442V117.652H246.672V111.428Z" fill="#F0F0F0"/>
<path d="M210.483 122.74H204.259V128.965H210.483V122.74Z" fill="#FAFAFA"/>
<path d="M222.544 122.74H216.32V128.965H222.544V122.74Z" fill="#F0F0F0"/>
<path d="M234.606 122.74H228.381V128.965H234.606V122.74Z" fill="#F0F0F0"/>
<path d="M246.672 122.74H240.442V128.965H246.672V122.74Z" fill="#FAFAFA"/>
<path d="M210.483 134.059H204.259V140.289H210.483V134.059Z" fill="#F0F0F0"/>
<path d="M222.544 134.059H216.32V140.289H222.544V134.059Z" fill="#FAFAFA"/>
<path d="M234.606 134.059H228.381V140.289H234.606V134.059Z" fill="#FAFAFA"/>
<path d="M246.672 134.059H240.442V140.289H246.672V134.059Z" fill="#F0F0F0"/>
<path d="M210.483 145.373H204.259V151.597H210.483V145.373Z" fill="#F0F0F0"/>
<path d="M222.544 145.373H216.32V151.597H222.544V145.373Z" fill="#FAFAFA"/>
<path d="M234.606 145.373H228.381V151.597H234.606V145.373Z" fill="#F0F0F0"/>
<path d="M246.672 145.373H240.442V151.597H246.672V145.373Z" fill="#FAFAFA"/>
<path d="M210.483 156.686H204.259V162.915H210.483V156.686Z" fill="#FAFAFA"/>
<path d="M222.544 156.686H216.32V162.915H222.544V156.686Z" fill="#FAFAFA"/>
<path d="M234.606 156.686H228.381V162.915H234.606V156.686Z" fill="#F0F0F0"/>
<path d="M246.672 156.686H240.442V162.915H246.672V156.686Z" fill="#F0F0F0"/>
<path opacity="0.1" d="M248.714 38.9678H209.811V170.941H248.714V38.9678Z" fill="white"/>
<g opacity="0.3">
<path d="M244.908 38.9678H232.503L218.935 170.941H231.335L244.908 38.9678Z" fill="white"/>
</g>
<path d="M249.118 37.2974H209.56V40.6443H249.118V37.2974Z" fill="#E0E0E0"/>
<path d="M249.118 169.79H209.56V173.137H249.118V169.79Z" fill="#EBEBEB"/>
<path d="M250.652 175.992H207.769V34.0322H250.652V175.992ZM211.04 172.716H247.387V37.3082H211.04V172.716Z" fill="#EBEBEB"/>
<path d="M206.355 38.9678H167.453V170.941H206.355V38.9678Z" fill="#FAFAFA"/>
<path d="M203.412 129.424H170.145V170.248H203.412V129.424Z" fill="#E6E6E6"/>
<path d="M200.519 133.95H192.776H190.647H188.518V138.209H190.647H192.776H200.519V133.95Z" fill="#E6E6E6"/>
<path d="M200.519 142.2H192.776H190.647H188.518V146.459H190.647H192.776H200.519V142.2Z" fill="#FAFAFA"/>
<path d="M200.519 150.45H192.776H190.647H188.518V154.709H190.647H192.776H200.519V150.45Z" fill="#E6E6E6"/>
<path d="M200.519 158.7H192.776H189.489H188.518V162.959H189.489H192.776H200.519V158.7Z" fill="#FAFAFA"/>
<path d="M185.039 133.95H177.303H175.173H173.044V138.209H175.173H177.303H185.039V133.95Z" fill="#FAFAFA"/>
<path d="M185.039 142.2H177.303H174.3H173.044V146.459H174.3H177.303H185.039V142.2Z" fill="#FAFAFA"/>
<path d="M185.039 150.45H177.303H175.173H173.044V154.709H175.173H177.303H185.039V150.45Z" fill="#E6E6E6"/>
<path d="M185.039 158.7H177.303H175.173H173.044V162.959H175.173H177.303H185.039V158.7Z" fill="#FAFAFA"/>
<path opacity="0.1" d="M206.23 38.9678H167.327V170.941H206.23V38.9678Z" fill="white"/>
<g opacity="0.3">
<path d="M202.473 38.9678H190.073L176.5 170.941H188.905L202.473 38.9678Z" fill="white"/>
</g>
<path d="M206.683 37.2974H167.125V40.6443H206.683V37.2974Z" fill="#E0E0E0"/>
<path d="M206.683 169.79H167.125V173.137H206.683V169.79Z" fill="#EBEBEB"/>
<path d="M208.223 175.992H165.34V34.0322H208.223V175.992ZM168.605 172.716H204.952V37.3082H168.605V172.716Z" fill="#EBEBEB"/>
<path d="M104.423 38.9678H65.52V170.941H104.423V38.9678Z" fill="#FAFAFA"/>
<path opacity="0.1" d="M104.346 38.9678H65.4436V170.941H104.346V38.9678Z" fill="white"/>
<g opacity="0.3">
<path d="M100.546 38.9678H88.1408L74.5728 170.941H86.9724L100.546 38.9678Z" fill="white"/>
</g>
<path d="M104.755 37.2974H65.1978V40.6443H104.755V37.2974Z" fill="#E0E0E0"/>
<path d="M104.755 169.79H65.1978V173.137H104.755V169.79Z" fill="#EBEBEB"/>
<path d="M106.29 175.992H63.4067V34.0322H106.29V175.992ZM66.6773 172.716H103.019V37.3082H66.6773V172.716Z" fill="#EBEBEB"/>
<path d="M62.0475 38.9678H23.145V170.941H62.0475V38.9678Z" fill="#FAFAFA"/>
<path d="M56.1834 94.8564H26.0715V120.125H56.1834V94.8564Z" fill="#E6E6E6"/>
<path d="M31.8538 98.0068H27.999V101.862H31.8538V98.0068Z" fill="#FAFAFA"/>
<path d="M39.323 98.0068H35.4683V101.862H39.323V98.0068Z" fill="#FAFAFA"/>
<path d="M46.7923 98.0068H42.9375V101.862H46.7923V98.0068Z" fill="#FAFAFA"/>
<path d="M54.2561 98.0068H50.4014V101.862H54.2561V98.0068Z" fill="#FAFAFA"/>
<path d="M31.8538 105.012H27.999V108.866H31.8538V105.012Z" fill="#FAFAFA"/>
<path d="M39.323 105.012H35.4683V108.866H39.323V105.012Z" fill="#FAFAFA"/>
<path d="M46.7923 105.012H42.9375V108.866H46.7923V105.012Z" fill="#FAFAFA"/>
<path d="M54.2561 105.012H50.4014V108.866H54.2561V105.012Z" fill="#E6E6E6"/>
<path d="M31.8538 112.012H27.999V115.866H31.8538V112.012Z" fill="#E6E6E6"/>
<path d="M39.323 112.012H35.4683V115.866H39.323V112.012Z" fill="#E6E6E6"/>
<path d="M46.7923 112.012H42.9375V115.866H46.7923V112.012Z" fill="#FAFAFA"/>
<path d="M54.2561 112.012H50.4014V115.866H54.2561V112.012Z" fill="#E6E6E6"/>
<path d="M56.1834 119.809H26.0715V145.078H56.1834V119.809Z" fill="#E6E6E6"/>
<path d="M31.8538 122.953H27.999V126.808H31.8538V122.953Z" fill="#FAFAFA"/>
<path d="M39.323 122.953H35.4683V126.808H39.323V122.953Z" fill="#FAFAFA"/>
<path d="M46.7923 122.953H42.9375V126.808H46.7923V122.953Z" fill="#FAFAFA"/>
<path d="M54.2561 122.953H50.4014V126.808H54.2561V122.953Z" fill="#FAFAFA"/>
<path d="M31.8538 129.959H27.999V133.814H31.8538V129.959Z" fill="#FAFAFA"/>
<path d="M39.323 129.959H35.4683V133.814H39.323V129.959Z" fill="#FAFAFA"/>
<path d="M46.7923 129.959H42.9375V133.814H46.7923V129.959Z" fill="#FAFAFA"/>
<path d="M54.2561 129.959H50.4014V133.814H54.2561V129.959Z" fill="#E6E6E6"/>
<path d="M31.8538 136.964H27.999V140.819H31.8538V136.964Z" fill="#E6E6E6"/>
<path d="M39.323 136.964H35.4683V140.819H39.323V136.964Z" fill="#E6E6E6"/>
<path d="M46.7923 136.964H42.9375V140.819H46.7923V136.964Z" fill="#FAFAFA"/>
<path d="M54.2561 136.964H50.4014V140.819H54.2561V136.964Z" fill="#E6E6E6"/>
<path d="M56.1834 144.755H26.0715V170.024H56.1834V144.755Z" fill="#E6E6E6"/>
<path d="M31.8538 147.906H27.999V151.761H31.8538V147.906Z" fill="#FAFAFA"/>
<path d="M39.323 147.906H35.4683V151.761H39.323V147.906Z" fill="#FAFAFA"/>
<path d="M46.7923 147.906H42.9375V151.761H46.7923V147.906Z" fill="#FAFAFA"/>
<path d="M54.2561 147.906H50.4014V151.761H54.2561V147.906Z" fill="#FAFAFA"/>
<path d="M31.8538 154.912H27.999V158.766H31.8538V154.912Z" fill="#FAFAFA"/>
<path d="M39.323 154.912H35.4683V158.766H39.323V154.912Z" fill="#FAFAFA"/>
<path d="M46.7923 154.912H42.9375V158.766H46.7923V154.912Z" fill="#FAFAFA"/>
<path d="M54.2561 154.912H50.4014V158.766H54.2561V154.912Z" fill="#E6E6E6"/>
<path d="M31.8538 161.917H27.999V165.771H31.8538V161.917Z" fill="#E6E6E6"/>
<path d="M39.323 161.917H35.4683V165.771H39.323V161.917Z" fill="#E6E6E6"/>
<path d="M46.7923 161.917H42.9375V165.771H46.7923V161.917Z" fill="#FAFAFA"/>
<path d="M54.2561 161.917H50.4014V165.771H54.2561V161.917Z" fill="#E6E6E6"/>
<path opacity="0.1" d="M61.5343 38.9678H22.6318V170.941H61.5343V38.9678Z" fill="white"/>
<g opacity="0.3">
<path d="M58.1655 38.9678H45.7659L32.1978 170.941H44.5974L58.1655 38.9678Z" fill="white"/>
</g>
<path d="M62.3805 37.2974H22.8228V40.6443H62.3805V37.2974Z" fill="#E0E0E0"/>
<path d="M62.3805 169.79H22.8228V173.137H62.3805V169.79Z" fill="#EBEBEB"/>
<path d="M63.9148 175.992H21.032V34.0322H63.9148V175.992ZM24.3025 172.716H60.6443V37.3082H24.3025V172.716Z" fill="#EBEBEB"/>
<path d="M132.962 193.617L132.525 193.672C132.498 193.448 129.844 171.237 135.321 153.088C140.781 135.07 137.013 123.549 136.959 123.44L137.379 123.298C137.417 123.413 141.201 135.042 135.741 153.213C130.292 171.275 132.935 193.399 132.962 193.617Z" fill="#089024"/>
<path d="M137.756 125.913C136.802 124.777 135.508 123.979 134.065 123.636L134.169 123.205C135.704 123.57 137.081 124.42 138.094 125.629L137.756 125.913Z" fill="#089024"/>
<path d="M139.628 127.751L138.369 128.462L138.586 128.847L139.846 128.136L139.628 127.751Z" fill="#089024"/>
<path d="M137.281 137.991C136.182 135.487 134.148 133.512 131.613 132.487L131.777 132.083C134.418 133.149 136.537 135.204 137.685 137.811L137.281 137.991Z" fill="#089024"/>
<path d="M136.101 151.864H135.659C135.644 150.971 135.432 150.092 135.038 149.291C134.643 148.489 134.076 147.785 133.377 147.229L133.65 146.885C134.4 147.482 135.01 148.239 135.433 149.1C135.857 149.961 136.085 150.905 136.101 151.864Z" fill="#089024"/>
<path d="M135.119 155.414L134.704 155.255C134.931 154.692 135.27 154.182 135.702 153.755C136.134 153.329 136.649 152.996 137.215 152.776L137.368 153.191C136.861 153.387 136.399 153.685 136.012 154.068C135.625 154.45 135.321 154.908 135.119 155.414Z" fill="#089024"/>
<path d="M132.258 177.925L131.919 177.647C132.465 176.997 132.864 174.535 133.082 173.213C133.131 172.897 133.175 172.629 133.213 172.433L133.645 172.515C133.612 172.706 133.568 172.973 133.514 173.284C133.191 175.266 132.826 177.243 132.258 177.925Z" fill="#E0E0E0"/>
<path d="M132.007 184.996C131.699 184.131 131.127 183.384 130.371 182.863C129.616 182.341 128.715 182.071 127.797 182.091V181.649C128.812 181.625 129.809 181.922 130.644 182.499C131.48 183.075 132.111 183.902 132.449 184.859L132.007 184.996Z" fill="#E0E0E0"/>
<path d="M135.376 189.614L132.269 193.09L132.599 193.385L135.706 189.908L135.376 189.614Z" fill="#E0E0E0"/>
<path d="M137.592 166.939C138.296 169.216 133.388 173.557 133.388 173.557C133.388 173.557 126.885 172.743 126.181 170.461C125.476 168.179 127.125 164.455 130.276 163.483C133.426 162.511 136.866 164.663 137.592 166.939Z" fill="#089024"/>
<path d="M143.019 139.29C142.397 141.709 137.745 143.429 137.745 143.429C137.745 143.429 134.502 139.678 135.124 137.259C135.747 134.84 138.318 132.17 140.497 132.733C142.675 133.295 143.642 136.871 143.019 139.29Z" fill="#089024"/>
<path d="M124.362 175.446C127.278 176.587 129.069 181.747 129.069 181.747C129.069 181.747 124.259 184.34 121.338 183.205C118.416 182.069 115.332 178.837 116.161 176.724C116.991 174.611 121.441 174.31 124.362 175.446Z" fill="#F5F5F5"/>
<path d="M130.761 147.038C131.35 147.534 132.026 147.918 132.754 148.168C133.121 148.286 133.513 148.301 133.889 148.212C134.264 148.124 134.608 147.935 134.884 147.666C135.512 146.945 135.342 145.831 134.949 144.963C134.168 143.243 131.291 140.328 129.08 141.141C125.891 142.37 129.336 145.984 130.761 147.038Z" fill="#089024"/>
<path d="M137.292 151.423C136.871 151.941 136.429 152.591 136.658 153.219C136.788 153.485 137.003 153.701 137.269 153.831C137.535 153.962 137.837 154 138.127 153.94C138.704 153.805 139.243 153.542 139.705 153.17C140.83 152.383 143.139 150.745 141.665 149.211C140.191 147.677 138.171 150.325 137.292 151.423Z" fill="#089024"/>
<path d="M127.868 129.582C127.625 129.595 127.392 129.685 127.203 129.838C127.014 129.991 126.878 130.199 126.814 130.434C126.721 130.98 127.185 131.482 127.633 131.826C128.752 132.689 132.11 135.015 132.864 132.771C133.573 130.652 129.353 129.402 127.868 129.582Z" fill="#089024"/>
<path d="M134.065 122.201C133.371 122.266 132.678 122.015 131.985 122.059C131.291 122.103 130.516 122.659 130.674 123.342C130.832 124.024 131.597 124.177 132.236 124.221C133.333 124.286 134.434 124.209 135.512 123.992C135.766 123.969 136.003 123.85 136.172 123.659C136.456 123.244 136.009 122.687 135.528 122.567C135.033 122.503 134.546 122.388 134.076 122.223L134.065 122.201Z" fill="#089024"/>
<path d="M140.868 126.972C141.567 126.972 142.238 126.694 142.937 126.694C143.636 126.694 144.439 127.196 144.33 127.884C144.22 128.572 143.461 128.785 142.823 128.867C141.735 129.011 140.634 129.011 139.547 128.867C139.289 128.861 139.043 128.758 138.859 128.578C138.553 128.179 138.962 127.6 139.405 127.42C139.896 127.325 140.376 127.177 140.835 126.978L140.868 126.972Z" fill="#089024"/>
<path d="M140.153 178.275C140.311 178.11 140.521 178.006 140.748 177.98C140.897 177.997 141.036 178.063 141.142 178.168C141.249 178.273 141.318 178.41 141.338 178.559C141.37 178.856 141.332 179.157 141.228 179.438C140.753 181.016 135.457 192.454 134.234 190.401C133.514 189.184 135.288 185.165 135.812 184.024C136.82 181.813 138.302 179.85 140.153 178.275Z" fill="#F0F0F0"/>
<path d="M136.986 122.632C137.328 121.663 137.912 120.799 138.684 120.12C139.519 119.514 140.868 119.471 141.469 120.306C142.151 121.24 141.469 122.659 140.426 123.156C139.383 123.653 138.165 123.5 137.019 123.342C137.019 123.173 137.019 123.003 136.991 122.834L136.986 122.632Z" fill="#089024"/>
<path d="M140.688 208.872C135.014 209.839 129.217 209.839 123.543 208.872L116.877 189.216H147.36L140.688 208.872Z" fill="#F0F0F0"/>
<path d="M136.822 61.687C143.073 61.687 148.141 56.6195 148.141 50.3684C148.141 44.1173 143.073 39.0498 136.822 39.0498C130.571 39.0498 125.504 44.1173 125.504 50.3684C125.504 56.6195 130.571 61.687 136.822 61.687Z" fill="#E0E0E0"/>
<path d="M147.239 51.713C148.241 45.5427 144.051 39.7287 137.88 38.7271C131.71 37.7255 125.896 41.9156 124.894 48.086C123.893 54.2563 128.083 60.0702 134.253 61.0718C140.423 62.0734 146.237 57.8833 147.239 51.713Z" fill="#EBEBEB"/>
<path opacity="0.8" d="M145.143 49.9697C145.143 51.7666 144.61 53.5232 143.612 55.0173C142.614 56.5114 141.195 57.6759 139.535 58.3636C137.875 59.0512 136.048 59.2311 134.285 58.8806C132.523 58.53 130.904 57.6647 129.633 56.3941C128.363 55.1235 127.498 53.5046 127.147 51.7422C126.796 49.9798 126.976 48.153 127.664 46.4929C128.352 44.8327 129.516 43.4138 131.01 42.4155C132.504 41.4171 134.261 40.8843 136.058 40.8843C138.467 40.8843 140.778 41.8415 142.482 43.5453C144.186 45.2492 145.143 47.5601 145.143 49.9697Z" fill="white"/>
<path d="M135.566 50.8269C135.395 50.6536 135.298 50.4193 135.299 50.1752C135.299 49.9311 135.397 49.6972 135.569 49.5247C135.742 49.3521 135.976 49.2549 136.22 49.2544C136.464 49.2539 136.698 49.3501 136.871 49.5219C136.958 49.6075 137.026 49.7092 137.073 49.8213C137.12 49.9334 137.144 50.0537 137.144 50.1752C137.145 50.2967 137.121 50.4171 137.074 50.5294C137.028 50.6417 136.96 50.7437 136.874 50.8296C136.788 50.9155 136.686 50.9836 136.574 51.03C136.461 51.0764 136.341 51.1001 136.22 51.0999C136.098 51.0996 135.978 51.0754 135.866 51.0285C135.754 50.9817 135.652 50.9131 135.566 50.8269Z" fill="#E0E0E0"/>
<path d="M136.058 49.8611L141.419 49.6973L141.436 50.2542L136.576 50.4016L136.052 58.8537L135.501 58.8209L136.058 49.8611Z" fill="#E0E0E0"/>
<path d="M136.5 233.148C194.967 233.148 242.364 230.38 242.364 226.967C242.364 223.553 194.967 220.786 136.5 220.786C78.0331 220.786 30.6362 223.553 30.6362 226.967C30.6362 230.38 78.0331 233.148 136.5 233.148Z" fill="#F5F5F5"/>
<path d="M234.971 198.149L237.745 153.999C237.989 150.116 237.435 146.225 236.116 142.564C234.798 138.904 232.744 135.553 230.081 132.717C227.417 129.881 224.201 127.621 220.63 126.076C217.06 124.531 213.211 123.734 209.32 123.734C202.045 123.735 195.047 126.52 189.76 131.517C184.474 136.515 181.3 143.345 180.89 150.608L177.996 202.173H230.685C231.777 202.172 232.828 201.756 233.624 201.008C234.42 200.261 234.902 199.239 234.971 198.149Z" fill="#FF4D00"/>
<path opacity="0.1" d="M235.069 196.561L237.745 154.011C237.989 150.128 237.435 146.236 236.116 142.576C234.798 138.916 232.744 135.564 230.081 132.728C227.417 129.893 224.201 127.633 220.63 126.088C217.06 124.543 213.211 123.746 209.32 123.746C202.045 123.747 195.047 126.532 189.76 131.529C184.474 136.526 181.3 143.357 180.89 150.62L177.996 202.174H229.096C230.618 202.168 232.08 201.586 233.189 200.544C234.298 199.503 234.97 198.079 235.069 196.561Z" fill="black"/>
<path d="M226.42 202.173L229.445 153.999C229.688 150.117 229.134 146.225 227.815 142.565C226.497 138.905 224.443 135.554 221.779 132.718C219.116 129.883 215.9 127.623 212.33 126.078C208.76 124.532 204.911 123.735 201.021 123.734C193.746 123.734 186.746 126.518 181.459 131.516C176.173 136.513 172.999 143.345 172.59 150.608L169.68 202.173H226.42Z" fill="#FF4D00"/>
<path d="M227.327 210.466H228.053C228.249 210.456 228.435 210.376 228.577 210.241C228.719 210.106 228.808 209.924 228.829 209.729L229.921 202.178H225.498L226.59 209.729C226.61 209.918 226.694 210.094 226.828 210.228C226.963 210.362 227.139 210.446 227.327 210.466Z" fill="#FF4D00"/>
<path opacity="0.7" d="M227.327 210.466H228.053C228.249 210.456 228.435 210.376 228.577 210.241C228.719 210.106 228.808 209.924 228.829 209.729L229.921 202.178H225.498L226.59 209.729C226.61 209.918 226.694 210.094 226.828 210.228C226.963 210.362 227.139 210.446 227.327 210.466Z" fill="white"/>
<path d="M155.992 210.466H156.647C156.833 210.447 157.006 210.363 157.135 210.228C157.264 210.093 157.341 209.916 157.352 209.729L158.34 202.178H154.322L155.299 209.729C155.309 209.914 155.384 210.09 155.511 210.224C155.638 210.359 155.808 210.445 155.992 210.466Z" fill="#FF4D00"/>
<path opacity="0.5" d="M155.992 210.466H156.647C156.833 210.447 157.006 210.363 157.135 210.228C157.264 210.093 157.341 209.916 157.352 209.729L158.34 202.178H154.322L155.299 209.729C155.309 209.914 155.384 210.09 155.511 210.224C155.638 210.359 155.808 210.445 155.992 210.466Z" fill="white"/>
<path d="M176.527 210.466H177.188C177.374 210.447 177.546 210.363 177.676 210.228C177.805 210.093 177.881 209.916 177.892 209.729L178.864 202.178H174.851L175.812 209.729C175.823 209.918 175.901 210.096 176.032 210.231C176.164 210.366 176.339 210.45 176.527 210.466Z" fill="#FF4D00"/>
<path opacity="0.7" d="M176.527 210.466H177.188C177.374 210.447 177.546 210.363 177.676 210.228C177.805 210.093 177.881 209.916 177.892 209.729L178.864 202.178H174.851L175.812 209.729C175.823 209.918 175.901 210.096 176.032 210.231C176.164 210.366 176.339 210.45 176.527 210.466Z" fill="white"/>
<path d="M205.214 210.466H205.941C206.137 210.455 206.322 210.375 206.465 210.24C206.608 210.105 206.699 209.924 206.721 209.729L207.813 202.178H203.385L204.477 209.729C204.496 209.918 204.58 210.095 204.715 210.229C204.849 210.364 205.025 210.447 205.214 210.466Z" fill="#FF4D00"/>
<path opacity="0.5" d="M205.214 210.466H205.941C206.137 210.455 206.322 210.375 206.465 210.24C206.608 210.105 206.699 209.924 206.721 209.729L207.813 202.178H203.385L204.477 209.729C204.496 209.918 204.58 210.095 204.715 210.229C204.849 210.364 205.025 210.447 205.214 210.466Z" fill="white"/>
<path d="M181.174 184.002H161.758L160.475 165.285L160.196 161.267L160.071 159.416C160.036 158.93 159.972 158.447 159.88 157.969C159.88 157.865 159.836 157.75 159.814 157.647C159.802 157.568 159.782 157.491 159.754 157.417C159.231 155.51 158.212 153.775 156.8 152.389C155.172 150.78 153.018 149.811 150.734 149.659H168.998C169.194 149.659 169.396 149.659 169.598 149.659C172.075 149.67 174.448 150.65 176.21 152.389C177.624 153.774 178.645 155.509 179.17 157.417C179.198 157.491 179.218 157.568 179.23 157.647C179.358 158.229 179.444 158.821 179.486 159.416L179.612 161.267L181.174 184.002Z" fill="#FF4D00"/>
<path opacity="0.1" d="M181.174 184.002H161.758L160.475 165.285L160.196 161.267L160.071 159.416C160.036 158.93 159.972 158.447 159.88 157.969C159.88 157.865 159.836 157.75 159.814 157.647C159.802 157.568 159.782 157.491 159.754 157.417C159.231 155.51 158.212 153.775 156.8 152.389C155.172 150.78 153.018 149.811 150.734 149.659H168.998C169.194 149.659 169.396 149.659 169.598 149.659C172.075 149.67 174.448 150.65 176.21 152.389C177.624 153.774 178.645 155.509 179.17 157.417C179.198 157.491 179.218 157.568 179.23 157.647C179.358 158.229 179.444 158.821 179.486 159.416L179.612 161.267L181.174 184.002Z" fill="black"/>
<g opacity="0.1">
<path d="M196.56 174.01H204.357C206.257 174.01 207.792 175.211 207.792 176.691V181.299C207.792 182.784 206.257 183.98 204.357 183.98H196.56V174.01Z" fill="black"/>
</g>
<path d="M164.723 183.98H199.066C200.701 183.98 202.026 182.656 202.026 181.021V176.964C202.026 175.33 200.701 174.005 199.066 174.005H164.723C163.089 174.005 161.764 175.33 161.764 176.964V181.021C161.764 182.656 163.089 183.98 164.723 183.98Z" fill="#FF4D00"/>
<path d="M245.7 160.671C245.704 163.282 244.786 165.81 243.106 167.809C241.426 169.807 239.094 171.147 236.522 171.591L234.529 198.198C234.354 200.459 232.711 202.189 230.745 202.189H209.331C211.296 202.189 212.934 200.459 213.109 198.198L214.201 184.002L215.124 171.575C216.807 171.286 218.4 170.61 219.776 169.6C221.153 168.59 222.276 167.273 223.057 165.755C223.165 165.562 223.261 165.363 223.347 165.16C223.978 163.748 224.301 162.218 224.297 160.671C224.296 159.914 224.219 159.159 224.067 158.417C224.007 158.122 223.931 157.827 223.849 157.537C223.46 156.237 222.839 155.018 222.014 153.939C220.981 152.594 219.653 151.503 218.131 150.751C216.61 150 214.937 149.607 213.24 149.604H234.654C236.371 149.598 238.064 149.998 239.596 150.773C241.093 151.518 242.4 152.595 243.418 153.923C244.904 155.858 245.706 158.232 245.7 160.671Z" fill="#FF4D00"/>
<path opacity="0.1" d="M245.7 160.671C245.704 163.282 244.786 165.81 243.106 167.809C241.426 169.807 239.094 171.147 236.522 171.591L234.529 198.198C234.354 200.459 232.711 202.189 230.745 202.189H209.331C211.296 202.189 212.934 200.459 213.109 198.198L214.201 184.002L215.124 171.575C216.807 171.286 218.4 170.61 219.776 169.6C221.153 168.59 222.276 167.273 223.057 165.755C223.165 165.562 223.261 165.363 223.347 165.16C223.978 163.748 224.301 162.218 224.297 160.671C224.296 159.914 224.219 159.159 224.067 158.417C224.007 158.122 223.931 157.827 223.849 157.537C223.46 156.237 222.839 155.018 222.014 153.939C220.981 152.594 219.653 151.503 218.131 150.751C216.61 150 214.937 149.607 213.24 149.604H234.654C236.371 149.598 238.064 149.998 239.596 150.773C241.093 151.518 242.4 152.595 243.418 153.923C244.904 155.858 245.706 158.232 245.7 160.671Z" fill="black"/>
<path d="M224.302 160.677C224.302 166.137 220.704 170.685 215.981 171.597L214.158 198.198C213.999 200.459 212.52 202.195 210.729 202.195H153.541C151.761 202.195 150.265 200.459 150.112 198.198L148.283 171.548C143.653 170.576 140.153 166.088 140.153 160.693C140.142 158.428 140.784 156.209 142.004 154.3C142.926 152.844 144.196 151.641 145.7 150.8C147.069 150.03 148.613 149.626 150.183 149.626C152.66 149.641 155.033 150.62 156.8 152.356C158.212 153.74 159.231 155.473 159.754 157.379C159.782 157.457 159.803 157.537 159.814 157.619C159.943 158.2 160.029 158.79 160.071 159.383L160.202 161.234L161.758 184.002H202.511L204.199 159.432C204.439 155.96 206.131 153.066 208.479 151.695C209.963 150.508 211.775 149.805 213.672 149.681C213.871 149.66 214.072 149.651 214.272 149.653C215.797 149.645 217.299 150.02 218.64 150.745C218.682 150.764 218.722 150.786 218.76 150.811C220.145 151.58 221.333 152.658 222.233 153.961C223.588 155.938 224.31 158.28 224.302 160.677Z" fill="#FF4D00"/>
<path opacity="0.1" d="M201.567 202.178H153.519C151.739 202.178 150.243 200.442 150.09 198.182L148.261 171.531C143.631 170.559 140.131 166.071 140.131 160.677C140.12 158.412 140.763 156.192 141.982 154.283C142.904 152.828 144.175 151.625 145.678 150.783C147.047 150.014 148.591 149.609 150.161 149.609C152.638 149.624 155.012 150.603 156.779 152.339C158.19 153.723 159.209 155.457 159.732 157.363C159.761 157.44 159.781 157.521 159.792 157.603C159.922 158.184 160.007 158.773 160.049 159.366L160.18 161.217L161.758 184.002H202.511L201.567 202.178Z" fill="white"/>
<path d="M195.337 126.519C194.387 127.065 193.519 127.518 192.607 127.982C191.695 128.446 190.8 128.872 189.877 129.298C188.042 130.134 186.186 130.936 184.275 131.63C182.349 132.346 180.388 132.966 178.4 133.486C176.332 134.042 174.22 134.42 172.088 134.616L171.635 134.66H171.422C169.495 134.436 167.786 134.114 166.071 133.732C164.357 133.35 162.659 132.973 160.977 132.541C159.295 132.11 157.625 131.668 155.954 131.187C154.283 130.707 152.629 130.21 150.974 129.648L151.733 125.858C155.168 126.077 158.597 126.404 161.993 126.759L167.065 127.267C168.736 127.431 170.445 127.573 171.941 127.627H171.28C172.994 127.322 174.683 126.895 176.336 126.35C178.045 125.804 179.754 125.181 181.463 124.45C183.172 123.718 184.865 122.965 186.546 122.162C187.409 121.769 188.244 121.354 189.063 120.944C189.882 120.535 190.756 120.098 191.504 119.71L195.337 126.519Z" fill="#263238"/>
<path opacity="0.1" d="M195.337 126.519C194.387 127.065 193.519 127.518 192.607 127.982C191.695 128.446 190.8 128.872 189.877 129.298C188.042 130.134 186.186 130.936 184.275 131.63C182.349 132.346 180.388 132.966 178.4 133.486C176.332 134.042 174.22 134.42 172.088 134.616L171.635 134.66H171.422C169.495 134.436 167.786 134.114 166.071 133.732C164.357 133.35 162.659 132.973 160.977 132.541C159.295 132.11 157.625 131.668 155.954 131.187C154.283 130.707 152.629 130.21 150.974 129.648L151.733 125.858C155.168 126.077 158.597 126.404 161.993 126.759L167.065 127.267C168.736 127.431 170.445 127.573 171.941 127.627H171.28C172.994 127.322 174.683 126.895 176.336 126.35C178.045 125.804 179.754 125.181 181.463 124.45C183.172 123.718 184.865 122.965 186.546 122.162C187.409 121.769 188.244 121.354 189.063 120.944C189.882 120.535 190.756 120.098 191.504 119.71L195.337 126.519Z" fill="black"/>
<path d="M151.04 123.778C150.233 123.212 149.341 122.777 148.397 122.49L146.983 128.01L151.22 129.79L151.701 129.2C152.026 128.806 152.269 128.35 152.412 127.86C152.556 127.369 152.598 126.854 152.536 126.347C152.474 125.84 152.31 125.35 152.053 124.909C151.795 124.467 151.451 124.082 151.04 123.778Z" fill="#FFC3BD"/>
<path d="M146.983 128.01L148.397 122.49L144.444 120.333L143.254 124.221L146.983 128.01Z" fill="#FFC3BD"/>
<path opacity="0.2" d="M182.042 132.132H182.195H182.26C184.346 131.909 190.477 130.877 194.911 126.503C194.25 125.225 193.344 124.237 192.236 124.013C189.178 123.435 185.432 125.624 182.042 132.132Z" fill="black"/>
<path d="M185.64 160.672C190.871 146.547 187.431 133.557 188.086 126.367C188.247 124.594 188.981 122.922 190.177 121.604C191.373 120.286 192.966 119.393 194.714 119.061C198.285 118.373 202.702 117.598 206.912 117.03C208.088 116.868 209.286 116.962 210.423 117.306C211.559 117.649 212.608 118.235 213.497 119.022C214.386 119.81 215.094 120.78 215.573 121.867C216.051 122.954 216.29 124.131 216.27 125.318C215.905 146.612 209.08 160.672 209.08 160.672L198.05 160.623L185.64 160.672Z" fill="#FF4D00"/>
<path opacity="0.8" d="M185.64 160.672C190.871 146.547 187.431 133.557 188.086 126.367C188.247 124.594 188.981 122.922 190.177 121.604C191.373 120.286 192.966 119.393 194.714 119.061C198.285 118.373 202.702 117.598 206.912 117.03C208.088 116.868 209.286 116.962 210.423 117.306C211.559 117.649 212.608 118.235 213.497 119.022C214.386 119.81 215.094 120.78 215.573 121.867C216.051 122.954 216.29 124.131 216.27 125.318C215.905 146.612 209.08 160.672 209.08 160.672L198.05 160.623L185.64 160.672Z" fill="white"/>
<path d="M143.794 208.867L142.397 218.056H146.836L149.751 208.867H143.794Z" fill="#FFC3BD"/>
<path d="M141.829 216.008L147.764 215.866C147.81 215.861 147.857 215.866 147.902 215.88C147.946 215.894 147.987 215.917 148.022 215.948C148.057 215.978 148.086 216.016 148.105 216.059C148.124 216.101 148.135 216.147 148.135 216.194V220.562C148.109 220.804 147.995 221.028 147.815 221.192C147.635 221.356 147.401 221.448 147.158 221.452C145.094 221.452 144.111 221.376 141.501 221.452C138.723 221.443 135.947 221.261 133.191 220.906C131.078 220.546 131.651 218.564 132.607 218.531C136.92 218.373 139.334 217.472 140.884 216.347C141.154 216.135 141.486 216.017 141.829 216.008Z" fill="#263238"/>
<path opacity="0.2" d="M143.232 212.553L143.795 208.867H149.751L148.321 213.464L143.232 212.553Z" fill="black"/>
<path d="M182.91 157.363C182.91 157.363 146.792 157.723 146.23 169.162C145.433 185.607 142.654 210.658 142.654 210.658L149.462 212.53C149.462 212.53 159.181 187.671 159.558 174.824C169.719 172.804 195.834 174.824 198.902 168.152C200.402 164.756 200.807 160.977 200.06 157.341L182.91 157.363Z" fill="#FF4D00"/>
<path opacity="0.6" d="M182.91 157.363C182.91 157.363 146.792 157.723 146.23 169.162C145.433 185.607 142.654 210.658 142.654 210.658L149.462 212.53C149.462 212.53 159.181 187.671 159.558 174.824C169.719 172.804 195.834 174.824 198.902 168.152C200.402 164.756 200.807 160.977 200.06 157.341L182.91 157.363Z" fill="black"/>
<path d="M175.572 212.421L177.98 218.657H182.85L181.174 212.099L175.572 212.421Z" fill="#FFC3BD"/>
<path opacity="0.2" d="M181.627 213.868L180.682 209.069L174.529 209.833L176.107 214.005L181.627 213.868Z" fill="black"/>
<path d="M176.658 216.593H182.877C182.978 216.585 183.077 216.618 183.154 216.683C183.23 216.749 183.278 216.842 183.287 216.942L183.587 221.6C183.581 221.852 183.477 222.091 183.296 222.267C183.115 222.443 182.872 222.54 182.62 222.539C180.436 222.501 179.421 222.38 176.685 222.38C175.009 222.38 171.613 222.544 169.293 222.544C166.972 222.544 167.038 220.36 168.015 220.191C172.437 219.306 174.146 218.089 175.703 216.915C175.979 216.71 176.314 216.597 176.658 216.593Z" fill="#263238"/>
<path d="M192.623 157.363C192.623 157.363 159.863 159.585 160.671 171.013C161.55 183.527 174.671 212.547 174.671 212.547H181.272C181.272 212.547 176.904 186.219 174.895 173.464C184.133 173.464 205.541 174.857 208.621 168.168C210.114 164.771 210.515 160.993 209.768 157.357L192.623 157.363Z" fill="#FF4D00"/>
<path opacity="0.5" d="M192.623 157.363C192.623 157.363 159.863 159.585 160.671 171.013C161.55 183.527 174.671 212.547 174.671 212.547H181.272C181.272 212.547 176.904 186.219 174.895 173.464C184.133 173.464 205.541 174.857 208.621 168.168C210.114 164.771 210.515 160.993 209.768 157.357L192.623 157.363Z" fill="black"/>
<path d="M197.587 111.068C198.34 113.983 198.575 117.62 194.502 119.121C193.371 120.923 192.82 122.823 197.172 122.146C200.636 121.698 203.788 119.915 205.957 117.177C203.352 114.895 203.827 107.895 204.488 103.948L197.587 111.068Z" fill="#FFC3BD"/>
<path d="M197.106 116.375C193.366 117.014 190.292 119.908 188.643 123.32C186.994 126.733 186.596 130.62 186.628 134.415C186.661 138.21 187.092 141.988 186.989 145.777C186.874 150.145 185.82 153.241 184.313 157.358C184.313 158.335 185.793 158.887 187.043 159.143C189.653 153.448 191.368 147.999 191.187 141.742C191.051 137.199 190.991 132.023 191.733 127.546C192.476 123.069 197.832 117.221 197.576 116.413L197.106 116.375Z" fill="#263238"/>
<path opacity="0.3" d="M200.764 113.208C200.372 113.499 199.925 113.708 199.451 113.823C198.976 113.937 198.483 113.955 198.002 113.874C198.01 113.165 197.959 112.456 197.849 111.756L202.37 108.043C202.468 108.525 202.532 109.015 202.561 109.506C202.609 110.226 202.469 110.947 202.154 111.596C201.839 112.245 201.36 112.801 200.764 113.208Z" fill="black"/>
<path d="M194.005 93.8246C189.227 96.5273 189.178 104.166 190.652 108.567C191.024 109.721 191.707 110.752 192.624 111.545C193.542 112.338 194.661 112.864 195.857 113.064C197.053 113.265 198.282 113.133 199.408 112.682C200.535 112.232 201.516 111.481 202.244 110.51C204.581 107.556 204.242 104.575 204.128 99.4429C204.013 94.3105 198.788 91.1273 194.005 93.8246Z" fill="#FFC3BD"/>
<path opacity="0.2" d="M195.545 107.562C194.005 108.223 192.318 109.08 190.762 108.895C191.18 110.001 191.888 110.975 192.812 111.715C193.735 112.455 194.84 112.933 196.011 113.1C197.182 113.268 198.377 113.118 199.47 112.666C200.564 112.214 201.516 111.478 202.228 110.533C204.155 108.108 204.75 106.47 204.204 102.059C201.212 105.564 198.837 106.143 195.545 107.562Z" fill="black"/>
<path d="M200.164 95.5499C199.668 96.3559 199.447 97.3012 199.534 98.2436C199.622 99.1859 200.013 100.074 200.65 100.775C201.081 101.228 201.61 101.578 202.025 102.042C202.673 102.77 203.01 103.722 202.965 104.695C203.062 104.069 203.374 103.496 203.847 103.075C204.32 102.654 204.925 102.41 205.558 102.386C204.91 104.391 204.262 106.393 203.614 108.392C204.897 107.794 206.005 106.878 206.835 105.731C207.664 104.584 208.187 103.245 208.354 101.84C208.769 97.9632 203.986 89.6585 200.164 95.5499Z" fill="#263238"/>
<path d="M189.014 95.8178C188.649 96.2237 188.388 96.713 188.255 97.2428C188.191 97.5053 188.209 97.781 188.307 98.0329C188.405 98.2848 188.577 98.5007 188.801 98.6515C189.215 98.8181 189.672 98.8412 190.101 98.717L194.469 97.9581C196.969 97.5213 199.47 97.0899 201.938 96.4948C203.03 96.2327 204.291 95.8123 204.728 94.764C206.142 91.3515 200.103 90.9092 198.083 91.002C194.643 91.1822 191.165 93.1587 189.014 95.8178Z" fill="#263238"/>
<path d="M204.903 101.513C203.472 101.835 202.861 103.894 202.899 105.215C202.899 106.716 203.991 107.694 205.258 106.787C206.198 106.088 206.838 105.058 207.049 103.904C207.305 102.49 206.339 101.191 204.903 101.513Z" fill="#FFC3BD"/>
<path d="M194.796 106.727C194.579 106.871 194.334 106.966 194.076 107.005C193.818 107.043 193.555 107.025 193.306 106.951C193.852 105.717 193.786 105.995 193.955 103.898L194.796 106.727Z" fill="#ED847E"/>
<path d="M197.313 99.918C196.904 99.4594 195.785 99.2847 195.179 99.372C195.117 99.38 195.055 99.364 195.005 99.3274C194.955 99.2908 194.922 99.2364 194.911 99.1755C194.903 99.11 194.92 99.0438 194.958 98.9901C194.996 98.9365 195.054 98.8993 195.118 98.8861C195.883 98.7714 197.155 99.0007 197.674 99.574C197.719 99.62 197.744 99.6817 197.744 99.746C197.744 99.8103 197.719 99.8721 197.674 99.918C197.643 99.9497 197.606 99.974 197.565 99.989C197.52 100.003 197.473 100.003 197.428 99.9906C197.384 99.978 197.344 99.9528 197.313 99.918Z" fill="#263238"/>
<path d="M190.248 100.939C190.197 100.903 190.161 100.849 190.149 100.788C190.137 100.727 190.149 100.664 190.183 100.611C190.374 100.267 190.643 99.9715 190.968 99.7488C191.293 99.5261 191.665 99.3821 192.055 99.3282C192.085 99.3275 192.115 99.3327 192.143 99.3436C192.171 99.3546 192.196 99.3709 192.217 99.3918C192.239 99.4127 192.256 99.4376 192.267 99.4651C192.279 99.4926 192.285 99.5222 192.285 99.5521C192.288 99.6184 192.265 99.6833 192.221 99.7331C192.178 99.783 192.116 99.814 192.05 99.8196C191.742 99.8688 191.45 99.9872 191.194 100.166C190.939 100.345 190.727 100.579 190.576 100.852C190.556 100.887 190.528 100.917 190.493 100.939C190.459 100.961 190.42 100.974 190.379 100.977C190.332 100.981 190.286 100.967 190.248 100.939Z" fill="#263238"/>
<path d="M194.376 108.949C194.901 109.617 195.384 110.317 195.823 111.045L196.162 110.903C197.701 110.237 198.138 109.309 198.16 108.485C198.141 107.829 197.939 107.191 197.576 106.645C197.03 107.589 195.648 108.343 194.895 108.708C194.573 108.867 194.376 108.949 194.376 108.949Z" fill="#2E353A"/>
<path d="M194.884 108.708L195.108 109.014C195.169 109.096 195.256 109.155 195.355 109.182C195.454 109.209 195.559 109.202 195.654 109.162C196.789 108.616 197.543 108.07 197.838 107.453C197.865 107.394 197.879 107.331 197.879 107.267C197.879 107.203 197.865 107.14 197.838 107.081C197.765 106.93 197.681 106.784 197.586 106.645C197.013 107.589 195.637 108.343 194.884 108.708Z" fill="white"/>
<path d="M196.15 110.904C197.69 110.238 198.127 109.309 198.149 108.485C197.564 108.755 197.044 109.148 196.625 109.637C196.337 109.998 196.171 110.442 196.15 110.904Z" fill="#DE5753"/>
<path d="M192.001 102.648C191.733 102.697 191.586 103.079 191.662 103.489C191.739 103.898 192.028 104.193 192.296 104.139C192.563 104.084 192.711 103.713 192.634 103.303C192.558 102.894 192.268 102.648 192.001 102.648Z" fill="#263238"/>
<path d="M196.686 101.895C196.418 101.944 196.271 102.321 196.347 102.736C196.424 103.151 196.713 103.44 196.981 103.386C197.248 103.331 197.396 102.954 197.319 102.545C197.243 102.135 196.953 101.846 196.686 101.895Z" fill="#263238"/>
<path opacity="0.9" d="M189.937 104.865L193.382 104.09L193.442 105.553L190.237 106.318L189.937 104.865Z" fill="white"/>
<g opacity="0.8">
<path opacity="0.9" d="M194.431 103.86L194.84 105.203L199.263 104.253L199.001 102.703L194.431 103.86Z" fill="white"/>
</g>
<path d="M193.404 104.63L193.382 104.089L194.43 103.86L194.583 104.368L193.404 104.63Z" fill="#263238"/>
<path d="M192.148 160.043C192.148 160.043 198.367 162.451 199.792 162.921C201.43 163.562 203.154 163.958 204.908 164.095C205.797 164.154 206.689 164.024 207.524 163.712C208.359 163.401 209.118 162.915 209.751 162.287C211.236 160.704 211.7 158.302 212.088 156.047C213.224 149.425 214.363 142.804 215.506 136.183C216.052 132.907 217.488 127.993 217.368 126.142C217.144 122.702 214.955 118.64 209.38 116.407C207.196 115.539 205.072 115.861 203.248 118.045C202.156 119.344 198.979 122.478 198.198 127.999C197.575 132.421 196.604 138.149 196.664 142.642C196.735 148.55 194.376 155.997 192.148 160.043Z" fill="#263238"/>
<path d="M217.062 124.324C217.696 130.079 214.513 144.587 213.901 145.46C211.291 153.874 204.122 149.337 203.085 148.949C201.277 148.283 199.437 146.978 197.718 146.11C194.382 144.472 191.22 143.118 188.119 141.059L189.866 137.609C193.268 138.766 202.894 141.256 204.483 141.644C205.17 141.824 207.851 143.227 207.824 141.376C208.201 140.759 208.725 128.742 209.877 124.494C210.008 124.017 210.237 123.573 210.549 123.189L210.652 123.058C211.073 122.531 211.63 122.129 212.263 121.897C212.896 121.665 213.581 121.612 214.242 121.743C214.904 121.873 215.517 122.183 216.014 122.639C216.511 123.094 216.874 123.677 217.062 124.324Z" fill="#263238"/>
<path opacity="0.1" d="M217.062 124.324C217.696 130.079 214.513 144.587 213.901 145.46C211.291 153.874 204.122 149.337 203.085 148.949C201.277 148.283 199.437 146.978 197.718 146.11C194.382 144.472 191.22 143.118 188.119 141.059L189.866 137.609C193.268 138.766 202.894 141.256 204.483 141.644C205.17 141.824 207.851 143.227 207.824 141.376C208.201 140.759 208.725 128.742 209.877 124.494C210.008 124.017 210.237 123.573 210.549 123.189L210.652 123.058C211.073 122.531 211.63 122.129 212.263 121.897C212.896 121.665 213.581 121.612 214.242 121.743C214.904 121.873 215.517 122.183 216.014 122.639C216.511 123.094 216.874 123.677 217.062 124.324Z" fill="white"/>
<path d="M188.501 146.055H172.339L170.494 124.969H186.655L188.501 146.055Z" fill="#263238"/>
<path opacity="0.5" d="M188.501 146.055H172.339L170.494 124.969H186.655L188.501 146.055Z" fill="white"/>
<path d="M187.928 145.951H171.766L169.921 124.865H186.082L187.928 145.951Z" fill="#FF4D00"/>
<path opacity="0.8" d="M187.928 145.951H171.766L169.921 124.865H186.082L187.928 145.951Z" fill="white"/>
<path d="M181.518 126.181H174.72L174.49 123.543H181.283L181.518 126.181Z" fill="#FF4D00"/>
<path d="M174.49 123.544L175.157 123.314H182.195L182.293 124.434L181.769 125.04L181.736 125.957L181.518 126.181L181.283 123.544H174.49Z" fill="#FF4D00"/>
<path opacity="0.5" d="M174.49 123.544L175.157 123.314H182.195L182.293 124.434L181.769 125.04L181.736 125.957L181.518 126.181L181.283 123.544H174.49Z" fill="black"/>
<path d="M191.154 138.749L191.52 140.72C190.647 142.997 185.64 142.397 185.64 142.397V136.571L190.057 137.597C190.331 137.664 190.58 137.808 190.775 138.013C190.969 138.217 191.101 138.472 191.154 138.749Z" fill="#FFC3BD"/>
<path d="M185.629 136.571L185.651 142.408L181.217 142.517L180.202 137.384L185.629 136.571Z" fill="#FFC3BD"/>
<path d="M202.511 184.002L204.198 159.432C204.439 155.96 206.131 153.066 208.479 151.696C209.963 150.508 211.775 149.805 213.671 149.681C213.871 149.661 214.072 149.652 214.272 149.654C215.797 149.645 217.299 150.021 218.64 150.746C218.682 150.764 218.722 150.786 218.76 150.811C220.145 151.58 221.333 152.658 222.233 153.962C223.594 155.944 224.318 158.294 224.308 160.699C224.308 166.159 220.709 170.707 215.986 171.619L214.157 198.198C213.999 200.459 212.519 202.195 210.729 202.195H201.567L202.511 184.002Z" fill="#FF4D00"/>
<path opacity="0.1" d="M202.511 184.002L204.198 159.432C204.439 155.96 206.131 153.066 208.479 151.696C209.963 150.508 211.775 149.805 213.671 149.681C213.871 149.661 214.072 149.652 214.272 149.654C215.797 149.645 217.299 150.021 218.64 150.746C218.682 150.764 218.722 150.786 218.76 150.811C220.145 151.58 221.333 152.658 222.233 153.962C223.594 155.944 224.318 158.294 224.308 160.699C224.308 166.159 220.709 170.707 215.986 171.619L214.157 198.198C213.999 200.459 212.519 202.195 210.729 202.195H201.567L202.511 184.002Z" fill="white"/>
<path d="M119.192 69.67V92.4982C119.192 93.0775 118.962 93.633 118.552 94.0425C118.142 94.4521 117.587 94.6822 117.008 94.6822H93.628L85.2742 101.141C85.0372 101.32 84.7549 101.43 84.4591 101.457C84.1634 101.484 83.8659 101.428 83.6002 101.295C83.3346 101.162 83.1113 100.958 82.9556 100.705C82.7999 100.452 82.7179 100.161 82.7189 99.8638V94.6822H81.414C80.8347 94.6822 80.2792 94.4521 79.8697 94.0425C79.4601 93.633 79.23 93.0775 79.23 92.4982V69.6645C79.2314 69.3801 79.2892 69.0989 79.4 68.837C79.5108 68.5751 79.6724 68.3378 79.8755 68.1387C80.0786 67.9397 80.3191 67.7829 80.5832 67.6774C80.8473 67.5719 81.1296 67.5198 81.414 67.5242H117.046C117.615 67.5242 118.161 67.7502 118.563 68.1527C118.966 68.5551 119.192 69.1009 119.192 69.67Z" stroke="#407BFF" stroke-width="0.546" stroke-miterlimit="10"/>
<path d="M97.2972 64.3081H92.8364V64.8541H97.2972V64.3081Z" fill="#407BFF"/>
<path d="M76.44 70.7401H75.894V68.0483C75.8955 67.0544 76.2913 66.1017 76.9946 65.3995C77.6979 64.6972 78.6512 64.3027 79.6451 64.3027H89.5986V64.8487H79.6341C78.7855 64.8502 77.972 65.1876 77.3714 65.7871C76.7708 66.3867 76.432 67.1997 76.4291 68.0483L76.44 70.7401Z" fill="#407BFF"/>
<path d="M107.982 84.2475C107.745 84.2489 107.51 84.2012 107.292 84.1074C107.074 84.0135 106.878 83.8756 106.716 83.7023C106.554 83.5289 106.429 83.3239 106.35 83.1002C106.271 82.8764 106.24 82.6387 106.257 82.4021C106.841 75.7463 112.115 75.1348 112.776 67.5672C112.967 65.3832 112.17 64.5642 110.647 64.5642C109.123 64.5642 108.184 65.3887 107.993 67.5672L107.884 68.8121C107.835 69.3745 107.576 69.898 107.16 70.2792C106.743 70.6603 106.199 70.8713 105.634 70.8705C105.322 70.8702 105.013 70.805 104.727 70.6789C104.441 70.5528 104.184 70.3686 103.973 70.1381C103.762 69.9076 103.602 69.6358 103.501 69.3398C103.401 69.0439 103.363 68.7303 103.39 68.419L103.44 67.873C103.865 63.0027 106.503 60.229 111.16 60.229C115.817 60.229 117.963 63.0136 117.537 67.873C116.844 75.7627 111.084 76.9857 110.592 82.5495C110.595 82.5767 110.595 82.6042 110.592 82.6314C110.567 83.0727 110.375 83.488 110.054 83.7923C109.734 84.0967 109.309 84.2673 108.867 84.2694L107.982 84.2475ZM110.346 88.8776C110.297 89.4502 110.035 89.9834 109.611 90.3717C109.187 90.76 108.633 90.975 108.059 90.9743C107.74 90.9747 107.425 90.9089 107.134 90.7809C106.842 90.6529 106.58 90.4656 106.365 90.2308C106.15 89.9961 105.986 89.7191 105.884 89.4175C105.781 89.1159 105.743 88.7963 105.771 88.479C105.82 87.9055 106.084 87.3716 106.508 86.9831C106.933 86.5947 107.489 86.3803 108.064 86.3824C108.382 86.3835 108.696 86.4505 108.987 86.5791C109.277 86.7077 109.538 86.8952 109.752 87.1296C109.967 87.3641 110.13 87.6405 110.233 87.9414C110.335 88.2422 110.374 88.561 110.346 88.8776Z" fill="#407BFF"/>
<path d="M101.829 78.9023H89.271C88.9813 78.9023 88.7036 78.7872 88.4988 78.5824C88.294 78.3776 88.179 78.0999 88.179 77.8103C88.179 77.5206 88.294 77.2429 88.4988 77.0381C88.7036 76.8333 88.9813 76.7183 89.271 76.7183H101.829C102.119 76.7183 102.396 76.8333 102.601 77.0381C102.806 77.2429 102.921 77.5206 102.921 77.8103C102.921 78.0999 102.806 78.3776 102.601 78.5824C102.396 78.7872 102.119 78.9023 101.829 78.9023Z" fill="#407BFF"/>
<path d="M100.093 83.227H89.2927C89.0031 83.227 88.7253 83.1119 88.5205 82.9071C88.3157 82.7023 88.2007 82.4246 88.2007 82.135C88.2007 81.8454 88.3157 81.5676 88.5205 81.3628C88.7253 81.158 89.0031 81.043 89.2927 81.043H100.093C100.382 81.043 100.66 81.158 100.865 81.3628C101.07 81.5676 101.185 81.8454 101.185 82.135C101.185 82.4246 101.07 82.7023 100.865 82.9071C100.66 83.1119 100.382 83.227 100.093 83.227Z" fill="#407BFF"/>
<path d="M98.3563 87.5458H89.2927C89.0031 87.5458 88.7253 87.4308 88.5205 87.226C88.3157 87.0212 88.2007 86.7434 88.2007 86.4538C88.2007 86.1642 88.3157 85.8864 88.5205 85.6817C88.7253 85.4769 89.0031 85.3618 89.2927 85.3618H98.3563C98.6459 85.3618 98.9237 85.4769 99.1284 85.6817C99.3332 85.8864 99.4483 86.1642 99.4483 86.4538C99.4483 86.7434 99.3332 87.0212 99.1284 87.226C98.9237 87.4308 98.6459 87.5458 98.3563 87.5458Z" fill="#407BFF"/>
<path d="M72.6615 176.637H64.6845C62.7407 176.637 61.1682 177.865 61.1682 179.367V184.084C61.1682 185.602 62.7407 186.814 64.6845 186.814H72.6615V176.637Z" fill="#FF4D00"/>
<path d="M35.5883 198.854L32.8146 154.704C32.5707 150.822 33.1248 146.931 34.4427 143.271C35.7605 139.612 37.8143 136.261 40.4772 133.426C43.1401 130.59 46.3557 128.331 49.9256 126.786C53.4956 125.241 57.3441 124.445 61.2339 124.445C68.5095 124.444 75.5093 127.229 80.7971 132.226C86.0848 137.223 89.2595 144.055 89.6695 151.319L92.5743 202.883H39.858C38.7679 202.878 37.7204 202.459 36.9277 201.711C36.1349 200.963 35.6561 199.942 35.5883 198.854Z" fill="#FF4D00"/>
<path opacity="0.1" d="M35.49 197.254L32.8146 154.704C32.5707 150.822 33.1248 146.931 34.4427 143.271C35.7605 139.612 37.8143 136.261 40.4772 133.426C43.1401 130.59 46.3557 128.331 49.9256 126.786C53.4956 125.241 57.3441 124.445 61.2339 124.445C68.5095 124.444 75.5093 127.229 80.7971 132.226C86.0848 137.223 89.2595 144.055 89.6695 151.319L92.5743 202.883H41.496C39.9663 202.886 38.493 202.305 37.3769 201.259C36.2608 200.213 35.5859 198.781 35.49 197.254Z" fill="black"/>
<path d="M44.139 202.883L41.1141 154.704C40.8702 150.822 41.4245 146.93 42.7427 143.27C44.0609 139.61 46.1151 136.259 48.7786 133.424C51.4421 130.588 54.6584 128.329 58.229 126.784C61.7995 125.24 65.6487 124.444 69.5389 124.445C76.8135 124.446 83.812 127.231 89.0986 132.228C94.3852 137.225 97.5591 144.056 97.9691 151.319L100.879 202.883H44.139Z" fill="#FF4D00"/>
<path d="M43.232 211.177H42.5058C42.3093 211.164 42.1236 211.082 41.9809 210.947C41.8382 210.811 41.7477 210.63 41.7251 210.434L40.6331 202.883H45.0611L43.9691 210.434C43.9502 210.624 43.8665 210.801 43.7323 210.936C43.5981 211.071 43.4214 211.156 43.232 211.177Z" fill="#FF4D00"/>
<path opacity="0.7" d="M43.232 211.177H42.5058C42.3093 211.164 42.1236 211.082 41.9809 210.947C41.8382 210.811 41.7477 210.63 41.7251 210.434L40.6331 202.883H45.0611L43.9691 210.434C43.9502 210.624 43.8665 210.801 43.7323 210.936C43.5981 211.071 43.4214 211.156 43.232 211.177Z" fill="white"/>
<path d="M114.567 211.177H113.907C113.72 211.156 113.547 211.07 113.418 210.934C113.289 210.798 113.213 210.621 113.202 210.434L112.23 202.883H116.244L115.272 210.434C115.261 210.621 115.185 210.798 115.056 210.934C114.927 211.07 114.754 211.156 114.567 211.177Z" fill="#FF4D00"/>
<path opacity="0.5" d="M114.567 211.177H113.907C113.72 211.156 113.547 211.07 113.418 210.934C113.289 210.798 113.213 210.621 113.202 210.434L112.23 202.883H116.244L115.272 210.434C115.261 210.621 115.185 210.798 115.056 210.934C114.927 211.07 114.754 211.156 114.567 211.177Z" fill="white"/>
<path d="M94.0321 211.177H93.366C93.1797 211.156 93.0067 211.07 92.8777 210.934C92.7487 210.798 92.6722 210.621 92.6617 210.434L91.6843 202.883H95.7029L94.731 210.434C94.7196 210.62 94.6435 210.796 94.5158 210.932C94.3882 211.067 94.217 211.154 94.0321 211.177Z" fill="#FF4D00"/>
<path opacity="0.7" d="M94.0321 211.177H93.366C93.1797 211.156 93.0067 211.07 92.8777 210.934C92.7487 210.798 92.6722 210.621 92.6617 210.434L91.6843 202.883H95.7029L94.731 210.434C94.7196 210.62 94.6435 210.796 94.5158 210.932C94.3882 211.067 94.217 211.154 94.0321 211.177Z" fill="white"/>
<path d="M65.3453 211.177H64.6191C64.4223 211.165 64.2359 211.084 64.093 210.948C63.9501 210.812 63.8599 210.63 63.8383 210.434L62.7463 202.883H67.1744L66.0824 210.434C66.0634 210.624 65.9798 210.801 65.8456 210.936C65.7114 211.071 65.5347 211.156 65.3453 211.177Z" fill="#FF4D00"/>
<path opacity="0.5" d="M65.3453 211.177H64.6191C64.4223 211.165 64.2359 211.084 64.093 210.948C63.9501 210.812 63.8599 210.63 63.8383 210.434L62.7463 202.883H67.1744L66.0824 210.434C66.0634 210.624 65.9798 210.801 65.8456 210.936C65.7114 211.071 65.5347 211.156 65.3453 211.177Z" fill="white"/>
<path d="M89.3855 184.684H108.801L110.084 165.984L110.357 161.965L110.488 160.114C110.522 159.629 110.584 159.146 110.674 158.667C110.674 158.564 110.723 158.454 110.745 158.351C110.757 158.271 110.777 158.192 110.805 158.116C111.328 156.21 112.348 154.477 113.759 153.093C115.386 151.485 117.537 150.516 119.82 150.363H101.556C101.354 150.363 101.157 150.363 100.955 150.363C98.4778 150.375 96.1032 151.355 94.3377 153.093C92.9264 154.477 91.9072 156.21 91.3839 158.116C91.3556 158.192 91.3354 158.271 91.3238 158.351C91.1955 158.932 91.1098 159.521 91.0672 160.114L90.9416 161.965L89.3855 184.684Z" fill="#FF4D00"/>
<path opacity="0.1" d="M89.3855 184.684H108.801L110.084 165.984L110.357 161.965L110.488 160.114C110.522 159.629 110.584 159.146 110.674 158.667C110.674 158.564 110.723 158.454 110.745 158.351C110.757 158.271 110.777 158.192 110.805 158.116C111.328 156.21 112.348 154.477 113.759 153.093C115.386 151.485 117.537 150.516 119.82 150.363H101.556C101.354 150.363 101.157 150.363 100.955 150.363C98.4778 150.375 96.1032 151.355 94.3377 153.093C92.9264 154.477 91.9072 156.21 91.3839 158.116C91.3556 158.192 91.3354 158.271 91.3238 158.351C91.1955 158.932 91.1098 159.521 91.0672 160.114L90.9416 161.965L89.3855 184.684Z" fill="black"/>
<g opacity="0.1">
<path d="M73.9995 174.72H66.1972C64.3026 174.72 62.7683 175.921 62.7683 177.401V182.015C62.7683 183.494 64.3026 184.696 66.1972 184.696H73.9995V174.72Z" fill="black"/>
</g>
<path d="M105.837 174.714H71.4933C69.8589 174.714 68.5339 176.039 68.5339 177.674V181.73C68.5339 183.365 69.8589 184.69 71.4933 184.69H105.837C107.471 184.69 108.796 183.365 108.796 181.73V177.674C108.796 176.039 107.471 174.714 105.837 174.714Z" fill="#FF4D00"/>
<path d="M24.843 161.381C24.8384 163.992 25.7572 166.52 27.4369 168.518C29.1165 170.517 31.4489 171.857 34.0213 172.301L36.036 198.886C36.2108 201.146 37.8488 202.883 39.8144 202.883H61.2339C59.2683 202.883 57.6303 201.146 57.4556 198.886L56.3636 184.69L55.4245 172.29C53.744 171.996 52.1543 171.317 50.7799 170.307C49.4055 169.296 48.2836 167.981 47.502 166.464C47.3983 166.268 47.3055 166.066 47.2181 165.864C46.5847 164.455 46.2589 162.926 46.2626 161.381C46.2628 160.622 46.3415 159.864 46.4974 159.121C46.5575 158.826 46.6339 158.531 46.7103 158.247C47.1021 156.945 47.7254 155.724 48.5504 154.644C49.5708 153.319 50.8773 152.242 52.3724 151.493C53.8971 150.727 55.5797 150.326 57.2864 150.325H35.905C34.7942 150.324 33.6897 150.492 32.629 150.822C30.4446 151.495 28.5234 152.831 27.1308 154.644C25.6451 156.575 24.8407 158.944 24.843 161.381Z" fill="#FF4D00"/>
<path opacity="0.1" d="M24.843 161.381C24.8384 163.992 25.7572 166.52 27.4369 168.518C29.1165 170.517 31.4489 171.857 34.0213 172.301L36.036 198.886C36.2108 201.146 37.8488 202.883 39.8144 202.883H61.2339C59.2683 202.883 57.6303 201.146 57.4556 198.886L56.3636 184.69L55.4245 172.29C53.744 171.996 52.1543 171.317 50.7799 170.307C49.4055 169.296 48.2836 167.981 47.502 166.464C47.3983 166.268 47.3055 166.066 47.2181 165.864C46.5847 164.455 46.2589 162.926 46.2626 161.381C46.2628 160.622 46.3415 159.864 46.4974 159.121C46.5575 158.826 46.6339 158.531 46.7103 158.247C47.1021 156.945 47.7254 155.724 48.5504 154.644C49.5708 153.319 50.8773 152.242 52.3724 151.493C53.8971 150.727 55.5797 150.326 57.2864 150.325H35.905C34.7942 150.324 33.6897 150.492 32.629 150.822C30.4446 151.495 28.5234 152.831 27.1308 154.644C25.6451 156.575 24.8407 158.944 24.843 161.381Z" fill="black"/>
<path d="M46.2572 161.381C46.2572 166.841 49.8554 171.395 54.5783 172.301L56.4019 198.908C56.5603 201.173 58.0399 202.904 59.8308 202.904H117.019C118.799 202.904 120.295 201.173 120.448 198.908L122.277 172.263C126.901 171.291 130.401 166.803 130.401 161.403C130.414 159.138 129.773 156.918 128.556 155.009C127.631 153.554 126.359 152.351 124.854 151.509C123.486 150.744 121.944 150.342 120.377 150.341C117.899 150.352 115.524 151.332 113.759 153.071C112.347 154.455 111.326 156.188 110.8 158.094C110.776 158.171 110.758 158.249 110.745 158.329C110.614 158.909 110.529 159.499 110.489 160.092L110.358 161.943L108.802 184.679H68.0481L66.361 160.109C66.1153 156.636 64.4281 153.742 62.0803 152.372C60.5941 151.189 58.7831 150.486 56.8879 150.357C56.6858 150.357 56.4893 150.357 56.2873 150.357C54.7627 150.349 53.2605 150.724 51.9193 151.449C51.8754 151.465 51.8333 151.485 51.7937 151.509C50.4124 152.283 49.2249 153.36 48.3211 154.66C46.9645 156.638 46.2444 158.983 46.2572 161.381Z" fill="#FF4D00"/>
<path opacity="0.1" d="M68.9872 202.883H117.035C118.815 202.883 120.311 201.152 120.464 198.886L122.293 172.241C126.918 171.269 130.418 166.781 130.418 161.381C130.43 159.117 129.789 156.897 128.572 154.988C127.647 153.532 126.375 152.33 124.87 151.488C123.502 150.723 121.961 150.321 120.393 150.319C117.915 150.331 115.54 151.31 113.776 153.049C112.363 154.433 111.342 156.166 110.816 158.073C110.792 158.149 110.774 158.228 110.762 158.307C110.631 158.888 110.545 159.477 110.505 160.071L110.374 161.922L108.818 184.657H68.0481L68.9872 202.883Z" fill="white"/>
<path d="M83.6089 212.28L88.2663 213.568L92.4486 202.621L87.7912 201.333L83.6089 212.28Z" fill="#FFC3BD"/>
<path d="M90.352 212.116C89.9845 211.64 89.4534 211.317 88.8614 211.209L84.0839 210.276C83.9725 210.243 83.8527 210.256 83.7506 210.311C83.6484 210.367 83.572 210.46 83.5379 210.571L82.0583 214.939C82.0159 215.057 81.9975 215.183 82.0039 215.309C82.0104 215.435 82.0417 215.558 82.096 215.672C82.1503 215.785 82.2265 215.887 82.3203 215.971C82.4141 216.055 82.5236 216.12 82.6425 216.162H82.6753C84.4443 216.861 85.6401 216.62 88.4028 217.155C90.1118 217.483 93.6881 218.619 96.0796 218.52C98.471 218.422 98.4656 216.058 97.4609 215.883C93.9119 215.337 91.1819 213.197 90.352 212.116Z" fill="#263238"/>
<g opacity="0.2">
<path d="M92.4486 202.627L90.2919 208.272L85.6345 206.973L87.7858 201.333L92.4486 202.627Z" fill="black"/>
</g>
<path d="M76.904 161.07C76.904 161.07 104.947 160.917 104.073 170.309C103.483 176.653 100.437 183.32 98.067 189.757C94.6217 199.088 91.6351 207.229 91.6351 207.229L85.2469 205.018C85.2469 205.018 90.9854 178.034 94.8511 175.272H71.1383C63.2923 175.272 59.9016 166.656 67.5401 156.609C72.2084 156.626 76.904 161.07 76.904 161.07Z" fill="#FF4D00"/>
<path opacity="0.6" d="M76.904 161.07C76.904 161.07 104.947 160.918 104.073 170.309C104.504 176.145 91.6297 207.218 91.6297 207.218L85.2415 205.007C85.2415 205.007 90.9799 178.024 94.8456 175.261H71.1383C63.2923 175.261 59.9016 166.645 67.5401 156.599C72.2084 156.626 76.904 161.07 76.904 161.07Z" fill="black"/>
<path d="M96.6804 144.018C93.2297 147.169 86.4538 139.71 85.3618 138.826C83.0249 136.915 76.1562 130.505 76.5166 128.277C77.6086 121.725 88.3539 131.007 91.4606 137.406L96.6804 144.018Z" fill="#263238"/>
<path d="M66.481 124.303C64.7501 124.668 62.8774 124.046 61.6598 125.329C60.4422 126.612 59.9344 128.414 59.7597 130.172C59.606 132.628 59.7342 135.094 60.1419 137.521C60.5059 140.481 60.8863 143.438 61.283 146.394C61.5292 148.828 61.4355 151.285 61.0046 153.694C60.9591 153.95 60.9999 154.213 61.1204 154.444C61.241 154.674 61.4345 154.858 61.6707 154.966C61.6707 154.966 75.0968 155.425 79.0007 155.277C81.0755 155.201 79.6505 149.741 80.2893 146.541C80.4313 145.831 81.8181 142.916 82.0256 142.173C82.9865 138.651 82.3477 136.227 81.4796 132.689C80.8298 130.117 80.5623 126.41 79.2519 126.137C76.8932 125.651 71.2967 123.276 66.481 124.303Z" fill="#FF4D00"/>
<path opacity="0.8" d="M66.481 124.303C64.7501 124.668 62.8774 124.046 61.6598 125.329C60.4422 126.612 59.9344 128.414 59.7597 130.172C59.606 132.628 59.7342 135.094 60.1419 137.521C60.5059 140.481 60.8863 143.438 61.283 146.394C61.5292 148.828 61.4355 151.285 61.0046 153.694C60.9591 153.95 60.9999 154.213 61.1204 154.444C61.241 154.674 61.4345 154.858 61.6707 154.966C61.6707 154.966 75.0968 155.425 79.0007 155.277C81.0755 155.201 79.6505 149.741 80.2893 146.541C80.4313 145.831 81.8181 142.916 82.0256 142.173C82.9865 138.651 82.3477 136.227 81.4796 132.689C80.8298 130.117 80.5623 126.41 79.2519 126.137C76.8932 125.651 71.2967 123.276 66.481 124.303Z" fill="white"/>
<path d="M64.5643 126.825C64.3842 126.552 59.6503 122.577 58.804 127.169C57.6083 133.563 60.0817 139.853 60.0817 139.853C60.0817 139.853 60.6277 146.771 62.6588 147.464C64.6899 148.157 66.5791 148.327 67.2561 147.142C67.694 146.218 67.925 145.21 67.9332 144.188C67.9332 144.188 67.7038 131.586 64.5643 126.825Z" fill="#263238"/>
<path d="M67.8351 115.528C68.321 118.471 68.7305 123.849 66.6284 125.744C66.6284 125.744 71.7663 128.436 75.1406 133.131C75.8898 132.572 76.4439 131.791 76.7242 130.899C77.0045 130.008 76.9968 129.05 76.7021 128.163C76.5329 127.603 76.2523 127.083 75.8769 126.635C75.5016 126.186 75.0394 125.818 74.5181 125.553C72.5252 124.461 72.7163 122.397 73.2623 120.464L67.8351 115.528Z" fill="#E8BFBF"/>
<path opacity="0.2" d="M68.5068 120.524L70.4233 121.262C71.2438 121.579 72.1218 121.72 73.0004 121.676C72.8637 122.277 72.8637 122.9 73.0004 123.5C72.3133 123.688 71.5865 123.672 70.908 123.455C70.2296 123.238 69.6288 122.829 69.1784 122.277C68.8687 121.729 68.6423 121.139 68.5068 120.524Z" fill="black"/>
<path d="M116.079 202.866H121.299L115.834 189.779L112.296 195.785L116.079 202.866Z" fill="#FFC3BD"/>
<path d="M120.868 201.627L114.747 200.235C114.642 200.208 114.531 200.222 114.436 200.274C114.341 200.325 114.269 200.411 114.234 200.513L112.525 205.22C112.491 205.338 112.48 205.463 112.494 205.585C112.508 205.708 112.546 205.827 112.606 205.935C112.666 206.043 112.746 206.138 112.843 206.215C112.94 206.292 113.051 206.349 113.169 206.383C115.315 206.83 116.369 206.929 119.061 207.546C120.699 207.922 124.914 209.025 127.201 209.544C129.489 210.063 130.09 207.824 129.178 207.398C125.094 205.509 122.883 203.702 121.698 202.162C121.491 201.894 121.198 201.705 120.868 201.627Z" fill="#263238"/>
<g opacity="0.2">
<path d="M115.834 189.779L118.16 195.353L113.464 197.974L112.296 195.79L115.834 189.779Z" fill="black"/>
</g>
<path d="M60.901 155.025L60.355 156.805C60.284 156.942 60.4424 157.084 60.6717 157.095L80.8737 157.706C81.0593 157.706 81.2067 157.63 81.2231 157.515L81.4579 155.724C81.4579 155.604 81.3159 155.495 81.1248 155.484L61.2504 154.883C61.1848 154.873 61.1176 154.881 61.056 154.906C60.9945 154.931 60.9409 154.972 60.901 155.025Z" fill="#263238"/>
<path d="M86.1699 169.632C79.5251 172.465 72.3179 175.294 68.3976 175.294C60.5461 175.294 53.5737 169.626 61.0048 156.73C65.6785 156.73 73.7975 156.861 73.7975 156.861C73.7975 156.861 89.0855 152.493 100.213 153.781C102.85 154.089 105.321 155.224 107.272 157.025C109.224 158.825 110.554 161.197 111.073 163.8C113.89 177.996 118.231 193.35 118.231 193.35L112.645 197.172C112.645 197.172 103.937 178.865 98.9244 164.346C96.2709 165.182 91.3951 167.404 86.1699 169.632Z" fill="#FF4D00"/>
<path opacity="0.5" d="M111.073 163.801C110.556 161.195 109.227 158.82 107.275 157.018C105.324 155.216 102.851 154.079 100.213 153.77C89.1074 152.504 73.7975 156.85 73.7975 156.85C73.7975 156.85 65.6785 156.703 61.0048 156.719C53.4536 169.561 60.5461 175.283 68.3976 175.283C72.3179 175.283 79.5251 172.455 86.1699 169.621C91.3951 167.393 96.2709 165.171 98.9245 164.319C103.937 178.854 112.645 197.167 112.645 197.167L118.231 193.345C118.231 193.345 113.89 177.997 111.073 163.801Z" fill="black"/>
<path d="M104.073 170.352C103.896 172.176 103.622 173.99 103.254 175.785C103.227 175.725 103.205 175.67 103.183 175.61C103.161 175.55 103.183 175.583 103.183 175.566C103.165 175.506 103.142 175.447 103.112 175.392C101.627 171.701 100.175 167.917 98.9463 164.352H98.9845C102.162 165.7 104.33 167.622 104.073 170.352Z" fill="#FF4D00"/>
<path opacity="0.6" d="M104.073 170.352C103.896 172.176 103.622 173.99 103.254 175.785C103.227 175.725 103.205 175.67 103.183 175.61C103.161 175.55 103.183 175.583 103.183 175.566C103.165 175.506 103.142 175.447 103.112 175.392C101.627 171.701 100.175 167.917 98.9463 164.352H98.9845C102.162 165.7 104.33 167.622 104.073 170.352Z" fill="black"/>
<path d="M64.2533 112.7C65.8913 117.313 66.4919 119.301 69.5604 121.032C74.1851 123.641 79.4813 120.606 79.2519 115.572C79.0445 111.067 76.3964 104.275 71.264 103.729C70.1317 103.601 68.9856 103.766 67.9348 104.207C66.884 104.647 65.9635 105.35 65.2608 106.247C64.5581 107.144 64.0967 108.205 63.9203 109.331C63.744 110.457 63.8586 111.609 64.2533 112.678V112.7Z" fill="#E8BFBF"/>
<path d="M72.547 112.099C72.6616 112.498 72.951 112.733 73.2022 112.645C73.4533 112.558 73.5516 112.209 73.4533 111.821C73.3551 111.433 73.0548 111.188 72.7981 111.275C72.5415 111.362 72.4378 111.717 72.547 112.099Z" fill="#263238"/>
<path d="M76.8333 110.745C76.9479 111.149 77.2373 111.384 77.4885 111.291C77.7396 111.199 77.8379 110.855 77.7396 110.467C77.6413 110.079 77.3356 109.834 77.0899 109.921C76.8442 110.008 76.7241 110.369 76.8333 110.745Z" fill="#263238"/>
<path d="M76.9861 109.981L77.8269 109.435C77.8269 109.435 77.5594 110.292 76.9861 109.981Z" fill="#263238"/>
<path d="M75.2991 111.619C75.8898 112.394 76.5843 113.085 77.363 113.672C77.2066 113.865 77.0096 114.021 76.786 114.13C76.5623 114.238 76.3175 114.296 76.0689 114.3L75.2991 111.619Z" fill="#ED847E"/>
<path d="M61.2394 115.752C61.5748 116.583 61.829 117.444 61.9983 118.324C62.0448 119.209 61.7602 120.079 61.2 120.765C60.6398 121.452 59.8441 121.905 58.968 122.037C59.731 122.24 60.5408 122.173 61.2602 121.848C61.9796 121.523 62.5644 120.959 62.9156 120.251C62.4982 121.363 61.672 122.273 60.606 122.796C61.368 122.804 62.1216 122.636 62.8081 122.306C63.4947 121.975 64.0958 121.491 64.5645 120.89C64.3079 121.556 64.0185 122.217 63.7892 122.883C65.0857 122.098 66.1503 120.982 66.8741 119.651C67.1635 119.105 67.3819 118.395 66.9997 117.914C66.6175 117.434 66.0114 117.467 65.4545 117.456C64.8976 117.445 64.226 117.314 64.024 116.795C63.822 116.276 64.1932 115.758 64.5973 115.403C65.0013 115.048 65.4873 114.72 65.6347 114.202C65.7046 113.826 65.6783 113.439 65.5582 113.077C65.3071 112.072 65.0596 111.066 64.8157 110.058C64.7494 109.702 64.6219 109.36 64.4389 109.047C63.3469 107.409 62.1294 109.812 61.7089 110.625C60.922 112.217 60.7546 114.044 61.2394 115.752Z" fill="#263238"/>
<path d="M63.9314 117.221C64.5498 118.025 65.46 118.553 66.4648 118.69C67.8025 118.854 68.2721 117.598 67.737 116.457C67.2511 115.408 65.9734 114.071 64.7122 114.426C63.4509 114.78 63.1779 116.216 63.9314 117.221Z" fill="#E8BFBF"/>
<path d="M72.6182 108.801C72.6093 108.852 72.5853 108.899 72.5492 108.936C72.5132 108.973 72.4668 108.999 72.4162 109.009C71.3242 109.216 70.6908 110.532 70.6908 110.543C70.6634 110.603 70.6138 110.649 70.5526 110.673C70.4913 110.696 70.4234 110.695 70.3632 110.669C70.305 110.641 70.2599 110.592 70.2374 110.532C70.215 110.472 70.217 110.405 70.2431 110.347C70.2922 110.297 70.9693 108.785 72.3233 108.523C72.3868 108.513 72.4516 108.528 72.5044 108.565C72.5572 108.601 72.594 108.657 72.6073 108.719C72.6189 108.745 72.6227 108.774 72.6182 108.801Z" fill="#263238"/>
<path d="M75.5335 107.709C75.4971 107.704 75.4598 107.705 75.4241 107.715C75.3884 107.724 75.355 107.741 75.3261 107.764C75.266 107.829 75.064 107.944 75.1786 108.004C75.8448 108.343 76.7675 108.9 77.4773 108.785C77.5974 108.785 77.8813 108.659 77.8213 108.572C77.7802 108.528 77.7285 108.495 77.6711 108.477C77.6137 108.459 77.5526 108.456 77.4937 108.468C76.9477 108.545 76.1778 108.015 75.6537 107.742C75.6152 107.726 75.5748 107.715 75.5335 107.709Z" fill="#263238"/>
<path d="M72.6946 111.329L73.5409 110.783C73.5409 110.783 73.2733 111.651 72.6946 111.329Z" fill="#263238"/>
<path d="M72.618 101.709C70.7562 101.371 70.5159 101.245 68.6268 101.365C66.7186 101.425 64.8736 102.063 63.336 103.194C61.8996 104.382 60.8862 106.002 60.4477 107.814C60.0185 109.618 59.9701 111.493 60.3057 113.317C60.366 114.189 60.7427 115.008 61.365 115.621C61.4283 114.64 61.5949 113.668 61.8618 112.722C62.1402 111.767 62.7135 110.924 63.4998 110.314C63.8469 110.127 64.1458 109.861 64.3734 109.539C64.4916 109.22 64.5579 108.885 64.57 108.545C64.7412 107.781 65.1983 107.111 65.8476 106.672C66.4925 106.244 67.1829 105.889 67.906 105.613C70.2047 104.625 72.7108 104.057 74.8293 102.725C74.1362 102.298 73.3936 101.957 72.618 101.709Z" fill="#263238"/>
<path d="M63.0903 109.015C63.5902 109.622 64.2746 110.049 65.0395 110.232C65.9458 110.44 68.2117 110.385 68.3482 110.15C68.4847 109.916 67.6767 107.371 66.7594 107.218C67.3922 107.829 68.1479 108.298 68.9761 108.594C69.9133 108.782 70.8782 108.782 71.8153 108.594C72.2958 108.485 71.2202 106.498 70.4394 105.93C72.7927 106.421 75.2824 106.983 76.9914 108.66C78.7004 110.336 79.4375 112.989 79.3501 115.463C79.7506 115.14 80.0723 114.731 80.2908 114.265C80.5094 113.8 80.619 113.291 80.6114 112.777C81.0236 114.055 81.1747 115.404 81.0555 116.743C80.9364 118.081 80.5496 119.382 79.918 120.568C82.4187 118.515 83.3523 114.928 82.6971 111.761C82.0419 108.594 79.9671 105.837 77.4501 103.811C75.2661 102.08 72.6671 100.786 69.8989 100.721C66.268 100.612 59.5413 104.739 63.0903 109.015Z" fill="#263238"/>
<path d="M66.0333 123.614C66.0333 123.434 66.077 123.194 66.0988 122.943C66.1465 122.366 65.9786 121.792 65.6276 121.332C65.2766 120.872 64.7675 120.559 64.1988 120.453C64.0299 120.423 63.8721 120.348 63.7417 120.237C63.6112 120.126 63.5126 119.982 63.4562 119.82C63.0358 118.597 62.872 118.225 62.4679 117.024C61.3759 116.757 60.0601 117.166 58.9189 117.286C58.6025 118.656 58.5802 120.078 58.8534 121.458C58.8972 121.766 59.0173 122.059 59.2029 122.309C60.239 123.158 61.3851 123.864 62.6099 124.406C63.5927 124.706 64.9741 123.707 66.0333 123.614Z" fill="#E8BFBF"/>
<path d="M62.7243 124.433C62.7243 124.433 59.7159 143.844 62.8171 146.819C64.6353 148.556 66.2078 147.595 67.1851 146.508C67.5434 146.103 67.813 145.628 67.9766 145.113C68.1402 144.597 68.1942 144.054 68.1352 143.516L66.0222 123.631C66.0222 123.631 63.9474 122.402 62.7243 124.433Z" fill="#E8BFBF"/>
<path d="M95.0476 141.96C96.283 140.882 97.1688 139.46 97.592 137.876C97.6885 137.317 97.7251 136.75 97.7012 136.183C97.6739 132.667 96.6802 126.219 96.6802 126.219L93.8246 125.274C93.8246 125.274 92.9346 130.188 92.7326 132.875C92.6943 133.421 92.6343 134.027 92.5688 134.687C92.4432 135.889 92.2903 137.21 92.1538 138.307L95.0476 141.96Z" fill="#E8BFBF"/>
<path d="M96.6801 144.018C97.5592 143.216 97.7066 142.244 98.1598 140.196C98.5911 138.242 98.1052 135.828 97.7012 136.194C97.6507 136.24 97.613 136.299 97.592 136.364C96.8985 138.002 94.2013 136.566 93.4369 135.747C93.1077 135.434 92.818 135.081 92.5742 134.698C92.474 134.552 92.4203 134.379 92.4203 134.201C92.4203 134.024 92.474 133.851 92.5742 133.704C91.7443 133.361 91.0782 136.626 91.4822 137.428L91.6897 138.034C92.0186 139.018 92.5257 139.932 93.1857 140.732L94.6872 142.539L96.6801 144.018Z" fill="#263238"/>
<path d="M93.7482 125.684L93.4097 120.694C94.2928 121.114 95.2052 121.47 96.1397 121.759C97.5265 122.234 99.4157 121.398 98.9789 122.305C98.2824 123.653 97.5057 124.958 96.6529 126.214L93.7482 125.684Z" fill="#E8BFBF"/>
<path d="M93.4097 120.693L95.55 115.697L98.3455 117.406C99.1154 119.077 99.0225 122.32 99.0225 122.32C99.0225 122.32 95.135 122.473 93.4097 120.693Z" fill="#E8BFBF"/>
<path d="M74.9714 116.844C75.0423 117.199 75.299 117.45 75.5174 117.39C75.7358 117.33 75.8723 117.013 75.7958 116.658C75.7194 116.304 75.4682 116.052 75.2498 116.112C75.0314 116.172 74.8949 116.511 74.9714 116.844Z" fill="#263238"/>
<path d="M68.048 184.684L66.3609 160.114C66.1152 156.642 64.4281 153.748 62.0803 152.378C60.594 151.195 58.783 150.492 56.8878 150.363C56.6858 150.363 56.4892 150.363 56.2872 150.363C54.7626 150.354 53.2604 150.73 51.9192 151.455C51.8753 151.47 51.8332 151.491 51.7936 151.515C50.4123 152.288 49.2249 153.366 48.3211 154.665C46.9574 156.647 46.2333 158.998 46.2463 161.403C46.2463 166.863 49.8444 171.417 54.5673 172.323L56.3909 198.93C56.5493 201.196 58.0289 202.926 59.8198 202.926H68.9762L68.048 184.684Z" fill="#FF4D00"/>
<path opacity="0.1" d="M68.048 184.684L66.3609 160.114C66.1152 156.642 64.4281 153.748 62.0803 152.378C60.594 151.195 58.783 150.492 56.8878 150.363C56.6858 150.363 56.4892 150.363 56.2872 150.363C54.7626 150.354 53.2604 150.73 51.9192 151.455C51.8753 151.47 51.8332 151.491 51.7936 151.515C50.4123 152.288 49.2249 153.366 48.3211 154.665C46.9574 156.647 46.2333 158.998 46.2463 161.403C46.2463 166.863 49.8444 171.417 54.5673 172.323L56.3909 198.93C56.5493 201.196 58.0289 202.926 59.8198 202.926H68.9762L68.048 184.684Z" fill="white"/>
<path d="M133.311 229.577C143.425 229.577 151.624 227.479 151.624 224.892C151.624 222.305 143.425 220.208 133.311 220.208C123.197 220.208 114.999 222.305 114.999 224.892C114.999 227.479 123.197 229.577 133.311 229.577Z" fill="#263238"/>
<path opacity="0.3" d="M133.311 228.015C143.425 228.015 151.624 226.267 151.624 224.111C151.624 221.955 143.425 220.208 133.311 220.208C123.197 220.208 114.999 221.955 114.999 224.111C114.999 226.267 123.197 228.015 133.311 228.015Z" fill="white"/>
<path d="M134.824 224.106H131.799L128.304 186.421H138.318L134.824 224.106Z" fill="#263238"/>
<path d="M138.318 186.421C138.318 187.513 136.079 188.408 133.311 188.408C130.543 188.408 128.304 187.518 128.304 186.421C128.304 185.324 130.549 184.434 133.311 184.434C136.074 184.434 138.318 185.324 138.318 186.421Z" fill="#263238"/>
<path opacity="0.7" d="M138.318 186.421C138.318 187.513 136.079 188.408 133.311 188.408C130.543 188.408 128.304 187.518 128.304 186.421C128.304 185.324 130.549 184.434 133.311 184.434C136.074 184.434 138.318 185.324 138.318 186.421Z" fill="white"/>
<path opacity="0.7" d="M72.0718 187.01C72.0855 186.785 72.1442 186.564 72.2446 186.362C72.3449 186.159 72.4848 185.979 72.656 185.831C76.8875 190.09 103.734 193.371 136.221 193.371C168.708 193.371 195.555 190.095 199.792 185.831C199.963 185.979 200.103 186.159 200.204 186.362C200.304 186.564 200.363 186.785 200.376 187.01C200.376 191.821 171.651 195.746 136.221 195.746C100.791 195.746 72.0718 191.821 72.0718 187.01Z" fill="white"/>
<path opacity="0.7" d="M72.678 188.097C76.9095 183.838 103.756 180.562 136.243 180.562C168.73 180.562 195.577 183.838 199.814 188.097C195.577 192.356 168.73 195.637 136.243 195.637C103.756 195.637 76.9095 192.356 72.678 188.097Z" fill="white"/>
<path opacity="0.7" d="M72.0718 186.842C72.0718 182.026 100.791 178.106 136.221 178.106C171.651 178.106 200.376 182.004 200.376 186.842C200.363 187.067 200.305 187.287 200.204 187.489C200.104 187.69 199.964 187.87 199.792 188.016C195.555 183.757 168.708 180.481 136.221 180.481C103.734 180.481 76.8875 183.757 72.656 188.016C72.4845 187.87 72.3443 187.69 72.2439 187.489C72.1435 187.287 72.085 187.067 72.0718 186.842Z" fill="white"/>
<path d="M160.988 182.599L134.147 182.091C134.074 182.084 134.004 182.062 133.94 182.027C133.876 181.992 133.82 181.945 133.775 181.888C133.73 181.831 133.696 181.765 133.677 181.695C133.657 181.625 133.652 181.552 133.661 181.48C133.655 181.407 133.663 181.334 133.686 181.265C133.709 181.196 133.745 181.132 133.793 181.077C133.841 181.022 133.899 180.977 133.965 180.945C134.03 180.913 134.101 180.894 134.174 180.89L161.015 181.398C161.088 181.405 161.159 181.426 161.223 181.461C161.288 181.495 161.345 181.543 161.391 181.6C161.436 181.657 161.47 181.722 161.49 181.793C161.51 181.863 161.516 181.937 161.507 182.009C161.513 182.082 161.504 182.156 161.481 182.226C161.458 182.295 161.421 182.359 161.373 182.414C161.324 182.469 161.265 182.514 161.199 182.546C161.133 182.578 161.061 182.596 160.988 182.599Z" fill="#263238"/>
<path opacity="0.2" d="M160.988 182.599L134.147 182.091C134.074 182.084 134.004 182.062 133.94 182.027C133.876 181.992 133.82 181.945 133.775 181.888C133.73 181.831 133.696 181.765 133.677 181.695C133.657 181.625 133.652 181.552 133.661 181.48C133.655 181.407 133.663 181.334 133.686 181.265C133.709 181.196 133.745 181.132 133.793 181.077C133.841 181.022 133.899 180.977 133.965 180.945C134.03 180.913 134.101 180.894 134.174 180.89L161.015 181.398C161.088 181.405 161.159 181.426 161.223 181.461C161.288 181.495 161.345 181.543 161.391 181.6C161.436 181.657 161.47 181.722 161.49 181.793C161.51 181.863 161.516 181.937 161.507 182.009C161.513 182.082 161.504 182.156 161.481 182.226C161.458 182.295 161.421 182.359 161.373 182.414C161.324 182.469 161.265 182.514 161.199 182.546C161.133 182.578 161.061 182.596 160.988 182.599Z" fill="white"/>
<path d="M174.021 180.639L161.19 182.577C161.05 182.577 160.915 182.523 160.813 182.427C160.712 182.33 160.651 182.198 160.644 182.058C160.622 181.911 160.655 181.761 160.736 181.637C160.818 181.513 160.943 181.424 161.086 181.387L173.917 179.448C174.058 179.448 174.192 179.502 174.294 179.598C174.396 179.695 174.456 179.827 174.463 179.967C174.486 180.114 174.453 180.264 174.371 180.388C174.289 180.512 174.165 180.601 174.021 180.639Z" fill="#263238"/>
<path d="M173.906 179.448H146.781L134.174 180.89L160.284 181.381L173.906 179.448Z" fill="#263238"/>
<path opacity="0.6" d="M173.906 179.448H146.781L134.174 180.89L160.284 181.381L173.906 179.448Z" fill="white"/>
<path opacity="0.5" d="M174.021 180.639L161.19 182.577C161.05 182.577 160.915 182.523 160.813 182.427C160.712 182.33 160.651 182.198 160.644 182.058C160.622 181.911 160.655 181.761 160.736 181.637C160.818 181.513 160.943 181.424 161.086 181.387L173.917 179.448C174.058 179.448 174.192 179.502 174.294 179.598C174.396 179.695 174.456 179.827 174.463 179.967C174.486 180.114 174.453 180.264 174.371 180.388C174.289 180.512 174.165 180.601 174.021 180.639Z" fill="white"/>
<path d="M160.284 181.381L135.255 180.912C134.783 180.852 134.35 180.621 134.037 180.262C133.724 179.904 133.553 179.444 133.557 178.968L132.804 163.855C132.749 162.801 133.432 161.955 134.311 161.971L159.339 162.446C159.812 162.504 160.247 162.734 160.56 163.093C160.874 163.452 161.043 163.913 161.037 164.39L161.796 179.498C161.845 180.551 161.168 181.398 160.284 181.381Z" fill="#407BFF"/>
<path opacity="0.2" d="M160.284 181.381L135.255 180.912C134.783 180.852 134.35 180.621 134.037 180.262C133.724 179.904 133.553 179.444 133.557 178.968L132.804 163.855C132.749 162.801 133.432 161.955 134.311 161.971L159.339 162.446C159.812 162.504 160.247 162.734 160.56 163.093C160.874 163.452 161.043 163.913 161.037 164.39L161.796 179.498C161.845 180.551 161.168 181.398 160.284 181.381Z" fill="white"/>
<path d="M159.552 181.305L134.524 180.83C134.051 180.771 133.616 180.541 133.302 180.182C132.988 179.824 132.816 179.363 132.82 178.886L132.067 163.8C132.012 162.747 132.694 161.9 133.579 161.917L158.602 162.386C159.075 162.445 159.51 162.676 159.824 163.034C160.138 163.392 160.309 163.854 160.306 164.33L161.07 179.421C161.114 180.475 160.431 181.322 159.552 181.305Z" fill="#407BFF"/>
<path opacity="0.6" d="M159.552 181.305L134.524 180.83C134.051 180.771 133.616 180.541 133.302 180.182C132.988 179.824 132.816 179.363 132.82 178.886L132.067 163.8C132.012 162.747 132.694 161.9 133.579 161.917L158.602 162.386C159.075 162.445 159.51 162.676 159.824 163.034C160.138 163.392 160.309 163.854 160.306 164.33L161.07 179.421C161.114 180.475 160.431 181.322 159.552 181.305Z" fill="white"/>
<path d="M143.249 171.351C143.322 172.07 143.657 172.738 144.189 173.227C144.721 173.716 145.414 173.993 146.137 174.005C146.477 174.011 146.814 173.944 147.126 173.81C147.438 173.675 147.719 173.476 147.948 173.225C148.177 172.974 148.35 172.677 148.456 172.354C148.562 172.031 148.598 171.689 148.561 171.351C148.482 170.636 148.145 169.974 147.614 169.489C147.082 169.004 146.392 168.728 145.673 168.714C145.335 168.709 144.999 168.775 144.688 168.908C144.377 169.042 144.098 169.24 143.869 169.489C143.64 169.738 143.466 170.033 143.359 170.354C143.252 170.675 143.215 171.015 143.249 171.351Z" fill="white"/>
</g>
<defs>
<clipPath id="clip0_1070_2667">
<rect width="273" height="273" fill="white"/>
</clipPath>
</defs>
</svg>
