<svg width="312" height="312" viewBox="0 0 312 312" fill="none" xmlns="http://www.w3.org/2000/svg">
<g clip-path="url(#clip0_1069_1666)">
<path d="M280.737 248.658H260.071V248.814H280.737V248.658Z" fill="#EBEBEB"/>
<path d="M206.681 250.355H201.259V250.511H206.681V250.355Z" fill="#EBEBEB"/>
<path d="M259.447 242.867H247.472V243.023H259.447V242.867Z" fill="#EBEBEB"/>
<path d="M59.6857 243.916H32.7351V244.072H59.6857V243.916Z" fill="#EBEBEB"/>
<path d="M69.1954 243.916H65.2455V244.072H69.1954V243.916Z" fill="#EBEBEB"/>
<path d="M140.494 246.549H82.0374V246.705H140.494V246.549Z" fill="#EBEBEB"/>
<path d="M147.888 210.788H27.4062C26.4612 210.788 25.5549 210.412 24.8867 209.744C24.2185 209.076 23.8431 208.169 23.8431 207.224V37.8522C23.8514 36.9126 24.2304 36.0143 24.8977 35.3528C25.565 34.6914 26.4666 34.3203 27.4062 34.3203H147.888C148.833 34.3203 149.739 34.6957 150.408 35.3639C151.076 36.0321 151.451 36.9384 151.451 37.8834V207.224C151.451 208.169 151.076 209.076 150.408 209.744C149.739 210.412 148.833 210.788 147.888 210.788ZM27.4062 34.4451C26.5031 34.4468 25.6374 34.8062 24.9989 35.4448C24.3603 36.0834 24.0008 36.9491 23.9991 37.8522V207.224C24.0008 208.128 24.3603 208.993 24.9989 209.632C25.6374 210.27 26.5031 210.63 27.4062 210.632H147.888C148.791 210.63 149.657 210.27 150.295 209.632C150.934 208.993 151.293 208.128 151.295 207.224V37.8522C151.293 36.9491 150.934 36.0834 150.295 35.4448C149.657 34.8062 148.791 34.4468 147.888 34.4451H27.4062Z" fill="#EBEBEB"/>
<path d="M282.866 210.788H162.371C161.427 210.786 160.521 210.41 159.854 209.742C159.186 209.074 158.81 208.169 158.808 207.224V37.8522C158.818 36.9131 159.197 36.0158 159.864 35.3547C160.531 34.6935 161.432 34.3219 162.371 34.3203H282.866C283.803 34.3236 284.701 34.6961 285.366 35.3572C286.031 36.0183 286.408 36.9147 286.416 37.8522V207.224C286.416 208.167 286.042 209.072 285.377 209.74C284.711 210.407 283.808 210.784 282.866 210.788ZM162.371 34.4451C161.468 34.4468 160.602 34.8062 159.964 35.4448C159.325 36.0834 158.966 36.9491 158.964 37.8522V207.224C158.966 208.128 159.325 208.993 159.964 209.632C160.602 210.27 161.468 210.63 162.371 210.632H282.866C283.769 210.63 284.634 210.27 285.273 209.632C285.911 208.993 286.271 208.128 286.273 207.224V37.8522C286.271 36.9491 285.911 36.0834 285.273 35.4448C284.634 34.8062 283.769 34.4468 282.866 34.4451H162.371Z" fill="#EBEBEB"/>
<path d="M312 238.617H0V238.773H312V238.617Z" fill="#EBEBEB"/>
<path d="M257.618 182.682C250.536 188.142 248.489 200.098 248.133 208.522C248.133 209.29 246.885 209.296 246.935 208.522C247.31 199.599 249.344 187.562 257.013 181.646C257.637 181.178 258.217 182.214 257.637 182.682H257.618Z" fill="#F5F5F5"/>
<path d="M241.176 176.592C242.986 176.386 244.502 178.233 245.288 179.587C249.363 186.632 247.784 197.259 247.017 204.822C246.936 205.577 245.737 205.589 245.819 204.822C246.567 197.465 247.934 187.88 244.608 180.891C244.04 179.693 242.823 177.603 241.176 177.771C240.415 177.859 240.421 176.661 241.176 176.573V176.592Z" fill="#E6E6E6"/>
<path d="M236.789 186.245C244.365 184.373 245.313 201.171 245.525 204.797C245.575 205.564 244.377 205.564 244.327 204.797C244.028 199.892 243.784 192.872 240.24 188.941C239.522 188.142 238.281 187.113 237.12 187.4C236.985 187.397 236.855 187.351 236.748 187.269C236.641 187.186 236.564 187.071 236.529 186.941C236.493 186.812 236.5 186.673 236.549 186.548C236.598 186.422 236.687 186.316 236.802 186.245H236.789Z" fill="#E6E6E6"/>
<path d="M259.241 194.395C253.001 189.759 250.942 201.945 250.592 205.458C250.517 206.22 249.344 206.226 249.394 205.458C249.787 201.471 250.393 194.226 255.01 192.579C255.822 192.314 256.685 192.247 257.529 192.383C258.372 192.518 259.171 192.853 259.859 193.359C260.483 193.815 259.859 194.857 259.235 194.395H259.241Z" fill="#E6E6E6"/>
<path d="M234.331 196.598C234.805 196.095 235.391 195.71 236.041 195.474C236.691 195.238 237.388 195.157 238.075 195.237C241.893 195.861 242.954 201.646 243.535 204.635C243.678 205.39 242.524 205.708 242.38 204.953C241.881 202.37 239.472 193.097 235.192 197.465C235.074 197.527 234.939 197.549 234.808 197.529C234.676 197.509 234.555 197.448 234.461 197.354C234.367 197.26 234.305 197.138 234.285 197.006C234.265 196.875 234.288 196.74 234.349 196.623L234.331 196.598Z" fill="#F5F5F5"/>
<path d="M256.888 235.872H238.792C237.159 234.492 235.848 232.771 234.95 230.831C234.052 228.891 233.59 226.778 233.594 224.64C233.594 219.504 236.483 204.091 236.483 204.091H259.228C259.228 204.091 262.08 219.529 262.08 224.64C262.085 226.777 261.624 228.89 260.727 230.83C259.83 232.77 258.52 234.491 256.888 235.872Z" fill="#EBEBEB"/>
<path d="M259.771 200.304C254.305 200.304 248.957 198.089 247.828 195.362C246.698 192.635 250.211 190.413 255.671 190.413C257.433 190.415 259.188 190.64 260.894 191.081C262.407 190.614 263.985 190.389 265.568 190.413C271.028 190.413 276.376 192.629 277.505 195.362C278.635 198.095 275.128 200.304 269.661 200.304H259.771Z" fill="#F5F5F5"/>
<path d="M224.122 189.697C219.654 189.697 217.838 187.887 220.079 185.653C222.319 183.419 227.741 181.61 232.215 181.61C233.406 181.571 234.593 181.755 235.716 182.152C237.221 181.806 238.758 181.624 240.302 181.61C244.776 181.61 246.586 183.419 244.352 185.653C242.118 187.887 236.683 189.697 232.215 189.697H224.122Z" fill="#F0F0F0"/>
<path d="M265.2 185.671C259.584 185.671 252.72 183.394 249.925 180.579C247.129 177.765 249.394 175.488 255.016 175.488C256.962 175.507 258.9 175.739 260.795 176.18C262.206 175.673 263.701 175.438 265.2 175.488C270.816 175.488 277.68 177.771 280.469 180.579C283.259 183.387 281 185.671 275.377 185.671H265.2Z" fill="#EBEBEB"/>
<path d="M233.962 179.088C231.154 179.088 229.345 177.946 229.925 176.542C230.506 175.138 233.264 173.996 236.072 173.996C236.886 173.983 237.696 174.099 238.474 174.339C239.353 174.112 240.256 173.997 241.163 173.996C243.971 173.996 245.781 175.132 245.201 176.542C244.62 177.952 241.869 179.088 239.054 179.088H233.962Z" fill="#F0F0F0"/>
<path d="M230.724 199.462C227.91 199.462 225.158 198.32 224.578 196.916C223.997 195.512 225.826 194.37 228.615 194.37C229.52 194.374 230.421 194.489 231.298 194.713C232.079 194.476 232.891 194.361 233.707 194.37C236.515 194.37 239.267 195.512 239.847 196.916C240.427 198.32 238.599 199.462 235.81 199.462H230.724Z" fill="#EBEBEB"/>
<path d="M235.941 206.968C236.246 205.239 236.458 204.116 236.458 204.116H259.203C259.203 204.116 259.409 205.239 259.715 206.968H235.941Z" fill="#F5F5F5"/>
<path d="M234.949 183.156C234.949 183.156 228.709 185.234 226.737 188.666C226.737 188.666 227.049 183.674 234.949 183.156Z" fill="#FAFAFA"/>
<path d="M237.888 174.994C236.883 175.575 235.996 176.339 235.273 177.247C235.446 176.66 235.785 176.135 236.248 175.735C236.712 175.336 237.281 175.078 237.888 174.994Z" fill="#FAFAFA"/>
<path d="M262.08 177.247C262.08 177.247 268.844 179.743 273.006 184.404C273.012 184.404 269.786 177.896 262.08 177.247Z" fill="#FAFAFA"/>
<path d="M262.08 192.304C264.891 193.471 267.337 195.372 269.162 197.808C269.162 197.808 267.914 193.134 262.08 192.304Z" fill="#E6E6E6"/>
<path d="M231.41 195.736C231.912 195.999 232.337 196.386 232.646 196.86C232.955 197.334 233.138 197.88 233.176 198.444C232.35 197.721 231.739 196.784 231.41 195.736Z" fill="#FAFAFA"/>
<path d="M274.903 107.384V104.501H192.348V107.384H274.903Z" fill="#F5F5F5"/>
<path d="M214.35 107.391H200.541V113.862H207.449C207.448 113.472 207.524 113.086 207.673 112.726C207.821 112.366 208.04 112.039 208.315 111.764C208.59 111.488 208.917 111.27 209.277 111.121C209.637 110.973 210.023 110.897 210.413 110.898H214.35V107.391Z" fill="#E0E0E0"/>
<path d="M208.11 107.391H198.045V113.862H201.209C201.208 113.472 201.284 113.086 201.433 112.726C201.581 112.366 201.8 112.039 202.075 111.764C202.35 111.488 202.678 111.27 203.037 111.121C203.397 110.973 203.783 110.897 204.173 110.898H208.11V107.391Z" fill="#F5F5F5"/>
<path d="M252.901 107.391H266.716V113.862H259.809C259.809 113.075 259.496 112.321 258.94 111.766C258.385 111.21 257.631 110.898 256.845 110.898H252.901V107.391Z" fill="#EBEBEB"/>
<path d="M259.141 107.391H269.212V113.862H266.049C266.049 113.075 265.736 112.321 265.181 111.766C264.625 111.21 263.871 110.898 263.085 110.898H259.141V107.391Z" fill="#F5F5F5"/>
<path d="M243.504 104.782H250.692C251.34 104.236 251.861 103.555 252.217 102.786C252.574 102.018 252.758 101.18 252.757 100.333C252.757 98.2989 251.609 86.187 251.609 86.187H242.586C242.586 86.187 241.438 98.2989 241.438 100.333C241.437 101.18 241.621 102.018 241.978 102.786C242.335 103.555 242.856 104.236 243.504 104.782Z" fill="#EBEBEB"/>
<path d="M248.078 96.7949C248.046 97.369 248.028 97.8308 248.028 98.1428C248.027 99.4072 248.302 100.656 248.835 101.803C249.367 102.95 250.144 103.967 251.11 104.782H261.843C262.809 103.967 263.586 102.95 264.118 101.803C264.651 100.656 264.926 99.4072 264.926 98.1428C264.926 97.8308 264.926 97.369 264.876 96.7949H248.078Z" fill="#F5F5F5"/>
<path d="M243.491 96.8757C243.488 96.5086 243.342 96.157 243.085 95.8951C242.828 95.6332 242.479 95.4814 242.112 95.4717H233.675C233.305 95.4716 232.949 95.6176 232.685 95.8781C232.421 96.1385 232.27 96.4924 232.265 96.8632V96.963C231.962 96.8673 231.647 96.8168 231.329 96.8133C229.95 96.8133 229.027 97.8866 229.027 99.4902C229.027 101.094 230.637 102.167 232.078 102.167C232.225 102.165 232.371 102.151 232.515 102.124C232.847 103.153 233.461 104.07 234.287 104.769H241.488C242.136 104.223 242.656 103.542 243.013 102.773C243.37 102.005 243.554 101.168 243.553 100.32C243.535 99.7773 243.516 98.4794 243.491 96.8757ZM232.072 101.281C231.098 101.281 229.919 100.489 229.919 99.5027C229.919 99.0846 230.019 97.7181 231.323 97.7181C231.642 97.7251 231.956 97.7973 232.246 97.9302C232.246 99.0347 232.215 99.9083 232.215 100.333C232.219 100.647 232.248 100.96 232.303 101.269L232.072 101.281Z" fill="#E0E0E0"/>
<path d="M136.5 81.2573H95.2225V171.719H136.5V81.2573Z" fill="#EBEBEB"/>
<path d="M95.2224 81.2573H53.9448V171.719H95.2224V81.2573Z" fill="#EBEBEB"/>
<path d="M117.892 229.407H131.701V235.872H124.8C124.8 235.086 124.488 234.332 123.932 233.776C123.376 233.22 122.622 232.908 121.836 232.908H117.892V229.407Z" fill="#E0E0E0"/>
<path d="M72.5586 229.407H58.7433V235.872H65.651C65.651 235.086 65.9632 234.332 66.5191 233.776C67.075 233.22 67.8289 232.908 68.615 232.908H72.5586V229.407Z" fill="#E0E0E0"/>
<path d="M136.5 171.712H53.9448V200.21H136.5V171.712Z" fill="#EBEBEB"/>
<path d="M136.5 200.21H53.9448V228.709H136.5V200.21Z" fill="#EBEBEB"/>
<path d="M136.5 176.093V173.21H53.9448V176.093H136.5Z" fill="#E0E0E0"/>
<path d="M95.2286 85.3882V82.5054H53.951V85.3882H95.2286Z" fill="#E0E0E0"/>
<path d="M136.506 85.3883V82.5054H95.2287V85.3883H136.506Z" fill="#E0E0E0"/>
<path d="M136.5 204.366V201.483H53.9448V204.366H136.5Z" fill="#E0E0E0"/>
<path d="M136.5 79.8159H52.5033V229.95H137.941V79.8159H136.5ZM135.059 173.472V198.825H55.3862V173.472H135.059ZM96.6638 170.589V82.6988H135.059V170.602L96.6638 170.589ZM93.7809 82.6863V170.602H55.3862V82.6988L93.7809 82.6863ZM55.3862 227.067V201.721H135.059V227.067H55.3862Z" fill="#F5F5F5"/>
<path d="M66.3187 229.407H52.5033V235.872H59.411C59.411 235.086 59.7233 234.332 60.2791 233.776C60.835 233.22 61.5889 232.908 62.375 232.908H66.3187V229.407Z" fill="#F5F5F5"/>
<path d="M124.132 229.407H137.941V235.872H131.04C131.04 235.086 130.728 234.332 130.172 233.776C129.616 233.22 128.862 232.908 128.076 232.908H124.132V229.407Z" fill="#F5F5F5"/>
<path d="M98.7604 188.448C98.7604 189.148 98.5529 189.832 98.1641 190.413C97.7753 190.995 97.2228 191.449 96.5763 191.717C95.9298 191.984 95.2184 192.054 94.532 191.918C93.8457 191.781 93.2153 191.444 92.7205 190.95C92.2257 190.455 91.8887 189.824 91.7522 189.138C91.6157 188.452 91.6857 187.74 91.9535 187.094C92.2213 186.447 92.6748 185.895 93.2566 185.506C93.8385 185.117 94.5225 184.91 95.2223 184.91C96.1606 184.91 97.0606 185.282 97.7241 185.946C98.3876 186.609 98.7604 187.509 98.7604 188.448Z" fill="#E0E0E0"/>
<path d="M98.7604 185.952C98.7604 186.652 98.5529 187.336 98.1641 187.918C97.7753 188.5 97.2228 188.953 96.5763 189.221C95.9298 189.489 95.2184 189.559 94.532 189.422C93.8457 189.286 93.2153 188.949 92.7205 188.454C92.2257 187.959 91.8887 187.329 91.7522 186.642C91.6157 185.956 91.6857 185.245 91.9535 184.598C92.2213 183.952 92.6748 183.399 93.2566 183.01C93.8385 182.622 94.5225 182.414 95.2223 182.414C96.1606 182.414 97.0606 182.787 97.7241 183.45C98.3876 184.114 98.7604 185.014 98.7604 185.952Z" fill="#F5F5F5"/>
<path d="M98.7604 216.953C98.7591 217.652 98.5506 218.335 98.1611 218.916C97.7715 219.497 97.2185 219.95 96.5719 220.217C95.9253 220.484 95.2141 220.553 94.5282 220.416C93.8423 220.278 93.2125 219.941 92.7183 219.446C92.2241 218.951 91.8877 218.32 91.7517 217.634C91.6157 216.948 91.6862 216.237 91.9541 215.591C92.2221 214.945 92.6756 214.393 93.2573 214.004C93.839 213.616 94.5228 213.408 95.2223 213.408C95.6874 213.408 96.148 213.5 96.5777 213.678C97.0074 213.856 97.3977 214.117 97.7263 214.447C98.0549 214.776 98.3154 215.167 98.4928 215.597C98.6703 216.027 98.7612 216.487 98.7604 216.953Z" fill="#E0E0E0"/>
<path d="M98.7604 214.456C98.7591 215.156 98.5506 215.839 98.1611 216.42C97.7715 217.001 97.2185 217.454 96.5719 217.721C95.9253 217.988 95.2141 218.057 94.5282 217.92C93.8423 217.782 93.2125 217.445 92.7183 216.95C92.2241 216.455 91.8877 215.824 91.7517 215.138C91.6157 214.452 91.6862 213.741 91.9541 213.095C92.2221 212.449 92.6756 211.896 93.2573 211.508C93.839 211.119 94.5228 210.912 95.2223 210.912C95.6874 210.912 96.148 211.004 96.5777 211.182C97.0074 211.36 97.3977 211.621 97.7263 211.951C98.0549 212.28 98.3154 212.671 98.4928 213.101C98.6703 213.531 98.7612 213.991 98.7604 214.456Z" fill="#F5F5F5"/>
<path d="M90.5488 124.719C90.5631 124.477 90.528 124.236 90.4455 124.009C90.3631 123.782 90.2351 123.574 90.0695 123.398C89.9038 123.222 89.7039 123.082 89.4821 122.986C89.2603 122.891 89.0213 122.841 88.7797 122.841C88.5381 122.841 88.2991 122.891 88.0773 122.986C87.8555 123.082 87.6557 123.222 87.49 123.398C87.3243 123.574 87.1963 123.782 87.1139 124.009C87.0315 124.236 86.9964 124.477 87.0107 124.719V130.753C87.0375 131.204 87.2355 131.627 87.5644 131.937C87.8932 132.247 88.3279 132.42 88.7797 132.42C89.2315 132.42 89.6663 132.247 89.9951 131.937C90.3239 131.627 90.522 131.204 90.5488 130.753V124.719Z" fill="#E0E0E0"/>
<path d="M90.5488 122.222C90.5631 121.981 90.528 121.74 90.4455 121.513C90.3631 121.286 90.2351 121.078 90.0695 120.902C89.9038 120.726 89.7039 120.586 89.4821 120.49C89.2603 120.395 89.0213 120.345 88.7797 120.345C88.5381 120.345 88.2991 120.395 88.0773 120.49C87.8555 120.586 87.6557 120.726 87.49 120.902C87.3243 121.078 87.1963 121.286 87.1139 121.513C87.0315 121.74 86.9964 121.981 87.0107 122.222V128.257C87.0375 128.708 87.2355 129.131 87.5644 129.441C87.8932 129.751 88.3279 129.924 88.7797 129.924C89.2315 129.924 89.6663 129.751 89.9951 129.441C90.3239 129.131 90.522 128.708 90.5488 128.257V122.222Z" fill="#F5F5F5"/>
<path d="M103.546 124.719C103.561 124.477 103.526 124.236 103.443 124.009C103.361 123.782 103.233 123.574 103.067 123.398C102.901 123.222 102.702 123.082 102.48 122.986C102.258 122.891 102.019 122.841 101.777 122.841C101.536 122.841 101.297 122.891 101.075 122.986C100.853 123.082 100.653 123.222 100.488 123.398C100.322 123.574 100.194 123.782 100.112 124.009C100.029 124.236 99.994 124.477 100.008 124.719V130.753C100.035 131.204 100.233 131.627 100.562 131.937C100.891 132.247 101.326 132.42 101.777 132.42C102.229 132.42 102.664 132.247 102.993 131.937C103.322 131.627 103.52 131.204 103.546 130.753V124.719Z" fill="#E0E0E0"/>
<path d="M103.546 122.222C103.561 121.981 103.526 121.74 103.443 121.513C103.361 121.286 103.233 121.078 103.067 120.902C102.901 120.726 102.702 120.586 102.48 120.49C102.258 120.395 102.019 120.345 101.777 120.345C101.536 120.345 101.297 120.395 101.075 120.49C100.853 120.586 100.653 120.726 100.488 120.902C100.322 121.078 100.194 121.286 100.112 121.513C100.029 121.74 99.994 121.981 100.008 122.222V128.257C100.035 128.708 100.233 129.131 100.562 129.441C100.891 129.751 101.326 129.924 101.777 129.924C102.229 129.924 102.664 129.751 102.993 129.441C103.322 129.131 103.52 128.708 103.546 128.257V122.222Z" fill="#F5F5F5"/>
<path d="M274.903 134.329V131.446H192.348V134.329H274.903Z" fill="#F5F5F5"/>
<path d="M214.35 134.334H200.541V140.805H207.449C207.448 140.416 207.524 140.03 207.673 139.67C207.821 139.31 208.04 138.983 208.315 138.708C208.59 138.432 208.917 138.214 209.277 138.065C209.637 137.917 210.023 137.841 210.413 137.841H214.35V134.334Z" fill="#E0E0E0"/>
<path d="M208.11 134.334H198.045V140.805H201.209C201.208 140.416 201.284 140.03 201.433 139.67C201.581 139.31 201.8 138.983 202.075 138.708C202.35 138.432 202.678 138.214 203.037 138.065C203.397 137.917 203.783 137.841 204.173 137.841H208.11V134.334Z" fill="#F5F5F5"/>
<path d="M252.901 134.334H266.716V140.805H259.809C259.809 140.019 259.496 139.265 258.94 138.709C258.385 138.154 257.631 137.841 256.845 137.841H252.901V134.334Z" fill="#EBEBEB"/>
<path d="M259.141 134.334H269.212V140.805H266.049C266.049 140.019 265.736 139.265 265.181 138.709C264.625 138.154 263.871 137.841 263.085 137.841H259.141V134.334Z" fill="#F5F5F5"/>
<path d="M236.652 122.597C236.713 120.335 237.654 118.185 239.276 116.606C240.898 115.028 243.072 114.144 245.335 114.144C247.598 114.144 249.772 115.028 251.394 116.606C253.016 118.185 253.957 120.335 254.018 122.597V131.577H236.652V122.597Z" fill="#F0F0F0"/>
<path d="M251.928 124.146C252.788 120.5 250.53 116.847 246.884 115.986C243.239 115.126 239.585 117.384 238.725 121.03C237.864 124.676 240.122 128.329 243.768 129.189C247.414 130.05 251.067 127.792 251.928 124.146Z" fill="#FAFAFA"/>
<path d="M245.338 116.881C247.042 116.882 248.683 117.525 249.934 118.681C251.185 119.838 251.955 121.423 252.09 123.121C252.09 122.947 252.121 122.772 252.121 122.591C252.121 120.792 251.406 119.067 250.134 117.795C248.862 116.523 247.137 115.808 245.338 115.808C243.539 115.808 241.814 116.523 240.542 117.795C239.27 119.067 238.555 120.792 238.555 122.591C238.555 122.772 238.555 122.947 238.555 123.121C238.691 121.418 239.465 119.828 240.722 118.671C241.98 117.514 243.629 116.874 245.338 116.881Z" fill="#E0E0E0"/>
<path d="M249.6 122.591H246.037V119.028C246.037 118.837 245.961 118.655 245.827 118.52C245.692 118.386 245.51 118.31 245.319 118.31C245.129 118.31 244.946 118.386 244.812 118.52C244.677 118.655 244.602 118.837 244.602 119.028V123.308C244.601 123.403 244.619 123.496 244.655 123.584C244.69 123.671 244.743 123.751 244.81 123.818C244.877 123.884 244.956 123.937 245.044 123.973C245.131 124.009 245.225 124.027 245.319 124.026H249.6C249.79 124.026 249.973 123.95 250.107 123.816C250.242 123.681 250.318 123.499 250.318 123.308C250.318 123.118 250.242 122.935 250.107 122.801C249.973 122.666 249.79 122.591 249.6 122.591Z" fill="#E0E0E0"/>
<path d="M249.6 123.315C249.79 123.315 249.973 123.239 250.107 123.105C250.242 122.97 250.318 122.788 250.318 122.597C250.318 122.407 250.242 122.225 250.107 122.09C249.973 121.955 249.79 121.88 249.6 121.88H245.319C245.129 121.88 244.946 121.955 244.812 122.09C244.677 122.225 244.602 122.407 244.602 122.597C244.602 122.788 244.677 122.97 244.812 123.105C244.946 123.239 245.129 123.315 245.319 123.315H249.6Z" fill="#F5F5F5"/>
<path d="M246.056 118.31C246.056 118.12 245.98 117.938 245.845 117.803C245.711 117.668 245.528 117.593 245.338 117.593C245.148 117.593 244.965 117.668 244.831 117.803C244.696 117.938 244.62 118.12 244.62 118.31V122.597C244.62 122.788 244.696 122.97 244.831 123.105C244.965 123.239 245.148 123.315 245.338 123.315C245.528 123.315 245.711 123.239 245.845 123.105C245.98 122.97 246.056 122.788 246.056 122.597V118.31Z" fill="#EBEBEB"/>
<path d="M152.992 264.395C219.812 264.395 273.98 261.232 273.98 257.331C273.98 253.43 219.812 250.268 152.992 250.268C86.1728 250.268 32.0049 253.43 32.0049 257.331C32.0049 261.232 86.1728 264.395 152.992 264.395Z" fill="#F5F5F5"/>
<path d="M206.039 239.242H140.712C139.455 239.254 138.209 239.008 137.052 238.517C135.894 238.026 134.851 237.302 133.986 236.389C133.122 235.477 132.455 234.396 132.028 233.214C131.6 232.032 131.421 230.774 131.502 229.52L139.988 67.5667C140.15 64.9532 141.296 62.498 143.194 60.6945C145.093 58.891 147.603 57.8729 150.222 57.8448H215.542C216.8 57.831 218.046 58.077 219.204 58.5674C220.362 59.0578 221.407 59.7819 222.272 60.6946C223.137 61.6072 223.804 62.6886 224.232 63.8711C224.66 65.0536 224.839 66.3118 224.759 67.5667L216.272 229.52C216.109 232.133 214.963 234.587 213.065 236.39C211.166 238.193 208.657 239.212 206.039 239.242Z" fill="#0094FF"/>
<path d="M215.205 64.3656H149.879C148.219 64.3858 146.628 65.0323 145.425 66.1755C144.221 67.3187 143.494 68.8742 143.389 70.5307L135.215 226.531C135.163 227.326 135.276 228.124 135.547 228.874C135.818 229.623 136.241 230.309 136.789 230.888C137.338 231.467 138 231.926 138.734 232.237C139.468 232.548 140.258 232.704 141.055 232.696H206.382C208.041 232.676 209.632 232.029 210.836 230.886C212.039 229.743 212.766 228.187 212.871 226.531L221.046 70.5307C221.097 69.7351 220.984 68.9375 220.713 68.1877C220.442 67.4379 220.019 66.7522 219.471 66.1734C218.923 65.5947 218.261 65.1354 217.527 64.8243C216.793 64.5132 216.002 64.357 215.205 64.3656Z" fill="#0094FF"/>
<path opacity="0.8" d="M215.205 64.3656H149.879C148.219 64.3858 146.628 65.0323 145.425 66.1755C144.221 67.3187 143.494 68.8742 143.389 70.5307L135.215 226.531C135.163 227.326 135.276 228.124 135.547 228.874C135.818 229.623 136.241 230.309 136.789 230.888C137.338 231.467 138 231.926 138.734 232.237C139.468 232.548 140.258 232.704 141.055 232.696H206.382C208.041 232.676 209.632 232.029 210.836 230.886C212.039 229.743 212.766 228.187 212.871 226.531L221.046 70.5307C221.097 69.7351 220.984 68.9375 220.713 68.1877C220.442 67.4379 220.019 66.7522 219.471 66.1734C218.923 65.5947 218.261 65.1354 217.527 64.8243C216.793 64.5132 216.002 64.357 215.205 64.3656Z" fill="white"/>
<path d="M220.896 57.8448H215.561C216.818 57.831 218.065 58.077 219.223 58.5674C220.381 59.0578 221.425 59.7819 222.291 60.6946C223.156 61.6072 223.823 62.6886 224.251 63.8711C224.679 65.0536 224.858 66.3118 224.777 67.5667L216.291 229.52C216.129 232.133 214.983 234.588 213.085 236.392C211.186 238.195 208.676 239.214 206.057 239.242H211.393C214.011 239.214 216.522 238.195 218.42 236.392C220.319 234.588 221.464 232.133 221.626 229.52L230.113 67.5667C230.193 66.3118 230.014 65.0536 229.586 63.8711C229.158 62.6886 228.491 61.6072 227.626 60.6946C226.761 59.7819 225.716 59.0578 224.558 58.5674C223.4 58.077 222.154 57.831 220.896 57.8448Z" fill="#0094FF"/>
<path opacity="0.4" d="M220.896 57.8448H215.561C216.818 57.831 218.065 58.077 219.223 58.5674C220.381 59.0578 221.425 59.7819 222.291 60.6946C223.156 61.6072 223.823 62.6886 224.251 63.8711C224.679 65.0536 224.858 66.3118 224.777 67.5667L216.291 229.52C216.129 232.133 214.983 234.588 213.085 236.392C211.186 238.195 208.676 239.214 206.057 239.242H211.393C214.011 239.214 216.522 238.195 218.42 236.392C220.319 234.588 221.464 232.133 221.626 229.52L230.113 67.5667C230.193 66.3118 230.014 65.0536 229.586 63.8711C229.158 62.6886 228.491 61.6072 227.626 60.6946C226.761 59.7819 225.716 59.0578 224.558 58.5674C223.4 58.077 222.154 57.831 220.896 57.8448Z" fill="white"/>
<path opacity="0.4" d="M149.872 64.3657L158.746 232.752H181.834L172.96 64.3969H149.872V64.3657Z" fill="white"/>
<path opacity="0.4" d="M186.014 232.721H191.212L182.339 64.3657H177.141L186.014 232.721Z" fill="white"/>
<path d="M153.167 55.0054H155.457C155.532 55.0054 155.603 54.9759 155.656 54.9232C155.708 54.8705 155.738 54.7991 155.738 54.7246C155.738 54.6502 155.708 54.5788 155.656 54.5261C155.603 54.4734 155.532 54.4438 155.457 54.4438H153.167C153.093 54.4438 153.021 54.4734 152.968 54.5261C152.916 54.5788 152.886 54.6502 152.886 54.7246C152.886 54.7991 152.916 54.8705 152.968 54.9232C153.021 54.9759 153.093 55.0054 153.167 55.0054Z" fill="#0094FF"/>
<path d="M136.519 73.4886C136.662 70.8179 136.55 67.9662 137.143 65.3766C138.466 59.3612 143.87 55.2428 149.922 55.0369C150.278 55.0369 150.284 54.4628 149.922 54.4753C147.273 54.5333 144.694 55.3415 142.485 56.806C140.276 58.2706 138.527 60.3314 137.442 62.7495C135.97 66.0879 136.194 69.9505 135.995 73.5198C135.995 73.8817 136.538 73.8817 136.556 73.5198L136.519 73.4886Z" fill="#0094FF"/>
<path d="M187.687 97.7811H172.711C172.052 97.7884 171.399 97.6597 170.792 97.403C170.185 97.1462 169.638 96.767 169.185 96.289C168.731 95.811 168.382 95.2446 168.157 94.6252C167.933 94.0058 167.839 93.3467 167.881 92.6892L168.667 77.7132C168.751 76.3439 169.35 75.0571 170.345 74.1122C171.34 73.1674 172.656 72.6346 174.027 72.6214H189.003C189.662 72.614 190.315 72.7427 190.921 72.9995C191.528 73.2563 192.074 73.6357 192.527 74.1137C192.98 74.5918 193.329 75.1583 193.553 75.7778C193.777 76.3972 193.87 77.0561 193.827 77.7132L193.047 92.6892C192.96 94.0576 192.36 95.3426 191.366 96.2869C190.372 97.2312 189.058 97.7649 187.687 97.7811Z" fill="white"/>
<path d="M178.127 87.4598C177.077 86.3105 176.458 84.8332 176.374 83.279H176.311C175.687 83.279 175.25 82.6113 175.294 81.7938C175.338 80.9764 175.862 80.3087 176.467 80.3087H176.623L176.736 79.9094C180.349 79.7159 182.352 78.5241 183.456 77.5506C183.685 78.0384 184.015 78.4723 184.424 78.8239C184.832 79.1755 185.311 79.437 185.827 79.5911C185.883 79.822 185.933 80.0654 185.971 80.3087H186.127C186.751 80.3087 187.194 80.9702 187.15 81.7938C187.106 82.6175 186.576 83.279 185.971 83.279H185.908C185.655 84.7761 184.962 86.164 183.918 87.2663C184.772 87.5378 185.673 87.6292 186.564 87.5346C190.214 87.3225 188.286 79.8158 186.32 77.1263C185.122 75.479 184.448 74.7114 183.768 75.0172C183.007 74.5991 178.433 72.7146 175.475 78.262C172.405 84.0215 171.494 89.2631 178.127 87.4598Z" fill="#0094FF"/>
<path d="M188.18 91.4973L184.405 90.293C184.405 90.293 181.141 91.541 180.361 94.661C179.912 91.541 176.779 90.293 176.779 90.293L172.879 91.4973C170.539 91.8218 169.404 93.8248 168.854 95.8965C169.308 96.4861 169.893 96.9622 170.562 97.287C171.231 97.6119 171.967 97.7767 172.711 97.7685H187.687C188.457 97.7648 189.218 97.5959 189.918 97.2729C190.618 96.95 191.24 96.4806 191.743 95.8965C191.412 93.8248 190.482 91.8218 188.18 91.4973Z" fill="#0094FF"/>
<path d="M198.526 95.578C198.548 95.283 198.548 94.9869 198.526 94.6919L200.017 93.4065C199.884 92.788 199.674 92.1885 199.393 91.6218L197.477 91.7217C197.145 91.2504 196.745 90.83 196.292 90.4737L196.491 88.5642C195.942 88.2469 195.355 87.9996 194.744 87.8279L193.346 89.2319C193.055 89.1921 192.761 89.1712 192.467 89.1695C192.168 89.1712 191.87 89.1921 191.574 89.2319L190.37 87.8154C189.736 87.988 189.124 88.2352 188.548 88.5518V90.4799C188.057 90.8368 187.614 91.2563 187.231 91.7279L185.328 91.6281C184.983 92.1897 184.703 92.7884 184.492 93.4127L185.846 94.6981C185.788 94.9904 185.753 95.2866 185.74 95.5842C185.718 95.8771 185.718 96.1712 185.74 96.4641L184.255 97.7495C184.391 98.3672 184.6 98.9664 184.879 99.5341L186.794 99.4343C187.131 99.9027 187.529 100.323 187.98 100.682L187.787 102.592C188.334 102.909 188.919 103.156 189.528 103.328L190.888 101.912C191.18 101.951 191.473 101.972 191.768 101.974C192.064 101.972 192.36 101.952 192.654 101.912L193.864 103.328C194.498 103.153 195.109 102.906 195.686 102.592V100.682C196.175 100.322 196.617 99.903 197.003 99.4343L198.906 99.5341C199.252 98.9737 199.53 98.3747 199.736 97.7495L198.432 96.4578C198.482 96.1669 198.514 95.873 198.526 95.578ZM192.024 97.581C191.764 97.586 191.506 97.5368 191.266 97.4366C191.026 97.3363 190.81 97.1873 190.631 96.9988C190.452 96.8104 190.314 96.5868 190.226 96.3421C190.138 96.0975 190.102 95.8373 190.12 95.578C190.155 95.0382 190.392 94.5313 190.784 94.1587C191.176 93.7862 191.695 93.5755 192.236 93.5687C192.494 93.568 192.749 93.6206 192.985 93.7231C193.222 93.8257 193.435 93.976 193.61 94.1646C193.786 94.3533 193.921 94.5762 194.007 94.8194C194.092 95.0626 194.127 95.3209 194.108 95.578C194.075 96.1125 193.842 96.6151 193.456 96.9861C193.07 97.3572 192.559 97.5695 192.024 97.581Z" fill="#0094FF"/>
<path opacity="0.4" d="M198.526 95.578C198.548 95.283 198.548 94.9869 198.526 94.6919L200.017 93.4065C199.884 92.788 199.674 92.1885 199.393 91.6218L197.477 91.7217C197.145 91.2504 196.745 90.83 196.292 90.4737L196.491 88.5642C195.942 88.2469 195.355 87.9996 194.744 87.8279L193.346 89.2319C193.055 89.1921 192.761 89.1712 192.467 89.1695C192.168 89.1712 191.87 89.1921 191.574 89.2319L190.37 87.8154C189.736 87.988 189.124 88.2352 188.548 88.5518V90.4799C188.057 90.8368 187.614 91.2563 187.231 91.7279L185.328 91.6281C184.983 92.1897 184.703 92.7884 184.492 93.4127L185.846 94.6981C185.788 94.9904 185.753 95.2866 185.74 95.5842C185.718 95.8771 185.718 96.1712 185.74 96.4641L184.255 97.7495C184.391 98.3672 184.6 98.9664 184.879 99.5341L186.794 99.4343C187.131 99.9027 187.529 100.323 187.98 100.682L187.787 102.592C188.334 102.909 188.919 103.156 189.528 103.328L190.888 101.912C191.18 101.951 191.473 101.972 191.768 101.974C192.064 101.972 192.36 101.952 192.654 101.912L193.864 103.328C194.498 103.153 195.109 102.906 195.686 102.592V100.682C196.175 100.322 196.617 99.903 197.003 99.4343L198.906 99.5341C199.252 98.9737 199.53 98.3747 199.736 97.7495L198.432 96.4578C198.482 96.1669 198.514 95.873 198.526 95.578ZM192.024 97.581C191.764 97.586 191.506 97.5368 191.266 97.4366C191.026 97.3363 190.81 97.1873 190.631 96.9988C190.452 96.8104 190.314 96.5868 190.226 96.3421C190.138 96.0975 190.102 95.8373 190.12 95.578C190.155 95.0382 190.392 94.5313 190.784 94.1587C191.176 93.7862 191.695 93.5755 192.236 93.5687C192.494 93.568 192.749 93.6206 192.985 93.7231C193.222 93.8257 193.435 93.976 193.61 94.1646C193.786 94.3533 193.921 94.5762 194.007 94.8194C194.092 95.0626 194.127 95.3209 194.108 95.578C194.075 96.1125 193.842 96.6151 193.456 96.9861C193.07 97.3572 192.559 97.5695 192.024 97.581Z" fill="white"/>
<path d="M192.024 97.5812C191.764 97.5862 191.506 97.5369 191.266 97.4367C191.026 97.3365 190.81 97.1874 190.631 96.999C190.452 96.8105 190.314 96.5869 190.226 96.3423C190.138 96.0977 190.102 95.8374 190.12 95.5781C190.155 95.0383 190.392 94.5314 190.784 94.1589C191.176 93.7863 191.695 93.5756 192.236 93.5689C192.494 93.5682 192.749 93.6207 192.985 93.7233C193.222 93.8258 193.435 93.9761 193.61 94.1648C193.786 94.3534 193.921 94.5763 194.007 94.8195C194.092 95.0627 194.127 95.321 194.108 95.5781C194.075 96.1126 193.842 96.6152 193.456 96.9863C193.07 97.3573 192.559 97.5697 192.024 97.5812Z" fill="white"/>
<path d="M179.157 166.838H177.029L177.222 163.182H179.344L179.157 166.838Z" fill="#089024"/>
<path d="M188.835 166.839H186.713L187.031 160.811H189.153L188.835 166.839Z" fill="#089024"/>
<path d="M198.519 166.839H196.398L196.835 158.44H198.962L198.519 166.839Z" fill="#089024"/>
<path d="M208.204 166.839H206.076L206.644 156.075H208.766L208.204 166.839Z" fill="white"/>
<path d="M149.81 166.839H160.605C162.059 166.824 163.454 166.26 164.509 165.258C165.564 164.257 166.2 162.893 166.29 161.441C166.334 160.745 166.235 160.046 165.997 159.39C165.76 158.733 165.389 158.133 164.909 157.626C164.428 157.12 163.849 156.718 163.206 156.445C162.563 156.173 161.871 156.036 161.173 156.044H150.384C148.93 156.058 147.535 156.623 146.48 157.625C145.425 158.626 144.789 159.99 144.699 161.441C144.655 162.138 144.754 162.835 144.991 163.491C145.229 164.147 145.599 164.747 146.078 165.254C146.558 165.761 147.137 166.163 147.779 166.435C148.421 166.708 149.112 166.846 149.81 166.839Z" fill="white"/>
<path d="M150.315 157.248H161.111C162.419 157.234 163.682 157.726 164.636 158.621C165.589 159.517 166.16 160.747 166.227 162.053C166.259 161.86 166.277 161.66 166.29 161.46C166.334 160.764 166.235 160.065 165.997 159.409C165.76 158.752 165.389 158.152 164.909 157.645C164.428 157.139 163.849 156.737 163.206 156.464C162.563 156.192 161.871 156.055 161.173 156.063H150.384C148.93 156.077 147.535 156.642 146.48 157.644C145.425 158.645 144.789 160.009 144.699 161.46C144.699 161.66 144.699 161.86 144.699 162.053C144.926 160.722 145.611 159.512 146.637 158.634C147.664 157.756 148.965 157.266 150.315 157.248Z" fill="#0094FF"/>
<path opacity="0.3" d="M150.315 157.248H161.111C162.419 157.234 163.682 157.726 164.636 158.621C165.589 159.517 166.16 160.747 166.227 162.053C166.259 161.86 166.277 161.66 166.29 161.46C166.334 160.764 166.235 160.065 165.997 159.409C165.76 158.752 165.389 158.152 164.909 157.645C164.428 157.139 163.849 156.737 163.206 156.464C162.563 156.192 161.871 156.055 161.173 156.063H150.384C148.93 156.077 147.535 156.642 146.48 157.644C145.425 158.645 144.789 160.009 144.699 161.46C144.699 161.66 144.699 161.86 144.699 162.053C144.926 160.722 145.611 159.512 146.637 158.634C147.664 157.756 148.965 157.266 150.315 157.248Z" fill="white"/>
<path d="M153.761 165.196C155.952 163.06 156.085 159.642 154.058 157.562C152.03 155.481 148.61 155.526 146.418 157.662C144.226 159.797 144.093 163.216 146.121 165.296C148.148 167.377 151.569 167.332 153.761 165.196Z" fill="#089024"/>
<path d="M143.726 213.371H141.604L141.86 208.528H143.982L143.726 213.371Z" fill="#0094FF"/>
<path d="M151.601 212.184H149.479L149.579 210.306H151.701L151.601 212.184Z" fill="#0094FF"/>
<path d="M159.382 212.778H157.26L157.416 209.714H159.544L159.382 212.778Z" fill="#0094FF"/>
<path d="M167.226 212.184H165.098L165.198 210.306H167.326L167.226 212.184Z" fill="#0094FF"/>
<path d="M174.976 213.371H172.848L173.104 208.528H175.225L174.976 213.371Z" fill="#0094FF"/>
<path d="M182.844 212.184H180.723L180.823 210.306H182.944L182.844 212.184Z" fill="#0094FF"/>
<path d="M190.626 212.778H188.504L188.666 209.714H190.788L190.626 212.778Z" fill="#0094FF"/>
<path d="M198.469 212.184H196.348L196.441 210.306H198.569L198.469 212.184Z" fill="#0094FF"/>
<path d="M206.22 213.371H204.098L204.348 208.528H206.475L206.22 213.371Z" fill="#0094FF"/>
<g opacity="0.3">
<path d="M143.726 213.371H141.604L141.86 208.528H143.982L143.726 213.371Z" fill="#089024"/>
<path d="M151.601 212.185H149.479L149.579 210.307H151.701L151.601 212.185Z" fill="#089024"/>
<path d="M159.382 212.778H157.26L157.416 209.714H159.544L159.382 212.778Z" fill="#089024"/>
<path d="M167.226 212.185H165.098L165.198 210.307H167.325L167.226 212.185Z" fill="black"/>
<path d="M174.976 213.371H172.848L173.104 208.528H175.225L174.976 213.371Z" fill="#089024"/>
<path d="M182.844 212.185H180.723L180.823 210.307H182.944L182.844 212.185Z" fill="#089024"/>
<path d="M190.626 212.778H188.504L188.666 209.714H190.788L190.626 212.778Z" fill="#089024"/>
<path d="M198.469 212.185H196.348L196.441 210.307H198.569L198.469 212.185Z" fill="#089024"/>
<path d="M206.219 213.371H204.098L204.347 208.528H206.475L206.219 213.371Z" fill="#089024"/>
</g>
<path d="M168.979 214.17C169.01 213.633 169.104 211.78 169.135 211.249C169.166 210.719 169.26 208.859 169.285 208.329C169.31 207.952 169.257 207.574 169.129 207.218C169.001 206.863 168.801 206.537 168.541 206.263C168.282 205.988 167.968 205.77 167.621 205.622C167.273 205.474 166.898 205.399 166.521 205.402C165.733 205.412 164.978 205.719 164.408 206.262C163.837 206.805 163.493 207.543 163.444 208.329C163.413 208.859 163.319 210.713 163.288 211.249C163.257 211.786 163.163 213.633 163.139 214.17C163.114 214.546 163.168 214.924 163.297 215.278C163.425 215.633 163.625 215.958 163.885 216.232C164.144 216.506 164.457 216.724 164.804 216.871C165.152 217.019 165.526 217.093 165.903 217.09C166.689 217.081 167.443 216.774 168.014 216.233C168.584 215.691 168.929 214.955 168.979 214.17Z" fill="#089024"/>
<path d="M148.443 192.859H159.245C160.698 192.845 162.092 192.28 163.146 191.278C164.2 190.277 164.835 188.913 164.923 187.462C164.969 186.765 164.87 186.067 164.633 185.411C164.396 184.754 164.026 184.154 163.546 183.647C163.067 183.14 162.487 182.738 161.845 182.466C161.202 182.193 160.51 182.057 159.813 182.064H149.011C147.557 182.079 146.162 182.644 145.107 183.645C144.053 184.647 143.416 186.01 143.326 187.462C143.282 188.159 143.381 188.857 143.619 189.513C143.857 190.17 144.227 190.77 144.707 191.277C145.188 191.783 145.767 192.186 146.41 192.458C147.053 192.73 147.745 192.867 148.443 192.859Z" fill="white"/>
<path d="M148.949 183.25H159.744C161.052 183.235 162.314 183.727 163.267 184.623C164.22 185.519 164.789 186.749 164.855 188.055C164.888 187.859 164.909 187.661 164.917 187.462C164.963 186.765 164.864 186.067 164.627 185.411C164.39 184.754 164.02 184.154 163.54 183.647C163.061 183.14 162.481 182.738 161.839 182.466C161.196 182.193 160.504 182.057 159.807 182.064H149.011C147.557 182.079 146.162 182.644 145.107 183.645C144.053 184.647 143.417 186.01 143.327 187.462C143.327 187.662 143.327 187.861 143.327 188.055C143.551 186.721 144.237 185.509 145.265 184.631C146.293 183.752 147.597 183.263 148.949 183.25Z" fill="#0094FF"/>
<path opacity="0.3" d="M148.949 183.25H159.744C161.052 183.235 162.314 183.727 163.267 184.623C164.22 185.519 164.789 186.749 164.855 188.055C164.888 187.859 164.909 187.661 164.917 187.462C164.963 186.765 164.864 186.067 164.627 185.411C164.39 184.754 164.02 184.154 163.54 183.647C163.061 183.14 162.481 182.738 161.839 182.466C161.196 182.193 160.504 182.057 159.807 182.064H149.011C147.557 182.079 146.162 182.644 145.107 183.645C144.053 184.647 143.417 186.01 143.327 187.462C143.327 187.662 143.327 187.861 143.327 188.055C143.551 186.721 144.237 185.509 145.265 184.631C146.293 183.752 147.597 183.263 148.949 183.25Z" fill="white"/>
<path d="M154.128 187.462C154.218 186.01 154.854 184.647 155.909 183.645C156.964 182.644 158.358 182.079 159.813 182.064C160.511 182.057 161.202 182.193 161.845 182.466C162.487 182.738 163.067 183.14 163.547 183.647C164.026 184.154 164.396 184.754 164.633 185.411C164.87 186.067 164.969 186.765 164.923 187.462C164.835 188.913 164.2 190.277 163.146 191.278C162.093 192.28 160.699 192.845 159.245 192.859C158.547 192.867 157.855 192.73 157.212 192.458C156.569 192.186 155.989 191.783 155.509 191.277C155.029 190.77 154.658 190.17 154.421 189.513C154.183 188.857 154.083 188.159 154.128 187.462Z" fill="#089024"/>
<path d="M149.504 117.312H208.416C209.188 117.304 209.929 117.004 210.489 116.473C211.049 115.942 211.387 115.218 211.436 114.448C211.459 114.078 211.406 113.708 211.28 113.36C211.154 113.012 210.957 112.694 210.702 112.425C210.448 112.156 210.14 111.943 209.8 111.798C209.459 111.653 209.092 111.58 208.722 111.584H149.804C149.032 111.592 148.293 111.891 147.733 112.423C147.174 112.954 146.837 113.678 146.79 114.448C146.765 114.818 146.817 115.189 146.942 115.538C147.068 115.887 147.264 116.206 147.519 116.475C147.774 116.744 148.082 116.957 148.424 117.101C148.766 117.245 149.133 117.317 149.504 117.312Z" fill="white"/>
<path d="M149.804 112.851H208.691C209.306 112.845 209.905 113.052 210.385 113.436C210.866 113.82 211.2 114.358 211.33 114.96C211.365 114.797 211.39 114.632 211.405 114.467C211.428 114.097 211.375 113.727 211.249 113.379C211.123 113.031 210.926 112.713 210.671 112.444C210.417 112.175 210.109 111.962 209.769 111.817C209.428 111.672 209.061 111.599 208.691 111.603H149.804C149.032 111.611 148.293 111.911 147.734 112.442C147.174 112.973 146.837 113.697 146.79 114.467C146.776 114.723 146.802 114.98 146.865 115.228C147.016 114.559 147.389 113.961 147.922 113.529C148.455 113.098 149.118 112.859 149.804 112.851Z" fill="#0094FF"/>
<path opacity="0.3" d="M149.804 112.851H208.691C209.306 112.845 209.905 113.052 210.385 113.436C210.866 113.82 211.2 114.358 211.33 114.96C211.365 114.797 211.39 114.632 211.405 114.467C211.428 114.097 211.375 113.727 211.249 113.379C211.123 113.031 210.926 112.713 210.671 112.444C210.417 112.175 210.109 111.962 209.769 111.817C209.428 111.672 209.061 111.599 208.691 111.603H149.804C149.032 111.611 148.293 111.911 147.734 112.442C147.174 112.973 146.837 113.697 146.79 114.467C146.776 114.723 146.802 114.98 146.865 115.228C147.016 114.559 147.389 113.961 147.922 113.529C148.455 113.098 149.118 112.859 149.804 112.851Z" fill="white"/>
<path d="M163.942 118.223C166.134 116.088 166.267 112.67 164.24 110.589C162.213 108.508 158.792 108.552 156.6 110.687C154.408 112.823 154.275 116.241 156.302 118.322C158.329 120.403 161.749 120.359 163.942 118.223Z" fill="#089024"/>
<path d="M207.386 184.142C207.404 183.874 207.365 183.605 207.274 183.352C207.182 183.099 207.039 182.868 206.854 182.673C206.669 182.478 206.445 182.323 206.198 182.218C205.95 182.113 205.683 182.061 205.415 182.064H188.03C187.47 182.071 186.934 182.289 186.528 182.674C186.121 183.059 185.876 183.583 185.84 184.142L185.49 190.781C185.473 191.05 185.511 191.319 185.603 191.572C185.695 191.824 185.837 192.056 186.023 192.251C186.208 192.446 186.431 192.601 186.679 192.705C186.926 192.81 187.193 192.862 187.462 192.859H204.847C205.406 192.853 205.943 192.635 206.349 192.25C206.755 191.864 207.001 191.34 207.037 190.781L207.386 184.142Z" fill="#089024"/>
<path d="M187.968 183.25H205.352C205.621 183.247 205.888 183.299 206.135 183.404C206.383 183.508 206.607 183.663 206.792 183.858C206.977 184.053 207.12 184.285 207.211 184.537C207.303 184.79 207.341 185.059 207.324 185.328L207.386 184.142C207.404 183.874 207.365 183.605 207.274 183.352C207.182 183.099 207.039 182.868 206.854 182.673C206.669 182.478 206.446 182.323 206.198 182.218C205.95 182.113 205.684 182.061 205.415 182.064H188.03C187.47 182.071 186.934 182.289 186.528 182.674C186.122 183.059 185.876 183.583 185.84 184.142L185.777 185.328C185.813 184.769 186.059 184.245 186.465 183.859C186.871 183.474 187.408 183.256 187.968 183.25Z" fill="#0094FF"/>
<path opacity="0.3" d="M187.968 183.25H205.352C205.621 183.247 205.888 183.299 206.135 183.404C206.383 183.508 206.607 183.663 206.792 183.858C206.977 184.053 207.12 184.285 207.211 184.537C207.303 184.79 207.341 185.059 207.324 185.328L207.386 184.142C207.404 183.874 207.365 183.605 207.274 183.352C207.182 183.099 207.039 182.868 206.854 182.673C206.669 182.478 206.446 182.323 206.198 182.218C205.95 182.113 205.684 182.061 205.415 182.064H188.03C187.47 182.071 186.934 182.289 186.528 182.674C186.122 183.059 185.876 183.583 185.84 184.142L185.777 185.328C185.813 184.769 186.059 184.245 186.465 183.859C186.871 183.474 187.408 183.256 187.968 183.25Z" fill="black"/>
<path d="M196.641 184.142C196.658 183.874 196.62 183.605 196.528 183.352C196.437 183.099 196.294 182.868 196.109 182.673C195.924 182.478 195.7 182.323 195.452 182.218C195.205 182.113 194.938 182.061 194.669 182.064H188.03C187.47 182.071 186.934 182.289 186.528 182.674C186.121 183.059 185.876 183.583 185.84 184.142L185.49 190.781C185.473 191.05 185.511 191.319 185.603 191.572C185.695 191.824 185.837 192.056 186.023 192.251C186.208 192.446 186.431 192.601 186.679 192.705C186.926 192.81 187.193 192.862 187.462 192.859H194.101C194.661 192.853 195.198 192.635 195.604 192.25C196.01 191.864 196.256 191.34 196.292 190.781L196.641 184.142Z" fill="white"/>
<path d="M192.03 189.29H189.908L190.102 185.634H192.223L192.03 189.29Z" fill="#0094FF"/>
<path d="M207.455 135.09H148.574C147.803 135.099 147.063 135.399 146.503 135.93C145.943 136.461 145.605 137.184 145.554 137.954C145.53 138.324 145.583 138.694 145.709 139.043C145.835 139.391 146.031 139.71 146.286 139.979C146.541 140.248 146.848 140.461 147.19 140.605C147.531 140.75 147.898 140.822 148.269 140.818H207.168C207.94 140.811 208.68 140.512 209.24 139.98C209.799 139.449 210.136 138.724 210.182 137.954C210.206 137.583 210.153 137.211 210.027 136.862C209.9 136.513 209.702 136.193 209.446 135.924C209.19 135.655 208.881 135.442 208.538 135.298C208.195 135.155 207.827 135.084 207.455 135.09Z" fill="#089024"/>
<path opacity="0.3" d="M148.574 136.338H207.455C208.07 136.331 208.668 136.537 209.149 136.92C209.63 137.303 209.964 137.84 210.094 138.441C210.135 138.282 210.16 138.119 210.169 137.954C210.193 137.584 210.141 137.214 210.015 136.865C209.889 136.517 209.692 136.198 209.438 135.929C209.183 135.66 208.875 135.447 208.534 135.303C208.193 135.158 207.825 135.086 207.455 135.09H148.574C148.124 135.08 147.677 135.174 147.268 135.363C146.859 135.552 146.499 135.832 146.215 136.182C145.93 136.532 145.73 136.942 145.628 137.381C145.527 137.82 145.527 138.277 145.629 138.715C145.783 138.047 146.157 137.449 146.691 137.018C147.225 136.586 147.888 136.347 148.574 136.338Z" fill="black"/>
<path d="M198.32 143.352H193.808C193.403 143.356 193.002 143.277 192.63 143.12C192.257 142.962 191.92 142.73 191.641 142.438C191.361 142.146 191.144 141.799 191.004 141.419C190.864 141.04 190.803 140.636 190.825 140.232L191.062 135.72C191.12 134.879 191.494 134.09 192.108 133.511C192.722 132.933 193.532 132.608 194.376 132.6H198.887C199.292 132.596 199.692 132.675 200.065 132.832C200.437 132.99 200.774 133.222 201.053 133.514C201.332 133.807 201.548 134.154 201.687 134.533C201.827 134.913 201.887 135.317 201.864 135.72L201.627 140.232C201.569 141.072 201.196 141.86 200.583 142.438C199.97 143.017 199.162 143.343 198.32 143.352Z" fill="white"/>
<path d="M197.546 139.782H195.424L195.618 136.125H197.739L197.546 139.782Z" fill="#0094FF"/>
<path d="M104.713 118.909L96.7198 127.957C97.3438 132.275 98.648 144.805 98.648 144.805C97.4499 146.39 94.5233 145.941 94.5233 145.941C92.1336 139.989 91.1554 133.564 91.6654 127.171C92.227 121.324 99.7275 109.824 105.069 106.579C105.94 106.052 106.884 105.654 107.871 105.4L108.925 105.275L105.181 119.184L104.713 118.909Z" fill="#FF5A00"/>
<path opacity="0.6" d="M104.713 118.909L96.7198 127.957C97.3438 132.275 98.648 144.805 98.648 144.805C97.4499 146.39 94.5233 145.941 94.5233 145.941C92.1336 139.989 91.1554 133.564 91.6654 127.171C92.227 121.324 99.7275 109.824 105.069 106.579C105.94 106.052 106.884 105.654 107.871 105.4L108.925 105.275L105.181 119.184L104.713 118.909Z" fill="black"/>
<path d="M98.2112 145.791L100.146 147.856C100.209 147.925 100.257 148.006 100.289 148.093L101.425 151.288C101.494 151.456 101.494 151.645 101.425 151.813L100.876 152.942C100.831 153.036 100.764 153.118 100.682 153.182C100.6 153.246 100.504 153.29 100.401 153.31L96.4516 154.128C96.363 154.146 96.2717 154.146 96.183 154.128C96.0944 154.111 96.0101 154.076 95.9352 154.025C95.8602 153.975 95.7961 153.91 95.7465 153.834C95.697 153.758 95.663 153.674 95.6466 153.585L94.8853 149.379C94.8677 149.295 94.8677 149.207 94.8853 149.123L95.4095 146.427C95.4363 146.293 95.5031 146.17 95.6011 146.074C95.6991 145.978 95.8237 145.915 95.9586 145.891L97.5997 145.597C97.7097 145.577 97.823 145.584 97.9297 145.618C98.0364 145.651 98.1331 145.711 98.2112 145.791Z" fill="#FAB27B"/>
<path d="M99.8773 145.317L93.7247 148.107L93.6436 145.13L99.3219 142.946L99.8773 145.317Z" fill="#FF5A00"/>
<path opacity="0.5" d="M99.8773 145.317L93.7247 148.107L93.6436 145.13L99.3219 142.946L99.8773 145.317Z" fill="white"/>
<path d="M97.4937 156.324C93.8246 169.428 95.3784 188.772 93.3628 201.745C91.9776 210.681 82.5052 240.09 82.5052 240.09L90.8668 242.623C90.8668 242.623 101.3 216.721 103.347 209.002C106.629 196.479 111.559 172.717 111.559 172.717C111.559 172.717 113.399 165.978 112.563 165.229C111.727 164.48 97.4937 156.324 97.4937 156.324Z" fill="#FF5A00"/>
<path opacity="0.3" d="M106.704 165.323L112.751 167.282L110.486 177.89C110.486 177.89 111.596 167.744 106.704 165.323Z" fill="black"/>
<path d="M84.1838 239.71L82.6862 244.459L86.7422 246.281L88.7514 241.239L84.1838 239.71Z" fill="#FAB27B"/>
<path opacity="0.2" d="M83.2976 242.524L87.5782 244.178L88.1461 242.749L83.647 241.419L83.2976 242.524Z" fill="black"/>
<path d="M82.5926 237.488L92.82 240.284L90.9667 243.579L82.0186 240.939L82.5926 237.488Z" fill="#FF5A00"/>
<path opacity="0.5" d="M82.5926 237.488L92.82 240.284L90.9667 243.579L82.0186 240.939L82.5926 237.488Z" fill="white"/>
<path d="M87.6096 246.929C87.5892 246.914 87.5731 246.895 87.5632 246.871C87.5533 246.848 87.55 246.823 87.5535 246.798C87.5584 246.774 87.5707 246.752 87.5885 246.735C87.6064 246.719 87.6291 246.708 87.6533 246.704C87.7469 246.704 89.7812 246.392 90.4925 246.923C90.5598 246.97 90.6171 247.03 90.661 247.1C90.7049 247.17 90.7346 247.247 90.7484 247.328C90.7721 247.42 90.7669 247.516 90.7333 247.605C90.6998 247.693 90.6396 247.769 90.5612 247.821C90.0417 247.948 89.4939 247.882 89.0199 247.634C88.5301 247.441 88.0582 247.205 87.6096 246.929ZM88.034 246.929C88.8826 247.391 90.0869 247.853 90.4301 247.628C90.48 247.628 90.5362 247.547 90.505 247.372C90.4994 247.322 90.4817 247.273 90.4535 247.231C90.4253 247.188 90.3873 247.153 90.3428 247.129C90.2827 247.081 90.2153 247.043 90.1431 247.016C89.4528 246.849 88.737 246.815 88.034 246.917V246.929Z" fill="#FF5A00"/>
<path d="M87.5536 246.898C87.5426 246.879 87.5369 246.858 87.5369 246.836C87.5369 246.814 87.5426 246.792 87.5536 246.773C87.5848 246.717 88.215 245.482 89.02 245.219C89.1348 245.18 89.2565 245.164 89.3777 245.172C89.4989 245.181 89.6171 245.214 89.7251 245.269C90.0246 245.425 90.0621 245.619 90.0184 245.756C89.9123 246.33 88.3585 246.917 87.6909 246.948C87.6748 246.954 87.657 246.954 87.6409 246.948C87.6234 246.948 87.6062 246.943 87.591 246.934C87.5757 246.925 87.5629 246.913 87.5536 246.898ZM89.5504 245.457C89.4077 245.402 89.2501 245.402 89.1073 245.457C88.585 245.738 88.1623 246.174 87.8968 246.705C88.6269 246.586 89.7001 246.081 89.7688 245.737C89.7688 245.706 89.7688 245.619 89.5941 245.519H89.5254L89.5504 245.457Z" fill="#FF5A00"/>
<path d="M87.3601 246.068L82.1497 244.027C82.0544 243.988 81.9484 243.982 81.8495 244.012C81.7506 244.042 81.665 244.104 81.6069 244.189L79.0048 248.065C78.8937 248.229 78.8517 248.43 78.8879 248.625C78.9241 248.82 79.0356 248.993 79.1982 249.107L79.3417 249.181C81.2137 249.88 82.9422 250.429 85.2822 251.353C88.0403 252.439 87.2104 252.495 90.4365 253.812C92.3833 254.604 93.6126 252.52 92.8264 252.089C89.2197 250.124 89.2758 248.82 88.3398 246.891C88.1273 246.504 87.7779 246.211 87.3601 246.068Z" fill="#263238"/>
<path d="M121.356 243.579L121.449 248.153L125.873 248.577L126.142 243.579H121.356Z" fill="#FAB27B"/>
<path opacity="0.2" d="M126.029 245.7L126.092 244.502L121.38 244.695L121.412 246.093L126.029 245.7Z" fill="black"/>
<path d="M97.4937 156.324C98.879 149.722 104.408 143.844 104.408 143.844L125.624 145.205C125.624 145.205 126.959 158.833 127.271 163.388C127.895 172.586 130.478 186.869 130.547 196.092C130.641 208.572 127.783 241.687 127.783 241.687L119.77 242.636C119.77 242.636 119.889 212.004 118.579 200.454C117.586 191.718 111.609 167.718 111.609 167.718C111.609 167.718 95.1786 167.394 97.4937 156.324Z" fill="#FF5A00"/>
<path d="M118.385 241.345L128.968 240.696L128.276 244.409L118.953 244.795L118.385 241.345Z" fill="#FF5A00"/>
<path opacity="0.5" d="M118.385 241.345L128.968 240.696L128.276 244.409L118.953 244.795L118.385 241.345Z" fill="white"/>
<path d="M126.834 248.894C126.81 248.888 126.788 248.875 126.771 248.856C126.754 248.837 126.744 248.813 126.741 248.788C126.736 248.764 126.739 248.74 126.751 248.718C126.762 248.696 126.781 248.679 126.803 248.67C126.884 248.626 128.713 247.671 129.555 247.946C129.714 247.991 129.848 248.096 129.929 248.239C129.983 248.317 130.012 248.41 130.012 248.504C130.012 248.599 129.983 248.692 129.929 248.77C129.48 249.064 128.938 249.182 128.407 249.1C127.878 249.076 127.352 249.007 126.834 248.894ZM127.234 248.745C128.182 248.901 129.474 248.944 129.73 248.62C129.767 248.582 129.798 248.508 129.73 248.358C129.708 248.312 129.676 248.271 129.636 248.24C129.596 248.208 129.549 248.187 129.499 248.177C129.424 248.152 129.346 248.14 129.268 248.139C128.557 248.209 127.867 248.414 127.234 248.745Z" fill="#FF5A00"/>
<path d="M126.766 248.882C126.749 248.868 126.737 248.851 126.728 248.832C126.719 248.812 126.715 248.791 126.716 248.77C126.716 248.708 126.922 247.335 127.595 246.823C127.69 246.748 127.8 246.693 127.917 246.662C128.034 246.631 128.156 246.624 128.276 246.642C128.606 246.686 128.706 246.86 128.712 246.998C128.8 247.578 127.527 248.645 126.903 248.87C126.895 248.874 126.887 248.876 126.878 248.876C126.869 248.876 126.86 248.874 126.853 248.87C126.84 248.878 126.826 248.883 126.81 248.885C126.795 248.887 126.78 248.886 126.766 248.882ZM128.188 246.867C128.033 246.861 127.881 246.91 127.758 247.004C127.36 247.431 127.101 247.968 127.015 248.545C127.639 248.196 128.513 247.36 128.494 247.01C128.494 246.979 128.494 246.892 128.257 246.867H128.188Z" fill="#FF5A00"/>
<path d="M126.335 248.159L120.719 247.934C120.616 247.93 120.515 247.962 120.432 248.023C120.35 248.084 120.29 248.171 120.263 248.271L119.072 252.782C119.046 252.877 119.04 252.977 119.052 253.074C119.065 253.172 119.097 253.266 119.147 253.351C119.196 253.436 119.261 253.511 119.34 253.571C119.418 253.63 119.507 253.674 119.602 253.7C119.654 253.706 119.706 253.706 119.758 253.7C121.773 253.743 123.571 253.7 126.085 253.806C129.043 253.924 128.282 254.249 131.764 254.43C133.86 254.542 134.335 252.171 133.455 252.021C129.399 251.347 129.024 250.099 127.514 248.583C127.184 248.306 126.766 248.155 126.335 248.159Z" fill="#263238"/>
<path d="M119.702 100.015C119.334 101.194 118.41 103.185 119.702 104.963L113.331 104.339C113.331 104.339 114.011 99.6402 114.404 98.0989C114.66 97.1068 114.991 96.0272 118.342 96.9632C120.263 97.5186 119.951 99.2159 119.702 100.015Z" fill="#FAB27B"/>
<path d="M113.955 98.2739C110.448 95.5657 103.035 88.2275 110.148 81.819C116.07 76.4838 121.511 79.6038 123.365 83.2105C125.443 87.2478 130.154 98.0368 119.702 100.015C117.78 100.377 115.777 99.6779 113.955 98.2739Z" fill="#FAB27B"/>
<path d="M108.944 104.551C108.944 104.551 113.861 100.233 123.202 105.93L123.071 107.265L109.031 105.905L108.944 104.551Z" fill="#FF5A00"/>
<path opacity="0.5" d="M108.944 104.551C108.944 104.551 113.861 100.233 123.202 105.93L123.071 107.265L109.031 105.905L108.944 104.551Z" fill="white"/>
<path opacity="0.1" d="M118.36 98.7417C118.36 100.183 118.803 100.932 119.321 101.306C119.417 100.867 119.545 100.436 119.702 100.015C118.448 99.4655 118.36 98.7417 118.36 98.7417Z" fill="black"/>
<path d="M122.104 105.762C120.082 105.33 118.039 105.005 115.983 104.788C112.364 104.364 109.599 104.083 107.603 104.963C104.42 106.367 104.015 107.266 104.015 107.266L104.639 117.58C105.135 122.557 105.225 127.565 104.907 132.556C104.907 132.6 104.657 142.384 99.3721 147.638C101.569 149.42 104.171 150.635 106.947 151.176L109.93 144.038L110.872 151.526C110.872 151.526 121.611 154.708 130.472 151.769C130.472 151.769 125.624 144.019 127.184 136.094C127.939 132.282 128.488 130.478 128.912 127.483C129.157 125.868 129.157 124.225 128.912 122.61L126.922 109.006C126.922 109.006 123.402 106.08 122.104 105.762Z" fill="#FF5A00"/>
<path opacity="0.6" d="M122.104 105.762C120.082 105.33 118.039 105.005 115.983 104.788C112.364 104.364 109.599 104.083 107.603 104.963C104.42 106.367 104.015 107.266 104.015 107.266L104.639 117.58C105.135 122.557 105.225 127.565 104.907 132.556C104.907 132.6 104.657 142.384 99.3721 147.638C101.569 149.42 104.171 150.635 106.947 151.176L109.93 144.038L110.872 151.526C110.872 151.526 121.611 154.708 130.472 151.769C130.472 151.769 125.624 144.019 127.184 136.094C127.939 132.282 128.488 130.478 128.912 127.483C129.157 125.868 129.157 124.225 128.912 122.61L126.922 109.006C126.922 109.006 123.402 106.08 122.104 105.762Z" fill="black"/>
<path d="M128.276 131.346C128.532 129.967 128.756 128.669 128.9 127.514C129.144 125.899 129.144 124.256 128.9 122.641L126.048 119.434C126.048 119.434 128.794 123.29 128.276 131.346Z" fill="black"/>
<path d="M153.741 116.688L155.713 111.072C155.751 110.959 155.832 110.865 155.938 110.81L159.027 109.231C159.11 109.192 159.204 109.177 159.296 109.189C159.388 109.201 159.474 109.24 159.544 109.3L161.747 111.234C161.834 111.312 161.889 111.419 161.901 111.534C161.912 111.65 161.88 111.766 161.81 111.858L159.532 114.854C159.506 114.888 159.485 114.926 159.47 114.966C159.295 115.409 158.122 118.211 155.626 118.91L155.532 118.947L154.696 119.39C154.594 119.452 154.473 119.472 154.356 119.447C154.24 119.421 154.138 119.352 154.072 119.253L153.005 117.762C152.965 117.706 152.937 117.642 152.925 117.574C152.913 117.507 152.916 117.437 152.933 117.371C152.951 117.304 152.984 117.243 153.029 117.19C153.073 117.138 153.129 117.097 153.192 117.069L153.473 116.938C153.533 116.919 153.589 116.886 153.635 116.843C153.681 116.8 153.718 116.747 153.741 116.688Z" fill="#FAB27B"/>
<path d="M122.048 105.756C125.786 106.678 129.064 108.921 131.277 112.071C134.055 115.577 137.192 118.783 140.637 121.637C140.637 121.637 147.85 120.102 152.399 116.164L155.07 120.152C155.07 120.152 144.113 128.413 139.651 127.983C135.845 127.615 128.906 122.66 128.906 122.66L126.048 119.453L122.048 105.756Z" fill="#FF5A00"/>
<path opacity="0.6" d="M122.048 105.756C125.786 106.678 129.064 108.921 131.277 112.071C134.055 115.577 137.192 118.783 140.637 121.637C140.637 121.637 147.85 120.102 152.399 116.164L155.07 120.152C155.07 120.152 144.113 128.413 139.651 127.983C135.845 127.615 128.906 122.66 128.906 122.66L126.048 119.453L122.048 105.756Z" fill="black"/>
<path d="M152.649 115.665L156.655 120.638L153.972 121.349L150.777 116.675L152.649 115.665Z" fill="#FF5A00"/>
<path opacity="0.5" d="M152.649 115.665L156.655 120.638L153.972 121.349L150.777 116.675L152.649 115.665Z" fill="white"/>
<path d="M125.967 91.834V93.7684L127.271 93.5874L125.967 91.834Z" fill="#E07F50"/>
<path d="M115.739 103.415C112.738 103.721 103.883 103.896 104.938 97.3999C105.993 90.9041 104.557 87.6842 107.309 83.1103C110.061 78.5364 115.796 77.201 120.956 78.5551C125.255 79.6783 125.605 82.686 124.438 84.4956C123.271 86.3052 122.747 86.6422 122.953 87.9276C123.159 89.213 122.379 89.9306 122.042 90.5359C121.671 90.9722 121.2 91.3125 120.669 91.5281C120.437 92.7906 120.516 94.0907 120.9 95.3158C121.524 97.6932 122.797 102.685 115.739 103.415Z" fill="black"/>
<path d="M119.733 78.6236C121.176 78.7731 122.58 79.1766 123.883 79.8155C124.9 80.3396 125.917 81.1196 126.148 82.3115C126.478 84.0275 125.149 85.6561 124.095 86.8417C123.926 87.0351 124.251 87.2598 124.413 87.0726C126.285 84.9759 127.733 82.0307 124.987 80.0214C123.426 78.9963 121.632 78.3824 119.77 78.2367C119.719 78.2318 119.668 78.2474 119.628 78.2802C119.588 78.3129 119.563 78.3602 119.558 78.4115C119.553 78.4628 119.569 78.5139 119.602 78.5537C119.634 78.5935 119.682 78.6187 119.733 78.6236Z" fill="black"/>
<path d="M107.328 83.0731C105.35 85.6378 105.256 88.9886 104.832 92.0462C104.551 94.2053 102.118 98.4173 103.84 100.452C104.002 100.645 104.314 100.402 104.152 100.208C102.972 98.8166 104.152 96.7699 104.551 95.3285C104.929 93.9113 105.185 92.4647 105.319 91.0041C105.587 88.3896 105.943 85.4693 107.621 83.3102C107.777 83.1105 107.459 82.8734 107.303 83.0731H107.328Z" fill="black"/>
<path d="M124.625 88.1524C124.588 88.2335 124.656 88.09 124.669 88.0713C124.707 87.9965 124.756 87.9272 124.812 87.8653C124.898 87.7618 125.013 87.6863 125.142 87.6485C125.271 87.6107 125.408 87.6123 125.536 87.6532C125.773 87.7093 125.873 87.3474 125.636 87.2913C125.353 87.2217 125.055 87.2615 124.8 87.4027C124.546 87.5438 124.354 87.7759 124.263 88.0525C124.17 88.2709 124.532 88.3708 124.625 88.1524Z" fill="black"/>
<path d="M123.09 90.9979C123.49 92.196 123.09 93.4065 122.235 93.6998C121.381 93.9931 120.363 93.2568 119.927 92.0524C119.49 90.8481 119.927 89.6438 120.781 89.3505C121.636 89.0572 122.685 89.7936 123.09 90.9979Z" fill="#FAB27B"/>
<path d="M126.048 87.9839C125.992 88.4332 125.555 88.5268 125.33 88.5642C125.106 88.6016 125.087 88.8575 125.131 89.1882C125.174 89.5189 125.33 89.756 125.48 89.7311C125.63 89.7061 125.724 89.4378 125.686 89.1071C125.67 89.0174 125.645 88.9295 125.611 88.845C126.316 88.4207 126.048 87.9839 126.048 87.9839Z" fill="black"/>
</g>
<defs>
<clipPath id="clip0_1069_1666">
<rect width="312" height="312" fill="white"/>
</clipPath>
</defs>
</svg>
