<svg xmlns="http://www.w3.org/2000/svg" xmlns:xlink="http://www.w3.org/1999/xlink" width="529" zoomAndPan="magnify" viewBox="0 0 396.75 396.749984" height="529" preserveAspectRatio="xMidYMid meet" version="1.0"><defs><clipPath id="6124d8b864"><path d="M 8 246 L 176 246 L 176 345 L 8 345 Z M 8 246 " clip-rule="nonzero"/></clipPath><clipPath id="fa9a5d48a0"><path d="M 173.082031 316.589844 L 57.964844 343.476562 C 55.703125 344.003906 53.414062 344.304688 51.09375 344.382812 C 48.777344 344.460938 46.472656 344.308594 44.179688 343.933594 C 41.890625 343.554688 39.660156 342.960938 37.488281 342.144531 C 35.316406 341.328125 33.242188 340.308594 31.273438 339.082031 C 29.300781 337.859375 27.46875 336.453125 25.773438 334.867188 C 24.078125 333.285156 22.554688 331.546875 21.203125 329.664062 C 19.851562 327.777344 18.695312 325.777344 17.738281 323.667969 C 16.777344 321.554688 16.035156 319.367188 15.507812 317.109375 L 8.117188 285.488281 C 7.890625 284.515625 8.039062 283.609375 8.566406 282.761719 C 9.09375 281.914062 9.839844 281.378906 10.8125 281.152344 L 156.828125 247.050781 C 157.800781 246.820312 158.710938 246.972656 159.558594 247.5 C 160.40625 248.027344 160.945312 248.777344 161.167969 249.75 L 175.777344 312.253906 C 176.003906 313.222656 175.851562 314.132812 175.328125 314.980469 C 174.800781 315.828125 174.050781 316.363281 173.082031 316.589844 Z M 173.082031 316.589844 " clip-rule="nonzero"/></clipPath><clipPath id="0318ab3413"><path d="M 20 305 L 78 305 L 78 345 L 20 345 Z M 20 305 " clip-rule="nonzero"/></clipPath><clipPath id="831ac8ed13"><path d="M 173.082031 316.589844 L 57.964844 343.476562 C 55.703125 344.003906 53.414062 344.304688 51.09375 344.382812 C 48.777344 344.460938 46.472656 344.308594 44.179688 343.933594 C 41.890625 343.554688 39.660156 342.960938 37.488281 342.144531 C 35.316406 341.328125 33.242188 340.308594 31.273438 339.082031 C 29.300781 337.859375 27.46875 336.453125 25.773438 334.867188 C 24.078125 333.285156 22.554688 331.546875 21.203125 329.664062 C 19.851562 327.777344 18.695312 325.777344 17.738281 323.667969 C 16.777344 321.554688 16.035156 319.367188 15.507812 317.109375 L 8.117188 285.488281 C 7.890625 284.515625 8.039062 283.609375 8.566406 282.761719 C 9.09375 281.914062 9.839844 281.378906 10.8125 281.152344 L 156.828125 247.050781 C 157.800781 246.820312 158.710938 246.972656 159.558594 247.5 C 160.40625 248.027344 160.945312 248.777344 161.167969 249.75 L 175.777344 312.253906 C 176.003906 313.222656 175.851562 314.132812 175.328125 314.980469 C 174.800781 315.828125 174.050781 316.363281 173.082031 316.589844 Z M 173.082031 316.589844 " clip-rule="nonzero"/></clipPath><clipPath id="e4c4c6f3d4"><path d="M 64 140 L 165.988281 140 L 165.988281 241.582031 L 64 241.582031 Z M 64 140 " clip-rule="nonzero"/></clipPath><clipPath id="6cd74ad90f"><path d="M 114.925781 140.285156 C 111.605469 140.300781 108.316406 140.640625 105.0625 141.304688 L 114.925781 190.746094 L 69.9375 167.96875 C 69.117188 169.589844 68.386719 171.25 67.742188 172.949219 C 67.101562 174.648438 66.554688 176.375 66.101562 178.132812 C 65.644531 179.890625 65.289062 181.667969 65.027344 183.464844 C 64.761719 185.261719 64.597656 187.066406 64.53125 188.882812 C 64.464844 190.695312 64.496094 192.511719 64.625 194.320312 C 64.753906 196.132812 64.980469 197.929688 65.300781 199.71875 C 65.625 201.503906 66.042969 203.269531 66.558594 205.011719 C 67.070312 206.753906 67.679688 208.460938 68.378906 210.136719 C 69.074219 211.8125 69.863281 213.445312 70.738281 215.039062 C 71.613281 216.628906 72.570312 218.167969 73.613281 219.65625 C 74.65625 221.144531 75.773438 222.570312 76.96875 223.9375 C 78.164062 225.304688 79.429688 226.601562 80.765625 227.832031 C 82.101562 229.0625 83.5 230.21875 84.960938 231.296875 C 86.421875 232.375 87.9375 233.371094 89.507812 234.289062 C 91.074219 235.203125 92.6875 236.03125 94.347656 236.773438 C 96.003906 237.511719 97.699219 238.164062 99.425781 238.722656 C 101.15625 239.28125 102.910156 239.742188 104.6875 240.113281 C 106.464844 240.480469 108.261719 240.753906 110.066406 240.925781 C 111.875 241.101562 113.6875 241.179688 115.503906 241.160156 C 117.320312 241.136719 119.128906 241.019531 120.933594 240.804688 C 122.738281 240.589844 124.523438 240.273438 126.292969 239.867188 C 128.0625 239.457031 129.804688 238.953125 131.519531 238.355469 C 133.234375 237.757812 134.914062 237.070312 136.554688 236.292969 C 138.195312 235.515625 139.789062 234.648438 141.339844 233.699219 C 142.886719 232.75 144.378906 231.714844 145.8125 230.605469 C 147.25 229.492188 148.621094 228.308594 149.929688 227.046875 C 151.238281 225.785156 152.472656 224.460938 153.636719 223.066406 C 154.800781 221.671875 155.886719 220.222656 156.894531 218.710938 C 157.902344 217.199219 158.824219 215.636719 159.664062 214.027344 C 160.503906 212.417969 161.253906 210.765625 161.914062 209.074219 C 162.574219 207.382812 163.140625 205.660156 163.617188 203.90625 C 164.089844 202.15625 164.46875 200.382812 164.75 198.589844 C 165.03125 196.792969 165.21875 194.992188 165.304688 193.175781 C 165.394531 191.363281 165.382812 189.550781 165.273438 187.738281 C 165.167969 185.925781 164.960938 184.125 164.65625 182.332031 C 164.355469 180.542969 163.957031 178.773438 163.460938 177.027344 C 162.96875 175.28125 162.378906 173.5625 161.699219 171.878906 C 161.019531 170.195312 160.253906 168.554688 159.394531 166.953125 C 158.539062 165.351562 157.597656 163.800781 156.574219 162.304688 C 155.546875 160.804688 154.445312 159.363281 153.265625 157.984375 C 152.085938 156.605469 150.832031 155.289062 149.511719 154.046875 C 148.191406 152.800781 146.804688 151.628906 145.355469 150.535156 C 143.90625 149.441406 142.402344 148.425781 140.84375 147.492188 C 139.285156 146.558594 137.683594 145.714844 136.03125 144.953125 C 134.382812 144.195312 132.699219 143.523438 130.976562 142.949219 C 129.253906 142.371094 127.503906 141.886719 125.730469 141.496094 C 123.957031 141.109375 122.167969 140.816406 120.359375 140.621094 C 118.554688 140.425781 116.742188 140.328125 114.925781 140.328125 Z M 114.925781 140.285156 " clip-rule="nonzero"/></clipPath><clipPath id="a996b28065"><path d="M 64 159 L 119 159 L 119 241.582031 L 64 241.582031 Z M 64 159 " clip-rule="nonzero"/></clipPath><clipPath id="bc0fba2472"><path d="M 114.925781 140.285156 C 111.605469 140.300781 108.316406 140.640625 105.0625 141.304688 L 114.925781 190.746094 L 69.9375 167.96875 C 69.117188 169.589844 68.386719 171.25 67.742188 172.949219 C 67.101562 174.648438 66.554688 176.375 66.101562 178.132812 C 65.644531 179.890625 65.289062 181.667969 65.027344 183.464844 C 64.761719 185.261719 64.597656 187.066406 64.53125 188.882812 C 64.464844 190.695312 64.496094 192.511719 64.625 194.320312 C 64.753906 196.132812 64.980469 197.929688 65.300781 199.71875 C 65.625 201.503906 66.042969 203.269531 66.558594 205.011719 C 67.070312 206.753906 67.679688 208.460938 68.378906 210.136719 C 69.074219 211.8125 69.863281 213.445312 70.738281 215.039062 C 71.613281 216.628906 72.570312 218.167969 73.613281 219.65625 C 74.65625 221.144531 75.773438 222.570312 76.96875 223.9375 C 78.164062 225.304688 79.429688 226.601562 80.765625 227.832031 C 82.101562 229.0625 83.5 230.21875 84.960938 231.296875 C 86.421875 232.375 87.9375 233.371094 89.507812 234.289062 C 91.074219 235.203125 92.6875 236.03125 94.347656 236.773438 C 96.003906 237.511719 97.699219 238.164062 99.425781 238.722656 C 101.15625 239.28125 102.910156 239.742188 104.6875 240.113281 C 106.464844 240.480469 108.261719 240.753906 110.066406 240.925781 C 111.875 241.101562 113.6875 241.179688 115.503906 241.160156 C 117.320312 241.136719 119.128906 241.019531 120.933594 240.804688 C 122.738281 240.589844 124.523438 240.273438 126.292969 239.867188 C 128.0625 239.457031 129.804688 238.953125 131.519531 238.355469 C 133.234375 237.757812 134.914062 237.070312 136.554688 236.292969 C 138.195312 235.515625 139.789062 234.648438 141.339844 233.699219 C 142.886719 232.75 144.378906 231.714844 145.8125 230.605469 C 147.25 229.492188 148.621094 228.308594 149.929688 227.046875 C 151.238281 225.785156 152.472656 224.460938 153.636719 223.066406 C 154.800781 221.671875 155.886719 220.222656 156.894531 218.710938 C 157.902344 217.199219 158.824219 215.636719 159.664062 214.027344 C 160.503906 212.417969 161.253906 210.765625 161.914062 209.074219 C 162.574219 207.382812 163.140625 205.660156 163.617188 203.90625 C 164.089844 202.15625 164.46875 200.382812 164.75 198.589844 C 165.03125 196.792969 165.21875 194.992188 165.304688 193.175781 C 165.394531 191.363281 165.382812 189.550781 165.273438 187.738281 C 165.167969 185.925781 164.960938 184.125 164.65625 182.332031 C 164.355469 180.542969 163.957031 178.773438 163.460938 177.027344 C 162.96875 175.28125 162.378906 173.5625 161.699219 171.878906 C 161.019531 170.195312 160.253906 168.554688 159.394531 166.953125 C 158.539062 165.351562 157.597656 163.800781 156.574219 162.304688 C 155.546875 160.804688 154.445312 159.363281 153.265625 157.984375 C 152.085938 156.605469 150.832031 155.289062 149.511719 154.046875 C 148.191406 152.800781 146.804688 151.628906 145.355469 150.535156 C 143.90625 149.441406 142.402344 148.425781 140.84375 147.492188 C 139.285156 146.558594 137.683594 145.714844 136.03125 144.953125 C 134.382812 144.195312 132.699219 143.523438 130.976562 142.949219 C 129.253906 142.371094 127.503906 141.886719 125.730469 141.496094 C 123.957031 141.109375 122.167969 140.816406 120.359375 140.621094 C 118.554688 140.425781 116.742188 140.328125 114.925781 140.328125 Z M 114.925781 140.285156 " clip-rule="nonzero"/></clipPath><clipPath id="f06c0b56b6"><path d="M 95 140 L 132 140 L 132 191 L 95 191 Z M 95 140 " clip-rule="nonzero"/></clipPath><clipPath id="841e82f19e"><path d="M 114.925781 140.285156 C 111.605469 140.300781 108.316406 140.640625 105.0625 141.304688 L 114.925781 190.746094 L 69.9375 167.96875 C 69.117188 169.589844 68.386719 171.25 67.742188 172.949219 C 67.101562 174.648438 66.554688 176.375 66.101562 178.132812 C 65.644531 179.890625 65.289062 181.667969 65.027344 183.464844 C 64.761719 185.261719 64.597656 187.066406 64.53125 188.882812 C 64.464844 190.695312 64.496094 192.511719 64.625 194.320312 C 64.753906 196.132812 64.980469 197.929688 65.300781 199.71875 C 65.625 201.503906 66.042969 203.269531 66.558594 205.011719 C 67.070312 206.753906 67.679688 208.460938 68.378906 210.136719 C 69.074219 211.8125 69.863281 213.445312 70.738281 215.039062 C 71.613281 216.628906 72.570312 218.167969 73.613281 219.65625 C 74.65625 221.144531 75.773438 222.570312 76.96875 223.9375 C 78.164062 225.304688 79.429688 226.601562 80.765625 227.832031 C 82.101562 229.0625 83.5 230.21875 84.960938 231.296875 C 86.421875 232.375 87.9375 233.371094 89.507812 234.289062 C 91.074219 235.203125 92.6875 236.03125 94.347656 236.773438 C 96.003906 237.511719 97.699219 238.164062 99.425781 238.722656 C 101.15625 239.28125 102.910156 239.742188 104.6875 240.113281 C 106.464844 240.480469 108.261719 240.753906 110.066406 240.925781 C 111.875 241.101562 113.6875 241.179688 115.503906 241.160156 C 117.320312 241.136719 119.128906 241.019531 120.933594 240.804688 C 122.738281 240.589844 124.523438 240.273438 126.292969 239.867188 C 128.0625 239.457031 129.804688 238.953125 131.519531 238.355469 C 133.234375 237.757812 134.914062 237.070312 136.554688 236.292969 C 138.195312 235.515625 139.789062 234.648438 141.339844 233.699219 C 142.886719 232.75 144.378906 231.714844 145.8125 230.605469 C 147.25 229.492188 148.621094 228.308594 149.929688 227.046875 C 151.238281 225.785156 152.472656 224.460938 153.636719 223.066406 C 154.800781 221.671875 155.886719 220.222656 156.894531 218.710938 C 157.902344 217.199219 158.824219 215.636719 159.664062 214.027344 C 160.503906 212.417969 161.253906 210.765625 161.914062 209.074219 C 162.574219 207.382812 163.140625 205.660156 163.617188 203.90625 C 164.089844 202.15625 164.46875 200.382812 164.75 198.589844 C 165.03125 196.792969 165.21875 194.992188 165.304688 193.175781 C 165.394531 191.363281 165.382812 189.550781 165.273438 187.738281 C 165.167969 185.925781 164.960938 184.125 164.65625 182.332031 C 164.355469 180.542969 163.957031 178.773438 163.460938 177.027344 C 162.96875 175.28125 162.378906 173.5625 161.699219 171.878906 C 161.019531 170.195312 160.253906 168.554688 159.394531 166.953125 C 158.539062 165.351562 157.597656 163.800781 156.574219 162.304688 C 155.546875 160.804688 154.445312 159.363281 153.265625 157.984375 C 152.085938 156.605469 150.832031 155.289062 149.511719 154.046875 C 148.191406 152.800781 146.804688 151.628906 145.355469 150.535156 C 143.90625 149.441406 142.402344 148.425781 140.84375 147.492188 C 139.285156 146.558594 137.683594 145.714844 136.03125 144.953125 C 134.382812 144.195312 132.699219 143.523438 130.976562 142.949219 C 129.253906 142.371094 127.503906 141.886719 125.730469 141.496094 C 123.957031 141.109375 122.167969 140.816406 120.359375 140.621094 C 118.554688 140.425781 116.742188 140.328125 114.925781 140.328125 Z M 114.925781 140.285156 " clip-rule="nonzero"/></clipPath></defs><path fill="#aaeeea" d="M 187 0.046875 L 198.863281 0.046875 C 200.210938 0.046875 201.550781 0.113281 202.890625 0.242188 C 204.230469 0.375 205.558594 0.574219 206.878906 0.835938 C 208.199219 1.097656 209.503906 1.425781 210.789062 1.816406 C 212.078125 2.207031 213.34375 2.65625 214.585938 3.171875 C 215.828125 3.6875 217.042969 4.261719 218.230469 4.894531 C 219.417969 5.53125 220.570312 6.21875 221.6875 6.96875 C 222.808594 7.714844 223.886719 8.515625 224.925781 9.367188 C 225.96875 10.222656 226.964844 11.125 227.914062 12.074219 C 228.867188 13.027344 229.769531 14.023438 230.621094 15.0625 C 231.476562 16.101562 232.277344 17.179688 233.023438 18.300781 C 233.769531 19.417969 234.460938 20.570312 235.097656 21.753906 C 235.730469 22.941406 236.304688 24.15625 236.820312 25.398438 C 237.335938 26.640625 237.789062 27.90625 238.179688 29.195312 C 238.570312 30.480469 238.894531 31.785156 239.15625 33.105469 C 239.421875 34.421875 239.617188 35.75 239.75 37.089844 C 239.882812 38.429688 239.949219 39.769531 239.949219 41.117188 L 239.949219 41.125 C 239.949219 42.46875 239.882812 43.8125 239.75 45.148438 C 239.617188 46.488281 239.421875 47.816406 239.15625 49.136719 C 238.894531 50.457031 238.570312 51.757812 238.179688 53.046875 C 237.789062 54.332031 237.335938 55.597656 236.820312 56.839844 C 236.304688 58.082031 235.730469 59.296875 235.097656 60.484375 C 234.460938 61.671875 233.769531 62.824219 233.023438 63.941406 C 232.277344 65.058594 231.476562 66.140625 230.621094 67.179688 C 229.769531 68.21875 228.867188 69.214844 227.914062 70.164062 C 226.964844 71.117188 225.96875 72.019531 224.925781 72.871094 C 223.886719 73.726562 222.808594 74.527344 221.6875 75.273438 C 220.570312 76.019531 219.417969 76.710938 218.230469 77.34375 C 217.042969 77.980469 215.828125 78.554688 214.585938 79.066406 C 213.34375 79.582031 212.078125 80.035156 210.789062 80.425781 C 209.503906 80.816406 208.199219 81.144531 206.878906 81.40625 C 205.558594 81.667969 204.230469 81.863281 202.890625 81.996094 C 201.550781 82.128906 200.210938 82.195312 198.863281 82.195312 L 187 82.195312 C 185.65625 82.195312 184.3125 82.128906 182.976562 81.996094 C 181.636719 81.863281 180.304688 81.667969 178.988281 81.40625 C 177.667969 81.144531 176.363281 80.816406 175.074219 80.425781 C 173.789062 80.035156 172.523438 79.582031 171.28125 79.066406 C 170.035156 78.554688 168.820312 77.980469 167.636719 77.34375 C 166.449219 76.710938 165.296875 76.019531 164.175781 75.273438 C 163.058594 74.527344 161.980469 73.726562 160.9375 72.871094 C 159.898438 72.019531 158.902344 71.117188 157.953125 70.164062 C 157 69.214844 156.097656 68.21875 155.242188 67.179688 C 154.390625 66.140625 153.589844 65.058594 152.84375 63.941406 C 152.09375 62.824219 151.402344 61.671875 150.769531 60.484375 C 150.136719 59.296875 149.5625 58.082031 149.046875 56.839844 C 148.53125 55.597656 148.078125 54.332031 147.6875 53.046875 C 147.296875 51.757812 146.96875 50.457031 146.707031 49.136719 C 146.445312 47.816406 146.25 46.488281 146.117188 45.148438 C 145.984375 43.8125 145.917969 42.46875 145.917969 41.125 L 145.917969 41.117188 C 145.917969 39.769531 145.984375 38.429688 146.117188 37.089844 C 146.25 35.75 146.445312 34.421875 146.707031 33.105469 C 146.96875 31.785156 147.296875 30.480469 147.6875 29.195312 C 148.078125 27.90625 148.53125 26.640625 149.046875 25.398438 C 149.5625 24.15625 150.136719 22.941406 150.769531 21.753906 C 151.402344 20.570312 152.09375 19.417969 152.84375 18.300781 C 153.589844 17.179688 154.390625 16.101562 155.242188 15.0625 C 156.097656 14.023438 157 13.027344 157.953125 12.074219 C 158.902344 11.125 159.898438 10.222656 160.9375 9.367188 C 161.980469 8.515625 163.058594 7.714844 164.175781 6.96875 C 165.296875 6.21875 166.449219 5.53125 167.636719 4.894531 C 168.820312 4.261719 170.035156 3.6875 171.28125 3.171875 C 172.523438 2.65625 173.789062 2.207031 175.074219 1.816406 C 176.363281 1.425781 177.667969 1.097656 178.988281 0.835938 C 180.304688 0.574219 181.636719 0.375 182.976562 0.242188 C 184.3125 0.113281 185.65625 0.046875 187 0.046875 Z M 187 0.046875 " fill-opacity="1" fill-rule="nonzero"/><path fill="#aaeeea" d="M 205.371094 74.390625 C 205.371094 74.390625 209.417969 92.554688 224.210938 93.871094 C 224.339844 93.878906 224.460938 93.859375 224.578125 93.804688 C 224.691406 93.753906 224.789062 93.671875 224.863281 93.570312 C 224.9375 93.464844 224.980469 93.351562 224.992188 93.222656 C 225.007812 93.097656 224.988281 92.976562 224.9375 92.859375 C 223.460938 89.5 219.648438 78.976562 225.449219 70.511719 Z M 205.371094 74.390625 " fill-opacity="1" fill-rule="nonzero"/><path fill="#00ccc1" d="M 174.195312 41.117188 C 174.195312 41.566406 174.152344 42.015625 174.066406 42.460938 C 173.976562 42.902344 173.84375 43.335938 173.671875 43.753906 C 173.5 44.167969 173.289062 44.566406 173.035156 44.941406 C 172.785156 45.320312 172.5 45.667969 172.179688 45.988281 C 171.859375 46.308594 171.511719 46.59375 171.132812 46.84375 C 170.757812 47.09375 170.359375 47.308594 169.941406 47.480469 C 169.523438 47.652344 169.09375 47.785156 168.652344 47.871094 C 168.207031 47.960938 167.757812 48.003906 167.304688 48.003906 C 166.855469 48.003906 166.40625 47.960938 165.960938 47.871094 C 165.519531 47.785156 165.085938 47.652344 164.667969 47.480469 C 164.25 47.308594 163.855469 47.09375 163.476562 46.84375 C 163.101562 46.59375 162.753906 46.308594 162.433594 45.988281 C 162.113281 45.667969 161.828125 45.320312 161.578125 44.941406 C 161.324219 44.566406 161.113281 44.167969 160.941406 43.753906 C 160.765625 43.335938 160.636719 42.902344 160.546875 42.460938 C 160.460938 42.015625 160.414062 41.566406 160.414062 41.117188 C 160.414062 40.664062 160.460938 40.214844 160.546875 39.773438 C 160.636719 39.328125 160.765625 38.898438 160.941406 38.480469 C 161.113281 38.0625 161.324219 37.664062 161.578125 37.289062 C 161.828125 36.914062 162.113281 36.566406 162.433594 36.246094 C 162.753906 35.925781 163.101562 35.640625 163.476562 35.386719 C 163.855469 35.136719 164.25 34.925781 164.667969 34.75 C 165.085938 34.578125 165.519531 34.449219 165.960938 34.359375 C 166.40625 34.269531 166.855469 34.226562 167.304688 34.226562 C 167.757812 34.226562 168.207031 34.269531 168.652344 34.359375 C 169.09375 34.449219 169.523438 34.578125 169.941406 34.75 C 170.359375 34.925781 170.757812 35.136719 171.132812 35.386719 C 171.511719 35.640625 171.859375 35.925781 172.179688 36.246094 C 172.5 36.566406 172.785156 36.914062 173.035156 37.289062 C 173.289062 37.664062 173.5 38.0625 173.671875 38.480469 C 173.84375 38.898438 173.976562 39.328125 174.066406 39.773438 C 174.152344 40.214844 174.195312 40.664062 174.195312 41.117188 Z M 174.195312 41.117188 " fill-opacity="1" fill-rule="nonzero"/><path fill="#00ccc1" d="M 199.824219 41.117188 C 199.824219 41.566406 199.78125 42.015625 199.691406 42.460938 C 199.601562 42.902344 199.472656 43.335938 199.300781 43.753906 C 199.125 44.167969 198.914062 44.566406 198.664062 44.941406 C 198.410156 45.320312 198.125 45.667969 197.804688 45.988281 C 197.484375 46.308594 197.136719 46.59375 196.761719 46.84375 C 196.386719 47.09375 195.988281 47.308594 195.570312 47.480469 C 195.152344 47.652344 194.722656 47.785156 194.277344 47.871094 C 193.832031 47.960938 193.386719 48.003906 192.933594 48.003906 C 192.480469 48.003906 192.03125 47.960938 191.589844 47.871094 C 191.144531 47.785156 190.714844 47.652344 190.296875 47.480469 C 189.878906 47.308594 189.480469 47.09375 189.105469 46.84375 C 188.730469 46.59375 188.378906 46.308594 188.058594 45.988281 C 187.742188 45.667969 187.453125 45.320312 187.203125 44.941406 C 186.953125 44.566406 186.738281 44.167969 186.566406 43.753906 C 186.394531 43.335938 186.261719 42.902344 186.175781 42.460938 C 186.085938 42.015625 186.042969 41.566406 186.042969 41.117188 C 186.042969 40.664062 186.085938 40.214844 186.175781 39.773438 C 186.261719 39.328125 186.394531 38.898438 186.566406 38.480469 C 186.738281 38.0625 186.953125 37.664062 187.203125 37.289062 C 187.453125 36.914062 187.742188 36.566406 188.058594 36.246094 C 188.378906 35.925781 188.730469 35.640625 189.105469 35.386719 C 189.480469 35.136719 189.878906 34.925781 190.296875 34.75 C 190.714844 34.578125 191.144531 34.449219 191.589844 34.359375 C 192.03125 34.269531 192.480469 34.226562 192.933594 34.226562 C 193.386719 34.226562 193.832031 34.269531 194.277344 34.359375 C 194.722656 34.449219 195.152344 34.578125 195.570312 34.75 C 195.988281 34.925781 196.386719 35.136719 196.761719 35.386719 C 197.136719 35.640625 197.484375 35.925781 197.804688 36.246094 C 198.125 36.566406 198.410156 36.914062 198.664062 37.289062 C 198.914062 37.664062 199.125 38.0625 199.300781 38.480469 C 199.472656 38.898438 199.601562 39.328125 199.691406 39.773438 C 199.78125 40.214844 199.824219 40.664062 199.824219 41.117188 Z M 199.824219 41.117188 " fill-opacity="1" fill-rule="nonzero"/><path fill="#00ccc1" d="M 225.449219 41.117188 C 225.449219 41.566406 225.40625 42.015625 225.316406 42.460938 C 225.230469 42.902344 225.097656 43.335938 224.925781 43.753906 C 224.753906 44.167969 224.539062 44.566406 224.289062 44.941406 C 224.039062 45.320312 223.753906 45.667969 223.433594 45.988281 C 223.113281 46.308594 222.765625 46.59375 222.386719 46.84375 C 222.011719 47.09375 221.613281 47.308594 221.195312 47.480469 C 220.777344 47.652344 220.347656 47.785156 219.902344 47.871094 C 219.460938 47.960938 219.011719 48.003906 218.558594 48.003906 C 218.105469 48.003906 217.660156 47.960938 217.214844 47.871094 C 216.773438 47.785156 216.339844 47.652344 215.921875 47.480469 C 215.503906 47.308594 215.109375 47.09375 214.730469 46.84375 C 214.355469 46.59375 214.007812 46.308594 213.6875 45.988281 C 213.367188 45.667969 213.082031 45.320312 212.832031 44.941406 C 212.578125 44.566406 212.367188 44.167969 212.195312 43.753906 C 212.019531 43.335938 211.890625 42.902344 211.800781 42.460938 C 211.714844 42.015625 211.667969 41.566406 211.667969 41.117188 C 211.667969 40.664062 211.714844 40.214844 211.800781 39.773438 C 211.890625 39.328125 212.019531 38.898438 212.195312 38.480469 C 212.367188 38.0625 212.578125 37.664062 212.832031 37.289062 C 213.082031 36.914062 213.367188 36.566406 213.6875 36.246094 C 214.007812 35.925781 214.355469 35.640625 214.730469 35.386719 C 215.109375 35.136719 215.503906 34.925781 215.921875 34.75 C 216.339844 34.578125 216.773438 34.449219 217.214844 34.359375 C 217.660156 34.269531 218.105469 34.226562 218.558594 34.226562 C 219.011719 34.226562 219.460938 34.269531 219.902344 34.359375 C 220.347656 34.449219 220.777344 34.578125 221.195312 34.75 C 221.613281 34.925781 222.011719 35.136719 222.386719 35.386719 C 222.765625 35.640625 223.113281 35.925781 223.433594 36.246094 C 223.753906 36.566406 224.039062 36.914062 224.289062 37.289062 C 224.539062 37.664062 224.753906 38.0625 224.925781 38.480469 C 225.097656 38.898438 225.230469 39.328125 225.316406 39.773438 C 225.40625 40.214844 225.449219 40.664062 225.449219 41.117188 Z M 225.449219 41.117188 " fill-opacity="1" fill-rule="nonzero"/><path fill="#ffb833" d="M 260.660156 40.140625 L 260.765625 40.035156 C 260.898438 39.902344 261.050781 39.800781 261.226562 39.726562 C 261.402344 39.65625 261.582031 39.621094 261.769531 39.621094 C 261.957031 39.621094 262.140625 39.65625 262.316406 39.726562 C 262.488281 39.800781 262.640625 39.902344 262.777344 40.035156 L 272.089844 49.34375 C 272.222656 49.480469 272.324219 49.632812 272.398438 49.808594 C 272.46875 49.980469 272.503906 50.164062 272.503906 50.351562 C 272.503906 50.539062 272.46875 50.71875 272.398438 50.894531 C 272.324219 51.070312 272.222656 51.222656 272.089844 51.355469 L 271.984375 51.460938 C 271.851562 51.59375 271.695312 51.695312 271.523438 51.769531 C 271.347656 51.839844 271.167969 51.875 270.980469 51.875 C 270.789062 51.875 270.609375 51.839844 270.433594 51.769531 C 270.261719 51.695312 270.105469 51.59375 269.972656 51.460938 L 260.660156 42.148438 C 260.527344 42.015625 260.425781 41.863281 260.351562 41.6875 C 260.28125 41.515625 260.242188 41.332031 260.242188 41.144531 C 260.242188 40.957031 260.28125 40.777344 260.351562 40.601562 C 260.425781 40.425781 260.527344 40.273438 260.660156 40.140625 Z M 260.660156 40.140625 " fill-opacity="1" fill-rule="nonzero"/><path fill="#ffb833" d="M 260.761719 51.453125 L 260.65625 51.347656 C 260.523438 51.214844 260.417969 51.058594 260.347656 50.886719 C 260.273438 50.710938 260.238281 50.53125 260.238281 50.34375 C 260.238281 50.152344 260.273438 49.972656 260.347656 49.796875 C 260.417969 49.625 260.523438 49.472656 260.65625 49.335938 L 269.96875 40.027344 C 270.101562 39.894531 270.253906 39.792969 270.429688 39.71875 C 270.605469 39.648438 270.785156 39.609375 270.972656 39.609375 C 271.164062 39.609375 271.34375 39.648438 271.519531 39.71875 C 271.691406 39.792969 271.847656 39.894531 271.980469 40.027344 L 272.085938 40.132812 C 272.21875 40.265625 272.320312 40.417969 272.390625 40.59375 C 272.464844 40.765625 272.5 40.949219 272.5 41.136719 C 272.5 41.324219 272.464844 41.507812 272.390625 41.679688 C 272.320312 41.855469 272.21875 42.007812 272.085938 42.140625 L 262.769531 51.453125 C 262.636719 51.585938 262.484375 51.6875 262.308594 51.761719 C 262.136719 51.832031 261.953125 51.867188 261.765625 51.867188 C 261.578125 51.867188 261.394531 51.832031 261.222656 51.761719 C 261.046875 51.6875 260.894531 51.585938 260.761719 51.453125 Z M 260.761719 51.453125 " fill-opacity="1" fill-rule="nonzero"/><path fill="#ffb833" d="M 107.269531 64.589844 L 107.820312 64.042969 C 107.960938 63.902344 108.125 63.792969 108.308594 63.714844 C 108.496094 63.640625 108.6875 63.601562 108.886719 63.601562 C 109.085938 63.601562 109.28125 63.640625 109.464844 63.714844 C 109.648438 63.792969 109.8125 63.902344 109.953125 64.042969 L 122.199219 76.28125 C 122.339844 76.421875 122.449219 76.585938 122.523438 76.769531 C 122.601562 76.957031 122.640625 77.148438 122.640625 77.347656 C 122.640625 77.546875 122.601562 77.742188 122.523438 77.925781 C 122.449219 78.109375 122.339844 78.273438 122.199219 78.414062 L 121.648438 78.964844 C 121.507812 79.105469 121.34375 79.214844 121.160156 79.289062 C 120.972656 79.367188 120.78125 79.40625 120.582031 79.40625 C 120.382812 79.40625 120.1875 79.367188 120.003906 79.289062 C 119.820312 79.214844 119.65625 79.105469 119.515625 78.964844 L 107.269531 66.726562 C 107.128906 66.582031 107.019531 66.421875 106.945312 66.234375 C 106.867188 66.050781 106.828125 65.859375 106.828125 65.660156 C 106.828125 65.457031 106.867188 65.265625 106.945312 65.082031 C 107.019531 64.894531 107.128906 64.734375 107.269531 64.589844 Z M 107.269531 64.589844 " fill-opacity="1" fill-rule="nonzero"/><path fill="#ffb833" d="M 107.820312 78.96875 L 107.273438 78.417969 C 107.132812 78.277344 107.023438 78.113281 106.945312 77.929688 C 106.867188 77.742188 106.832031 77.550781 106.832031 77.351562 C 106.832031 77.152344 106.867188 76.960938 106.945312 76.773438 C 107.023438 76.589844 107.132812 76.425781 107.273438 76.285156 L 119.515625 64.046875 C 119.65625 63.90625 119.820312 63.796875 120.003906 63.71875 C 120.191406 63.640625 120.382812 63.605469 120.582031 63.605469 C 120.78125 63.605469 120.976562 63.640625 121.160156 63.71875 C 121.34375 63.796875 121.507812 63.90625 121.648438 64.046875 L 122.199219 64.59375 C 122.339844 64.734375 122.449219 64.898438 122.527344 65.085938 C 122.601562 65.269531 122.640625 65.460938 122.640625 65.660156 C 122.640625 65.859375 122.601562 66.054688 122.527344 66.238281 C 122.449219 66.421875 122.339844 66.585938 122.199219 66.726562 L 109.957031 78.96875 C 109.8125 79.109375 109.652344 79.21875 109.464844 79.292969 C 109.28125 79.371094 109.089844 79.410156 108.886719 79.410156 C 108.6875 79.410156 108.496094 79.371094 108.3125 79.292969 C 108.125 79.21875 107.960938 79.109375 107.820312 78.96875 Z M 107.820312 78.96875 " fill-opacity="1" fill-rule="nonzero"/><path fill="#ffb833" d="M 218.519531 152.429688 L 219.070312 151.882812 C 219.210938 151.742188 219.375 151.632812 219.558594 151.554688 C 219.742188 151.480469 219.933594 151.441406 220.136719 151.441406 C 220.335938 151.441406 220.527344 151.476562 220.714844 151.554688 C 220.898438 151.632812 221.0625 151.742188 221.203125 151.882812 L 233.445312 164.121094 C 233.585938 164.261719 233.695312 164.425781 233.773438 164.609375 C 233.847656 164.796875 233.886719 164.988281 233.886719 165.1875 C 233.886719 165.386719 233.847656 165.582031 233.773438 165.765625 C 233.695312 165.949219 233.585938 166.113281 233.445312 166.253906 L 232.898438 166.804688 C 232.753906 166.945312 232.59375 167.054688 232.40625 167.128906 C 232.222656 167.207031 232.03125 167.246094 231.828125 167.246094 C 231.628906 167.246094 231.4375 167.207031 231.253906 167.128906 C 231.066406 167.054688 230.902344 166.945312 230.761719 166.804688 L 218.519531 154.5625 C 218.378906 154.421875 218.269531 154.257812 218.191406 154.074219 C 218.117188 153.890625 218.078125 153.699219 218.078125 153.496094 C 218.078125 153.296875 218.117188 153.105469 218.191406 152.921875 C 218.269531 152.734375 218.378906 152.574219 218.519531 152.429688 Z M 218.519531 152.429688 " fill-opacity="1" fill-rule="nonzero"/><path fill="#ffb833" d="M 219.074219 166.796875 L 218.527344 166.25 C 218.382812 166.105469 218.273438 165.945312 218.199219 165.757812 C 218.121094 165.574219 218.082031 165.382812 218.082031 165.183594 C 218.082031 164.980469 218.121094 164.789062 218.199219 164.605469 C 218.273438 164.421875 218.382812 164.257812 218.527344 164.117188 L 230.769531 151.875 C 230.910156 151.734375 231.074219 151.625 231.257812 151.550781 C 231.441406 151.472656 231.636719 151.433594 231.835938 151.433594 C 232.035156 151.433594 232.230469 151.472656 232.414062 151.550781 C 232.597656 151.625 232.761719 151.734375 232.902344 151.875 L 233.453125 152.425781 C 233.59375 152.566406 233.703125 152.730469 233.777344 152.914062 C 233.855469 153.097656 233.894531 153.292969 233.894531 153.492188 C 233.894531 153.691406 233.855469 153.882812 233.777344 154.070312 C 233.703125 154.253906 233.59375 154.417969 233.453125 154.558594 L 221.207031 166.796875 C 221.066406 166.9375 220.902344 167.046875 220.71875 167.125 C 220.535156 167.203125 220.34375 167.238281 220.140625 167.238281 C 219.941406 167.238281 219.75 167.203125 219.5625 167.125 C 219.378906 167.046875 219.214844 166.9375 219.074219 166.796875 Z M 219.074219 166.796875 " fill-opacity="1" fill-rule="nonzero"/><path fill="#ffdb99" d="M 315.78125 170.304688 C 315.78125 170.304688 313.410156 193.414062 316.601562 198.8125 C 319.792969 204.207031 335.789062 208.402344 335.789062 208.402344 L 319.085938 229.703125 L 261.726562 222.214844 L 257.140625 201.46875 C 257.140625 201.46875 269.238281 199.175781 272.902344 198.574219 C 276.566406 197.972656 280.648438 176.925781 280.648438 176.925781 L 306.929688 169.171875 Z M 315.78125 170.304688 " fill-opacity="1" fill-rule="nonzero"/><path fill="#ffdb99" d="M 349.964844 121.957031 C 349.964844 123.679688 349.878906 125.402344 349.710938 127.117188 C 349.542969 128.835938 349.289062 130.539062 348.953125 132.230469 C 348.617188 133.925781 348.195312 135.597656 347.695312 137.246094 C 347.195312 138.898438 346.613281 140.519531 345.953125 142.113281 C 345.292969 143.707031 344.554688 145.265625 343.742188 146.785156 C 342.929688 148.308594 342.042969 149.785156 341.085938 151.222656 C 340.125 152.65625 339.097656 154.039062 338.003906 155.371094 C 336.910156 156.707031 335.75 157.984375 334.53125 159.203125 C 333.3125 160.421875 332.035156 161.582031 330.699219 162.675781 C 329.367188 163.769531 327.980469 164.796875 326.546875 165.753906 C 325.113281 166.710938 323.632812 167.597656 322.109375 168.410156 C 320.589844 169.226562 319.03125 169.960938 317.4375 170.621094 C 315.84375 171.28125 314.21875 171.863281 312.566406 172.363281 C 310.917969 172.863281 309.246094 173.28125 307.550781 173.621094 C 305.859375 173.957031 304.152344 174.207031 302.4375 174.378906 C 300.71875 174.546875 298.996094 174.632812 297.273438 174.632812 C 295.546875 174.632812 293.824219 174.546875 292.105469 174.378906 C 290.390625 174.207031 288.683594 173.957031 286.992188 173.621094 C 285.300781 173.28125 283.628906 172.863281 281.976562 172.363281 C 280.324219 171.863281 278.703125 171.28125 277.105469 170.621094 C 275.511719 169.960938 273.953125 169.226562 272.433594 168.410156 C 270.910156 167.597656 269.433594 166.710938 267.996094 165.753906 C 266.5625 164.796875 265.179688 163.769531 263.84375 162.675781 C 262.511719 161.582031 261.234375 160.421875 260.011719 159.203125 C 258.792969 157.984375 257.632812 156.707031 256.539062 155.371094 C 255.445312 154.039062 254.417969 152.65625 253.460938 151.222656 C 252.5 149.785156 251.613281 148.308594 250.800781 146.785156 C 249.988281 145.265625 249.25 143.707031 248.589844 142.113281 C 247.929688 140.519531 247.347656 138.898438 246.847656 137.246094 C 246.347656 135.597656 245.929688 133.925781 245.589844 132.230469 C 245.253906 130.539062 245.003906 128.835938 244.832031 127.117188 C 244.664062 125.402344 244.578125 123.679688 244.578125 121.957031 C 244.578125 120.230469 244.664062 118.507812 244.832031 116.792969 C 245.003906 115.074219 245.253906 113.371094 245.589844 111.679688 C 245.929688 109.988281 246.347656 108.316406 246.847656 106.664062 C 247.347656 105.015625 247.929688 103.390625 248.589844 101.796875 C 249.25 100.203125 249.988281 98.644531 250.800781 97.125 C 251.613281 95.601562 252.5 94.125 253.460938 92.691406 C 254.417969 91.257812 255.445312 89.871094 256.539062 88.539062 C 257.632812 87.207031 258.792969 85.929688 260.011719 84.707031 C 261.234375 83.488281 262.511719 82.332031 263.84375 81.238281 C 265.179688 80.144531 266.5625 79.117188 267.996094 78.15625 C 269.433594 77.199219 270.910156 76.3125 272.433594 75.5 C 273.953125 74.6875 275.511719 73.949219 277.105469 73.289062 C 278.703125 72.628906 280.324219 72.050781 281.976562 71.546875 C 283.628906 71.046875 285.300781 70.628906 286.992188 70.292969 C 288.683594 69.957031 290.390625 69.703125 292.105469 69.535156 C 293.824219 69.363281 295.546875 69.28125 297.273438 69.28125 C 298.996094 69.28125 300.71875 69.363281 302.4375 69.535156 C 304.152344 69.703125 305.859375 69.957031 307.550781 70.292969 C 309.246094 70.628906 310.917969 71.046875 312.566406 71.546875 C 314.21875 72.050781 315.84375 72.628906 317.4375 73.289062 C 319.03125 73.949219 320.589844 74.6875 322.109375 75.5 C 323.632812 76.3125 325.113281 77.199219 326.546875 78.15625 C 327.980469 79.117188 329.367188 80.144531 330.699219 81.238281 C 332.035156 82.332031 333.3125 83.488281 334.53125 84.707031 C 335.75 85.929688 336.910156 87.207031 338.003906 88.539062 C 339.097656 89.871094 340.125 91.257812 341.085938 92.691406 C 342.042969 94.125 342.929688 95.601562 343.742188 97.125 C 344.554688 98.644531 345.292969 100.203125 345.953125 101.796875 C 346.613281 103.390625 347.195312 105.015625 347.695312 106.664062 C 348.195312 108.316406 348.617188 109.988281 348.953125 111.679688 C 349.289062 113.371094 349.542969 115.074219 349.710938 116.792969 C 349.878906 118.507812 349.964844 120.230469 349.964844 121.957031 Z M 349.964844 121.957031 " fill-opacity="1" fill-rule="nonzero"/><path fill="#ffdb99" d="M 318.503906 170.167969 C 318.503906 170.167969 291.742188 189.664062 262.679688 171.789062 C 233.613281 153.914062 248.398438 94.183594 248.398438 94.183594 C 248.398438 94.183594 270.476562 66.089844 295.125 72.679688 C 319.777344 79.273438 319.445312 122.382812 319.445312 122.382812 Z M 318.503906 170.167969 " fill-opacity="1" fill-rule="nonzero"/><path fill="#383333" d="M 307.484375 116.769531 C 306.328125 115.621094 305.027344 114.675781 303.574219 113.929688 C 302.125 113.1875 300.597656 112.679688 298.992188 112.40625 C 296.820312 112.007812 293.878906 111.464844 292.691406 113.027344 C 292.425781 113.371094 292.261719 113.757812 292.207031 114.191406 C 292.148438 114.621094 292.203125 115.039062 292.371094 115.441406 C 293.179688 116.976562 295.945312 116.148438 300.105469 116.769531 C 305.574219 117.585938 308.828125 120.253906 309.292969 119.503906 C 309.640625 118.984375 308.097656 117.394531 307.484375 116.769531 Z M 307.484375 116.769531 " fill-opacity="1" fill-rule="nonzero"/><path fill="#383333" d="M 250.875 111.449219 C 252.207031 110.511719 253.652344 109.796875 255.203125 109.304688 C 256.753906 108.8125 258.347656 108.5625 259.972656 108.5625 C 262.191406 108.5625 265.207031 108.484375 266.082031 110.21875 C 266.289062 110.601562 266.386719 111.011719 266.371094 111.445312 C 266.355469 111.882812 266.234375 112.285156 266 112.652344 C 264.953125 114.03125 262.363281 112.757812 258.152344 112.652344 C 252.621094 112.554688 249 114.621094 248.644531 113.828125 C 248.382812 113.28125 250.171875 111.964844 250.875 111.449219 Z M 250.875 111.449219 " fill-opacity="1" fill-rule="nonzero"/><path stroke-linecap="round" transform="matrix(0.872253, 0, 0, 0.871966, -26.778638, -26.984672)" fill="none" stroke-linejoin="round" d="M 346.68823 172.840676 C 346.68823 172.840676 340.691723 182.279653 341.197776 184.349328 C 341.708308 186.419004 349.702157 187.01034 349.702157 187.01034 " stroke="#383333" stroke-width="1" stroke-opacity="1" stroke-miterlimit="4"/><path fill="#ffc871" d="M 306.53125 141.277344 C 306.933594 141.335938 307.324219 141.414062 307.707031 141.519531 C 308.09375 141.625 308.464844 141.75 308.820312 141.894531 C 309.175781 142.042969 309.507812 142.210938 309.820312 142.394531 C 310.132812 142.578125 310.417969 142.78125 310.675781 142.996094 C 310.933594 143.210938 311.15625 143.4375 311.351562 143.675781 C 311.542969 143.914062 311.699219 144.15625 311.820312 144.410156 C 311.9375 144.660156 312.019531 144.914062 312.0625 145.167969 C 312.109375 145.421875 312.113281 145.671875 312.078125 145.921875 C 312.042969 146.171875 311.96875 146.410156 311.855469 146.644531 C 311.742188 146.875 311.59375 147.09375 311.410156 147.304688 C 311.222656 147.511719 311.003906 147.703125 310.753906 147.878906 C 310.503906 148.050781 310.222656 148.207031 309.917969 148.34375 C 309.609375 148.480469 309.28125 148.59375 308.929688 148.683594 C 308.578125 148.773438 308.210938 148.839844 307.828125 148.882812 C 307.445312 148.925781 307.054688 148.945312 306.65625 148.9375 C 306.257812 148.929688 305.859375 148.898438 305.460938 148.839844 C 305.0625 148.785156 304.667969 148.703125 304.285156 148.601562 C 303.898438 148.496094 303.53125 148.371094 303.175781 148.222656 C 302.820312 148.078125 302.484375 147.910156 302.171875 147.726562 C 301.859375 147.539062 301.574219 147.339844 301.316406 147.125 C 301.0625 146.910156 300.835938 146.683594 300.644531 146.445312 C 300.449219 146.207031 300.292969 145.960938 300.175781 145.710938 C 300.054688 145.460938 299.972656 145.207031 299.929688 144.953125 C 299.886719 144.699219 299.882812 144.445312 299.917969 144.199219 C 299.953125 143.949219 300.027344 143.710938 300.136719 143.476562 C 300.25 143.246094 300.398438 143.023438 300.585938 142.816406 C 300.769531 142.609375 300.988281 142.417969 301.238281 142.242188 C 301.492188 142.066406 301.769531 141.914062 302.078125 141.777344 C 302.382812 141.640625 302.714844 141.527344 303.066406 141.4375 C 303.417969 141.347656 303.785156 141.28125 304.164062 141.238281 C 304.546875 141.195312 304.9375 141.175781 305.335938 141.183594 C 305.734375 141.191406 306.132812 141.222656 306.53125 141.277344 Z M 306.53125 141.277344 " fill-opacity="1" fill-rule="nonzero"/><path fill="#ffc871" d="M 255.019531 133.839844 C 255.417969 133.894531 255.8125 133.976562 256.195312 134.078125 C 256.582031 134.183594 256.949219 134.308594 257.304688 134.457031 C 257.660156 134.601562 257.996094 134.769531 258.308594 134.953125 C 258.621094 135.140625 258.90625 135.339844 259.164062 135.554688 C 259.417969 135.769531 259.644531 135.996094 259.835938 136.234375 C 260.03125 136.472656 260.1875 136.71875 260.304688 136.96875 C 260.425781 137.21875 260.507812 137.472656 260.550781 137.726562 C 260.59375 137.980469 260.597656 138.234375 260.5625 138.480469 C 260.527344 138.730469 260.453125 138.96875 260.34375 139.203125 C 260.230469 139.433594 260.082031 139.65625 259.894531 139.863281 C 259.710938 140.070312 259.492188 140.261719 259.242188 140.4375 C 258.988281 140.613281 258.710938 140.765625 258.402344 140.902344 C 258.097656 141.039062 257.765625 141.152344 257.414062 141.242188 C 257.0625 141.332031 256.699219 141.402344 256.316406 141.441406 C 255.933594 141.484375 255.542969 141.503906 255.144531 141.496094 C 254.746094 141.488281 254.347656 141.457031 253.949219 141.402344 C 253.546875 141.34375 253.15625 141.265625 252.773438 141.160156 C 252.386719 141.054688 252.015625 140.929688 251.660156 140.785156 C 251.304688 140.636719 250.972656 140.46875 250.660156 140.285156 C 250.347656 140.101562 250.0625 139.898438 249.804688 139.683594 C 249.546875 139.46875 249.324219 139.242188 249.128906 139.003906 C 248.9375 138.765625 248.78125 138.523438 248.660156 138.269531 C 248.542969 138.019531 248.460938 137.765625 248.417969 137.511719 C 248.375 137.257812 248.367188 137.007812 248.402344 136.757812 C 248.4375 136.511719 248.511719 136.269531 248.625 136.035156 C 248.738281 135.804688 248.886719 135.585938 249.070312 135.375 C 249.257812 135.167969 249.476562 134.976562 249.726562 134.800781 C 249.976562 134.628906 250.257812 134.472656 250.5625 134.335938 C 250.871094 134.199219 251.199219 134.085938 251.550781 133.996094 C 251.902344 133.90625 252.269531 133.839844 252.652344 133.796875 C 253.035156 133.753906 253.425781 133.734375 253.824219 133.742188 C 254.222656 133.75 254.621094 133.78125 255.019531 133.839844 Z M 255.019531 133.839844 " fill-opacity="1" fill-rule="nonzero"/><path fill="#ffdb99" d="M 326.484375 124.082031 C 327.496094 123.039062 328.671875 122.234375 330.015625 121.679688 C 331.359375 121.121094 332.757812 120.851562 334.210938 120.875 C 336.011719 120.890625 337.621094 121.449219 339.042969 122.546875 C 343.492188 126.507812 342.140625 139.386719 334.683594 142.867188 C 330.53125 144.808594 326.03125 143.101562 324.503906 142.4375 C 325.191406 136.324219 325.851562 130.203125 326.484375 124.082031 Z M 326.484375 124.082031 " fill-opacity="1" fill-rule="nonzero"/><path stroke-linecap="round" transform="matrix(0.872253, 0, 0, 0.871966, -26.778638, -26.984672)" fill="none" stroke-linejoin="round" d="M 417.540156 178.108942 L 409.219387 177.929749 C 409.219387 177.929749 417.7999 183.000903 410.889811 189.998379 " stroke="#383333" stroke-width="0.75" stroke-opacity="1" stroke-miterlimit="4"/><path fill="#ffb833" d="M 317.902344 189.910156 C 317.902344 189.910156 323.414062 200.597656 328.804688 202.421875 C 334.195312 204.242188 362.429688 210.835938 371.28125 226.773438 C 380.136719 242.714844 388.882812 325.820312 383.25 344.367188 C 377.613281 362.914062 288.515625 365.609375 288.515625 365.609375 C 288.515625 365.609375 272.925781 347.296875 270.617188 332.882812 L 334.332031 319.988281 L 302.671875 217.820312 L 302.714844 196.605469 C 302.714844 196.605469 308.488281 194.222656 317.902344 189.910156 Z M 317.902344 189.910156 " fill-opacity="1" fill-rule="nonzero"/><path fill="#ffb833" d="M 312.1875 192.496094 C 312.1875 192.496094 292.125 195.941406 275.875 187.753906 C 275.875 187.753906 274.425781 195.324219 271.730469 196.265625 C 266.5 198.085938 248.765625 203.589844 243.132812 206.1875 C 226.394531 213.90625 235.367188 258.503906 232.953125 304.128906 C 231.554688 329.261719 226.941406 353.792969 219.109375 377.722656 C 230.675781 381.683594 242.457031 384.855469 254.449219 387.234375 C 266.441406 389.609375 278.542969 391.171875 290.746094 391.921875 C 302.949219 392.667969 315.148438 392.59375 327.34375 391.699219 C 339.539062 390.804688 351.617188 389.09375 363.582031 386.570312 L 345.210938 233.105469 Z M 312.1875 192.496094 " fill-opacity="1" fill-rule="nonzero"/><path fill="#ffb833" d="M 268.992188 196.78125 C 268.992188 196.78125 243.804688 200.492188 232.542969 210.589844 C 221.28125 220.6875 179.265625 296.210938 179.265625 296.210938 L 204.558594 316.867188 C 210.265625 313.09375 215.679688 308.941406 220.800781 304.40625 C 237.957031 289.199219 246.578125 274.253906 257.539062 254.835938 C 272.550781 228.257812 272.953125 218.570312 272.683594 212.109375 C 272.378906 206.777344 271.148438 201.667969 268.992188 196.78125 Z M 268.992188 196.78125 " fill-opacity="1" fill-rule="nonzero"/><path fill="#ffb833" d="M 199.441406 186.019531 C 203.496094 199.542969 233.109375 300.578125 204.535156 316.867188 C 203.742188 317.3125 198.0625 320.441406 191.773438 318.609375 C 163.15625 310.101562 170.308594 212.570312 171.625 195.925781 C 173.582031 194.351562 175.660156 192.953125 177.851562 191.726562 C 180.046875 190.503906 182.328125 189.472656 184.695312 188.632812 C 187.0625 187.792969 189.484375 187.15625 191.957031 186.722656 C 194.433594 186.289062 196.925781 186.066406 199.441406 186.054688 Z M 199.441406 186.019531 " fill-opacity="1" fill-rule="nonzero"/><path stroke-linecap="round" transform="matrix(0.872253, 0, 0, 0.871966, -26.778638, -26.984672)" fill="none" stroke-linejoin="round" d="M 276.799148 361.938272 C 276.799148 361.938272 279.289109 329.938932 274.201707 305.519444 " stroke="#383333" stroke-width="1" stroke-opacity="1" stroke-miterlimit="4"/><path stroke-linecap="round" transform="matrix(0.872253, 0, 0, 0.871966, -26.778638, -26.984672)" fill="none" stroke-linejoin="round" d="M 379.25029 232.001152 C 379.25029 232.001152 363.15959 238.120583 352.039854 235.791078 " stroke="#383333" stroke-width="1" stroke-opacity="1" stroke-miterlimit="4"/><path stroke-linecap="round" transform="matrix(0.872253, 0, 0, 0.871966, -26.778638, -26.984672)" fill="none" stroke-linejoin="round" d="M 350.248515 210.681698 C 349.626025 211.147599 348.940838 211.492545 348.197433 211.729976 C 347.454027 211.962926 346.692708 212.065962 345.913476 212.043563 C 345.134243 212.016684 344.381881 211.86437 343.65191 211.586622 C 342.926418 211.304393 342.263623 210.914649 341.668003 210.408429 " stroke="#383333" stroke-width="0.75" stroke-opacity="1" stroke-miterlimit="4"/><g clip-path="url(#6124d8b864)"><g clip-path="url(#fa9a5d48a0)"><path fill="#00ccc1" d="M 173.082031 316.589844 L 58.253906 343.410156 C 57.117188 343.671875 55.96875 343.882812 54.8125 344.035156 C 53.65625 344.1875 52.496094 344.285156 51.328125 344.324219 C 50.160156 344.363281 48.996094 344.34375 47.832031 344.265625 C 46.667969 344.191406 45.507812 344.058594 44.359375 343.871094 C 43.207031 343.679688 42.066406 343.433594 40.941406 343.132812 C 39.8125 342.832031 38.703125 342.476562 37.609375 342.066406 C 36.519531 341.65625 35.449219 341.191406 34.402344 340.675781 C 33.355469 340.160156 32.335938 339.59375 31.34375 338.980469 C 30.351562 338.363281 29.394531 337.699219 28.46875 336.992188 C 27.542969 336.28125 26.652344 335.527344 25.800781 334.730469 C 24.949219 333.933594 24.136719 333.097656 23.367188 332.21875 C 22.597656 331.34375 21.875 330.429688 21.191406 329.484375 C 20.511719 328.535156 19.878906 327.554688 19.296875 326.546875 C 18.710938 325.535156 18.179688 324.5 17.699219 323.4375 C 17.214844 322.375 16.785156 321.292969 16.410156 320.1875 C 16.035156 319.082031 15.714844 317.960938 15.449219 316.824219 L 8.128906 285.496094 C 8.019531 285.027344 8.003906 284.558594 8.082031 284.085938 C 8.160156 283.613281 8.324219 283.175781 8.578125 282.769531 C 8.828125 282.363281 9.148438 282.019531 9.539062 281.738281 C 9.929688 281.460938 10.355469 281.265625 10.820312 281.15625 L 156.832031 247.058594 C 157.296875 246.949219 157.765625 246.933594 158.238281 247.011719 C 158.710938 247.089844 159.152344 247.253906 159.558594 247.507812 C 159.964844 247.757812 160.308594 248.078125 160.585938 248.46875 C 160.867188 248.859375 161.058594 249.285156 161.167969 249.75 L 175.777344 312.253906 C 175.882812 312.71875 175.898438 313.1875 175.824219 313.660156 C 175.746094 314.132812 175.578125 314.574219 175.328125 314.980469 C 175.074219 315.386719 174.753906 315.730469 174.363281 316.007812 C 173.976562 316.289062 173.546875 316.480469 173.082031 316.589844 Z M 173.082031 316.589844 " fill-opacity="1" fill-rule="nonzero"/></g></g><g clip-path="url(#0318ab3413)"><g clip-path="url(#831ac8ed13)"><path fill="#aaeeea" d="M 52.238281 305.164062 C 56.601562 316.664062 55.542969 328.402344 48.984375 334.8125 C 45.496094 338.238281 40.863281 339.632812 39.136719 340.140625 C 36.089844 340.992188 32.984375 341.339844 29.824219 341.1875 C 26.660156 341.03125 23.605469 340.382812 20.65625 339.242188 L 57.523438 355.808594 L 77.820312 351.074219 L 66.0625 323.300781 Z M 52.238281 305.164062 " fill-opacity="1" fill-rule="nonzero"/></g></g><path fill="#aaeeea" d="M 170.109375 317.28125 L 62.492188 342.414062 C 62.296875 342.460938 62.101562 342.464844 61.90625 342.433594 C 61.710938 342.402344 61.527344 342.332031 61.359375 342.226562 C 61.1875 342.121094 61.046875 341.988281 60.929688 341.828125 C 60.816406 341.667969 60.734375 341.488281 60.6875 341.296875 L 11.078125 129.019531 C 11.035156 128.824219 11.027344 128.632812 11.058594 128.433594 C 11.09375 128.238281 11.160156 128.054688 11.265625 127.886719 C 11.371094 127.71875 11.503906 127.574219 11.664062 127.460938 C 11.828125 127.34375 12.003906 127.261719 12.199219 127.21875 L 162.980469 92.003906 C 163.175781 91.957031 163.371094 91.953125 163.566406 91.984375 C 163.761719 92.015625 163.945312 92.085938 164.113281 92.1875 C 164.28125 92.292969 164.425781 92.425781 164.542969 92.589844 C 164.65625 92.75 164.738281 92.929688 164.785156 93.121094 L 204.3125 262.261719 C 204.652344 263.722656 204.921875 265.199219 205.117188 266.683594 C 205.316406 268.171875 205.4375 269.667969 205.488281 271.164062 C 205.539062 272.664062 205.515625 274.164062 205.417969 275.660156 C 205.320312 277.15625 205.148438 278.644531 204.902344 280.125 C 204.660156 281.605469 204.34375 283.070312 203.957031 284.519531 C 203.566406 285.96875 203.109375 287.398438 202.582031 288.800781 C 202.054688 290.203125 201.457031 291.578125 200.792969 292.925781 C 200.132812 294.269531 199.402344 295.582031 198.609375 296.855469 C 197.820312 298.128906 196.964844 299.363281 196.054688 300.550781 C 195.140625 301.742188 194.171875 302.886719 193.144531 303.980469 C 192.117188 305.074219 191.042969 306.117188 189.914062 307.109375 C 188.785156 308.097656 187.613281 309.027344 186.390625 309.902344 C 185.171875 310.777344 183.914062 311.589844 182.613281 312.339844 C 181.3125 313.089844 179.980469 313.773438 178.613281 314.394531 C 177.246094 315.011719 175.851562 315.5625 174.429688 316.046875 C 173.011719 316.527344 171.570312 316.941406 170.109375 317.28125 Z M 170.109375 317.28125 " fill-opacity="1" fill-rule="nonzero"/><path fill="#ff8d93" d="M 99.113281 134.617188 C 97.246094 134.992188 95.40625 135.46875 93.59375 136.050781 C 91.78125 136.632812 90.007812 137.316406 88.269531 138.097656 C 86.535156 138.878906 84.847656 139.757812 83.214844 140.730469 C 81.578125 141.703125 80 142.765625 78.484375 143.917969 C 76.96875 145.070312 75.523438 146.300781 74.144531 147.617188 C 72.769531 148.933594 71.46875 150.320312 70.25 151.78125 C 69.03125 153.242188 67.898438 154.769531 66.851562 156.359375 C 65.804688 157.949219 64.847656 159.59375 63.988281 161.289062 L 108.980469 184.03125 Z M 99.113281 134.617188 " fill-opacity="1" fill-rule="nonzero"/><g clip-path="url(#e4c4c6f3d4)"><g clip-path="url(#6cd74ad90f)"><path fill="#ffb833" d="M 114.925781 140.285156 C 111.605469 140.300781 108.316406 140.640625 105.0625 141.304688 L 114.925781 190.746094 L 69.9375 167.96875 C 69.527344 168.777344 69.140625 169.597656 68.773438 170.429688 C 68.40625 171.257812 68.066406 172.097656 67.742188 172.949219 C 67.421875 173.796875 67.125 174.652344 66.851562 175.519531 C 66.578125 176.382812 66.328125 177.253906 66.101562 178.132812 C 65.875 179.011719 65.671875 179.894531 65.492188 180.785156 C 65.3125 181.675781 65.15625 182.566406 65.027344 183.464844 C 64.894531 184.363281 64.789062 185.265625 64.707031 186.167969 C 64.625 187.070312 64.566406 187.976562 64.53125 188.882812 C 64.5 189.789062 64.488281 190.695312 64.503906 191.601562 C 64.519531 192.511719 64.558594 193.417969 64.625 194.320312 C 64.6875 195.226562 64.777344 196.128906 64.890625 197.027344 C 65.003906 197.929688 65.140625 198.824219 65.300781 199.71875 C 65.464844 200.609375 65.648438 201.5 65.859375 202.382812 C 66.066406 203.265625 66.300781 204.140625 66.558594 205.011719 C 66.816406 205.878906 67.09375 206.742188 67.398438 207.597656 C 67.703125 208.453125 68.027344 209.300781 68.378906 210.136719 C 68.726562 210.976562 69.097656 211.800781 69.492188 212.621094 C 69.886719 213.4375 70.300781 214.242188 70.738281 215.039062 C 71.175781 215.832031 71.632812 216.617188 72.113281 217.386719 C 72.59375 218.15625 73.09375 218.914062 73.613281 219.65625 C 74.132812 220.398438 74.671875 221.128906 75.234375 221.84375 C 75.792969 222.554688 76.371094 223.253906 76.96875 223.9375 C 77.566406 224.621094 78.183594 225.285156 78.816406 225.9375 C 79.449219 226.585938 80.097656 227.21875 80.765625 227.832031 C 81.433594 228.449219 82.117188 229.042969 82.816406 229.621094 C 83.519531 230.199219 84.234375 230.757812 84.960938 231.296875 C 85.691406 231.835938 86.4375 232.355469 87.195312 232.851562 C 87.953125 233.351562 88.722656 233.832031 89.507812 234.289062 C 90.289062 234.746094 91.085938 235.179688 91.894531 235.59375 C 92.703125 236.007812 93.519531 236.402344 94.347656 236.773438 C 95.175781 237.144531 96.015625 237.492188 96.859375 237.816406 C 97.707031 238.140625 98.5625 238.441406 99.425781 238.722656 C 100.292969 239 101.160156 239.253906 102.039062 239.488281 C 102.917969 239.71875 103.800781 239.925781 104.6875 240.113281 C 105.578125 240.296875 106.46875 240.457031 107.367188 240.59375 C 108.265625 240.726562 109.164062 240.839844 110.066406 240.925781 C 110.972656 241.015625 111.875 241.078125 112.78125 241.117188 C 113.691406 241.15625 114.597656 241.167969 115.503906 241.160156 C 116.410156 241.148438 117.316406 241.113281 118.222656 241.054688 C 119.128906 240.996094 120.03125 240.910156 120.933594 240.804688 C 121.835938 240.695312 122.730469 240.5625 123.625 240.40625 C 124.519531 240.25 125.410156 240.070312 126.292969 239.867188 C 127.175781 239.660156 128.054688 239.433594 128.925781 239.183594 C 129.800781 238.929688 130.664062 238.65625 131.519531 238.355469 C 132.378906 238.058594 133.226562 237.738281 134.066406 237.394531 C 134.90625 237.046875 135.734375 236.683594 136.554688 236.292969 C 137.375 235.902344 138.183594 235.492188 138.980469 235.058594 C 139.78125 234.628906 140.566406 234.175781 141.339844 233.699219 C 142.109375 233.222656 142.871094 232.726562 143.617188 232.210938 C 144.363281 231.695312 145.097656 231.160156 145.8125 230.605469 C 146.53125 230.050781 147.234375 229.476562 147.917969 228.882812 C 148.605469 228.289062 149.277344 227.675781 149.929688 227.046875 C 150.582031 226.417969 151.21875 225.769531 151.835938 225.105469 C 152.457031 224.441406 153.054688 223.761719 153.636719 223.066406 C 154.21875 222.371094 154.78125 221.660156 155.324219 220.933594 C 155.867188 220.207031 156.390625 219.464844 156.894531 218.710938 C 157.398438 217.953125 157.882812 217.1875 158.34375 216.40625 C 158.804688 215.625 159.246094 214.832031 159.664062 214.027344 C 160.082031 213.222656 160.480469 212.40625 160.855469 211.582031 C 161.230469 210.753906 161.582031 209.917969 161.914062 209.074219 C 162.242188 208.230469 162.550781 207.375 162.835938 206.515625 C 163.117188 205.652344 163.378906 204.785156 163.617188 203.90625 C 163.851562 203.03125 164.066406 202.152344 164.253906 201.261719 C 164.445312 200.375 164.609375 199.484375 164.75 198.589844 C 164.890625 197.691406 165.007812 196.792969 165.101562 195.890625 C 165.195312 194.988281 165.261719 194.082031 165.304688 193.175781 C 165.347656 192.269531 165.367188 191.363281 165.363281 190.457031 C 165.359375 189.550781 165.328125 188.644531 165.273438 187.738281 C 165.21875 186.832031 165.140625 185.929688 165.039062 185.027344 C 164.9375 184.125 164.808594 183.226562 164.65625 182.332031 C 164.507812 181.4375 164.332031 180.550781 164.132812 179.664062 C 163.933594 178.777344 163.707031 177.898438 163.460938 177.027344 C 163.214844 176.152344 162.945312 175.289062 162.652344 174.429688 C 162.355469 173.570312 162.039062 172.722656 161.699219 171.878906 C 161.359375 171.039062 161 170.207031 160.613281 169.386719 C 160.230469 168.5625 159.824219 167.753906 159.394531 166.953125 C 158.96875 166.152344 158.519531 165.367188 158.046875 164.589844 C 157.578125 163.8125 157.085938 163.050781 156.574219 162.304688 C 156.0625 161.554688 155.527344 160.820312 154.976562 160.097656 C 154.425781 159.378906 153.855469 158.671875 153.265625 157.984375 C 152.675781 157.292969 152.066406 156.621094 151.441406 155.964844 C 150.816406 155.308594 150.171875 154.667969 149.511719 154.046875 C 148.851562 153.425781 148.175781 152.820312 147.480469 152.234375 C 146.789062 151.648438 146.078125 151.082031 145.355469 150.535156 C 144.632812 149.988281 143.894531 149.460938 143.140625 148.953125 C 142.390625 148.445312 141.625 147.957031 140.84375 147.492188 C 140.066406 147.027344 139.277344 146.582031 138.472656 146.160156 C 137.671875 145.734375 136.855469 145.332031 136.03125 144.953125 C 135.207031 144.574219 134.375 144.21875 133.53125 143.882812 C 132.6875 143.546875 131.835938 143.234375 130.976562 142.949219 C 130.113281 142.660156 129.246094 142.394531 128.371094 142.152344 C 127.496094 141.910156 126.617188 141.691406 125.730469 141.496094 C 124.84375 141.304688 123.953125 141.132812 123.058594 140.988281 C 122.160156 140.839844 121.261719 140.71875 120.359375 140.621094 C 119.457031 140.523438 118.554688 140.449219 117.648438 140.402344 C 116.742188 140.351562 115.835938 140.328125 114.925781 140.328125 Z M 114.925781 140.285156 " fill-opacity="1" fill-rule="nonzero"/></g></g><g clip-path="url(#a996b28065)"><g clip-path="url(#bc0fba2472)"><path fill="#ff832f" d="M 118.277344 178.511719 L 98.957031 243.605469 L 69.066406 234.472656 L 47.894531 190.703125 L 55.363281 159.335938 L 93.136719 159.335938 Z M 118.277344 178.511719 " fill-opacity="1" fill-rule="nonzero"/></g></g><g clip-path="url(#f06c0b56b6)"><g clip-path="url(#841e82f19e)"><path fill="#ff535c" d="M 131.746094 129.480469 L 114.925781 190.703125 L 95.632812 169.320312 L 103.046875 126.578125 Z M 131.746094 129.480469 " fill-opacity="1" fill-rule="nonzero"/></g></g><path stroke-linecap="round" transform="matrix(0.872253, 0, 0, 0.871966, -26.778638, -26.984672)" fill="none" stroke-linejoin="round" d="M 120.881023 332.998648 L 225.580295 305.161059 " stroke="#00ccc1" stroke-width="3" stroke-opacity="1" stroke-miterlimit="4"/><path stroke-linecap="round" transform="matrix(0.872253, 0, 0, 0.871966, -26.778638, -26.984672)" fill="none" stroke-linejoin="round" d="M 123.881516 352.597851 L 228.589744 324.751303 " stroke="#00ccc1" stroke-width="3" stroke-opacity="1" stroke-miterlimit="4"/><path stroke-linecap="round" transform="matrix(0.872253, 0, 0, 0.871966, -26.778638, -26.984672)" fill="none" stroke-linejoin="round" d="M 129.56006 375.440443 L 234.268288 347.598374 " stroke="#00ccc1" stroke-width="3" stroke-opacity="1" stroke-miterlimit="4"/><path fill="#00ccc1" d="M 28.742188 136.753906 L 46.234375 132.644531 C 46.679688 132.539062 47.132812 132.523438 47.585938 132.597656 C 48.042969 132.671875 48.464844 132.832031 48.855469 133.074219 C 49.246094 133.316406 49.578125 133.621094 49.847656 133.996094 C 50.113281 134.371094 50.300781 134.78125 50.40625 135.230469 L 56.195312 159.835938 C 56.300781 160.285156 56.316406 160.734375 56.242188 161.191406 C 56.167969 161.644531 56.007812 162.066406 55.765625 162.457031 C 55.523438 162.847656 55.214844 163.179688 54.84375 163.449219 C 54.46875 163.714844 54.058594 163.902344 53.609375 164.007812 L 36.117188 168.121094 C 35.667969 168.226562 35.21875 168.242188 34.765625 168.167969 C 34.308594 168.09375 33.886719 167.933594 33.496094 167.691406 C 33.105469 167.449219 32.773438 167.140625 32.503906 166.769531 C 32.234375 166.394531 32.050781 165.984375 31.945312 165.535156 L 26.15625 140.929688 C 26.050781 140.480469 26.035156 140.027344 26.109375 139.574219 C 26.183594 139.121094 26.34375 138.699219 26.585938 138.308594 C 26.828125 137.914062 27.136719 137.585938 27.507812 137.316406 C 27.882812 137.046875 28.292969 136.859375 28.742188 136.753906 Z M 28.742188 136.753906 " fill-opacity="1" fill-rule="nonzero"/><path stroke-linecap="round" transform="matrix(0.872253, 0, 0, 0.871966, -26.778638, -26.984672)" fill="none" stroke-linejoin="round" d="M 424.521898 320.62987 C 424.521898 320.62987 425.448916 377.868504 434.978838 398.16208 " stroke="#383333" stroke-width="1" stroke-opacity="1" stroke-miterlimit="4"/><path stroke-linecap="round" transform="matrix(0.872253, 0, 0, 0.871966, -26.778638, -26.984672)" fill="none" stroke-linejoin="round" d="M 300.001463 295.999831 C 300.001463 295.999831 300.941916 346.079716 298.25043 365.459408 " stroke="#383333" stroke-width="1" stroke-opacity="1" stroke-miterlimit="4"/><path fill="#383333" d="M 282.347656 81.6875 C 266.890625 77.066406 251.765625 96.511719 248.035156 93.242188 C 245.460938 91 249.777344 79.289062 258.414062 72.316406 C 262.347656 69.183594 266.773438 67.109375 271.699219 66.089844 C 280.742188 64.058594 326.308594 57.132812 345.316406 83.886719 C 362.410156 107.96875 353.769531 153.363281 315.242188 177.265625 C 315.242188 177.265625 310.441406 171.640625 316.53125 166.105469 C 322.621094 160.566406 327.871094 143.808594 327.871094 143.808594 C 327.871094 143.808594 338.40625 146.476562 340.851562 135.191406 C 343.292969 123.910156 339.382812 120.804688 334.273438 120.910156 C 329.160156 121.015625 328.253906 121.582031 326.222656 127.171875 C 324.191406 132.757812 324.976562 136.527344 322.996094 136.074219 C 321.015625 135.621094 320.632812 122.679688 324.511719 115.800781 C 328.394531 108.921875 326.039062 106.304688 321.757812 99.800781 C 317.472656 93.292969 320.230469 88.59375 320.230469 88.59375 C 312.335938 90.554688 301.582031 91.726562 291.445312 86.796875 C 286.65625 84.460938 286.21875 82.882812 282.347656 81.6875 Z M 282.347656 81.6875 " fill-opacity="1" fill-rule="nonzero"/><path stroke-linecap="round" transform="matrix(0.872253, 0, 0, 0.871966, -26.778638, -26.984672)" fill="none" stroke-linejoin="round" d="M 390.128194 172.840676 C 390.128194 173.449931 390.101324 174.059187 390.038627 174.663962 C 389.980409 175.273217 389.890842 175.873513 389.769927 176.473809 C 389.65349 177.069624 389.505704 177.66096 389.32657 178.243337 C 389.151915 178.830193 388.945911 179.403609 388.713037 179.963587 C 388.480163 180.528044 388.220419 181.079061 387.929326 181.61664 C 387.642712 182.154218 387.329228 182.678356 386.993352 183.184576 C 386.652997 183.690795 386.290251 184.179095 385.905113 184.653956 C 385.515497 185.124337 385.107968 185.576799 384.678046 186.006861 C 384.243647 186.436924 383.795812 186.844587 383.321107 187.234331 C 382.850881 187.619596 382.362741 187.982461 381.856688 188.322927 C 381.346156 188.658913 380.826668 188.972501 380.289266 189.259209 C 379.747386 189.550397 379.201028 189.810227 378.636756 190.043177 C 378.072485 190.276128 377.499256 190.482199 376.917071 190.656912 C 376.330408 190.836105 375.739266 190.983939 375.143646 191.100414 C 374.543547 191.221369 373.943449 191.310966 373.334394 191.369203 C 372.729817 191.431921 372.120762 191.4588 371.511706 191.4588 C 370.898173 191.4588 370.293596 191.431921 369.684541 191.369203 C 369.079964 191.310966 368.475387 191.221369 367.875289 191.100414 C 367.279669 190.983939 366.688527 190.836105 366.106342 190.656912 C 365.519678 190.482199 364.94645 190.276128 364.382178 190.043177 C 363.822385 189.810227 363.271548 189.550397 362.734147 189.259209 C 362.196745 188.972501 361.672778 188.658913 361.166725 188.322927 C 360.656194 187.982461 360.168054 187.619596 359.697827 187.234331 C 359.227601 186.844587 358.775288 186.436924 358.345367 186.006861 C 357.910967 185.576799 357.503437 185.124337 357.1183 184.653956 C 356.728683 184.179095 356.365937 183.690795 356.030061 183.184576 C 355.689707 182.678356 355.376223 182.154218 355.089608 181.61664 C 354.802994 181.079061 354.538772 180.528044 354.305898 179.963587 C 354.073024 179.403609 353.86702 178.830193 353.692364 178.243337 C 353.51323 177.66096 353.365445 177.069624 353.249008 176.473809 C 353.128092 175.873513 353.038526 175.273217 352.980307 174.663962 C 352.922089 174.059187 352.89074 173.449931 352.89074 172.840676 C 352.89074 172.231421 352.922089 171.622166 352.980307 171.01291 C 353.038526 170.408135 353.128092 169.80336 353.249008 169.207544 C 353.365445 168.607248 353.51323 168.020392 353.692364 167.433536 C 353.86702 166.85116 354.073024 166.277743 354.305898 165.713286 C 354.538772 165.148829 354.802994 164.602291 355.089608 164.064713 C 355.376223 163.522655 355.689707 163.002996 356.030061 162.496777 C 356.365937 161.986077 356.728683 161.497777 357.1183 161.027396 C 357.503437 160.557015 357.910967 160.104554 358.345367 159.674491 C 358.775288 159.244429 359.227601 158.832285 359.697827 158.447021 C 360.168054 158.061757 360.656194 157.698892 361.166725 157.358425 C 361.672778 157.017959 362.196745 156.704372 362.734147 156.417664 C 363.271548 156.130955 363.822385 155.871126 364.382178 155.638175 C 364.94645 155.405225 365.519678 155.199153 366.106342 155.01996 C 366.688527 154.845247 367.279669 154.697413 367.875289 154.576458 C 368.475387 154.459983 369.079964 154.370387 369.684541 154.307669 C 370.293596 154.249432 370.898173 154.218073 371.511706 154.218073 C 372.120762 154.218073 372.729817 154.249432 373.334394 154.307669 C 373.943449 154.370387 374.543547 154.459983 375.143646 154.576458 C 375.739266 154.697413 376.330408 154.845247 376.917071 155.01996 C 377.499256 155.199153 378.072485 155.405225 378.636756 155.638175 C 379.201028 155.871126 379.747386 156.130955 380.289266 156.417664 C 380.826668 156.704372 381.346156 157.017959 381.856688 157.358425 C 382.362741 157.698892 382.850881 158.061757 383.321107 158.447021 C 383.795812 158.832285 384.243647 159.244429 384.678046 159.674491 C 385.107968 160.104554 385.515497 160.557015 385.905113 161.027396 C 386.290251 161.497777 386.652997 161.986077 386.993352 162.496777 C 387.329228 163.002996 387.642712 163.522655 387.929326 164.064713 C 388.220419 164.602291 388.480163 165.148829 388.713037 165.713286 C 388.945911 166.277743 389.151915 166.85116 389.32657 167.433536 C 389.505704 168.020392 389.65349 168.607248 389.774405 169.207544 C 389.890842 169.80336 389.980409 170.408135 390.038627 171.01291 C 390.101324 171.622166 390.128194 172.231421 390.128194 172.840676 Z M 390.128194 172.840676 " stroke="#fff3e3" stroke-width="4" stroke-opacity="1" stroke-miterlimit="4"/><path stroke-linecap="round" transform="matrix(0.872253, 0, 0, 0.871966, -26.778638, -26.984672)" fill="none" stroke-linejoin="round" d="M 341.058948 167.137868 C 341.058948 167.751603 341.032078 168.356378 340.969381 168.965634 C 340.911162 169.570409 340.821595 170.175185 340.70068 170.771 C 340.584243 171.371296 340.436457 171.962632 340.257324 172.545008 C 340.082668 173.127385 339.876664 173.700801 339.64379 174.265258 C 339.410916 174.829715 339.146694 175.380733 338.860079 175.918311 C 338.573465 176.455889 338.259981 176.975548 337.924105 177.486247 C 337.58375 177.992467 337.221004 178.480767 336.831388 178.951148 C 336.44625 179.426009 336.038721 179.87399 335.604321 180.308533 C 335.1744 180.738595 334.722087 181.146259 334.25186 181.531523 C 333.781634 181.921267 333.293494 182.284132 332.782963 182.620119 C 332.276909 182.960585 331.757421 183.274172 331.215541 183.560881 C 330.67814 183.847589 330.127303 184.107418 329.56751 184.344849 C 329.003238 184.577799 328.430009 184.779391 327.843346 184.958584 C 327.261161 185.133297 326.670019 185.281131 326.074399 185.402086 C 325.474301 185.523041 324.874202 185.612637 324.265147 185.670875 C 323.656092 185.729112 323.051515 185.760471 322.437981 185.760471 C 321.828926 185.760471 321.219871 185.729112 320.615294 185.670875 C 320.006239 185.612637 319.40614 185.523041 318.806042 185.402086 C 318.210422 185.281131 317.61928 185.133297 317.037095 184.958584 C 316.450432 184.779391 315.877203 184.577799 315.312931 184.344849 C 314.753138 184.107418 314.202301 183.847589 313.660421 183.560881 C 313.12302 183.274172 312.603532 182.960585 312.097478 182.620119 C 311.586947 182.284132 311.098807 181.921267 310.628581 181.531523 C 310.158354 181.146259 309.706041 180.738595 309.271641 180.308533 C 308.84172 179.87399 308.434191 179.426009 308.044574 178.951148 C 307.659437 178.480767 307.296691 177.992467 306.956336 177.486247 C 306.62046 176.975548 306.306976 176.455889 306.020362 175.918311 C 305.729269 175.380733 305.469525 174.829715 305.236651 174.265258 C 305.003777 173.700801 304.797773 173.127385 304.623117 172.545008 C 304.443984 171.962632 304.296198 171.371296 304.179761 170.771 C 304.058846 170.175185 303.969279 169.570409 303.91106 168.965634 C 303.848363 168.356378 303.821493 167.751603 303.821493 167.137868 C 303.821493 166.528613 303.848363 165.923837 303.91106 165.314582 C 303.969279 164.709807 304.058846 164.105031 304.179761 163.509215 C 304.296198 162.90892 304.443984 162.317584 304.623117 161.735207 C 304.797773 161.152831 305.003777 160.579414 305.236651 160.014957 C 305.469525 159.4505 305.729269 158.899483 306.020362 158.361905 C 306.306976 157.824326 306.62046 157.300188 306.956336 156.793968 C 307.296691 156.287749 307.659437 155.799449 308.044574 155.329068 C 308.434191 154.854207 308.84172 154.406225 309.271641 153.971683 C 309.706041 153.54162 310.158354 153.133957 310.628581 152.748693 C 311.098807 152.358949 311.586947 151.996083 312.097478 151.660097 C 312.603532 151.319631 313.12302 151.006044 313.660421 150.719335 C 314.202301 150.432627 314.753138 150.172797 315.312931 149.935367 C 315.877203 149.702416 316.450432 149.500825 317.037095 149.321632 C 317.61928 149.146919 318.210422 148.994605 318.806042 148.87813 C 319.40614 148.757175 320.006239 148.667579 320.615294 148.609341 C 321.219871 148.551103 321.828926 148.519745 322.437981 148.519745 C 323.051515 148.519745 323.656092 148.551103 324.265147 148.609341 C 324.874202 148.667579 325.474301 148.757175 326.074399 148.87813 C 326.670019 148.994605 327.261161 149.146919 327.843346 149.321632 C 328.430009 149.500825 329.003238 149.702416 329.56751 149.935367 C 330.127303 150.172797 330.67814 150.432627 331.215541 150.719335 C 331.757421 151.006044 332.276909 151.319631 332.782963 151.660097 C 333.293494 151.996083 333.781634 152.358949 334.25186 152.748693 C 334.722087 153.133957 335.1744 153.54162 335.604321 153.971683 C 336.038721 154.406225 336.44625 154.854207 336.831388 155.329068 C 337.221004 155.799449 337.58375 156.287749 337.924105 156.793968 C 338.259981 157.300188 338.573465 157.824326 338.860079 158.361905 C 339.146694 158.899483 339.410916 159.4505 339.64379 160.014957 C 339.876664 160.579414 340.082668 161.152831 340.257324 161.735207 C 340.436457 162.317584 340.584243 162.90892 340.70068 163.509215 C 340.821595 164.105031 340.911162 164.709807 340.969381 165.314582 C 341.032078 165.923837 341.058948 166.528613 341.058948 167.137868 Z M 341.058948 167.137868 " stroke="#fff3e3" stroke-width="4" stroke-opacity="1" stroke-miterlimit="4"/><path stroke-linecap="round" transform="matrix(0.872253, 0, 0, 0.871966, -26.778638, -26.984672)" fill="none" stroke-linejoin="round" d="M 341.058948 167.137868 C 341.058948 167.137868 347.848122 165.538573 352.057768 169.54801 " stroke="#fff3e3" stroke-width="4" stroke-opacity="1" stroke-miterlimit="4"/><path fill="#ffffff" d="M 274.597656 143.78125 C 275.222656 143.8125 275.84375 143.875 276.453125 143.976562 C 277.066406 144.074219 277.65625 144.207031 278.226562 144.375 C 278.800781 144.539062 279.34375 144.738281 279.855469 144.960938 C 280.363281 145.1875 280.835938 145.4375 281.265625 145.714844 C 281.699219 145.992188 282.082031 146.289062 282.414062 146.609375 C 282.746094 146.925781 283.027344 147.257812 283.25 147.601562 C 283.472656 147.949219 283.640625 148.300781 283.746094 148.664062 C 283.851562 149.023438 283.894531 149.386719 283.875 149.746094 C 283.859375 150.109375 283.78125 150.464844 283.640625 150.8125 C 283.503906 151.164062 283.304688 151.5 283.050781 151.824219 C 282.796875 152.144531 282.484375 152.449219 282.125 152.734375 C 281.761719 153.019531 281.351562 153.277344 280.898438 153.511719 C 280.441406 153.75 279.949219 153.953125 279.417969 154.128906 C 278.890625 154.308594 278.332031 154.449219 277.746094 154.5625 C 277.160156 154.671875 276.558594 154.75 275.941406 154.792969 C 275.324219 154.832031 274.703125 154.839844 274.074219 154.808594 C 273.449219 154.777344 272.828125 154.714844 272.21875 154.613281 C 271.609375 154.515625 271.015625 154.382812 270.445312 154.214844 C 269.871094 154.050781 269.332031 153.855469 268.820312 153.628906 C 268.308594 153.402344 267.835938 153.152344 267.40625 152.875 C 266.976562 152.597656 266.59375 152.300781 266.257812 151.984375 C 265.925781 151.664062 265.644531 151.335938 265.421875 150.988281 C 265.199219 150.640625 265.035156 150.289062 264.929688 149.929688 C 264.824219 149.566406 264.777344 149.207031 264.796875 148.84375 C 264.8125 148.480469 264.890625 148.125 265.03125 147.777344 C 265.167969 147.429688 265.367188 147.089844 265.621094 146.769531 C 265.878906 146.445312 266.1875 146.140625 266.546875 145.855469 C 266.910156 145.574219 267.320312 145.3125 267.773438 145.078125 C 268.230469 144.84375 268.722656 144.636719 269.253906 144.460938 C 269.785156 144.285156 270.339844 144.140625 270.925781 144.027344 C 271.511719 143.917969 272.113281 143.839844 272.730469 143.800781 C 273.347656 143.757812 273.972656 143.753906 274.597656 143.78125 Z M 274.597656 143.78125 " fill-opacity="1" fill-rule="nonzero"/><path fill="#ffdb99" d="M 301.25 332.082031 C 301.25 332.082031 284.160156 330.339844 275.535156 331.0625 C 266.910156 331.785156 259.398438 334.070312 258.210938 336.582031 C 257.027344 339.09375 267.265625 338.65625 267.265625 338.65625 C 262.308594 342.121094 256.949219 344.769531 251.183594 346.601562 C 242.53125 349.128906 235.167969 349.261719 234.886719 353.167969 C 234.609375 357.074219 255.917969 362.183594 268.90625 360.394531 C 281.894531 358.609375 293.800781 355.40625 303.882812 356.679688 C 303.910156 356.679688 310.90625 338.742188 301.25 332.082031 Z M 301.25 332.082031 " fill-opacity="1" fill-rule="nonzero"/><path fill="#383333" d="M 295.179688 130.691406 C 294.945312 130.898438 294.695312 131.078125 294.425781 131.234375 C 294.15625 131.390625 293.875 131.515625 293.582031 131.617188 C 293.285156 131.71875 292.984375 131.789062 292.675781 131.828125 C 292.367188 131.867188 292.058594 131.878906 291.75 131.859375 C 291.441406 131.839844 291.132812 131.789062 290.835938 131.707031 C 290.535156 131.628906 290.246094 131.519531 289.964844 131.382812 C 289.6875 131.242188 289.425781 131.082031 289.179688 130.890625 C 288.933594 130.703125 288.707031 130.492188 288.5 130.257812 C 288.296875 130.023438 288.117188 129.773438 287.960938 129.503906 C 287.804688 129.234375 287.679688 128.953125 287.578125 128.65625 C 287.480469 128.363281 287.410156 128.0625 287.371094 127.753906 C 287.328125 127.445312 287.320312 127.136719 287.339844 126.828125 C 287.359375 126.519531 287.414062 126.214844 287.492188 125.914062 C 287.574219 125.613281 287.683594 125.324219 287.820312 125.046875 C 287.960938 124.765625 288.121094 124.503906 288.3125 124.257812 C 288.503906 124.011719 288.714844 123.789062 288.949219 123.582031 C 289.183594 123.378906 289.433594 123.199219 289.703125 123.042969 C 289.972656 122.890625 290.253906 122.761719 290.550781 122.664062 C 290.84375 122.566406 291.144531 122.496094 291.453125 122.457031 C 291.761719 122.417969 292.070312 122.40625 292.378906 122.429688 C 292.691406 122.449219 292.996094 122.5 293.296875 122.582031 C 293.59375 122.664062 293.882812 122.773438 294.164062 122.910156 C 294.441406 123.050781 294.703125 123.214844 294.949219 123.402344 C 295.195312 123.59375 295.417969 123.804688 295.625 124.039062 C 295.824219 124.273438 296.003906 124.523438 296.15625 124.792969 C 296.308594 125.0625 296.433594 125.34375 296.53125 125.636719 C 296.632812 125.929688 296.699219 126.230469 296.738281 126.535156 C 296.777344 126.84375 296.789062 127.148438 296.769531 127.457031 C 296.746094 127.765625 296.695312 128.070312 296.617188 128.367188 C 296.535156 128.667969 296.429688 128.953125 296.292969 129.230469 C 296.15625 129.507812 295.996094 129.769531 295.808594 130.015625 C 295.621094 130.261719 295.410156 130.488281 295.179688 130.691406 Z M 295.179688 130.691406 " fill-opacity="1" fill-rule="evenodd"/><path fill="#383333" d="M 261.605469 127.207031 C 261.359375 127.394531 261.097656 127.558594 260.820312 127.695312 C 260.539062 127.832031 260.25 127.941406 259.953125 128.019531 C 259.652344 128.101562 259.347656 128.152344 259.035156 128.171875 C 258.726562 128.191406 258.417969 128.183594 258.109375 128.140625 C 257.804688 128.101562 257.503906 128.03125 257.207031 127.929688 C 256.914062 127.832031 256.632812 127.703125 256.363281 127.546875 C 256.09375 127.394531 255.84375 127.214844 255.609375 127.007812 C 255.378906 126.804688 255.164062 126.578125 254.976562 126.332031 C 254.789062 126.085938 254.625 125.824219 254.488281 125.546875 C 254.351562 125.269531 254.242188 124.980469 254.160156 124.679688 C 254.082031 124.378906 254.03125 124.074219 254.011719 123.765625 C 253.988281 123.457031 254 123.148438 254.039062 122.839844 C 254.082031 122.53125 254.152344 122.230469 254.25 121.9375 C 254.351562 121.644531 254.476562 121.363281 254.632812 121.09375 C 254.789062 120.824219 254.96875 120.574219 255.171875 120.339844 C 255.378906 120.105469 255.601562 119.894531 255.847656 119.707031 C 256.09375 119.519531 256.359375 119.355469 256.636719 119.21875 C 256.914062 119.078125 257.203125 118.972656 257.503906 118.890625 C 257.804688 118.808594 258.109375 118.761719 258.417969 118.738281 C 258.726562 118.71875 259.035156 118.730469 259.34375 118.769531 C 259.652344 118.808594 259.953125 118.878906 260.246094 118.980469 C 260.539062 119.078125 260.820312 119.207031 261.089844 119.363281 C 261.359375 119.519531 261.609375 119.699219 261.84375 119.902344 C 262.078125 120.105469 262.289062 120.332031 262.476562 120.578125 C 262.664062 120.824219 262.828125 121.085938 262.964844 121.367188 C 263.101562 121.644531 263.207031 121.933594 263.289062 122.234375 C 263.367188 122.53125 263.417969 122.835938 263.4375 123.144531 C 263.457031 123.457031 263.449219 123.765625 263.40625 124.070312 C 263.367188 124.378906 263.296875 124.679688 263.199219 124.972656 C 263.097656 125.265625 262.972656 125.546875 262.816406 125.816406 C 262.664062 126.085938 262.484375 126.335938 262.277344 126.570312 C 262.074219 126.804688 261.851562 127.015625 261.605469 127.207031 Z M 261.605469 127.207031 " fill-opacity="1" fill-rule="evenodd"/><path fill="#ffb833" d="M 296.191406 330.894531 C 297.160156 332.964844 297.957031 335.097656 298.574219 337.296875 C 299.191406 339.496094 299.625 341.734375 299.871094 344.003906 C 300.117188 346.273438 300.175781 348.550781 300.046875 350.832031 C 299.917969 353.113281 299.597656 355.367188 299.09375 357.597656 L 321.929688 356.347656 L 315.492188 327.296875 Z M 296.191406 330.894531 " fill-opacity="1" fill-rule="nonzero"/><path stroke-linecap="round" transform="matrix(0.872253, 0, 0, 0.871966, -26.778638, -26.984672)" fill="none" stroke-linejoin="round" d="M 370.669777 411.310345 C 370.669777 411.310345 429.121161 391.791778 454.352167 400.200397 " stroke="#383333" stroke-width="1" stroke-opacity="1" stroke-miterlimit="4"/><path stroke-linecap="round" transform="matrix(0.872253, 0, 0, 0.871966, -26.778638, -26.984672)" fill="none" stroke-linejoin="round" d="M 373.889709 439.672073 C 373.889709 439.672073 425.108562 442.279327 443.501133 440.590435 " stroke="#383333" stroke-width="1" stroke-opacity="1" stroke-miterlimit="4"/><path fill="#ffdb99" d="M 178.007812 155.257812 C 181.289062 155.527344 183.851562 155.847656 186.730469 157.4375 C 186.730469 157.4375 187.238281 157.734375 187.707031 158.0625 C 193.117188 161.902344 195.671875 173.488281 199.542969 186.226562 C 199.953125 187.5625 200.292969 188.625 200.488281 189.238281 C 200.015625 190.195312 199.332031 190.960938 198.4375 191.539062 C 197.5 192.09375 196.488281 192.382812 195.402344 192.410156 C 194.355469 192.496094 191.355469 192.75 189.425781 191.84375 C 186.566406 190.492188 186.984375 187.023438 184.550781 179.480469 C 182.363281 172.703125 181.28125 169.296875 178.324219 166.898438 C 175.128906 164.28125 172.382812 164.542969 170.160156 161.082031 C 169.898438 160.671875 167.621094 157.050781 168.910156 155.273438 C 169.320312 154.679688 169.941406 154.609375 178.007812 155.257812 Z M 178.007812 155.257812 " fill-opacity="1" fill-rule="nonzero"/><path stroke-linecap="round" transform="matrix(0.872253, 0, 0, 0.871966, -26.778638, -26.984672)" fill="none" stroke-linejoin="round" d="M 324.448759 125.211252 C 324.448759 125.211252 340.637983 112.381053 352.89074 116.430809 C 365.139019 120.480564 373.710575 128.508398 393.460084 125.211252 " stroke="#ffffff" stroke-width="1" stroke-opacity="1" stroke-miterlimit="4"/><path stroke-linecap="round" transform="matrix(0.872253, 0, 0, 0.871966, -26.778638, -26.984672)" fill="none" stroke-linejoin="round" d="M 365.671942 110.392014 C 365.671942 110.392014 385.837938 124.001701 407.257871 120.812071 " stroke="#ffffff" stroke-width="1" stroke-opacity="1" stroke-miterlimit="4"/><path stroke-linecap="round" transform="matrix(0.872253, 0, 0, 0.871966, -26.778638, -26.984672)" fill="none" stroke-linejoin="round" d="M 412.560234 135.470035 C 412.560234 135.470035 406.948865 159.790967 422.331987 167.137868 " stroke="#ffffff" stroke-width="1" stroke-opacity="1" stroke-miterlimit="4"/><path stroke-linecap="round" transform="matrix(0.872253, 0, 0, 0.871966, -26.778638, -26.984672)" fill="none" stroke-linejoin="round" d="M 421.060136 144.268397 C 421.060136 144.268397 420.58991 161.641131 431.767864 164.978596 " stroke="#ffffff" stroke-width="1" stroke-opacity="1" stroke-miterlimit="4"/><path stroke-linecap="round" transform="matrix(0.872253, 0, 0, 0.871966, -26.778638, -26.984672)" fill="none" stroke-linejoin="round" d="M 421.060136 197.300482 C 421.060136 197.300482 412.349752 217.208793 402.779524 222.499458 " stroke="#ffffff" stroke-width="1" stroke-opacity="1" stroke-miterlimit="4"/></svg>