<svg width="686" height="367" viewBox="0 0 686 367" fill="none" xmlns="http://www.w3.org/2000/svg">
<path d="M613.609 354.781C613.609 354.663 492.116 354.562 342.311 354.562C192.505 354.562 71 354.663 71 354.781C71 354.899 192.493 355 342.311 355C492.128 355 613.609 354.899 613.609 354.781Z" fill="#263238"/>
<path d="M647.95 144.19C648.695 140.197 640.97 136.916 635.168 136.571C632.398 136.41 629.518 136.718 626.899 136.05C621.208 134.582 618.942 129.261 613.392 127.55C609.252 126.281 604.478 127.411 600.459 128.886C596.44 130.362 592.462 132.219 587.97 132.424C584.062 132.608 579.821 131.551 576.407 132.945C573.858 133.98 572.529 136.116 570.182 137.349C567.835 138.582 564.884 138.817 562.034 138.957C559.183 139.096 556.232 139.096 553.643 139.962C551.055 140.828 548.899 142.825 549.443 144.865L647.95 144.19Z" fill="#F5F5F5"/>
<path d="M603.502 89.5273C604.096 86.3858 598.013 83.8021 593.43 83.5305C591.254 83.4058 588.988 83.648 586.923 83.1268C582.451 81.9891 580.668 77.776 576.307 76.4328C573.043 75.4345 569.256 76.3227 566.124 77.4824C562.991 78.6421 559.839 80.1028 556.303 80.2716C553.282 80.411 549.887 79.5816 547.238 80.6753C545.224 81.49 544.217 83.1782 542.343 84.1691C540.47 85.16 538.173 85.3435 535.937 85.4316C533.701 85.5197 531.374 85.5417 529.33 86.217C527.285 86.8923 525.603 88.4777 526.026 90.0778L603.502 89.5273Z" fill="#FAFAFA"/>
<path d="M191.74 56.36C192.747 51.1119 182.554 46.818 174.909 46.3409C171.273 46.1281 167.486 46.5318 164.031 45.651C156.548 43.7499 153.556 36.7108 146.254 34.4648C140.795 32.7839 134.51 34.2813 129.222 36.2191C123.934 38.1568 118.696 40.601 112.784 40.902C107.647 41.1442 102.057 39.7496 97.5645 41.5846C94.2105 42.9498 92.4478 45.7611 89.3657 47.4566C86.2836 49.1521 82.3957 49.4311 78.6488 49.5779C74.9019 49.7247 71.014 49.754 67.5693 50.8917C64.1246 52.0294 61.3346 54.6645 62.0397 57.3509L191.74 56.36Z" fill="#F5F5F5"/>
<path d="M111.656 250.635C111.656 250.635 104.102 248.851 100.576 261.55C97.0509 274.248 96.5473 281.265 96.5473 281.265C96.5473 281.265 95.3789 284.017 92.599 282.938C89.819 281.859 85.1657 278.138 81.731 279.672C78.2964 281.206 78.0849 284.678 80.5828 289.155C83.0807 293.633 88.0765 303.601 88.5197 304.503C88.9629 305.406 88.7514 306.86 86.6966 306.346C84.6419 305.832 71.6588 299.784 68.0831 304.452C64.5074 309.12 74.2977 320.761 75.3351 322.068C76.3726 323.375 76.2215 324.02 75.4459 324.549C74.6704 325.077 70.5709 322.743 66.7737 321.136C62.9765 319.528 58.2022 318.141 56.4496 320.96C54.6971 323.778 57.4569 333.438 75.7481 346.356L84.7527 351.934L95.953 349.182C119.522 342.18 127.056 333.981 126.875 330.891C126.694 327.801 121.557 327.779 117.206 328.241C112.854 328.703 107.858 329.746 107.415 329.041C106.972 328.336 107.174 327.683 108.795 326.766C110.417 325.848 125.465 317.715 124.548 312.416C123.632 307.116 108.433 309.194 106.307 309.106C104.182 309.017 104.706 307.601 105.572 306.904C106.438 306.206 116.178 298.264 120.842 294.793C125.505 291.321 127.137 288.135 124.639 285.684C122.141 283.232 116.017 285.507 112.885 285.75C109.752 285.992 110.044 283.122 110.044 283.122C110.044 283.122 113.167 276.479 116.4 263.73C119.633 250.98 111.505 250.598 111.505 250.598" fill="#EBEBEB"/>
<path d="M83.4534 353.777C85.8808 344.426 90.5644 327.852 94.4825 313.605C98.4006 299.358 101.936 286.447 104.424 277.132C105.663 272.464 106.66 268.684 107.355 266.064C107.697 264.765 107.969 263.752 108.151 263.054C108.241 262.717 108.322 262.46 108.372 262.269C108.423 262.078 108.453 262.005 108.453 262.005C108.453 262.005 108.453 262.1 108.453 262.276C108.453 262.452 108.352 262.724 108.271 263.062C108.1 263.796 107.858 264.779 107.546 266.078C106.902 268.699 105.945 272.486 104.726 277.169C102.309 286.52 98.8136 299.424 94.8955 313.664C90.9773 327.903 86.2434 344.492 83.816 353.813" fill="#E0E0E0"/>
<path d="M87.9154 285.06C88.1055 285.216 88.2742 285.386 88.419 285.566C88.7212 285.904 89.1442 286.388 89.6478 287.034C90.6551 288.253 92.0249 289.97 93.4652 291.879L97.1416 296.782L98.2697 298.25C98.4251 298.425 98.5535 298.612 98.6524 298.808C98.4574 298.652 98.2852 298.483 98.1388 298.301C97.8366 297.971 97.4236 297.479 96.92 296.833C95.9128 295.6 94.5933 293.897 93.1429 291.967C91.6925 290.036 90.4234 288.385 89.4262 287.086L88.2881 285.618C88.1326 285.444 88.0074 285.256 87.9154 285.06Z" fill="#E0E0E0"/>
<path d="M99.7502 298.727C99.7502 298.661 104.424 296.481 110.316 293.846C116.208 291.211 121.013 289.126 121.063 289.192C121.114 289.258 116.39 291.438 110.507 294.073C104.625 296.708 99.8006 298.793 99.7502 298.727Z" fill="#E0E0E0"/>
<path d="M92.3774 320.402C92.6404 320.311 92.9179 320.245 93.2033 320.204L95.4897 319.741C97.4236 319.36 100.083 318.816 102.994 318.134C105.904 317.451 108.513 316.791 110.387 316.284L112.623 315.697C112.888 315.613 113.165 315.549 113.449 315.506C113.208 315.625 112.947 315.721 112.673 315.792C112.159 315.961 111.414 316.196 110.487 316.468C108.624 317.011 106.025 317.715 103.104 318.391C100.183 319.066 97.5042 319.587 95.5602 319.925C94.553 320.094 93.7875 320.226 93.2436 320.299C92.9598 320.353 92.6698 320.387 92.3774 320.402Z" fill="#E0E0E0"/>
<path d="M77.9338 309.759C78.1646 309.862 78.3747 309.988 78.5583 310.133L80.1597 311.22C81.4994 312.152 83.3426 313.422 85.347 314.89C87.3513 316.358 89.1643 317.649 90.4637 318.618L91.9846 319.763C92.1845 319.899 92.3605 320.051 92.5083 320.218C92.2835 320.109 92.0743 319.984 91.8839 319.844L90.2824 318.75C88.9428 317.818 87.0995 316.548 85.0952 315.08C83.0908 313.612 81.2778 312.313 79.9784 311.352L78.4575 310.199C78.2602 310.068 78.0845 309.92 77.9338 309.759Z" fill="#E0E0E0"/>
<path d="M68.0933 328.285C68.3723 328.431 68.635 328.593 68.8789 328.769L70.9437 330.164C72.6661 331.346 75.0431 332.997 77.6418 334.832C80.2404 336.667 82.5872 338.341 84.2693 339.559L86.2838 341.027C86.5404 341.196 86.7733 341.383 86.9787 341.585C86.6949 341.444 86.4316 341.281 86.1931 341.101C85.6492 340.741 84.9643 340.271 84.1283 339.706C82.3959 338.524 80.0289 336.873 77.4302 335.038C74.8316 333.203 72.4848 331.537 70.8027 330.318L68.7882 328.85C68.5298 328.68 68.2969 328.491 68.0933 328.285Z" fill="#E0E0E0"/>
<path d="M86.5959 341.159C86.9237 341.054 87.2601 340.963 87.6031 340.888L90.4737 340.234C92.9011 339.677 96.2451 338.906 99.9013 337.974C103.558 337.042 106.841 336.139 109.208 335.471L112.018 334.685C112.341 334.576 112.679 334.489 113.026 334.428C112.703 334.565 112.366 334.683 112.018 334.781C111.374 334.994 110.427 335.295 109.258 335.647C106.912 336.381 103.638 337.298 99.9718 338.223C96.3055 339.148 92.9213 339.904 90.4939 340.425C89.2751 340.675 88.278 340.873 87.593 340.998C87.2664 341.069 86.9331 341.123 86.5959 341.159Z" fill="#E0E0E0"/>
<path d="M361.92 302C363.971 301.998 366.001 302.297 367.889 302.88C369.777 303.462 371.484 304.317 372.909 305.391C375.746 307.559 377.862 310.174 379.093 313.032C381.692 318.478 381.108 325.106 379.466 330.751C370.995 329.041 365.264 322.89 362.625 319.638C358.455 314.5 355.202 303.365 361.92 302.022" fill="#EBEBEB"/>
<path d="M392.016 336.894C390.639 335.557 389.77 333.979 389.497 332.319C389.225 330.659 389.559 328.976 390.465 327.44C391.411 325.922 392.763 324.557 394.44 323.423C396.117 322.289 398.087 321.409 400.235 320.834C402.249 320.277 404.526 319.961 406.359 320.724C407.189 321.117 407.86 321.665 408.303 322.31C408.745 322.955 408.944 323.675 408.877 324.394C408.698 325.838 408.004 327.222 406.863 328.409C403.237 332.578 398.684 336.138 391.986 336.902" fill="#EBEBEB"/>
<path d="M392.812 351.317C392.161 350.134 391.685 348.904 391.392 347.647C390.991 346.283 390.815 344.888 390.868 343.493C390.869 341.797 391.021 340.103 391.321 338.421C391.89 335.328 393.492 332.385 395.985 329.848C396.77 329.102 397.654 328.413 398.623 327.793C399.329 327.382 399.752 327.176 399.782 327.213C399.812 327.25 398.311 328.204 396.498 330.149C394.224 332.679 392.755 335.548 392.197 338.546C391.901 340.201 391.73 341.868 391.684 343.537C391.599 344.894 391.707 346.255 392.006 347.596C392.388 348.822 392.657 350.065 392.812 351.317Z" fill="#E0E0E0"/>
<path d="M365.425 310.353C365.955 310.868 366.417 311.419 366.805 311.997C367.641 313.083 368.82 314.654 370.25 316.614C373.111 320.526 376.988 325.965 381.068 332.028C385.147 338.091 388.622 343.699 391.019 347.772C392.218 349.813 393.164 351.442 393.789 352.624C394.152 353.212 394.448 353.821 394.675 354.444C394.203 353.899 393.799 353.324 393.467 352.727C392.691 351.494 391.674 349.893 390.445 347.963C387.907 343.933 384.341 338.421 380.272 332.307C376.203 326.193 372.466 320.871 369.696 316.797C368.397 314.889 367.319 313.311 366.503 312.092C366.08 311.535 365.719 310.953 365.425 310.353Z" fill="#E0E0E0"/>
<path d="M384.28 342.025C380.977 339.448 376.879 337.481 372.325 336.287C367.771 335.094 362.892 334.708 358.093 335.162C355.665 335.404 352.875 336.146 352.261 337.885C351.646 339.625 353.631 341.254 355.635 342.289C359.878 344.394 364.88 345.535 370.012 345.571C375.144 345.606 380.176 344.533 384.472 342.487" fill="#EBEBEB"/>
<path d="M363.33 338.795C363.782 338.704 364.252 338.667 364.72 338.685C365.607 338.649 366.906 338.685 368.507 338.685C372.711 338.774 376.856 339.426 380.735 340.608C382.861 341.305 384.817 342.25 386.527 343.405C388.823 345.007 390.593 346.967 391.704 349.137C391.912 349.444 392.045 349.774 392.097 350.114C391.935 350.165 391.24 348.807 389.528 346.884C388.521 345.767 387.327 344.747 385.973 343.845C384.298 342.763 382.41 341.87 380.372 341.196C376.576 340.052 372.554 339.358 368.457 339.14C366.741 339.095 365.029 338.98 363.33 338.795Z" fill="#E0E0E0"/>
<path d="M154.253 148.765L141.874 130.173L129.445 135.95L110.368 124L127.662 142.387L140.253 136.493L154.253 148.765Z" fill="#E0E0E0"/>
<path d="M150.547 153.866L133.313 147.738L130.009 154.593L113.007 154.035L132.749 158.564L136.073 151.591L150.547 153.866Z" fill="#E0E0E0"/>
<path d="M553.559 337.391C553.328 337.376 553.099 337.344 552.878 337.295C552.435 337.222 551.798 337.075 550.955 336.95C545.069 335.981 538.957 335.819 532.978 336.473C525.633 337.344 518.731 339.46 512.91 342.625C507.089 345.79 502.539 349.903 499.68 354.581C499.324 355.117 499.129 355.55 498.946 355.836C498.868 355.985 498.774 356.13 498.665 356.269C498.698 356.113 498.756 355.961 498.838 355.814C498.978 355.52 499.151 355.08 499.475 354.529C500.349 352.967 501.434 351.464 502.716 350.037C506.894 345.278 512.976 341.422 520.254 338.92C527.531 336.417 535.706 335.37 543.825 335.901C546.271 336.049 548.691 336.354 551.053 336.811C551.895 336.95 552.522 337.126 552.954 337.222C553.163 337.266 553.365 337.322 553.559 337.391Z" fill="#263238"/>
<path d="M549.843 336.26C547.91 337.745 546.609 339.558 546.078 341.507C545.547 343.456 545.806 345.465 546.828 347.322C547.25 348.056 548.017 348.848 549.173 348.856C550.329 348.863 551.171 347.968 551.571 347.175C552.381 345.508 552.679 343.745 552.447 341.997C552.215 340.248 551.457 338.551 550.221 337.009C551.838 339.693 554.59 341.992 558.129 343.615C559.469 344.224 561.37 344.723 562.623 344.07C563.877 343.417 563.758 342.132 563.239 341.134C562.272 339.409 560.519 337.94 558.235 336.94C555.951 335.94 553.256 335.463 550.545 335.578C552.972 335.698 555.395 335.314 557.492 334.474C559.588 333.635 561.258 332.381 562.278 330.88C563.012 329.713 563.088 328.061 561.435 327.474C560.908 327.343 560.347 327.291 559.787 327.32C559.228 327.349 558.685 327.459 558.194 327.643C556.173 328.238 554.367 329.123 552.899 330.238C551.431 331.354 550.337 332.672 549.691 334.102C550.73 332.477 551.048 330.682 550.606 328.936C550.165 327.191 548.983 325.57 547.206 324.274C546.05 323.459 544.397 322.762 542.798 323.078C540.789 323.474 540.119 325.199 540.173 326.623C540.269 328.403 540.952 330.147 542.171 331.725C543.39 333.302 545.114 334.674 547.217 335.739C545.858 335.145 544.307 334.786 542.698 334.691C541.088 334.596 539.469 334.77 537.98 335.196C536.035 335.761 534.22 337.214 535.085 338.521C535.949 339.827 538.477 339.886 540.486 339.637C544.107 339.175 547.532 338.172 550.512 336.701" fill="#FF4D00"/>
<path d="M512.656 342.044C515.687 344.604 519.504 346.683 523.841 348.136C528.178 349.589 532.93 350.38 537.764 350.456C537.602 348.988 535.927 347.887 534.242 347.013C528.154 343.875 520.696 342.212 513.055 342.286" fill="#455A64"/>
<path d="M548.838 344.033C549.308 342.632 549.651 341.213 549.864 339.783C549.888 338.347 549.787 336.91 549.562 335.482C550.964 338.288 550.705 341.355 548.838 344.033Z" fill="#263238"/>
<path d="M556.93 340.965C556.019 339.981 554.966 339.062 553.786 338.22C551.712 336.891 549.583 336.172 549.68 336.062C551.38 336.432 552.922 337.077 554.175 337.941C555.538 338.727 556.502 339.785 556.93 340.965Z" fill="#263238"/>
<path d="M556.53 331.35C556.098 332.469 555.219 333.485 553.991 334.286C552.879 335.187 551.36 335.814 549.67 336.069C551.073 335.483 552.381 334.797 553.57 334.021C554.623 333.166 555.611 332.274 556.53 331.35Z" fill="#263238"/>
<path d="M549.788 334.418C550.176 334.397 550.565 334.456 550.903 334.586C551.242 334.716 551.516 334.912 551.69 335.148C551.864 335.385 551.93 335.651 551.88 335.913C551.83 336.175 551.666 336.421 551.409 336.62C550.923 336.359 550.375 336.155 549.788 336.018C549.902 335.487 549.902 334.948 549.788 334.418Z" fill="#FAFAFA"/>
<path d="M544.041 326.63C544.643 326.951 545.162 327.338 545.575 327.775C547.76 329.801 549.086 332.195 549.41 334.697C549.548 335.206 549.548 335.729 549.41 336.238C549.095 334.521 548.526 332.829 547.714 331.188C546.707 329.593 545.477 328.066 544.041 326.63Z" fill="#263238"/>
<path d="M161.219 328.546C162.379 328.554 163.525 328.72 164.589 329.035C165.652 329.351 166.611 329.808 167.409 330.381C168.988 331.54 170.16 332.928 170.834 334.44C172.249 337.324 171.86 340.818 170.834 343.791C166.059 342.844 162.861 339.578 161.402 337.853C159.09 335.122 157.34 329.236 161.165 328.546" fill="#FF4D00"/>
<path d="M177.932 347.065C177.165 346.354 176.689 345.518 176.55 344.641C176.412 343.765 176.616 342.879 177.143 342.073C177.689 341.275 178.464 340.558 179.423 339.965C180.383 339.373 181.506 338.917 182.729 338.624C183.272 338.452 183.864 338.363 184.463 338.363C185.062 338.363 185.654 338.452 186.197 338.624C186.662 338.835 187.035 339.126 187.279 339.468C187.522 339.81 187.626 340.19 187.58 340.569C187.463 341.31 187.065 342.019 186.424 342.624C184.339 344.826 181.724 346.661 177.932 347.028" fill="#FF4D00"/>
<path d="M179.326 356.849C179.215 356.653 179.128 356.452 179.067 356.247C178.904 355.821 178.688 355.263 178.44 354.595C177.64 352.783 177.275 350.894 177.36 349.002C177.52 347.099 178.418 345.258 179.963 343.666C180.446 343.195 181.004 342.762 181.627 342.374C181.843 342.235 182.038 342.147 182.156 342.081C182.275 342.015 182.351 341.985 182.362 341.993C181.555 342.529 180.831 343.119 180.201 343.754C178.738 345.339 177.887 347.149 177.727 349.017C177.633 350.885 177.943 352.752 178.645 354.559C178.883 355.293 179.067 355.836 179.175 356.232C179.257 356.434 179.308 356.64 179.326 356.849Z" fill="#263238"/>
<path d="M163.12 332.95C163.208 333.018 163.281 333.095 163.336 333.177L163.876 333.867C164.352 334.469 165.011 335.335 165.81 336.422C167.42 338.587 169.581 341.596 171.86 344.958C174.14 348.32 176.095 351.432 177.468 353.634C178.148 354.75 178.688 355.66 179.056 356.291C179.229 356.592 179.358 356.834 179.466 357.025C179.526 357.109 179.57 357.198 179.596 357.289C179.522 357.213 179.46 357.132 179.412 357.047C179.283 356.864 179.131 356.621 178.937 356.313C178.526 355.66 177.954 354.772 177.252 353.678C175.825 351.476 173.837 348.393 171.569 345.031C169.3 341.67 167.161 338.653 165.605 336.473C164.849 335.401 164.222 334.528 163.768 333.889C163.559 333.606 163.397 333.361 163.282 333.155C163.223 333.089 163.169 333.02 163.12 332.95Z" fill="#263238"/>
<path d="M173.2 350.595C171.649 349.065 169.586 347.807 167.18 346.924C164.774 346.041 162.094 345.558 159.36 345.516C157.967 345.516 156.325 345.736 155.774 346.602C155.223 347.468 156.152 348.437 157.156 349.09C159.289 350.43 161.957 351.312 164.826 351.624C167.694 351.936 170.634 351.665 173.276 350.845" fill="#FF4D00"/>
<path d="M161.683 347.945C161.974 347.925 162.267 347.925 162.558 347.945C162.896 347.929 163.236 347.929 163.574 347.945C163.963 347.982 164.417 347.99 164.914 348.063C165.452 348.119 165.986 348.195 166.513 348.29C167.12 348.395 167.719 348.522 168.306 348.672C169.654 349.019 170.94 349.467 172.141 350.008C173.329 350.563 174.417 351.211 175.382 351.938C175.799 352.256 176.189 352.589 176.549 352.937C176.873 353.237 177.169 353.551 177.435 353.876C177.665 354.14 177.874 354.412 178.062 354.691C178.216 354.895 178.349 355.106 178.462 355.322C178.585 355.503 178.679 355.693 178.742 355.887C178.678 355.887 178.267 355.109 177.241 353.957C176.971 353.671 176.69 353.355 176.333 353.047C175.967 352.709 175.574 352.386 175.156 352.078C174.185 351.367 173.097 350.734 171.914 350.192C170.741 349.656 169.483 349.211 168.166 348.863C167.589 348.71 167.001 348.578 166.404 348.467C165.843 348.349 165.324 348.283 164.827 348.21C162.926 347.982 161.683 347.99 161.683 347.945Z" fill="#263238"/>
<path d="M474.427 354.77H498.998L534.245 216.206L510.687 212.25L474.427 354.77Z" fill="#455A64"/>
<path d="M580.25 310.87L431.813 285.973L427.609 282.912L443.303 240.824L450.191 241.191L439.569 236.596L445.644 212L594.081 236.897L598.293 239.965L592.137 264.158L580.376 264.334L586.849 265.34L591.052 268.401L580.25 310.87Z" fill="#263238"/>
<path d="M576.046 307.809L427.609 282.912L439.099 237.756L445.987 238.123L440.238 233.271L445.644 212L594.081 236.897L587.924 261.09L576.172 261.266L586.849 265.34L576.046 307.809Z" fill="#455A64"/>
<path d="M579.345 261.017C579.345 261.017 579.228 261.017 578.993 261.017L577.953 260.958L573.958 260.694L571.074 260.488L567.648 260.158C565.198 259.908 562.386 259.673 559.322 259.262L554.485 258.668C552.804 258.455 551.068 258.176 549.269 257.934C545.653 257.435 541.829 256.781 537.798 256.121C529.743 254.734 520.929 253.053 511.726 251.152C493.33 247.305 476.751 243.606 464.655 241.206C461.645 240.582 458.897 240.076 456.519 239.606C454.141 239.136 451.999 238.754 450.336 238.453L446.43 237.719L445.418 237.521C445.3 237.5 445.185 237.471 445.074 237.433C445.194 237.437 445.312 237.452 445.427 237.477L446.457 237.631L450.381 238.27C452.089 238.549 454.178 238.908 456.582 239.356C458.987 239.804 461.744 240.288 464.773 240.89C476.886 243.21 493.493 246.865 511.88 250.704C521.083 252.605 529.879 254.3 537.915 255.71C541.947 256.378 545.762 257.046 549.369 257.559C551.177 257.824 552.903 258.103 554.576 258.293L559.394 258.917C562.459 259.35 565.252 259.607 567.702 259.879L571.119 260.246L573.994 260.488L577.98 260.84L579.011 260.943L579.345 261.017Z" fill="#263238"/>
<path d="M586.804 257.163C586.688 257.11 586.576 257.051 586.469 256.987L585.565 256.436C584.742 255.959 583.567 255.203 581.949 254.308C577.493 251.77 572.85 249.456 568.046 247.379C560.912 244.319 553.446 241.798 545.744 239.848C536.301 237.493 526.555 236.035 516.698 235.503C506.203 234.879 496.187 235.708 487.065 235.877C482.74 236.001 478.409 235.93 474.093 235.664C464.878 235.049 455.84 233.263 447.307 230.372C445.499 229.763 444.17 229.249 443.257 228.904L442.227 228.478L441.883 228.324C442.012 228.351 442.137 228.391 442.254 228.442L443.312 228.823C444.216 229.161 445.599 229.653 447.389 230.233C452.44 231.876 457.662 233.151 462.992 234.042C466.668 234.656 470.387 235.082 474.129 235.319C478.428 235.563 482.74 235.619 487.047 235.488C496.141 235.297 506.185 234.453 516.735 235.077C526.634 235.613 536.422 237.091 545.898 239.481C553.62 241.461 561.099 244.021 568.235 247.129C573.034 249.224 577.657 251.573 582.076 254.161C583.64 255.071 584.788 255.857 585.601 256.363L586.505 256.95C586.611 257.015 586.711 257.086 586.804 257.163Z" fill="#263238"/>
<path d="M515.053 224.801C514.829 224.885 514.596 224.952 514.357 224.999L512.323 225.491C511.419 225.711 510.361 225.953 509.087 226.188C507.812 226.423 506.375 226.746 504.747 226.981C503.12 227.216 501.366 227.531 499.441 227.715C497.515 227.898 495.472 228.155 493.312 228.354C488.607 228.723 483.881 228.872 479.155 228.801C474.43 228.699 469.716 228.383 465.035 227.854C462.883 227.576 460.84 227.333 458.942 226.996C457.043 226.658 455.326 226.364 453.69 226.041C452.053 225.719 450.661 225.388 449.405 225.095C448.148 224.801 447.072 224.529 446.204 224.287L444.198 223.722C443.961 223.664 443.732 223.591 443.51 223.502C443.757 223.525 443.999 223.569 444.234 223.634L446.268 224.118C447.172 224.339 448.22 224.595 449.486 224.852C450.752 225.109 452.198 225.462 453.78 225.733C455.362 226.005 457.134 226.357 459.032 226.629C460.931 226.9 462.965 227.179 465.107 227.443C469.767 227.945 474.456 228.247 479.155 228.346C483.859 228.414 488.563 228.276 493.249 227.935C495.4 227.744 497.452 227.59 499.36 227.341C501.267 227.091 503.039 226.878 504.657 226.607C506.275 226.335 507.722 226.1 508.996 225.873C510.271 225.645 511.365 225.44 512.251 225.249L514.303 224.845C514.55 224.808 514.802 224.793 515.053 224.801Z" fill="#263238"/>
<path d="M475.539 267.857C475.539 267.857 475.774 267.96 476.208 268.18L478.161 269.157C479.878 270.001 482.391 271.293 485.754 272.753C489.807 274.582 494.151 275.947 498.663 276.812C500.025 277.058 501.405 277.23 502.795 277.326C504.249 277.473 505.722 277.215 506.971 276.592C507.578 276.23 508.017 275.713 508.219 275.124C508.415 274.515 508.415 273.876 508.219 273.267C507.745 271.994 506.738 270.895 505.371 270.162C494.053 264.07 478.116 259.629 460.081 259.218C457.83 259.16 455.561 259.16 453.247 259.218C450.932 259.277 448.582 259.717 447.036 261.112C446.646 261.441 446.34 261.83 446.137 262.256C445.933 262.682 445.837 263.136 445.852 263.593C445.936 264.526 446.379 265.414 447.117 266.132C448.573 267.645 450.67 268.694 452.686 269.802C460.822 274.28 469.437 278.728 479.128 281.811C488.819 284.894 499.115 286.281 508.815 285.114C511.209 284.826 513.567 284.374 515.867 283.763C518.131 283.244 520.162 282.204 521.715 280.768C523.104 279.276 523.839 277.449 523.804 275.579C523.81 273.746 523.31 271.935 522.339 270.28C520.367 267.103 517.343 264.437 513.607 262.58C510.09 260.815 506.273 259.477 502.279 258.609C498.437 257.706 494.632 257.06 490.998 256.407L480.538 254.484L448.98 248.663L440.41 247.056L438.186 246.63C437.68 246.535 437.427 246.469 437.427 246.469L438.195 246.586L440.437 246.968L449.034 248.494L480.629 254.176L491.088 256.069C494.704 256.737 498.537 257.369 502.406 258.271C506.448 259.142 510.31 260.489 513.869 262.272C517.689 264.163 520.783 266.883 522.8 270.125C523.803 271.836 524.322 273.707 524.319 275.601C524.36 277.566 523.59 279.486 522.131 281.055C520.516 282.557 518.4 283.648 516.038 284.196C513.709 284.822 511.316 285.282 508.888 285.569C499.07 286.758 488.647 285.341 478.929 282.251C469.211 279.161 460.533 274.713 452.415 270.214C450.408 269.083 448.275 268.012 446.738 266.419C445.926 265.631 445.441 264.655 445.355 263.63C445.339 263.118 445.448 262.608 445.676 262.131C445.904 261.653 446.247 261.217 446.683 260.848C447.52 260.121 448.577 259.584 449.748 259.292C450.884 259.014 452.06 258.856 453.247 258.822C455.579 258.748 457.866 258.756 460.126 258.822C478.269 259.27 494.252 263.747 505.642 269.927C507.077 270.707 508.13 271.871 508.617 273.216C508.829 273.875 508.829 274.567 508.617 275.227C508.394 275.873 507.906 276.437 507.233 276.827C505.918 277.486 504.366 277.763 502.831 277.612C501.423 277.506 500.025 277.327 498.645 277.076C494.117 276.186 489.763 274.788 485.709 272.922C482.346 271.454 479.851 270.118 478.152 269.252C477.32 268.819 476.678 268.518 476.235 268.239C475.792 267.96 475.539 267.857 475.539 267.857Z" fill="#263238"/>
<path d="M583.92 275.689C583.614 275.662 583.312 275.616 583.016 275.55C582.455 275.425 581.615 275.293 580.539 275.139C577.467 274.782 574.347 274.802 571.282 275.197C566.746 275.817 562.346 276.969 558.219 278.618C553.197 280.698 548.347 283.042 543.701 285.635C539.029 288.242 534.131 290.572 529.047 292.608C524.853 294.23 520.377 295.319 515.776 295.837C512.67 296.177 509.516 296.105 506.438 295.625C505.606 295.49 504.784 295.314 503.979 295.096C503.693 295.034 503.415 294.95 503.147 294.847C503.438 294.884 503.725 294.937 504.006 295.008C504.567 295.14 505.398 295.287 506.474 295.456C509.534 295.862 512.653 295.884 515.722 295.522C520.27 294.966 524.689 293.857 528.83 292.234C533.877 290.186 538.744 287.856 543.394 285.261C548.063 282.657 552.944 280.313 558.002 278.243C562.178 276.591 566.637 275.458 571.228 274.882C574.33 274.509 577.485 274.539 580.575 274.97C581.433 275.086 582.282 275.245 583.115 275.447C583.392 275.507 583.662 275.588 583.92 275.689Z" fill="#263238"/>
<path d="M581.172 287.639C581.172 287.683 580.466 287.448 579.165 287.213C577.326 286.889 575.43 286.839 573.569 287.066C570.812 287.445 568.128 288.116 565.587 289.063C562.445 290.178 559.403 291.47 556.483 292.931C553.337 294.443 550.336 295.918 547.443 297.041C544.906 298.06 542.234 298.84 539.479 299.368C537.618 299.712 535.71 299.865 533.802 299.823C533.284 299.813 532.768 299.776 532.256 299.713C532.075 299.706 531.895 299.679 531.723 299.632C531.723 299.581 532.473 299.632 533.802 299.632C535.689 299.61 537.566 299.413 539.398 299.045C542.105 298.478 544.73 297.675 547.226 296.652C550.065 295.522 553.039 294.047 556.194 292.527C559.138 291.052 562.214 289.759 565.397 288.659C567.986 287.714 570.724 287.064 573.533 286.729C575.437 286.524 577.371 286.624 579.228 287.022C579.729 287.133 580.221 287.267 580.701 287.426C580.87 287.479 581.028 287.55 581.172 287.639Z" fill="#263238"/>
<path d="M533.395 226.82C533.395 226.944 527.673 226.034 520.685 224.786C513.697 223.539 508.029 222.43 508.092 222.313C508.155 222.195 513.815 223.098 520.802 224.346C527.79 225.594 533.395 226.702 533.395 226.82Z" fill="#263238"/>
<path d="M492.272 254.667L487.626 253.845L486.324 258.704L477.691 257.185L478.993 252.319L462.458 249.383L463.715 244.7L482.003 231.326L491.169 232.941L474.445 245.537L480.773 246.652L481.931 242.336L490.293 243.804L489.135 248.128L493.782 248.95L492.272 254.667Z" fill="white"/>
<path d="M496.169 247.144C498.41 238.747 505.516 234.967 513.507 236.376C521.499 237.785 525.982 243.635 523.731 252.018C521.481 260.4 514.375 264.202 506.429 262.793C498.483 261.384 493.918 255.526 496.169 247.144ZM514.845 250.447C516.273 245.118 514.755 242.755 511.943 242.255C509.132 241.756 506.519 243.386 505.055 248.715C503.59 254.044 505.154 256.414 508.011 256.921C510.868 257.427 513.417 255.783 514.845 250.447Z" fill="white"/>
<path d="M554.187 265.611L549.541 264.789L548.239 269.656L539.597 268.107L540.907 263.241L524.373 260.305L525.63 255.622L543.909 242.248L553.075 243.885L536.36 256.473L542.688 257.596L543.845 253.273L552.198 254.741L551.041 259.057L555.688 259.879L554.187 265.611Z" fill="white"/>
<path d="M485.655 272.68L485.194 274.273L475.783 272.511L478.721 262.323L487.888 264.063L487.427 265.648L480.602 264.349L479.833 266.999L485.89 268.158L485.447 269.715L479.381 268.562L478.568 271.373L485.655 272.68Z" fill="white"/>
<path d="M496.015 276.328L494.315 272.856C494.151 272.838 493.987 272.811 493.827 272.775L490.988 272.239L490.13 275.175L487.797 274.735L490.744 264.54L495.906 265.523C499.206 266.155 500.86 267.909 500.209 270.17C500.044 270.876 499.603 271.521 498.952 272.008C498.301 272.496 497.474 272.801 496.593 272.878L498.519 276.776L496.015 276.328ZM495.337 267.138L492.625 266.617L491.45 270.683L494.162 271.197C496.205 271.586 497.488 271.028 497.859 269.729C498.23 268.43 497.38 267.527 495.337 267.138Z" fill="white"/>
<path d="M509.123 278.823L507.423 275.351C507.259 275.332 507.096 275.305 506.935 275.271L504.106 274.713L503.202 277.686L500.869 277.238L503.807 267.043L508.978 268.026C512.278 268.657 513.923 270.412 513.272 272.672C513.108 273.379 512.668 274.025 512.016 274.513C511.365 275 510.537 275.305 509.656 275.381L511.573 279.278L509.123 278.823ZM508.454 269.634L505.742 269.112L504.567 273.179L507.279 273.693C509.322 274.082 510.596 273.524 510.967 272.225C511.338 270.925 510.497 270.023 508.454 269.634Z" fill="white"/>
<path d="M514.601 274.485C515.505 271.476 518.986 269.795 522.873 270.536C526.76 271.278 529.002 274.038 528.125 277.062C527.248 280.086 523.741 281.759 519.853 281.018C515.966 280.277 513.733 277.502 514.601 274.485ZM525.775 276.614C525.977 275.907 525.916 275.167 525.6 274.488C525.285 273.809 524.728 273.221 524.001 272.799C523.274 272.377 522.408 272.139 521.515 272.116C520.621 272.093 519.739 272.286 518.981 272.67C518.222 273.054 517.621 273.612 517.253 274.273C516.884 274.935 516.766 275.67 516.913 276.386C517.06 277.102 517.464 277.767 518.076 278.296C518.688 278.825 519.48 279.195 520.351 279.359C520.929 279.483 521.533 279.509 522.125 279.436C522.717 279.364 523.284 279.194 523.792 278.936C524.3 278.679 524.738 278.341 525.079 277.941C525.419 277.542 525.656 277.09 525.775 276.614Z" fill="white"/>
<path d="M537.346 284.196L535.646 280.724L535.149 280.644L532.32 280.108L531.461 283.044L529.128 282.603L532.075 272.408L537.237 273.392C540.537 274.023 542.191 275.777 541.54 278.038C541.374 278.744 540.932 279.388 540.282 279.876C539.631 280.363 538.805 280.668 537.924 280.746L539.85 284.644L537.346 284.196ZM536.668 274.999L533.956 274.485L532.781 278.544L535.493 279.066C537.545 279.455 538.819 278.897 539.19 277.598C539.561 276.298 538.711 275.388 536.668 274.999Z" fill="white"/>
<path d="M440.557 107.571C440.676 107.609 440.791 107.656 440.9 107.71L441.868 108.158C443.086 108.763 444.243 109.446 445.33 110.198C449.354 112.992 452.421 116.582 454.234 120.621C455.467 123.41 456.108 126.349 456.133 129.312C456.16 132.714 455.435 136.093 453.99 139.287C452.417 142.839 449.954 146.088 446.758 148.829C445.072 150.275 443.154 151.529 441.054 152.557C438.884 153.612 436.532 154.396 434.075 154.884C429.228 155.75 424.242 155.986 419.304 155.581C414.522 155.295 409.956 154.789 405.581 154.627C401.447 154.396 397.293 154.67 393.26 155.442C389.749 156.114 386.478 157.438 383.704 159.31C381.428 160.87 379.742 162.921 378.841 165.226C378.13 166.958 377.917 168.798 378.217 170.606C378.411 171.749 378.858 172.853 379.537 173.865C380.016 174.555 380.332 174.886 380.305 174.9C379.993 174.585 379.709 174.251 379.455 173.902C378.733 172.893 378.252 171.782 378.036 170.628C377.694 168.796 377.883 166.923 378.588 165.16C379.481 162.806 381.181 160.706 383.487 159.105C386.29 157.189 389.605 155.832 393.169 155.141C397.237 154.338 401.431 154.043 405.608 154.268C410.011 154.422 414.585 154.921 419.34 155.2C424.233 155.597 429.172 155.364 433.976 154.51C436.386 154.027 438.695 153.258 440.828 152.227C442.889 151.212 444.774 149.978 446.433 148.557C449.579 145.857 452.004 142.658 453.556 139.162C454.994 136.007 455.725 132.668 455.717 129.304C455.715 126.377 455.104 123.471 453.909 120.709C451.674 115.582 447.42 111.196 441.804 108.231L440.9 107.754L440.557 107.571Z" fill="#263238"/>
<path d="M378.018 14.9105C380.369 20.4448 382.728 26.0673 383.063 31.9099C383.397 37.7525 381.399 43.9402 376.174 47.9405C370.117 52.6087 361.131 53.4968 352.824 54.1501C358.799 54.3189 365.353 55.4713 368.933 59.3615C373.037 63.8169 371.699 70.188 368.933 75.2673C366.167 80.3466 362.017 85.0809 360.887 90.5712C365.65 88.1228 371.139 86.7653 376.774 86.6422C382.408 86.519 387.979 87.6348 392.897 89.8716C397.815 92.1084 401.896 95.3829 404.71 99.3487C407.524 103.314 408.965 107.824 408.881 112.4C414.025 104.525 422.848 98.08 433.415 95.6651C443.983 93.2503 456.169 95.2247 464.07 101.412C460.988 97.8042 458.828 93.7314 457.716 89.4343C456.605 85.1373 456.564 80.703 457.597 76.393C458.63 72.083 460.716 67.9846 463.731 64.3397C466.746 60.6947 470.63 57.577 475.153 55.1704C470.344 58.4146 462.822 58.0256 457.706 55.1043C452.589 52.183 449.678 47.2505 448.593 42.252C447.509 37.2534 448.042 32.1301 448.593 27.0728C443.169 32.7907 431.933 34.0899 424.773 29.818C417.433 25.414 415.579 17.34 414.287 10C414.956 17.1785 408.185 24.3057 399.461 25.6048C390.738 26.904 381.3 22.1844 378.787 15.2848" fill="#F5F5F5"/>
<path d="M436.055 103.409C435.413 106.866 436.597 110.404 437.917 113.729C438.127 114.372 438.517 114.967 439.056 115.468C439.329 115.717 439.687 115.895 440.084 115.98C440.481 116.065 440.9 116.053 441.289 115.946C441.624 115.788 441.915 115.576 442.145 115.324C442.375 115.071 442.539 114.783 442.627 114.478C443.171 113.19 443.449 111.838 443.45 110.477C444.797 111.285 446.252 112.129 447.97 112.195C449.687 112.261 451.486 111.153 451.224 109.809C450.968 109.062 450.411 108.405 449.642 107.945L440.702 101.244L436.118 103.409" fill="#FF4D00"/>
<path d="M388.324 33.554C388.324 33.554 364.539 47.8082 371.817 70.5989L374.212 70.8411L382.61 63.7801L394.182 76.8306L392.573 63.5232L397.526 66.4592L406.015 52.0581C406.015 52.0581 393.359 44.7181 395.167 37.5322C395.203 37.5029 387.763 37.1652 388.324 33.554Z" fill="#FF4D00"/>
<path d="M379.067 81.7043C380.282 87.6775 383.892 93.1578 389.336 97.2945L403.457 90.3876C403.457 90.3876 385.106 87.6718 379.067 81.7043Z" fill="#FF4D00"/>
<path d="M408.655 96.9423C408.655 96.9423 415.173 105.464 431.725 105.016C443.477 104.693 451.061 92.5383 448.132 80.9191L438.55 86.7911L434.997 84.912V91.0483C434.997 91.0483 431.137 95.577 426.147 93.0227C426.165 93.0227 421.826 100.51 408.655 96.9423Z" fill="#FF4D00"/>
<path d="M414.757 31.0952C414.196 31.2933 426.066 42.6483 426.165 49.4452C426.165 49.4452 430.08 43.2429 438.062 42.9786C438.062 42.9786 438.351 37.6057 444.797 38.7288C444.797 38.7141 431.029 25.3993 414.757 31.0952Z" fill="#FF4D00"/>
<path d="M453.349 53.3059C453.349 53.3059 458.962 61.3065 458.773 69.4539C458.773 69.4539 450.682 62.6938 444.146 67.4501L442.51 64.2425C442.51 64.2425 446.37 63.6186 446.352 59.8385C446.334 56.0584 441.768 53.8491 441.768 53.8491C441.768 53.8491 450.618 59.8752 453.349 53.3059Z" fill="#FF4D00"/>
<path d="M404.967 72.9625C404.967 73.0653 394.661 75.1645 381.878 77.6748C369.096 80.1851 358.709 82.0788 358.682 82.0127C358.655 81.9467 368.987 79.8107 381.77 77.3004C394.552 74.7902 404.939 72.8964 404.967 72.9625Z" fill="#263238"/>
<path d="M407.679 59.6843C407.633 59.7798 402.074 58.2163 395.249 56.2272C388.423 54.2381 382.936 52.5572 382.981 52.4177C383.026 52.2783 388.586 53.8857 395.411 55.8749C402.236 57.864 407.724 59.5889 407.679 59.6843Z" fill="#263238"/>
<path d="M399.533 10.1541C399.66 10.1541 403.99 20.0337 409.215 32.2988C414.44 44.564 418.572 54.5464 418.445 54.5464C418.319 54.5464 413.988 44.6741 408.772 32.4089C403.556 20.1438 399.416 10.1908 399.533 10.1541Z" fill="#263238"/>
<path d="M433.976 38.6406C434.039 39.375 434.012 40.1127 433.894 40.8426C433.768 42.1785 433.515 44.0282 433.099 46.054C432.683 48.0799 432.195 49.8928 431.779 51.192C431.602 51.9046 431.335 52.6007 430.984 53.2692C431.076 52.5465 431.233 51.8302 431.454 51.126C431.788 49.8121 432.222 47.9991 432.638 45.988C433.054 43.9768 433.352 42.1418 433.542 40.8133C433.613 40.0806 433.758 39.354 433.976 38.6406Z" fill="#263238"/>
<path d="M468.436 40.0352C468.499 40.1307 460.589 43.9768 450.763 48.6304C440.937 53.2839 432.927 56.9833 432.864 56.8879C432.801 56.7925 440.701 52.9536 450.528 48.3001C460.354 43.6465 468.364 39.9472 468.436 40.0352Z" fill="#263238"/>
<path d="M468.527 75.737C468.088 75.7488 467.649 75.7242 467.216 75.6636C466.375 75.5829 465.155 75.4654 463.663 75.2966C460.662 74.9663 456.531 74.4598 451.974 73.8286C447.418 73.1974 443.323 72.5368 440.367 72.023C438.884 71.7734 437.655 71.5532 436.868 71.3917C436.435 71.3348 436.01 71.2388 435.603 71.1055C436.041 71.1251 436.476 71.1742 436.905 71.2523L440.43 71.7587L452.056 73.4543L463.708 75.0397L467.243 75.5168C467.678 75.5567 468.108 75.6305 468.527 75.737Z" fill="#263238"/>
<path d="M455.455 107.431C455.355 107.505 448.467 101.412 440.087 93.8228C431.707 86.2333 424.945 80.0163 425.044 79.9502C425.144 79.8842 432.032 85.9764 440.412 93.5659C448.792 101.156 455.554 107.395 455.455 107.431Z" fill="#263238"/>
<path d="M400.645 104.708C400.714 104.419 400.826 104.138 400.98 103.871C401.215 103.335 401.585 102.572 402.056 101.669C402.96 99.7975 404.343 97.2211 405.907 94.4026C407.47 91.584 408.962 89.0517 410.065 87.2387C410.625 86.3359 411.086 85.6019 411.412 85.1028C411.561 84.8402 411.749 84.5937 411.972 84.3688C411.873 84.6527 411.74 84.9281 411.575 85.1909L410.372 87.3929C409.297 89.3159 407.886 91.7969 406.34 94.5934C404.795 97.3899 403.421 99.8929 402.363 101.816C401.884 102.682 401.459 103.409 401.142 104.018C401.009 104.262 400.842 104.494 400.645 104.708Z" fill="#263238"/>
<path d="M407.651 67.7584C407.651 67.6923 408.375 67.6336 409.459 67.2813C410.856 66.834 412.065 66.0692 412.94 65.0786C413.816 64.0879 414.321 62.9133 414.395 61.6955C414.458 60.7634 414.296 60.1762 414.395 60.1688C414.669 60.6481 414.791 61.1756 414.748 61.7029C414.768 62.9927 414.28 64.254 413.354 65.3025C412.429 66.3509 411.115 67.1318 409.604 67.5308C408.988 67.7414 408.316 67.8198 407.651 67.7584Z" fill="#263238"/>
<path d="M415.145 78.1812C415.073 78.1812 415.462 77.6601 415.67 76.7646C415.959 75.6165 415.693 74.4222 414.927 73.4289C414.161 72.4356 412.955 71.7193 411.557 71.4284C410.49 71.1788 409.749 71.2449 409.749 71.1788C410.358 71.0275 411.01 71.0275 411.62 71.1788C412.38 71.3 413.102 71.547 413.739 71.9045C414.377 72.2619 414.917 72.7222 415.325 73.2566C415.734 73.791 416.003 74.3881 416.115 75.0106C416.227 75.6331 416.18 76.2676 415.977 76.8747C415.862 77.3664 415.573 77.8203 415.145 78.1812Z" fill="#263238"/>
<path d="M432.773 71.9568C432.773 72.0156 431.978 71.7733 430.685 71.6486C429.004 71.4919 427.301 71.6682 425.722 72.1624C424.155 72.6803 422.768 73.5018 421.681 74.5552C420.841 75.3699 420.488 75.9718 420.416 75.9425C420.599 75.3616 420.942 74.822 421.419 74.3644C422.474 73.2107 423.904 72.3186 425.549 71.7883C427.194 71.258 428.988 71.1105 430.73 71.3623C431.457 71.4347 432.155 71.6378 432.773 71.9568Z" fill="#263238"/>
<path d="M432.294 67.6703C431.754 67.6976 431.215 67.601 430.739 67.3914C429.54 66.9516 428.561 66.193 427.964 65.2407C427.384 64.2798 427.23 63.1855 427.53 62.1433C427.602 61.7096 427.832 61.3033 428.19 60.9762C428.262 60.9762 427.991 61.4386 427.856 62.1946C427.672 63.1755 427.858 64.1785 428.389 65.0719C428.958 65.9544 429.839 66.678 430.92 67.1491C431.716 67.5161 432.303 67.6042 432.294 67.6703Z" fill="#263238"/>
<path d="M426.961 58.4367C426.628 58.7473 426.234 59.0103 425.795 59.2147C424.797 59.8191 423.616 60.192 422.377 60.2937C421.74 60.325 421.104 60.2249 420.527 60.0029C419.95 59.7809 419.452 59.4442 419.078 59.0239C418.535 58.3266 418.725 57.7908 418.761 57.8128C418.891 58.1848 419.089 58.5388 419.349 58.8624C419.713 59.2164 420.174 59.4959 420.695 59.6782C421.217 59.8606 421.784 59.9407 422.35 59.912C423.512 59.803 424.629 59.4872 425.623 58.9872C426.032 58.75 426.483 58.5644 426.961 58.4367Z" fill="#263238"/>
<g opacity="0.3">
<path d="M435.928 104.348C437.815 103.638 439.573 102.722 441.154 101.625L442.826 102.88C440.548 104.209 437.908 105.457 435.992 107.123C435.864 106.202 435.843 105.273 435.928 104.348Z" fill="black"/>
</g>
<path d="M441.651 101.185C440.949 102.048 440.035 102.785 438.967 103.348C437.898 103.912 436.697 104.29 435.44 104.458C435.44 104.348 436.995 103.937 438.686 103.034C440.376 102.132 441.542 101.111 441.651 101.185Z" fill="#263238"/>
<path d="M438.035 101.368C437.729 101.526 437.405 101.659 437.067 101.765C436.682 101.91 436.287 102.038 435.883 102.146C435.356 102.308 434.819 102.448 434.274 102.565C432.86 102.883 431.414 103.099 429.953 103.211C428.162 103.332 426.361 103.315 424.574 103.159C422.788 102.975 421.026 102.655 419.313 102.205C417.92 101.816 416.574 101.324 415.29 100.737C414.73 100.51 414.269 100.245 413.844 100.003C413.478 99.8274 413.131 99.6286 412.804 99.4086C412.503 99.2451 412.224 99.0556 411.972 98.8434C412.036 98.7847 413.247 99.5774 415.453 100.473C416.738 101.004 418.075 101.451 419.448 101.809C422.825 102.688 426.381 103.025 429.917 102.8C431.358 102.706 432.788 102.519 434.193 102.242C436.588 101.823 437.99 101.295 438.035 101.368Z" fill="#FAFAFA"/>
<path d="M438.559 113.45C437.895 112.59 437.481 111.618 437.348 110.609C437.07 109.619 437.07 108.59 437.348 107.6C437.492 107.6 437.483 108.936 437.827 110.536C438.17 112.136 438.686 113.406 438.559 113.45Z" fill="#FAFAFA"/>
<path d="M388.143 93.9403C387.568 93.6588 387.05 93.3073 386.606 92.898C384.306 91.0402 382.435 88.8624 381.083 86.4681C380.767 85.9859 380.539 85.4692 380.405 84.9341C380.54 84.8827 381.725 87.1361 383.876 89.661C386.028 92.186 388.242 93.8595 388.143 93.9403Z" fill="#FAFAFA"/>
<path d="M379.654 44.8429C379.727 44.8869 378.814 45.9879 377.611 47.8817C374.467 52.8302 372.792 58.3075 372.721 63.8755C372.721 66.0115 372.856 67.3253 372.775 67.3327C372.669 67.0337 372.605 66.7259 372.585 66.4152C372.463 65.5721 372.397 64.7243 372.386 63.8755C372.332 61.0714 372.727 58.2734 373.561 55.552C374.397 52.8318 375.658 50.2097 377.313 47.7495C377.964 46.8174 378.524 46.076 378.958 45.5475C379.157 45.2921 379.39 45.0557 379.654 44.8429Z" fill="#FAFAFA"/>
<path d="M386.308 38.4719C386.389 38.5526 385.829 39.0444 385.042 39.5655C384.256 40.0867 383.56 40.439 383.478 40.3582C383.397 40.2775 383.967 39.7857 384.744 39.2646C385.521 38.7434 386.226 38.3985 386.308 38.4719Z" fill="#FAFAFA"/>
<path d="M404.786 218.698C404.993 218.83 405.165 218.995 405.292 219.183C405.681 219.721 405.849 220.345 405.771 220.966C405.628 221.946 405.083 222.859 404.225 223.557C403.135 224.499 401.818 225.248 400.356 225.759C398.584 226.391 396.642 226.644 394.715 226.493C392.493 226.281 390.407 225.511 388.749 224.291C386.95 222.908 385.808 221.056 385.521 219.058C385.202 216.932 385.599 214.776 386.669 212.819C387.726 210.883 389.15 209.095 390.891 207.519C392.536 205.978 394.254 204.583 395.628 203.115C396.986 201.76 397.953 200.175 398.458 198.476C398.967 196.652 398.853 194.749 398.128 192.973C397.403 191.197 396.095 189.615 394.344 188.399C393.576 187.878 392.757 187.409 391.894 186.997C392.829 187.312 393.695 187.745 394.462 188.281C396.623 189.721 398.143 191.696 398.792 193.904C399.228 195.428 399.246 197.012 398.846 198.543C398.343 200.293 397.361 201.929 395.972 203.328C394.579 204.833 392.862 206.22 391.244 207.732C389.54 209.285 388.143 211.043 387.103 212.944C386.066 214.836 385.678 216.921 385.982 218.977C386.245 220.893 387.33 222.673 389.047 224.005C390.635 225.177 392.631 225.92 394.76 226.134C396.621 226.294 398.502 226.072 400.229 225.488C403.375 224.409 405.445 222.552 405.59 220.944C405.678 220.351 405.546 219.751 405.21 219.219C404.975 218.86 404.758 218.713 404.786 218.698Z" fill="#263238"/>
<path d="M221.689 316.438C224.347 306.375 239.525 233.342 239.525 233.342C239.525 233.342 228.578 234.751 226.372 237.936C223.904 241.438 212.152 295.247 210.832 313.502C209.752 313.436 208.667 313.436 207.587 313.502C204.835 313.619 202.22 314.518 200.201 316.041C199.063 317.006 198.276 318.208 197.928 319.515C197.58 320.821 197.685 322.179 198.231 323.44C198.858 324.764 199.956 325.906 201.386 326.721C201.214 328.284 201.829 330.2 203.338 331C204.217 331.452 205.242 331.682 206.282 331.659C207.321 331.637 208.33 331.364 209.178 330.875C209.363 331.352 209.712 331.776 210.184 332.097C210.655 332.418 211.23 332.624 211.84 332.689C212.45 332.755 213.071 332.677 213.629 332.467C214.187 332.256 214.659 331.92 214.991 331.499C215.714 332.865 218.082 332.967 219.791 332.483C221.387 331.976 222.802 331.153 223.908 330.089C225.013 329.025 225.773 327.754 226.119 326.391C226.435 325.029 226.411 323.629 226.047 322.275C225.684 320.921 224.989 319.639 224.004 318.508C223.33 317.749 222.554 317.055 221.689 316.438Z" fill="#FF6B00"/>
<g opacity="0.3">
<path d="M223.904 305.963C217.432 296.73 214.132 286.879 219.041 272.596C222.548 262.356 229.545 251.882 235.982 242.626" fill="black"/>
</g>
<path d="M220.361 325.591C220.648 325.427 220.915 325.24 221.156 325.033C221.461 324.742 221.679 324.398 221.792 324.027C221.905 323.657 221.91 323.27 221.807 322.897C221.619 322.358 221.24 321.875 220.718 321.509C220.196 321.142 219.553 320.908 218.869 320.834C218.017 320.767 217.157 320.881 216.376 321.165C215.594 321.45 214.917 321.895 214.412 322.457C213.361 323.585 212.775 324.954 212.74 326.369C212.688 327.527 212.954 328.68 213.517 329.745C214.073 330.72 214.845 331.603 215.795 332.351C215.795 332.351 215.705 332.351 215.551 332.233C215.329 332.112 215.123 331.971 214.937 331.815C214.217 331.254 213.631 330.59 213.21 329.855C212.584 328.759 212.274 327.562 212.306 326.354C212.324 324.859 212.932 323.408 214.042 322.214C214.602 321.607 215.348 321.13 216.206 320.83C217.064 320.53 218.004 320.418 218.932 320.504C219.693 320.595 220.404 320.867 220.974 321.287C221.544 321.706 221.947 322.254 222.132 322.86C222.231 323.27 222.206 323.693 222.06 324.093C221.914 324.493 221.65 324.858 221.292 325.158C221.099 325.315 220.876 325.447 220.632 325.547C220.46 325.583 220.361 325.605 220.361 325.591Z" fill="#263238"/>
<path d="M200.337 326.244C200.649 326.356 200.951 326.486 201.241 326.633C202.051 326.964 202.932 327.165 203.836 327.227C205.165 327.33 206.502 327.118 207.687 326.618C208.388 326.333 209.005 325.927 209.495 325.429C209.744 325.171 209.925 324.875 210.028 324.558C210.13 324.241 210.152 323.911 210.091 323.587C209.769 322.401 209.005 321.325 207.903 320.504C206.998 319.796 205.916 319.253 204.73 318.911L204.179 318.75L204.749 318.632C206.162 318.308 207.538 317.886 208.862 317.37C208.563 317.591 208.224 317.774 207.858 317.913C206.901 318.341 205.884 318.676 204.83 318.911V318.632C206.079 318.966 207.224 319.517 208.184 320.247C208.744 320.67 209.233 321.152 209.639 321.678C210.095 322.24 210.403 322.872 210.543 323.535C210.612 323.909 210.586 324.29 210.466 324.655C210.346 325.019 210.136 325.36 209.847 325.657C209.318 326.192 208.651 326.628 207.894 326.934C206.632 327.449 205.209 327.645 203.808 327.499C202.871 327.411 201.968 327.161 201.16 326.765C200.944 326.661 200.741 326.541 200.554 326.405C200.403 326.307 200.331 326.254 200.337 326.244Z" fill="#263238"/>
<path d="M208.581 326.369C208.735 326.413 208.193 327.462 208.401 328.776C208.639 329.562 208.941 330.335 209.305 331.088C208.518 330.501 208.037 329.693 207.958 328.828C207.856 328.405 207.858 327.969 207.966 327.547C208.073 327.125 208.282 326.724 208.581 326.369Z" fill="#263238"/>
<path d="M215.244 321.216C215.16 320.903 215.02 320.601 214.828 320.321C214.603 320.049 214.29 319.833 213.924 319.697C213.461 319.539 212.949 319.503 212.46 319.594C211.535 319.782 210.72 320.226 210.154 320.849C209.693 321.326 209.467 321.664 209.404 321.634C209.341 321.605 209.467 321.238 209.883 320.695C210.154 320.328 210.513 320.009 210.938 319.757C211.364 319.505 211.847 319.324 212.36 319.227C212.95 319.118 213.567 319.172 214.114 319.381C214.551 319.558 214.911 319.84 215.145 320.188C215.506 320.798 215.289 321.238 215.244 321.216Z" fill="#263238"/>
<g opacity="0.3">
<path d="M205.128 318.684C205.859 318.528 206.627 318.53 207.357 318.689C208.086 318.849 208.752 319.161 209.287 319.594C210.212 318.683 211.484 318.048 212.903 317.788C213.614 317.678 214.35 317.784 214.972 318.086C215.593 318.388 216.057 318.864 216.275 319.425C216.794 319.236 217.362 319.15 217.931 319.172C218.499 319.195 219.054 319.327 219.548 319.556C220.042 319.786 220.463 320.107 220.775 320.494C221.088 320.881 221.283 321.322 221.346 321.781C220.542 321.121 219.483 320.704 218.347 320.6C217.211 320.496 216.065 320.711 215.099 321.209C215.087 320.844 214.933 320.492 214.66 320.203C214.388 319.913 214.01 319.7 213.581 319.594C213.146 319.5 212.691 319.486 212.249 319.552C211.806 319.618 211.388 319.763 211.022 319.976C210.295 320.407 209.716 320.984 209.341 321.649C208.353 320.257 206.785 319.198 204.92 318.662" fill="black"/>
</g>
<path d="M201.982 325.833C201.357 325.593 200.814 325.233 200.4 324.783C199.264 323.741 198.581 322.424 198.457 321.035C198.333 319.646 198.774 318.263 199.713 317.098C200.039 316.598 200.511 316.169 201.087 315.85C201.151 315.894 200.572 316.342 199.957 317.223C199.148 318.366 198.779 319.679 198.897 320.993C199.014 322.308 199.613 323.564 200.617 324.6C201.386 325.392 202.037 325.781 201.982 325.833Z" fill="white"/>
<path d="M398.024 182.446C397.427 181.044 395.8 179.642 394.046 180.046C394.24 179.571 394.262 179.061 394.11 178.576C393.958 178.091 393.638 177.652 393.188 177.31C392.739 176.968 392.178 176.738 391.572 176.647C390.966 176.555 390.341 176.606 389.77 176.794C389.698 175.946 389.316 175.135 388.671 174.465C388.027 173.796 387.15 173.298 386.154 173.036C384.428 172.596 382.222 173.418 380.839 174.504C379.157 174.117 377.371 174.15 375.713 174.599C374.172 175.048 372.814 175.834 371.788 176.871C370.762 177.907 370.109 179.153 369.9 180.471C369.724 182.706 370.521 184.92 372.151 186.725C373.527 188.263 375.116 189.667 376.888 190.909C367.577 226.207 319.873 232.343 319.873 232.343L324.348 246.554C370.063 237.386 382.656 207.791 386.082 193.889C386.489 193.889 386.886 193.889 387.284 193.889C388.988 193.79 390.65 193.414 392.172 192.783C393.694 192.153 395.044 191.281 396.143 190.219C397.225 189.151 397.964 187.882 398.292 186.525C398.62 185.168 398.528 183.767 398.024 182.446Z" fill="#FF6B00"/>
<path d="M391.804 187.166C391.853 187.231 391.887 187.303 391.904 187.378C391.969 187.597 391.988 187.823 391.958 188.046C391.9 188.46 391.719 188.855 391.43 189.199C391.142 189.543 390.756 189.825 390.304 190.021C389.608 190.288 388.829 190.382 388.068 190.289C387.306 190.196 386.596 189.921 386.028 189.5C385.356 188.972 384.867 188.311 384.61 187.582C384.353 186.852 384.337 186.081 384.563 185.345C384.999 183.892 385.997 182.59 387.411 181.631C388.544 180.848 389.883 180.285 391.325 179.987C392.293 179.786 393.299 179.734 394.29 179.833C394.557 179.851 394.821 179.893 395.077 179.958C395.257 179.958 395.348 180.024 395.339 180.031C394.025 179.911 392.696 179.985 391.415 180.251C390.041 180.573 388.77 181.134 387.691 181.895C386.369 182.817 385.437 184.052 385.024 185.426C384.815 186.097 384.824 186.802 385.051 187.469C385.277 188.137 385.714 188.746 386.317 189.235C386.819 189.622 387.45 189.88 388.132 189.978C388.813 190.076 389.515 190.009 390.15 189.786C390.569 189.613 390.934 189.364 391.216 189.059C391.498 188.753 391.69 188.399 391.777 188.024C391.81 187.739 391.819 187.452 391.804 187.166Z" fill="#263238"/>
<path d="M379.754 174.188C379.754 174.188 379.844 174.188 380.016 174.188C380.268 174.226 380.516 174.28 380.757 174.35C381.645 174.604 382.456 175.009 383.135 175.539C384.159 176.332 384.87 177.354 385.178 178.475C385.363 179.142 385.363 179.834 385.178 180.501C385.077 180.87 384.884 181.218 384.612 181.524C384.34 181.831 383.995 182.09 383.596 182.284C382.873 182.617 382.072 182.825 381.245 182.894C379.168 183.096 377.069 182.706 375.306 181.793L375.559 181.609C375.997 182.421 376.321 183.271 376.527 184.141C376.629 184.46 376.665 184.79 376.635 185.118C376.298 183.955 375.829 182.819 375.234 181.727L374.99 181.301L375.496 181.55C376.572 182.077 377.774 182.41 379.022 182.527C380.503 182.704 382.016 182.504 383.352 181.954C383.698 181.787 383.999 181.564 384.235 181.299C384.471 181.034 384.638 180.732 384.726 180.413C384.893 179.799 384.893 179.162 384.726 178.548C384.453 177.486 383.809 176.511 382.873 175.737C382.239 175.209 381.487 174.783 380.658 174.482C380.097 174.262 379.745 174.188 379.754 174.188Z" fill="#263238"/>
<path d="M385.097 179.268C385.242 178.853 385.489 178.466 385.821 178.13C386.153 177.793 386.564 177.514 387.031 177.308C387.908 176.813 388.984 176.606 390.041 176.728C389.094 176.975 388.17 177.277 387.275 177.631C385.892 178.328 385.223 179.326 385.097 179.268Z" fill="#263238"/>
<path d="M384.391 186.718C384.437 186.718 384.156 187.151 383.325 187.29C382.842 187.36 382.345 187.312 381.896 187.151C381.351 186.939 380.909 186.585 380.64 186.145C380.41 185.76 380.277 185.342 380.249 184.915C380.221 184.487 380.298 184.06 380.477 183.657C380.739 183.055 381.019 182.732 381.074 182.754C381.023 183.086 380.933 183.413 380.803 183.73C380.562 184.478 380.651 185.27 381.056 185.969C381.281 186.335 381.641 186.635 382.086 186.828C382.449 186.984 382.861 187.051 383.27 187.019C383.662 186.969 384.041 186.867 384.391 186.718Z" fill="#263238"/>
<g opacity="0.3">
<path d="M375.568 181.962C375.883 182.52 376.373 183.001 376.988 183.358C377.604 183.714 378.323 183.934 379.076 183.995C378.794 185.157 378.995 186.362 379.645 187.422C380.387 188.428 382.068 189.059 383.343 188.509C383.493 188.951 383.77 189.358 384.149 189.698C384.529 190.038 385.001 190.301 385.529 190.466C386.056 190.631 386.624 190.693 387.186 190.648C387.748 190.602 388.29 190.45 388.767 190.204C387.625 190.119 386.553 189.718 385.731 189.069C384.908 188.42 384.384 187.562 384.247 186.637C383.891 186.86 383.457 186.986 383.008 186.998C382.558 187.01 382.116 186.907 381.743 186.703C381.378 186.49 381.076 186.213 380.86 185.893C380.645 185.573 380.52 185.218 380.495 184.853C380.442 184.124 380.622 183.396 381.019 182.74C379.077 183.001 377.083 182.691 375.396 181.866" fill="black"/>
</g>
<path d="M258.853 319.308C261.728 329.202 264.596 339.099 267.459 348.998C263.006 348.479 258.466 349.165 254.541 350.95C253.185 351.574 251.748 352.8 252.48 353.886C253.049 354.767 254.541 354.833 255.761 354.789C265.271 354.459 274.745 355.112 284.31 354.789L283.785 324.695" fill="#FF6B00"/>
<path d="M310.417 319.308C307.554 329.202 304.686 339.099 301.811 348.998C306.267 348.478 310.81 349.164 314.738 350.95C316.094 351.574 317.523 352.8 316.799 353.886C316.221 354.767 314.738 354.833 313.518 354.789C303.999 354.459 294.534 355.112 284.969 354.789L285.494 324.695" fill="#FF6B00"/>
<g opacity="0.3">
<path d="M260.86 326.222L262.044 330.149C269.818 330.494 277.358 331.448 283.885 330.281L283.821 326.816C283.821 326.816 275.776 326.471 271.165 325.488L273.272 328.622C269.037 328.199 264.874 327.394 260.86 326.222Z" fill="black"/>
</g>
<g opacity="0.3">
<path d="M285.376 330.222C285.376 330.222 293.042 331.91 300.437 330.868C306.693 329.995 307.569 329.077 307.569 329.077L309.513 322.456C309.513 322.456 300.853 326.471 287.392 324.306L294.416 326.64H285.449L285.376 330.222Z" fill="black"/>
</g>
<path d="M345.212 281.235C342.194 276.304 338.448 271.69 334.057 267.494V267.443C336.434 267.844 338.865 267.99 341.289 267.876C337.048 265.316 333.451 262.119 330.694 258.459C326.996 247.383 323.037 236.255 322.956 224.937L240.014 224.416C237.8 237.901 233.961 251.177 228.551 264.052C222.829 277.998 216.365 294.594 227.782 308.254C229.875 310.692 232.49 312.805 235.503 314.493C239.058 317.548 242.87 320.401 246.911 323.029C246.212 321.595 245.522 320.164 244.841 318.735L246.26 319.249C254.38 324.585 264.167 327.983 274.528 329.062L272.991 326.075C284.87 327.749 296.938 327.242 307.723 323.139C327.855 315.432 338.459 306.308 340.954 294.344C342.229 288.281 340.782 282.835 338.541 277.396L345.212 281.235Z" fill="#FF6B00"/>
<path d="M317.839 284.56C317.839 284.56 317.721 284.56 317.504 284.56C317.287 284.56 316.962 284.487 316.6 284.406C315.43 284.192 314.279 283.913 313.156 283.569C309.332 282.398 305.856 280.582 302.959 278.24L303.339 278.035C303.736 278.864 304.152 279.723 304.568 280.604C305.328 282.204 306.069 283.745 306.747 285.169L307.262 286.256L306.358 285.353C303.773 282.747 301.531 280.494 299.885 278.827L298.077 276.926C297.846 276.695 297.638 276.45 297.454 276.192C297.728 276.38 297.977 276.592 298.195 276.824L300.139 278.666L306.747 285.096L306.358 285.279C305.68 283.855 304.939 282.343 304.17 280.721C303.746 279.84 303.339 278.974 302.941 278.152L302.543 277.315L303.321 277.954C306.165 280.258 309.545 282.079 313.265 283.312C314.368 283.675 315.493 283.991 316.637 284.259C317.044 284.341 317.445 284.442 317.839 284.56Z" fill="#263238"/>
<path d="M246.188 271.238C245.785 270.694 245.48 270.105 245.284 269.491C244.686 268.031 244.307 266.518 244.154 264.984C243.999 263.451 244.068 261.909 244.362 260.389C244.443 259.754 244.634 259.131 244.931 258.54C244.9 259.169 244.821 259.797 244.696 260.419C244.499 261.923 244.474 263.439 244.624 264.947C244.782 266.456 245.109 267.95 245.6 269.41C245.84 270.01 246.036 270.62 246.188 271.238Z" fill="#263238"/>
<path d="M248.963 265.498C248.676 265.087 248.483 264.637 248.394 264.17C248.064 263.071 247.888 261.946 247.869 260.815C247.851 259.686 247.984 258.559 248.267 257.453C248.351 256.988 248.528 256.537 248.791 256.118C248.541 257.676 248.391 259.244 248.339 260.815C248.446 262.384 248.654 263.947 248.963 265.498Z" fill="#263238"/>
<path d="M278.425 308.606C278.256 308.599 278.088 308.574 277.927 308.533C277.602 308.466 277.123 308.386 276.517 308.239C274.796 307.837 273.108 307.346 271.464 306.771C265.974 304.876 260.975 302.157 256.729 298.756L257.081 298.506C257.271 298.712 257.461 298.939 257.66 299.167C259.412 301.238 260.776 303.509 261.71 305.905L261.881 306.345L261.393 306.11C257.851 304.441 254.872 302.086 252.724 299.255C252.116 298.446 251.581 297.602 251.124 296.73C250.97 296.422 250.871 296.179 250.798 295.996C250.753 295.914 250.723 295.828 250.708 295.739C250.917 296.032 251.101 296.336 251.259 296.649C251.758 297.497 252.323 298.318 252.95 299.108C255.141 301.858 258.11 304.143 261.61 305.773L261.294 305.986C260.352 303.637 258.997 301.412 257.271 299.38L256.71 298.726L257.063 298.477C261.268 301.856 266.189 304.591 271.59 306.551C273.216 307.139 274.879 307.658 276.571 308.107C277.168 308.276 277.638 308.378 277.945 308.466C278.111 308.5 278.271 308.546 278.425 308.606Z" fill="#263238"/>
<path d="M235.973 240.292C235.981 240.351 235.981 240.41 235.973 240.469C235.973 240.601 235.973 240.77 235.973 240.968C235.928 241.416 235.828 242.061 235.692 242.898C235.403 244.564 234.861 246.972 233.984 249.893C233.107 252.815 231.869 256.272 230.368 260.066C228.867 263.861 227.213 268.016 225.685 272.434C224.192 276.561 223.057 280.767 222.286 285.022C221.695 288.504 221.625 292.031 222.078 295.526C222.4 297.881 223.065 300.197 224.058 302.426C224.438 303.204 224.736 303.813 224.962 304.209L225.206 304.672C225.24 304.722 225.265 304.777 225.278 304.833C225.278 304.833 225.278 304.789 225.161 304.694C225.043 304.598 224.989 304.422 224.872 304.246C224.609 303.857 224.284 303.255 223.886 302.477C222.814 300.252 222.092 297.927 221.735 295.555C221.234 292.037 221.274 288.482 221.852 284.971C222.586 280.686 223.7 276.449 225.188 272.295C226.734 267.891 228.433 263.722 229.916 259.927C231.398 256.132 232.682 252.712 233.595 249.805C234.508 246.898 235.105 244.506 235.403 242.847C235.566 242.017 235.692 241.379 235.765 240.931L235.864 240.432C235.892 240.381 235.929 240.335 235.973 240.292Z" fill="#263238"/>
<path d="M239.498 311.99C239.291 311.869 239.095 311.737 238.911 311.593C238.558 311.322 238.007 310.955 237.32 310.389C235.444 308.846 233.811 307.12 232.456 305.251C230.432 302.47 228.909 299.466 227.936 296.333C226.747 292.496 226.215 288.544 226.354 284.589C226.526 280.648 227.15 276.729 228.216 272.882C229.175 269.337 230.296 266.195 231.299 263.575C232.302 260.955 233.188 258.863 233.803 257.417C234.11 256.719 234.345 256.162 234.526 255.75C234.603 255.553 234.7 255.362 234.816 255.178C234.766 255.382 234.7 255.583 234.617 255.78C234.463 256.191 234.246 256.756 233.975 257.461C233.414 258.929 232.583 261.035 231.615 263.656C230.648 266.276 229.572 269.418 228.641 272.955C227.608 276.784 227.003 280.68 226.833 284.597C226.721 288.515 227.257 292.428 228.424 296.231C229.362 299.337 230.832 302.322 232.791 305.097C234.107 306.97 235.688 308.711 237.5 310.287C238.115 310.867 238.685 311.241 239.019 311.542C239.196 311.679 239.356 311.829 239.498 311.99Z" fill="white"/>
<path d="M247.978 314.243C246.427 313.435 244.966 312.519 243.611 311.505C242.151 310.594 240.793 309.579 239.552 308.474C241.097 309.285 242.555 310.201 243.91 311.212C245.369 312.127 246.73 313.141 247.978 314.243Z" fill="white"/>
<path d="M215.199 108.172C214.521 108.312 197.815 114.58 200.961 132.571C203.673 148.33 215.199 148.719 215.199 148.719L236.605 133.525C236.605 133.525 221.066 132.182 217.052 122.985C212.975 113.626 215.199 108.172 215.199 108.172Z" fill="#455A64"/>
<path d="M224.555 129.98C224.555 130.053 223.009 130.024 220.614 130.493C217.477 131.088 214.569 132.301 212.147 134.026C209.725 135.75 207.864 137.933 206.728 140.38C205.824 142.252 205.68 143.507 205.589 143.493C205.575 143.197 205.605 142.901 205.68 142.612C205.841 141.821 206.086 141.042 206.412 140.285C207.487 137.761 209.351 135.507 211.822 133.745C214.292 131.982 217.285 130.77 220.505 130.229C221.472 130.06 222.455 129.965 223.443 129.943C223.814 129.914 224.188 129.926 224.555 129.98Z" fill="#263238"/>
<path d="M218.182 124.276C218.182 124.35 216.925 124.159 214.928 124.276C212.324 124.429 209.812 125.115 207.624 126.271C205.436 127.426 203.644 129.012 202.416 130.882C201.512 132.35 201.178 133.312 201.087 133.29C201.095 133.039 201.153 132.791 201.259 132.556C201.486 131.924 201.789 131.312 202.163 130.728C203.346 128.771 205.159 127.11 207.409 125.92C209.659 124.73 212.263 124.056 214.946 123.968C215.749 123.938 216.554 123.97 217.35 124.064C217.639 124.1 217.92 124.171 218.182 124.276Z" fill="#263238"/>
<path d="M201.865 121.083C201.865 121.083 201.865 120.9 202.064 120.592C202.311 120.161 202.614 119.752 202.968 119.373C204.139 118.112 205.757 117.172 207.605 116.679C209.471 116.193 211.492 116.282 213.282 116.929C213.822 117.12 214.329 117.367 214.792 117.663C215.117 117.861 215.271 118.001 215.253 118.015C215.235 118.03 214.503 117.604 213.156 117.208C211.419 116.664 209.507 116.614 207.732 117.069C205.968 117.545 204.402 118.412 203.212 119.571C202.308 120.438 201.946 121.113 201.865 121.083Z" fill="#263238"/>
<path d="M211.031 111.314C211.031 111.314 210.597 111.703 209.811 112.393C208.709 113.369 207.706 114.414 206.81 115.52C203.789 119.152 202.057 123.389 201.802 127.767C201.546 132.145 202.779 136.496 205.363 140.344C206.132 141.511 207.011 142.627 207.994 143.683C208.69 144.417 209.106 144.828 209.079 144.85C208.952 144.773 208.837 144.685 208.735 144.586C208.536 144.403 208.211 144.146 207.831 143.771C206.781 142.743 205.852 141.637 205.056 140.468C202.353 136.6 201.055 132.189 201.313 127.746C201.57 123.303 203.373 119.011 206.511 115.366C207.445 114.264 208.501 113.235 209.666 112.29C210.064 111.945 210.417 111.718 210.643 111.556C210.756 111.46 210.887 111.378 211.031 111.314Z" fill="#FAFAFA"/>
<path d="M341.976 109.721C342.645 109.853 359.351 116.129 356.205 134.119C353.493 149.878 341.976 150.267 341.976 150.267L320.569 135.081C320.569 135.081 336.1 133.738 340.123 124.541C344.191 115.175 341.976 109.721 341.976 109.721Z" fill="#455A64"/>
<path d="M332.61 131.521C332.969 131.474 333.333 131.462 333.695 131.484C334.683 131.513 335.666 131.611 336.633 131.778C339.856 132.314 342.851 133.524 345.323 135.288C347.794 137.051 349.657 139.307 350.726 141.834C351.052 142.591 351.297 143.369 351.459 144.16C351.538 144.447 351.572 144.74 351.558 145.034C351.459 145.034 351.296 143.801 350.41 141.922C349.279 139.478 347.423 137.298 345.008 135.575C342.592 133.852 339.691 132.638 336.561 132.042C334.192 131.572 332.601 131.616 332.61 131.521Z" fill="#263238"/>
<path d="M339.427 125.884C339.699 125.798 339.985 125.743 340.276 125.722C341.057 125.626 341.847 125.591 342.636 125.62C345.268 125.715 347.815 126.409 349.985 127.623C352.158 128.814 353.912 130.443 355.075 132.35C355.422 132.928 355.704 133.53 355.915 134.149C356.014 134.37 356.069 134.603 356.078 134.839C355.997 134.839 355.699 133.884 354.776 132.475C353.564 130.648 351.832 129.083 349.723 127.91C347.614 126.737 345.165 126.031 342.618 125.862C340.656 125.744 339.436 125.957 339.427 125.884Z" fill="#263238"/>
<path d="M355.301 122.632C355.228 122.632 354.867 121.986 353.963 121.083C352.773 119.925 351.207 119.061 349.443 118.588C347.668 118.129 345.754 118.178 344.019 118.727C342.672 119.124 341.976 119.593 341.921 119.535C341.867 119.476 342.057 119.381 342.382 119.175C342.847 118.882 343.354 118.635 343.892 118.441C345.686 117.797 347.709 117.708 349.578 118.192C351.424 118.688 353.039 119.631 354.207 120.893C354.563 121.27 354.866 121.679 355.111 122.111C355.219 122.272 355.284 122.449 355.301 122.632Z" fill="#263238"/>
<path d="M343.485 111.351C343.645 111.618 343.769 111.899 343.856 112.187C343.995 112.518 344.104 112.857 344.181 113.2C344.313 113.653 344.416 114.111 344.489 114.573C344.586 115.128 344.646 115.686 344.67 116.246C344.71 116.892 344.71 117.539 344.67 118.184C344.555 119.659 344.252 121.12 343.766 122.544C343.234 123.962 342.519 125.33 341.632 126.625C341.198 127.205 340.81 127.77 340.358 128.255C339.962 128.718 339.534 129.161 339.074 129.583C338.71 129.939 338.32 130.277 337.908 130.596C337.617 130.862 337.3 131.108 336.958 131.33C336.686 131.54 336.382 131.723 336.054 131.873C335.991 131.815 337.221 131.014 338.766 129.436C339.199 129.009 339.604 128.563 339.978 128.1C340.412 127.623 340.782 127.058 341.207 126.486C342.048 125.201 342.735 123.854 343.259 122.463C343.75 121.066 344.071 119.633 344.218 118.184C344.218 117.516 344.317 116.885 344.281 116.283C344.274 115.731 344.231 115.18 344.154 114.632C343.883 112.584 343.386 111.373 343.485 111.351Z" fill="#FAFAFA"/>
<path d="M265.362 120.1C265.362 120.1 262.541 120.753 263.753 111.578L273.434 120.107C273.434 120.107 269.502 114.852 268.444 110.264C268.444 110.264 280.685 119.461 284.933 120.107C289.182 120.753 318.255 122.067 335.205 133.87C352.155 145.672 359.848 157.108 361.692 169.483C364.693 189.544 360.236 206.638 348.53 218.111L348.132 214.837C348.132 214.837 335.612 229.583 316.637 233.848C297.662 238.112 241.541 233.848 241.541 233.848C241.541 233.848 210.055 226.963 199.153 206.969C188.251 186.975 194.307 184.024 194.307 184.024L189.616 187.621C189.616 187.621 188.386 158.833 220.144 138.443C245.175 122.397 265.362 120.1 265.362 120.1Z" fill="#FF6B00"/>
<path d="M326.436 230.574C326.436 230.574 326.373 230.618 326.228 230.677L325.586 230.949C325.017 231.184 324.194 231.536 323.091 231.962C320.903 232.813 317.667 234.002 313.554 235.257C308.661 236.764 303.608 237.899 298.457 238.648C295.365 239.099 292.233 239.345 289.092 239.382C285.668 239.43 282.248 239.169 278.895 238.604L279.075 238.267L286.913 242.671L287.862 243.206L286.723 243.008L284.626 242.649L265.967 239.397L266.175 239.089L270.551 242.832L271.057 243.258L270.352 243.118C261.999 241.468 253.911 239.034 246.251 235.866C243.449 234.707 241.306 233.701 239.851 232.989C239.119 232.637 238.576 232.351 238.206 232.16L237.79 231.932C237.69 231.881 237.645 231.859 237.654 231.851L237.808 231.91L238.242 232.108L239.923 232.894C241.388 233.576 243.539 234.553 246.369 235.683C254.044 238.772 262.122 241.153 270.451 242.781L270.243 243.067C268.827 241.863 267.366 240.62 265.859 239.338L265.353 238.913L266.067 239.037L284.725 242.274L286.823 242.641L286.642 242.979L278.813 238.538L277.909 238.002L279.03 238.201C282.348 238.761 285.731 239.024 289.119 238.986C292.24 238.962 295.355 238.731 298.43 238.296C303.558 237.565 308.596 236.462 313.482 235C317.622 233.782 320.849 232.622 323.064 231.815L325.586 230.861L326.246 230.618L326.436 230.574Z" fill="#263238"/>
<g opacity="0.3">
<path d="M326.436 230.574C311.194 236.777 293.937 241.071 278.949 238.413L286.777 242.854L265.985 239.243C267.45 240.491 268.914 241.731 270.37 242.979C258.8 240.712 247.748 236.966 237.627 231.881C237.627 231.881 254.134 245.886 273.245 246.634C304.776 247.86 326.436 230.574 326.436 230.574Z" fill="black"/>
</g>
<path d="M220.966 210.844C220.767 210.778 220.579 210.691 220.406 210.587C220.053 210.404 219.502 210.154 218.86 209.773C216.995 208.717 215.254 207.523 213.662 206.206C208.329 201.837 204.619 196.338 202.959 190.336L203.42 190.292C203.42 190.38 203.42 190.469 203.42 190.564C203.555 194.498 203.691 198.22 203.817 201.53V202.411L203.384 201.603C201.566 198.271 200.392 194.73 199.903 191.107C199.761 190.083 199.683 189.054 199.668 188.024C199.668 187.665 199.668 187.386 199.668 187.202C199.656 187.11 199.656 187.016 199.668 186.923C199.681 187.016 199.681 187.11 199.668 187.202C199.668 187.413 199.686 187.684 199.722 188.017C199.722 188.751 199.858 189.771 200.075 191.085C200.647 194.67 201.865 198.167 203.691 201.464L203.284 201.537C203.148 198.234 202.995 194.506 202.832 190.579V190.336L203.302 190.292C204.2 193.541 205.703 196.66 207.759 199.541C210.571 203.489 214.346 206.931 218.851 209.655C219.475 210.059 220.008 210.323 220.343 210.536C220.563 210.622 220.772 210.725 220.966 210.844Z" fill="#263238"/>
<path d="M346.008 192.663C346.008 192.663 346.089 192.538 346.288 192.325L347.192 191.393C347.544 190.975 347.906 190.424 348.367 189.808L348.964 188.766L349.289 188.2C349.379 187.995 349.479 187.789 349.569 187.577C351.206 184.2 352.191 179.172 352.137 173.631C352.137 172.845 352.137 172.067 352.037 171.318L351.92 169.85L352.498 171.245C353.095 172.713 353.664 174.078 354.207 175.385H353.791C354.561 173.709 354.941 171.932 354.912 170.144C354.888 168.738 354.62 167.342 354.116 165.997C353.645 164.807 353.04 163.654 352.308 162.554C352.308 162.554 352.39 162.621 352.507 162.76C352.625 162.899 352.806 163.098 353.005 163.384C353.583 164.191 354.056 165.044 354.415 165.931C354.971 167.289 355.275 168.706 355.319 170.137C355.387 171.967 355.022 173.791 354.243 175.51L354.026 175.987L353.827 175.502L352.091 171.37L352.543 171.296C352.607 172.067 352.634 172.838 352.643 173.631C352.697 179.209 351.658 184.281 349.931 187.672C349.822 187.885 349.723 188.098 349.624 188.296L349.28 188.868L348.638 189.911C348.15 190.527 347.734 191.07 347.382 191.474L346.478 192.37C346.134 192.575 346.017 192.678 346.008 192.663Z" fill="#263238"/>
<path d="M305.987 138.112C305.777 138.128 305.565 138.128 305.355 138.112C304.948 138.112 304.333 138.112 303.547 138.068C301.335 137.968 299.135 137.735 296.966 137.371C289.748 136.177 282.952 133.684 277.078 130.075L277.385 129.789L277.539 129.921C280.504 132.365 283.324 134.699 285.892 136.828L286.389 137.239L285.702 137.121C283.14 136.708 280.69 135.925 278.47 134.809C276.723 133.944 275.132 132.887 273.742 131.668C272.839 130.876 272.031 130.015 271.328 129.099C271.084 128.783 270.93 128.519 270.813 128.365C270.695 128.211 270.641 128.101 270.659 128.101C270.943 128.407 271.205 128.725 271.446 129.055C272.194 129.935 273.028 130.764 273.941 131.536C275.336 132.718 276.924 133.741 278.66 134.574C280.865 135.644 283.286 136.39 285.81 136.776L285.62 137.077L277.24 130.2L277.087 130.075L277.394 129.789C283.212 133.359 289.914 135.864 297.038 137.129C299.191 137.51 301.37 137.782 303.565 137.944C304.342 138.017 304.948 138.024 305.373 138.061C305.579 138.059 305.786 138.076 305.987 138.112Z" fill="#263238"/>
<path d="M246.242 128.614C246.175 128.65 246.102 128.677 246.025 128.695L245.383 128.886C244.823 129.055 243.964 129.268 242.906 129.62C229.85 133.543 218.301 140.195 209.426 148.903C200.552 157.612 194.666 168.069 192.364 179.216C192.147 180.127 192.056 180.838 191.957 181.323C191.957 181.543 191.876 181.727 191.839 181.873C191.833 181.937 191.815 181.998 191.785 182.057C191.785 182.057 191.785 181.991 191.785 181.866C191.785 181.741 191.785 181.536 191.848 181.316C191.93 180.831 191.984 180.104 192.174 179.187C192.643 176.589 193.326 174.019 194.217 171.495C195.524 167.743 197.262 164.098 199.406 160.609C204.648 152.01 212.284 144.519 221.708 138.729C225.527 136.365 229.61 134.296 233.903 132.549C236.792 131.366 239.776 130.341 242.834 129.48C243.91 129.158 244.769 128.974 245.347 128.827L245.998 128.673C246.075 128.642 246.157 128.622 246.242 128.614Z" fill="#FAFAFA"/>
<path d="M205.291 208.958C204.963 208.736 204.66 208.49 204.387 208.224C204.098 207.982 203.763 207.674 203.393 207.299C203.022 206.925 202.579 206.514 202.163 206.015C201.136 204.867 200.215 203.66 199.406 202.403C198.423 200.862 197.594 199.26 196.929 197.61C196.282 195.954 195.798 194.258 195.483 192.538C195.246 191.135 195.134 189.72 195.148 188.303C195.148 187.701 195.148 187.151 195.229 186.674C195.251 186.263 195.3 185.854 195.374 185.448C195.407 185.101 195.48 184.757 195.591 184.42C195.635 184.767 195.635 185.116 195.591 185.463C195.591 185.8 195.528 186.197 195.528 186.688C195.528 187.18 195.528 187.701 195.528 188.303C195.56 189.704 195.705 191.102 195.962 192.487C196.292 194.181 196.773 195.854 197.399 197.493C198.057 199.122 198.864 200.71 199.813 202.242C200.594 203.493 201.478 204.7 202.461 205.853C202.859 206.36 203.284 206.785 203.628 207.167C203.971 207.549 204.287 207.901 204.532 208.129C204.816 208.385 205.07 208.663 205.291 208.958Z" fill="#FAFAFA"/>
<path d="M212.767 215.843C212.722 215.938 211.863 215.777 210.959 215.263C210.055 214.749 209.549 214.133 209.648 214.074C209.748 214.015 210.371 214.47 211.23 214.947C212.089 215.425 212.812 215.733 212.767 215.843Z" fill="#FAFAFA"/>
<path d="M267.757 121.252C266.456 120.356 265.446 119.214 264.816 117.926C264.185 116.639 263.954 115.245 264.141 113.868C264.348 115.203 264.724 116.516 265.262 117.788C265.942 119.011 266.778 120.172 267.757 121.252Z" fill="#FAFAFA"/>
<g opacity="0.3">
<path d="M259.558 202.601C260.1 201.867 260.652 201.133 261.203 200.399C261.148 200.613 261.155 200.834 261.226 201.045C261.297 201.256 261.429 201.45 261.61 201.611C261.978 201.927 262.413 202.188 262.894 202.381C263.798 202.792 264.991 203.115 265.913 202.719C266.334 202.455 266.646 202.093 266.808 201.681C266.969 201.269 266.972 200.827 266.817 200.414C266.645 199.739 266.266 199.1 266.04 198.432C265.899 198.104 265.841 197.756 265.869 197.41C265.897 197.063 266.01 196.724 266.202 196.414C266.821 195.789 267.704 195.373 268.679 195.247C272.175 194.422 275.824 194.106 279.455 194.315C283.099 194.538 286.589 195.6 289.517 197.375C289.273 196.326 288.124 195.592 286.994 195.041C284.662 193.904 282.07 193.161 279.375 192.857C276.679 192.553 273.936 192.694 271.31 193.272C268.689 193.881 266.273 194.967 264.246 196.448C262.219 197.928 260.635 199.764 259.612 201.816" fill="black"/>
</g>
<path d="M262.008 198.711C262.351 199.958 263.182 201.081 264.376 201.912C264.568 202.088 264.818 202.217 265.097 202.282C265.375 202.347 265.671 202.346 265.949 202.279C266.537 202.036 266.555 201.361 266.447 200.811C266.119 199.259 265.419 197.775 264.385 196.443" fill="#FAFAFA"/>
<path d="M292.382 198.711C292.045 199.958 291.217 201.081 290.023 201.912C289.829 202.088 289.578 202.217 289.297 202.282C289.017 202.347 288.72 202.346 288.441 202.279C287.853 202.036 287.835 201.361 287.944 200.811C288.27 199.258 288.974 197.773 290.014 196.443" fill="#FAFAFA"/>
<path d="M296.613 202.014C296.324 202.191 294.687 200.546 291.478 198.454C289.605 197.259 287.555 196.258 285.376 195.474C282.747 194.528 279.924 193.985 277.05 193.874C274.204 193.75 271.358 194.136 268.716 195.005C266.567 195.731 264.634 196.822 263.047 198.205C260.335 200.598 259.847 202.77 259.477 202.69C259.332 202.69 259.251 202.117 259.477 201.134C259.89 199.75 260.66 198.454 261.737 197.331C263.342 195.645 265.422 194.296 267.803 193.397C270.724 192.316 273.925 191.824 277.132 191.966C280.305 192.086 283.413 192.735 286.262 193.874C288.56 194.793 290.67 195.994 292.518 197.434C295.682 199.878 296.848 201.89 296.613 202.014Z" fill="#263238"/>
<g opacity="0.3">
<path d="M284.554 211.534C284.698 211.755 283.93 212.371 282.402 213.002C280.383 213.769 278.195 214.2 275.968 214.272C273.74 214.344 271.518 214.055 269.43 213.421C267.848 212.907 267.025 212.342 267.143 212.107C267.405 211.6 271.174 212.547 275.875 212.364C280.576 212.18 284.237 211.043 284.554 211.534Z" fill="black"/>
</g>
<path d="M242.735 157.461C265.198 163.737 289.567 163.91 312.162 157.952C312.162 157.952 307.705 183.694 277.502 185.11C247.3 186.527 242.735 157.461 242.735 157.461Z" fill="#FAFAFA"/>
<path d="M265.75 161.865C264.659 167.89 265.884 174.042 269.258 179.481C270.049 181.012 271.261 182.375 272.802 183.466C273.58 184.003 274.516 184.367 275.518 184.524C276.521 184.681 277.556 184.625 278.524 184.362C280.332 183.752 281.489 182.262 282.321 180.802C285.937 174.423 286.316 169.219 286.696 162.195C280.061 163.582 273.046 163.325 265.75 161.865Z" fill="#263238"/>
<g opacity="0.3">
<path d="M307.678 171.575C307.795 171.627 307.416 172.478 306.412 173.887C304.925 175.873 303.099 177.677 300.988 179.246C299.561 180.347 298.028 181.356 296.405 182.262C294.503 183.275 292.494 184.149 290.403 184.875C285.582 186.584 280.342 187.368 275.088 187.166C269.834 186.963 264.709 185.78 260.109 183.708C258.114 182.822 256.217 181.795 254.441 180.64C252.915 179.623 251.492 178.509 250.184 177.308C248.282 175.584 246.693 173.649 245.465 171.561C244.624 170.093 244.344 169.205 244.47 169.16C244.597 169.116 245.203 169.894 246.278 171.194C247.766 173.064 249.49 174.803 251.422 176.383C252.747 177.465 254.164 178.471 255.662 179.392C257.393 180.43 259.225 181.35 261.14 182.145C265.499 184 270.304 185.059 275.219 185.25C280.135 185.44 285.042 184.756 289.598 183.246C291.596 182.599 293.528 181.823 295.375 180.926C296.972 180.122 298.501 179.229 299.949 178.255C302.052 176.83 303.969 175.233 305.671 173.491C306.864 172.221 307.515 171.502 307.678 171.575Z" fill="black"/>
</g>
<g opacity="0.3">
<path d="M305.355 153.636C304.409 153.503 303.436 153.674 302.643 154.114C294.319 157.47 284.965 158.772 275.74 157.857C266.582 156.932 257.162 154.334 250.165 149.445C248.258 150.267 247.779 152.44 248.602 154.055C249.424 155.67 251.214 156.807 253.031 157.725C259.352 160.925 266.545 162.816 273.977 163.23C281.391 163.636 288.837 163.063 296.025 161.534C299.569 160.8 303.257 159.839 305.599 157.549C306.247 156.97 306.655 156.241 306.765 155.464C306.796 155.078 306.677 154.693 306.424 154.365C306.17 154.037 305.796 153.782 305.355 153.636Z" fill="black"/>
</g>
<path d="M304.17 153.468C304.514 153.857 302.164 155.963 297.164 158.026C294.229 159.22 291.114 160.099 287.898 160.639C279.916 161.999 271.612 161.349 264.096 158.774C261.065 157.747 258.209 156.408 255.599 154.789C251.178 151.992 249.361 149.555 249.795 149.232C250.229 148.909 252.896 150.51 257.425 152.528C263.213 155.206 269.635 156.857 276.267 157.372C282.899 157.887 289.59 157.254 295.899 155.515C300.826 154.246 303.773 152.998 304.17 153.468Z" fill="#263238"/>
<path d="M272.395 179.378C272.395 179.378 272.187 179.231 271.889 178.915C271.47 178.472 271.09 178.006 270.75 177.521C269.603 175.923 268.77 174.189 268.282 172.383C267.789 170.574 267.642 168.715 267.848 166.87C267.91 166.313 268.015 165.759 268.164 165.212C268.273 164.83 268.345 164.617 268.381 164.624C268.417 164.632 268.264 165.491 268.182 166.893C267.959 170.538 268.946 174.166 271.039 177.396C271.816 178.629 272.458 179.326 272.395 179.378Z" fill="#FAFAFA"/>
<path d="M319.34 156.433C318.399 156.883 317.398 157.245 316.356 157.512C315.371 157.827 314.169 158.209 312.74 158.569C311.312 158.928 309.712 159.406 307.886 159.773C306.06 160.14 304.08 160.624 301.901 160.969C300.817 161.153 299.705 161.373 298.539 161.534L294.923 162.019C289.568 162.661 284.163 162.995 278.75 163.017C273.338 163.005 267.934 162.686 262.577 162.063C260.119 161.725 257.768 161.439 255.617 161.02C254.532 160.822 253.483 160.646 252.489 160.448L249.632 159.817C247.824 159.435 246.197 158.973 244.778 158.598C244.063 158.4 243.404 158.231 242.798 158.055L241.171 157.527C240.13 157.257 239.132 156.89 238.197 156.433C238.278 156.242 242.635 157.571 249.885 159.031L252.733 159.582C253.727 159.765 254.776 159.912 255.852 160.088C257.994 160.47 260.317 160.705 262.758 161.02C268.062 161.57 273.403 161.855 278.75 161.872C284.105 161.853 289.452 161.554 294.76 160.976L298.322 160.551C299.479 160.411 300.591 160.206 301.666 160.044C303.827 159.743 305.816 159.31 307.633 158.995C309.45 158.679 311.077 158.261 312.514 157.96C313.952 157.659 315.172 157.35 316.13 157.101C317.165 156.778 318.242 156.554 319.34 156.433Z" fill="#263238"/>
<path d="M286.509 114.858L281.609 96.9554L293.289 95.9792L297.086 80L298.776 99.7373L286.916 100.699L286.509 114.858Z" fill="#FF4D00"/>
<path d="M293.126 117.214L300.684 104.398L308.386 108.34L320.101 100.068L309.516 112.758L301.714 108.736L293.126 117.214Z" fill="#FF4D00"/>
<path opacity="0.6" d="M286.509 114.858L281.609 96.9554L293.289 95.9792L297.086 80L298.776 99.7373L286.916 100.699L286.509 114.858Z" fill="white"/>
<path opacity="0.6" d="M293.126 117.214L300.684 104.398L308.386 108.34L320.101 100.068L309.516 112.758L301.714 108.736L293.126 117.214Z" fill="white"/>
</svg>
