<svg xmlns="http://www.w3.org/2000/svg" xmlns:xlink="http://www.w3.org/1999/xlink" width="529" zoomAndPan="magnify" viewBox="0 0 396.75 396.749984" height="529" preserveAspectRatio="xMidYMid meet" version="1.0"><defs><clipPath id="95152da4fb"><path d="M 39.683594 108 L 112 108 L 112 206 L 39.683594 206 Z M 39.683594 108 " clip-rule="nonzero"/></clipPath><clipPath id="43a55e5fac"><path d="M 39.683594 108 L 112 108 L 112 191 L 39.683594 191 Z M 39.683594 108 " clip-rule="nonzero"/></clipPath><clipPath id="54a071b368"><path d="M 313 143 L 338.183594 143 L 338.183594 212 L 313 212 Z M 313 143 " clip-rule="nonzero"/></clipPath></defs><path fill="#e4eff4" d="M 56.625 93.722656 L 56.625 34.339844 C 56.625 34.339844 95.152344 15.234375 146.238281 19.96875 L 146.238281 76.339844 C 146.238281 76.253906 104.527344 78.144531 56.625 93.722656 Z M 56.625 93.722656 " fill-opacity="1" fill-rule="nonzero"/><path fill="#d2e5ef" d="M 56.625 93.722656 L 56.625 34.339844 C 56.625 34.339844 95.152344 15.234375 146.238281 19.96875 L 146.238281 76.339844 C 146.238281 76.253906 104.527344 78.144531 56.625 93.722656 Z M 56.625 93.722656 " fill-opacity="0.69" fill-rule="nonzero"/><path fill="#aac7d1" d="M 62.042969 85.03125 C 61.957031 85.03125 61.871094 85.03125 61.785156 84.945312 C 61.699219 84.859375 61.613281 84.773438 61.613281 84.601562 L 61.613281 41.65625 C 61.613281 41.398438 61.785156 41.226562 62.042969 41.226562 C 62.300781 41.226562 62.472656 41.398438 62.472656 41.65625 L 62.472656 84.085938 C 67.890625 82.363281 113.558594 68.507812 139.871094 66.957031 L 139.871094 25.390625 C 139.871094 25.132812 140.046875 24.960938 140.304688 24.960938 C 140.5625 24.960938 140.734375 25.132812 140.734375 25.390625 L 140.734375 67.300781 C 140.734375 67.558594 140.5625 67.730469 140.390625 67.730469 C 112.699219 69.28125 62.820312 84.859375 62.300781 85.03125 C 62.128906 85.03125 62.042969 85.03125 62.042969 85.03125 Z M 62.042969 85.03125 " fill-opacity="1" fill-rule="nonzero"/><path fill="#aac7d1" d="M 96.101562 71.347656 C 95.929688 71.347656 95.84375 71.261719 95.757812 71.175781 L 77.09375 43.460938 L 65.484375 61.105469 C 65.398438 61.277344 65.140625 61.363281 64.882812 61.191406 C 64.710938 61.105469 64.625 60.847656 64.796875 60.589844 L 76.75 42.429688 C 76.835938 42.34375 76.921875 42.257812 77.09375 42.257812 C 77.265625 42.257812 77.351562 42.34375 77.4375 42.429688 L 96.101562 70.054688 L 110.289062 45.269531 C 110.375 45.183594 110.460938 45.097656 110.632812 45.097656 C 110.71875 45.097656 110.890625 45.097656 110.976562 45.269531 L 119.578125 55.683594 L 134.367188 30.210938 C 134.457031 30.035156 134.714844 29.949219 134.886719 30.035156 C 135.058594 30.125 135.144531 30.382812 135.058594 30.554688 L 120.007812 56.542969 C 119.921875 56.628906 119.835938 56.714844 119.664062 56.714844 C 119.492188 56.714844 119.40625 56.628906 119.320312 56.542969 L 110.71875 46.128906 L 96.53125 71.003906 C 96.359375 71.261719 96.273438 71.347656 96.101562 71.347656 Z M 96.101562 71.347656 " fill-opacity="1" fill-rule="nonzero"/><path fill="#aac7d1" d="M 78.382812 64.546875 C 69.441406 64.546875 65.570312 46.992188 65.484375 46.304688 C 65.398438 46.042969 65.570312 45.871094 65.828125 45.785156 C 66.085938 45.785156 66.257812 45.871094 66.34375 46.128906 C 66.34375 46.304688 70.300781 64.375 78.984375 63.773438 C 83.972656 63.429688 86.125 58.265625 88.101562 53.703125 C 89.5625 50.261719 90.855469 47.25 93.261719 47.164062 C 95.324219 47.078125 96.53125 48.972656 97.820312 51.121094 C 99.96875 54.480469 102.550781 58.695312 110.03125 57.320312 C 118.117188 55.769531 119.492188 48.882812 120.4375 44.324219 C 120.867188 42 121.210938 40.277344 122.414062 40.019531 C 123.792969 39.761719 124.824219 41.3125 126.113281 43.375 C 128.089844 46.390625 130.5 50.175781 134.972656 49.832031 C 135.230469 49.832031 135.402344 50.003906 135.402344 50.175781 C 135.402344 50.433594 135.230469 50.605469 135.058594 50.605469 C 130.15625 50.949219 127.402344 46.820312 125.511719 43.808594 C 124.394531 42.085938 123.449219 40.707031 122.671875 40.882812 C 122.070312 41.054688 121.726562 42.773438 121.296875 44.582031 C 120.4375 49.058594 118.890625 56.628906 110.289062 58.265625 C 102.292969 59.816406 99.367188 55.082031 97.21875 51.726562 C 95.929688 49.746094 94.980469 48.109375 93.433594 48.109375 C 93.433594 48.109375 93.433594 48.109375 93.347656 48.109375 C 91.542969 48.109375 90.339844 50.949219 88.960938 54.132812 C 87.070312 58.609375 84.664062 64.289062 79.160156 64.632812 C 78.726562 64.546875 78.554688 64.546875 78.382812 64.546875 Z M 78.382812 64.546875 " fill-opacity="1" fill-rule="nonzero"/><path fill="#aac7d1" d="M 79.246094 42.773438 C 79.246094 41.570312 78.296875 40.707031 77.179688 40.707031 C 75.976562 40.707031 75.117188 41.65625 75.117188 42.773438 C 75.117188 43.980469 76.0625 44.839844 77.179688 44.839844 C 78.296875 44.839844 79.246094 43.894531 79.246094 42.773438 Z M 79.246094 42.773438 " fill-opacity="1" fill-rule="nonzero"/><path fill="#aac7d1" d="M 67.289062 60.246094 C 67.289062 59.039062 66.34375 58.179688 65.226562 58.179688 C 64.109375 58.179688 63.164062 59.125 63.164062 60.246094 C 63.164062 61.449219 64.109375 62.308594 65.226562 62.308594 C 66.34375 62.308594 67.289062 61.363281 67.289062 60.246094 Z M 67.289062 60.246094 " fill-opacity="1" fill-rule="nonzero"/><path fill="#aac7d1" d="M 97.992188 70.917969 C 97.992188 69.710938 97.046875 68.851562 95.929688 68.851562 C 94.722656 68.851562 93.863281 69.796875 93.863281 70.917969 C 93.863281 72.121094 94.808594 72.980469 95.929688 72.980469 C 97.046875 73.066406 97.992188 72.121094 97.992188 70.917969 Z M 97.992188 70.917969 " fill-opacity="1" fill-rule="nonzero"/><path fill="#aac7d1" d="M 112.699219 45.613281 C 112.699219 44.410156 111.75 43.550781 110.632812 43.550781 C 109.429688 43.550781 108.570312 44.496094 108.570312 45.613281 C 108.570312 46.820312 109.515625 47.679688 110.632812 47.679688 C 111.75 47.765625 112.699219 46.820312 112.699219 45.613281 Z M 112.699219 45.613281 " fill-opacity="1" fill-rule="nonzero"/><path fill="#aac7d1" d="M 121.8125 56.027344 C 121.8125 54.824219 120.867188 53.960938 119.75 53.960938 C 118.546875 53.960938 117.683594 54.910156 117.683594 56.027344 C 117.683594 57.234375 118.632812 58.09375 119.75 58.09375 C 120.867188 58.09375 121.8125 57.148438 121.8125 56.027344 Z M 121.8125 56.027344 " fill-opacity="1" fill-rule="nonzero"/><g clip-path="url(#95152da4fb)"><path fill="#e4eff4" d="M 52.070312 205.605469 L 52.070312 190.886719 C 52.070312 190.886719 79.070312 165.757812 111.40625 165.757812 L 111.40625 108.699219 C 111.40625 108.699219 45.273438 115.324219 39.683594 136.753906 L 39.683594 194.675781 C 39.769531 194.761719 42.523438 205.777344 52.070312 205.605469 Z M 52.070312 205.605469 " fill-opacity="1" fill-rule="nonzero"/></g><g clip-path="url(#43a55e5fac)"><path fill="#d2e5ef" d="M 39.769531 136.753906 C 44.585938 144.070312 52.15625 143.8125 52.15625 143.8125 L 52.15625 190.886719 C 52.15625 190.886719 79.160156 165.757812 111.492188 165.757812 L 111.492188 108.699219 C 111.492188 108.699219 45.273438 115.324219 39.769531 136.753906 Z M 39.769531 136.753906 " fill-opacity="0.69" fill-rule="nonzero"/></g><path fill="#aac7d1" d="M 52.84375 160.851562 C 52.671875 160.851562 52.585938 160.765625 52.5 160.59375 C 52.414062 160.421875 52.5 160.164062 52.671875 160.078125 C 52.929688 159.992188 76.0625 147.683594 96.445312 143.554688 C 96.703125 143.46875 96.875 143.640625 96.960938 143.898438 C 97.046875 144.15625 96.875 144.328125 96.617188 144.414062 C 76.320312 148.457031 53.273438 160.765625 53.101562 160.851562 C 52.929688 160.851562 52.84375 160.851562 52.84375 160.851562 Z M 52.84375 160.851562 " fill-opacity="1" fill-rule="nonzero"/><path fill="#aac7d1" d="M 52.84375 168.425781 C 52.671875 168.425781 52.585938 168.339844 52.5 168.253906 C 52.414062 168.082031 52.5 167.824219 52.671875 167.738281 C 52.929688 167.652344 75.632812 155.085938 96.445312 149.578125 C 96.703125 149.492188 96.875 149.664062 96.960938 149.835938 C 97.046875 150.09375 96.875 150.265625 96.703125 150.351562 C 76.0625 155.859375 53.359375 168.339844 53.1875 168.511719 C 52.929688 168.339844 52.84375 168.425781 52.84375 168.425781 Z M 52.84375 168.425781 " fill-opacity="1" fill-rule="nonzero"/><path fill="#aac7d1" d="M 52.84375 175.828125 C 52.671875 175.828125 52.585938 175.742188 52.5 175.65625 C 52.414062 175.484375 52.414062 175.222656 52.671875 175.050781 C 52.84375 174.964844 66.601562 166.703125 80.191406 161.625 C 80.363281 161.539062 80.621094 161.625 80.707031 161.882812 C 80.792969 162.058594 80.707031 162.316406 80.449219 162.402344 C 66.859375 167.566406 53.1875 175.742188 53.015625 175.828125 C 52.929688 175.828125 52.84375 175.828125 52.84375 175.828125 Z M 52.84375 175.828125 " fill-opacity="1" fill-rule="nonzero"/><path fill="#aac7d1" d="M 43.8125 140.714844 C 43.726562 140.714844 43.554688 140.628906 43.46875 140.542969 C 43.296875 140.367188 43.296875 140.109375 43.46875 139.9375 C 43.554688 139.851562 53.1875 131.503906 63.59375 128.148438 C 63.765625 128.0625 64.023438 128.234375 64.109375 128.40625 C 64.195312 128.578125 64.023438 128.835938 63.851562 128.921875 C 53.53125 132.191406 44.070312 140.453125 43.984375 140.542969 C 44.070312 140.714844 43.984375 140.714844 43.8125 140.714844 Z M 43.8125 140.714844 " fill-opacity="1" fill-rule="nonzero"/><path fill="#aac7d1" d="M 50.519531 143.554688 C 50.433594 143.554688 50.261719 143.46875 50.175781 143.382812 C 50.003906 143.210938 50.089844 142.949219 50.261719 142.777344 C 50.347656 142.691406 57.230469 136.925781 67.460938 133.65625 C 67.71875 133.570312 67.890625 133.742188 67.976562 133.914062 C 68.066406 134.085938 67.890625 134.34375 67.71875 134.429688 C 57.660156 137.613281 50.863281 143.382812 50.777344 143.382812 C 50.691406 143.554688 50.605469 143.554688 50.519531 143.554688 Z M 50.519531 143.554688 " fill-opacity="1" fill-rule="nonzero"/><path fill="#ffffff" d="M 72.964844 145.1875 L 72.964844 125.308594 C 72.964844 125.308594 88.101562 119.886719 102.207031 118.507812 L 102.207031 137.355469 C 102.207031 137.355469 85.265625 138.390625 72.964844 145.1875 Z M 72.964844 145.1875 " fill-opacity="1" fill-rule="nonzero"/><path fill="#aac7d1" d="M 73.222656 139.507812 C 73.136719 139.507812 73.050781 139.507812 72.964844 139.421875 C 72.792969 139.25 72.792969 138.992188 72.964844 138.820312 L 82.425781 128.921875 C 82.597656 128.75 82.855469 128.75 83.027344 128.921875 C 83.199219 129.09375 83.199219 129.351562 83.027344 129.523438 L 73.566406 139.421875 C 73.480469 139.421875 73.308594 139.507812 73.222656 139.507812 Z M 73.222656 139.507812 " fill-opacity="1" fill-rule="nonzero"/><path fill="#aac7d1" d="M 101.777344 131.332031 C 101.691406 131.332031 101.605469 131.332031 101.605469 131.246094 L 93.433594 126.941406 C 93.261719 126.855469 93.175781 126.597656 93.261719 126.425781 C 93.347656 126.253906 93.605469 126.167969 93.777344 126.253906 L 101.949219 130.558594 C 102.121094 130.644531 102.207031 130.902344 102.121094 131.074219 C 102.121094 131.246094 101.949219 131.332031 101.777344 131.332031 Z M 101.777344 131.332031 " fill-opacity="1" fill-rule="nonzero"/><path fill="#aac7d1" d="M 88.875 130.816406 L 88.789062 130.816406 L 73.308594 126.511719 C 73.050781 126.425781 72.964844 126.253906 73.050781 125.996094 C 73.136719 125.738281 73.308594 125.652344 73.566406 125.738281 L 88.789062 129.957031 L 102.035156 119.800781 C 102.207031 119.628906 102.464844 119.714844 102.636719 119.886719 C 102.808594 120.058594 102.722656 120.316406 102.550781 120.488281 L 89.132812 130.816406 C 89.132812 130.816406 89.046875 130.816406 88.875 130.816406 Z M 88.875 130.816406 " fill-opacity="1" fill-rule="nonzero"/><path fill="#e05353" d="M 106.074219 118.421875 C 106.074219 116.273438 104.355469 114.550781 102.207031 114.550781 C 100.054688 114.550781 98.335938 116.273438 98.335938 118.421875 C 98.335938 120.574219 100.054688 122.296875 102.207031 122.296875 C 104.355469 122.296875 106.074219 120.574219 106.074219 118.421875 Z M 106.074219 118.421875 " fill-opacity="1" fill-rule="nonzero"/><path fill="#4374af" d="M 158.792969 357.417969 L 156.296875 374.285156 C 156.296875 374.285156 147.269531 383.152344 145.894531 386.9375 C 144.429688 390.722656 146.238281 396.578125 157.589844 392.960938 C 167.476562 389.777344 184.851562 380.050781 188.976562 377.730469 C 189.578125 377.382812 190.011719 376.78125 190.097656 376.179688 L 192.417969 365.078125 Z M 158.792969 357.417969 " fill-opacity="1" fill-rule="nonzero"/><path fill="#ffffff" d="M 156.902344 369.984375 C 156.902344 369.984375 161.371094 378.417969 184.164062 365.164062 L 175.476562 361.117188 L 158.792969 357.332031 Z M 156.902344 369.984375 " fill-opacity="1" fill-rule="nonzero"/><path fill="#4374af" d="M 133.679688 318.949219 L 141.59375 330.824219 C 141.59375 330.824219 138.410156 347.089844 142.367188 349.585938 C 146.324219 352.082031 150.535156 347.867188 150.535156 347.867188 L 168.082031 317.570312 L 168.082031 299.414062 Z M 133.679688 318.949219 " fill-opacity="1" fill-rule="nonzero"/><path fill="#ffffff" d="M 139.871094 328.15625 C 139.871094 328.15625 156.382812 318.433594 157.332031 306.46875 L 152 308.535156 L 133.765625 318.949219 Z M 139.871094 328.15625 " fill-opacity="1" fill-rule="nonzero"/><path fill="#fda345" d="M 189.0625 211.457031 C 189.0625 211.457031 175.304688 266.964844 172.980469 276.261719 C 170.660156 285.554688 157.417969 348.039062 157.417969 348.039062 C 157.417969 348.039062 153.890625 348.898438 153.71875 353.976562 C 153.546875 359.054688 158.792969 359.054688 158.792969 359.054688 L 194.308594 367.746094 C 194.308594 367.746094 198.867188 366.972656 199.554688 364.132812 C 200.15625 361.289062 197.320312 357.503906 197.320312 357.503906 L 236.019531 195.878906 Z M 189.0625 211.457031 " fill-opacity="1" fill-rule="nonzero"/><path fill="#fda345" d="M 134.28125 320.410156 L 170.402344 299.757812 C 170.402344 299.757812 169.800781 292.785156 162.234375 292.011719 L 138.496094 246.140625 L 113.730469 209.132812 C 113.730469 209.132812 96.960938 219.03125 95.757812 243.644531 C 94.550781 268.257812 127.144531 311.632812 127.144531 311.632812 C 127.144531 311.632812 123.363281 314.902344 125.683594 318.433594 C 127.917969 322.046875 134.28125 320.410156 134.28125 320.410156 Z M 134.28125 320.410156 " fill-opacity="1" fill-rule="nonzero"/><path fill="#fda345" d="M 189.0625 211.457031 L 138.496094 246.140625 L 113.644531 209.132812 L 145.03125 187.445312 L 185.28125 198.976562 Z M 189.0625 211.457031 " fill-opacity="1" fill-rule="nonzero"/><path fill="#fda345" d="M 159.050781 181.164062 L 145.03125 187.445312 L 189.0625 211.457031 L 230.945312 216.707031 L 238.941406 184.777344 Z M 159.050781 181.164062 " fill-opacity="1" fill-rule="nonzero"/><path fill="#c1610a" d="M 190.441406 356.214844 C 190.355469 356.214844 190.269531 356.214844 190.183594 356.128906 C 189.839844 355.957031 189.664062 355.609375 189.839844 355.265625 C 191.558594 350.792969 230.6875 190.972656 231.117188 189.339844 C 231.203125 188.996094 231.546875 188.734375 231.890625 188.820312 C 232.234375 188.90625 232.492188 189.253906 232.40625 189.597656 C 230.773438 196.222656 192.847656 351.136719 191.128906 355.695312 C 190.957031 356.042969 190.699219 356.214844 190.441406 356.214844 Z M 190.441406 356.214844 " fill-opacity="1" fill-rule="nonzero"/><path fill="#4374af" d="M 226.730469 93.894531 L 242.554688 99.058594 C 242.554688 99.058594 249.003906 101.640625 249.605469 101.984375 C 250.207031 102.242188 253.734375 106.890625 254.9375 110.503906 C 256.230469 114.121094 265.6875 149.148438 265.6875 149.148438 C 265.6875 149.148438 265.085938 151.816406 262.164062 151.558594 L 228.277344 155.34375 L 222.171875 121.089844 Z M 226.730469 93.894531 " fill-opacity="1" fill-rule="nonzero"/><path fill="#4374af" d="M 165.671875 99.488281 L 135.488281 139.078125 L 172.035156 152.160156 Z M 165.671875 99.488281 " fill-opacity="1" fill-rule="nonzero"/><path fill="#4374af" d="M 187.257812 93.378906 L 165.671875 99.488281 L 167.566406 167.738281 L 232.40625 167.738281 L 242.554688 99.058594 L 224.582031 93.207031 Z M 187.257812 93.378906 " fill-opacity="1" fill-rule="nonzero"/><path fill="#2f638e" d="M 227.847656 151.816406 C 227.503906 151.816406 227.246094 151.558594 227.160156 151.300781 L 223.035156 124.707031 C 222.949219 124.363281 223.207031 124.015625 223.550781 123.929688 C 223.894531 123.84375 224.238281 124.101562 224.324219 124.449219 L 228.453125 151.039062 C 228.539062 151.386719 228.277344 151.730469 227.933594 151.816406 C 227.847656 151.816406 227.847656 151.816406 227.847656 151.816406 Z M 227.847656 151.816406 " fill-opacity="1" fill-rule="nonzero"/><path fill="#2f638e" d="M 167.566406 146.480469 C 167.21875 146.480469 166.960938 146.222656 166.875 145.878906 L 165.328125 111.625 C 165.328125 111.28125 165.585938 110.9375 165.929688 110.9375 C 166.273438 110.9375 166.617188 111.195312 166.617188 111.539062 L 168.167969 145.789062 C 168.167969 146.136719 167.910156 146.480469 167.566406 146.480469 Z M 167.566406 146.480469 " fill-opacity="1" fill-rule="nonzero"/><path fill="#5987cc" d="M 195.773438 87.613281 C 195.773438 87.613281 187.6875 92.519531 187.257812 93.378906 C 186.828125 94.238281 189.492188 107.664062 190.527344 109.558594 C 190.527344 109.558594 194.738281 100.953125 199.382812 100.523438 L 202.910156 100.867188 C 202.910156 100.867188 206.695312 101.296875 211.25 111.625 C 211.25 111.625 224.925781 93.722656 224.667969 93.292969 C 224.410156 92.863281 215.636719 86.667969 215.636719 86.667969 Z M 195.773438 87.613281 " fill-opacity="1" fill-rule="nonzero"/><path fill="#f9c1c0" d="M 229.054688 162.402344 L 227.847656 151.210938 C 227.847656 151.210938 247.113281 148.199219 262.078125 148.632812 L 262.335938 155.257812 Z M 229.054688 162.402344 " fill-opacity="1" fill-rule="nonzero"/><path fill="#f9c1c0" d="M 190.613281 168.683594 C 190.613281 168.683594 241.265625 154.65625 262.335938 155.257812 L 262.851562 176.601562 C 262.851562 176.601562 262.507812 184.003906 251.84375 188.046875 L 222.6875 194.15625 L 192.761719 189.082031 Z M 190.613281 168.683594 " fill-opacity="1" fill-rule="nonzero"/><path fill="#d4e4e8" d="M 110.890625 178.925781 L 111.148438 182.796875 C 111.148438 183.832031 111.921875 184.605469 112.871094 184.691406 L 222.601562 194.242188 C 223.292969 194.328125 223.894531 193.726562 223.894531 193.039062 L 223.894531 190.800781 C 223.894531 189.769531 223.121094 188.820312 222 188.734375 L 200.414062 185.894531 Z M 110.890625 178.925781 " fill-opacity="1" fill-rule="nonzero"/><path fill="#f9c1c0" d="M 183.214844 49.144531 C 183.214844 49.144531 177.625 59.382812 181.496094 71.433594 C 185.195312 82.964844 195.34375 85.804688 195.34375 85.804688 L 196.203125 90.539062 L 194.566406 91.914062 C 194.566406 91.914062 197.0625 99.144531 201.191406 102.070312 C 201.191406 102.070312 210.5625 94.410156 215.980469 92.347656 L 215.207031 80.8125 L 217.445312 78.488281 C 217.445312 78.488281 228.367188 76.425781 230.6875 70.140625 C 233.007812 63.859375 228.277344 60.675781 228.277344 60.675781 L 209.015625 37.867188 Z M 183.214844 49.144531 " fill-opacity="1" fill-rule="nonzero"/><path fill="#f4807d" d="M 196.632812 90.882812 C 196.632812 90.882812 203.855469 90.882812 207.125 85.632812 C 207.125 85.632812 203.339844 87.699219 195.34375 85.804688 Z M 196.632812 90.882812 " fill-opacity="0.33" fill-rule="nonzero"/><path fill="#79154d" d="M 181.496094 48.710938 C 181.496094 48.710938 180.121094 50.949219 183.386719 51.035156 C 186.65625 51.121094 189.839844 48.453125 189.839844 48.453125 C 189.839844 48.453125 190.011719 51.898438 195.257812 50.175781 C 200.5 48.453125 202.480469 45.269531 202.480469 45.269531 C 202.480469 45.269531 203.511719 50.175781 209.875 47.679688 C 209.875 47.679688 213.832031 62.222656 216.496094 64.632812 C 216.496094 64.632812 220.109375 59.46875 223.207031 59.382812 C 226.386719 59.296875 228.277344 60.761719 228.277344 60.761719 C 228.277344 60.761719 232.148438 43.808594 223.121094 36.320312 C 212.199219 27.28125 196.460938 33.308594 196.460938 33.308594 C 196.460938 33.308594 192.503906 29.777344 186.3125 31.414062 C 180.378906 32.964844 175.820312 39.074219 178.746094 43.894531 C 178.746094 43.894531 175.5625 45.183594 176.25 47.59375 C 176.765625 50.003906 181.496094 48.710938 181.496094 48.710938 Z M 181.496094 48.710938 " fill-opacity="1" fill-rule="nonzero"/><path fill="#79154d" d="M 183.300781 58.351562 C 183.300781 58.351562 185.710938 53.1875 190.011719 55.511719 C 190.011719 55.511719 190.527344 54.132812 189.753906 53.359375 C 188.890625 52.585938 185.109375 51.898438 183.300781 56.972656 C 183.300781 56.886719 183.042969 57.921875 183.300781 58.351562 Z M 183.300781 58.351562 " fill-opacity="1" fill-rule="nonzero"/><path fill="#79154d" d="M 198.179688 56.113281 C 198.179688 56.113281 201.792969 52.414062 205.660156 56.457031 C 205.660156 56.457031 206.265625 55.253906 205.660156 54.132812 C 205.058594 52.929688 203.167969 52.328125 201.621094 52.414062 C 200.070312 52.414062 198.265625 53.789062 197.664062 55.167969 C 197.664062 55.082031 197.578125 56.027344 198.179688 56.113281 Z M 198.179688 56.113281 " fill-opacity="1" fill-rule="nonzero"/><path fill="#79154d" d="M 189.667969 64.71875 C 189.925781 66.183594 189.753906 67.472656 189.234375 67.558594 C 188.71875 67.644531 188.03125 66.527344 187.773438 65.152344 C 187.515625 63.6875 187.6875 62.398438 188.203125 62.308594 C 188.71875 62.222656 189.40625 63.257812 189.667969 64.71875 Z M 189.667969 64.71875 " fill-opacity="1" fill-rule="nonzero"/><path fill="#79154d" d="M 203.511719 63.945312 C 203.769531 65.410156 203.597656 66.699219 203.082031 66.785156 C 202.566406 66.871094 201.878906 65.753906 201.621094 64.375 C 201.363281 62.914062 201.535156 61.621094 202.050781 61.535156 C 202.566406 61.363281 203.253906 62.484375 203.511719 63.945312 Z M 203.511719 63.945312 " fill-opacity="1" fill-rule="nonzero"/><path fill="#e26060" d="M 197.664062 95.273438 C 197.492188 95.273438 197.320312 95.101562 197.234375 94.929688 L 194.910156 85.890625 C 194.910156 85.71875 194.910156 85.546875 194.996094 85.460938 C 195.082031 85.375 195.257812 85.289062 195.429688 85.375 C 195.515625 85.375 204.371094 87.269531 208.070312 84.601562 C 208.242188 84.429688 208.5 84.515625 208.671875 84.6875 C 208.84375 84.859375 208.757812 85.117188 208.585938 85.289062 C 205.144531 87.785156 198.179688 86.753906 195.945312 86.320312 L 198.09375 94.667969 C 198.179688 94.929688 198.007812 95.1875 197.75 95.1875 C 197.75 95.273438 197.664062 95.273438 197.664062 95.273438 Z M 197.664062 95.273438 " fill-opacity="1" fill-rule="nonzero"/><path fill="#e26060" d="M 195.34375 73.757812 C 194.308594 73.757812 192.933594 73.585938 192.074219 72.894531 C 191.644531 72.550781 191.386719 72.035156 191.300781 71.519531 C 191.128906 69.625 192.761719 67.992188 193.449219 67.386719 L 192.933594 62.398438 C 192.933594 62.050781 193.191406 61.707031 193.535156 61.707031 C 193.878906 61.621094 194.222656 61.964844 194.222656 62.308594 L 194.824219 67.644531 C 194.824219 67.90625 194.738281 68.078125 194.566406 68.25 C 193.964844 68.679688 192.503906 70.054688 192.589844 71.433594 C 192.589844 71.605469 192.675781 71.777344 192.847656 71.863281 C 193.535156 72.464844 195.429688 72.464844 196.460938 72.378906 C 196.804688 72.378906 197.148438 72.550781 197.148438 72.980469 C 197.234375 73.328125 196.976562 73.671875 196.546875 73.671875 C 196.460938 73.671875 195.945312 73.757812 195.34375 73.757812 Z M 195.34375 73.757812 " fill-opacity="1" fill-rule="nonzero"/><path fill="#e26060" d="M 220.367188 71.949219 C 220.28125 71.949219 220.195312 71.949219 220.109375 71.863281 C 219.765625 71.691406 219.59375 71.347656 219.765625 71.003906 C 222.34375 64.375 226.128906 63.945312 226.300781 63.945312 C 226.644531 63.945312 226.988281 64.203125 226.988281 64.546875 C 226.988281 64.890625 226.730469 65.238281 226.386719 65.238281 C 226.300781 65.238281 223.207031 65.753906 220.96875 71.519531 C 220.882812 71.777344 220.710938 71.949219 220.367188 71.949219 Z M 220.367188 71.949219 " fill-opacity="1" fill-rule="nonzero"/><path fill="#e26060" d="M 225.613281 69.023438 C 225.527344 69.023438 225.441406 69.023438 225.355469 68.9375 C 224.582031 68.59375 223.121094 68.164062 222.429688 68.507812 C 222.085938 68.679688 221.742188 68.507812 221.570312 68.164062 C 221.398438 67.820312 221.570312 67.472656 221.914062 67.300781 C 223.378906 66.613281 225.699219 67.558594 225.957031 67.730469 C 226.300781 67.90625 226.472656 68.25 226.300781 68.59375 C 226.128906 68.851562 225.871094 69.023438 225.613281 69.023438 Z M 225.613281 69.023438 " fill-opacity="1" fill-rule="nonzero"/><path fill="#e25555" d="M 198.265625 77.113281 C 199.640625 76.511719 203.511719 74.703125 206.4375 72.035156 C 206.609375 71.863281 206.953125 71.949219 206.953125 72.207031 C 206.953125 73.328125 206.867188 75.648438 206.609375 76.339844 C 206.265625 77.371094 204.714844 78.144531 202.566406 78.921875 C 200.933594 79.523438 198.953125 78.316406 198.179688 77.628906 C 198.007812 77.457031 198.007812 77.199219 198.265625 77.113281 Z M 198.265625 77.113281 " fill-opacity="1" fill-rule="nonzero"/><path fill="#f4807d" d="M 224.839844 65.238281 C 224.839844 65.238281 227.589844 64.460938 228.191406 66.355469 C 228.796875 68.25 225.183594 73.585938 222.429688 73.15625 C 219.59375 72.722656 221.3125 66.957031 224.839844 65.238281 Z M 224.839844 65.238281 " fill-opacity="0.33" fill-rule="nonzero"/><path fill="#bfd7e2" d="M 111.148438 179.699219 L 95.84375 132.796875 C 95.238281 130.902344 96.789062 128.921875 98.765625 129.09375 L 184.851562 135.980469 C 186.054688 136.066406 187.085938 136.925781 187.34375 138.046875 L 200.414062 186.585938 Z M 111.148438 179.699219 " fill-opacity="1" fill-rule="nonzero"/><path fill="#bfd7e2" d="M 184.851562 136.066406 L 183.214844 135.894531 L 197.40625 186.414062 L 200.414062 186.671875 L 187.34375 138.132812 C 187 136.925781 186.054688 136.152344 184.851562 136.066406 Z M 184.851562 136.066406 " fill-opacity="0.44" fill-rule="nonzero"/><path fill="#daeaef" d="M 149.933594 159.820312 C 145.808594 159.820312 142.453125 156.460938 142.453125 152.332031 C 142.453125 151.210938 142.710938 150.09375 143.226562 149.148438 C 140.21875 150.09375 137.980469 152.933594 137.980469 156.289062 C 137.980469 160.421875 141.335938 163.777344 145.464844 163.777344 C 148.472656 163.777344 150.964844 162.058594 152.171875 159.5625 C 151.398438 159.648438 150.707031 159.820312 149.933594 159.820312 Z M 149.933594 159.820312 " fill-opacity="1" fill-rule="nonzero"/><path fill="#e26060" d="M 198.4375 167.046875 C 198.265625 167.046875 198.09375 166.875 198.007812 166.703125 C 197.921875 166.445312 198.09375 166.273438 198.351562 166.1875 L 244.1875 155.773438 C 244.445312 155.6875 244.617188 155.859375 244.703125 156.117188 C 244.789062 156.375 244.617188 156.546875 244.359375 156.632812 L 198.523438 167.046875 C 198.523438 167.046875 198.523438 167.046875 198.4375 167.046875 Z M 198.4375 167.046875 " fill-opacity="1" fill-rule="nonzero"/><path fill="#2f638e" d="M 202.222656 110.332031 C 202.222656 109.300781 201.449219 108.527344 200.414062 108.527344 C 199.382812 108.527344 198.609375 109.300781 198.609375 110.332031 C 198.609375 111.367188 199.382812 112.140625 200.414062 112.140625 C 201.363281 112.140625 202.222656 111.28125 202.222656 110.332031 Z M 202.222656 110.332031 " fill-opacity="1" fill-rule="nonzero"/><path fill="#2f638e" d="M 200.671875 122.8125 C 200.671875 121.78125 199.898438 121.003906 198.867188 121.003906 C 197.835938 121.003906 197.0625 121.78125 197.0625 122.8125 C 197.0625 123.84375 197.835938 124.621094 198.867188 124.621094 C 199.898438 124.621094 200.671875 123.84375 200.671875 122.8125 Z M 200.671875 122.8125 " fill-opacity="1" fill-rule="nonzero"/><path fill="#2f638e" d="M 262.078125 148.632812 C 262.078125 148.632812 264.914062 148.804688 265.6875 149.0625 C 265.6875 149.0625 265.257812 151.816406 262.164062 151.472656 Z M 262.078125 148.632812 " fill-opacity="1" fill-rule="nonzero"/><path fill="#c1610a" d="M 136.089844 305.523438 C 135.832031 305.523438 135.574219 305.351562 135.488281 305.179688 C 135.316406 304.835938 135.488281 304.488281 135.832031 304.316406 L 162.75 291.667969 C 163.09375 291.496094 163.4375 291.667969 163.609375 292.011719 C 163.78125 292.355469 163.609375 292.699219 163.265625 292.871094 L 136.347656 305.523438 C 136.261719 305.523438 136.175781 305.523438 136.089844 305.523438 Z M 136.089844 305.523438 " fill-opacity="1" fill-rule="nonzero"/><path fill="#c1610a" d="M 167.046875 303.457031 C 166.960938 303.457031 166.960938 303.457031 166.875 303.457031 C 166.53125 303.371094 166.273438 303.027344 166.359375 302.683594 L 188.203125 211.800781 L 177.195312 205.777344 C 176.851562 205.605469 176.765625 205.175781 176.9375 204.914062 C 177.109375 204.570312 177.539062 204.484375 177.796875 204.65625 L 189.664062 211.113281 L 167.738281 302.941406 C 167.652344 303.285156 167.390625 303.457031 167.046875 303.457031 Z M 167.046875 303.457031 " fill-opacity="1" fill-rule="nonzero"/><path fill="#c1610a" d="M 160.855469 231.421875 C 160.683594 231.421875 160.425781 231.335938 160.339844 231.164062 C 160.167969 230.90625 160.167969 230.476562 160.511719 230.21875 L 188.632812 210.855469 C 188.890625 210.683594 189.320312 210.769531 189.578125 211.027344 C 189.753906 211.285156 189.667969 211.714844 189.40625 211.972656 L 161.285156 231.335938 C 161.113281 231.421875 161.027344 231.421875 160.855469 231.421875 Z M 160.855469 231.421875 " fill-opacity="1" fill-rule="nonzero"/><path fill="#c1610a" d="M 156.039062 296.054688 C 155.78125 296.054688 155.523438 295.882812 155.4375 295.710938 L 131.101562 246.140625 C 130.328125 244.503906 130.84375 242.523438 132.304688 241.492188 L 182.785156 207.667969 C 183.128906 207.496094 183.472656 207.582031 183.730469 207.84375 C 183.902344 208.1875 183.816406 208.53125 183.558594 208.789062 L 133.078125 242.609375 C 132.132812 243.214844 131.789062 244.503906 132.304688 245.539062 L 156.730469 295.109375 C 156.902344 295.453125 156.730469 295.796875 156.46875 295.96875 C 156.296875 296.054688 156.210938 296.054688 156.039062 296.054688 Z M 156.039062 296.054688 " fill-opacity="1" fill-rule="nonzero"/><path fill="#c1610a" d="M 197.234375 358.105469 C 197.148438 358.105469 197.148438 358.105469 197.0625 358.105469 L 172.292969 351.222656 C 171.949219 351.136719 171.777344 350.792969 171.863281 350.445312 C 171.949219 350.101562 172.292969 349.929688 172.636719 350.015625 L 197.40625 356.902344 C 197.75 356.988281 197.921875 357.332031 197.835938 357.675781 C 197.75 357.847656 197.492188 358.105469 197.234375 358.105469 Z M 197.234375 358.105469 " fill-opacity="1" fill-rule="nonzero"/><path fill="#993370" d="M 176.078125 46.90625 C 175.734375 46.820312 175.5625 46.648438 175.648438 46.390625 C 176.25 43.117188 181.066406 43.03125 181.238281 43.03125 C 181.496094 43.03125 181.667969 43.203125 181.667969 43.460938 C 181.667969 43.722656 181.496094 43.894531 181.238281 43.894531 C 181.238281 43.894531 176.9375 43.980469 176.421875 46.5625 C 176.507812 46.820312 176.335938 46.90625 176.078125 46.90625 Z M 176.078125 46.90625 " fill-opacity="1" fill-rule="nonzero"/><path fill="#993370" d="M 183.128906 51.640625 C 182.785156 51.640625 182.441406 51.550781 182.097656 51.464844 C 181.582031 51.292969 181.238281 51.035156 181.066406 50.605469 C 180.207031 48.882812 181.753906 47.335938 182.699219 46.820312 C 182.871094 46.734375 183.214844 46.734375 183.300781 46.992188 C 183.386719 47.164062 183.386719 47.507812 183.128906 47.59375 C 183.042969 47.679688 181.152344 48.796875 181.839844 50.261719 C 181.925781 50.433594 182.097656 50.605469 182.355469 50.691406 C 183.644531 51.121094 186.398438 50.003906 187.34375 49.574219 C 187.601562 49.488281 187.859375 49.574219 187.945312 49.746094 C 188.03125 50.003906 187.945312 50.261719 187.773438 50.347656 C 187.429688 50.433594 185.023438 51.640625 183.128906 51.640625 Z M 183.128906 51.640625 " fill-opacity="1" fill-rule="nonzero"/><path fill="#993370" d="M 193.363281 51.121094 C 193.191406 51.121094 193.019531 51.121094 192.847656 51.121094 C 191.386719 51.035156 190.269531 50.519531 189.753906 49.660156 C 188.976562 48.453125 189.40625 47.078125 189.40625 46.992188 C 189.492188 46.734375 189.753906 46.648438 189.925781 46.734375 C 190.183594 46.820312 190.269531 47.078125 190.183594 47.25 C 190.183594 47.25 189.839844 48.28125 190.441406 49.144531 C 190.871094 49.746094 191.644531 50.089844 192.847656 50.175781 C 196.460938 50.433594 199.898438 47.25 199.984375 47.164062 C 200.15625 46.992188 200.414062 46.992188 200.585938 47.164062 C 200.761719 47.335938 200.761719 47.59375 200.585938 47.765625 C 200.5 48.023438 197.148438 51.121094 193.363281 51.121094 Z M 193.363281 51.121094 " fill-opacity="1" fill-rule="nonzero"/><path fill="#e4eff4" d="M 70.472656 208.445312 C 70.472656 208.445312 85.09375 227.035156 157.074219 225.828125 L 154.40625 290.117188 C 154.40625 290.117188 96.53125 297.347656 68.324219 268 Z M 70.472656 208.445312 " fill-opacity="1" fill-rule="nonzero"/><path fill="#bfd7e2" d="M 76.234375 222.558594 C 76.234375 222.558594 85.867188 227.207031 89.304688 227.894531 L 89.304688 273.765625 C 89.304688 273.765625 78.039062 268.773438 76.234375 266.621094 C 76.234375 266.621094 76.234375 222.558594 76.234375 222.558594 Z M 76.234375 222.558594 " fill-opacity="1" fill-rule="nonzero"/><path fill="#e05353" d="M 94.035156 238.050781 L 94.035156 274.796875 C 94.035156 274.796875 104.699219 278.585938 109 278.84375 L 109 240.804688 C 109 240.890625 98.679688 241.234375 94.035156 238.050781 Z M 94.035156 238.050781 " fill-opacity="1" fill-rule="nonzero"/><path fill="#bfd7e2" d="M 114.417969 249.667969 L 114.417969 280.304688 C 114.417969 280.304688 121.726562 282.542969 129.125 280.996094 L 129.125 250.613281 C 129.125 250.613281 119.835938 252.679688 114.417969 249.667969 Z M 114.417969 249.667969 " fill-opacity="1" fill-rule="nonzero"/><path fill="#bfd7e2" d="M 134.542969 280.910156 L 134.542969 243.644531 C 134.542969 243.644531 144.515625 246.140625 150.535156 243.644531 L 149.332031 279.789062 C 149.332031 279.875 141.421875 282.972656 134.542969 280.910156 Z M 134.542969 280.910156 " fill-opacity="1" fill-rule="nonzero"/><path fill="#e4eff4" d="M 216.410156 295.453125 L 216.410156 231.507812 C 216.410156 231.507812 269.816406 226.171875 293.292969 211.714844 L 293.980469 203.023438 C 293.980469 203.023438 299.65625 201.902344 301.207031 206.378906 L 299.914062 269.203125 C 299.914062 269.117188 288.734375 294.421875 216.410156 295.453125 Z M 216.410156 295.453125 " fill-opacity="1" fill-rule="nonzero"/><path fill="#d2e5ef" d="M 294.066406 202.9375 L 293.378906 211.628906 C 293.378906 211.628906 300.347656 207.410156 301.292969 206.207031 C 299.65625 201.902344 294.066406 202.9375 294.066406 202.9375 Z M 294.066406 202.9375 " fill-opacity="0.69" fill-rule="nonzero"/><path fill="#b0ccd6" d="M 300.863281 227.722656 C 299.140625 226.171875 296.820312 224.453125 294.496094 224.367188 C 290.199219 224.28125 288.390625 230.734375 284.867188 234.953125 C 281.339844 239.167969 279.191406 237.273438 275.0625 237.535156 C 270.933594 237.707031 269.816406 246.140625 267.324219 246.054688 C 264.828125 245.96875 261.648438 240.976562 258.035156 241.75 C 254.421875 242.523438 251.070312 251.476562 245.480469 252.078125 C 239.890625 252.679688 233.695312 244.933594 233.695312 244.933594 C 233.695312 244.933594 226.902344 265.761719 248.058594 272.820312 C 265.515625 278.671875 291.746094 259.308594 300.261719 252.421875 Z M 300.863281 227.722656 " fill-opacity="1" fill-rule="nonzero"/><path fill="#bfd7e2" d="M 295.789062 239.425781 C 293.980469 239.941406 293.464844 237.359375 289.253906 238.910156 C 285.039062 240.460938 284.007812 254.230469 280.394531 255.691406 C 276.78125 257.15625 277.382812 254.058594 273.429688 253.023438 C 269.472656 251.90625 266.117188 257.5 263.28125 257.671875 C 260.441406 257.84375 258.980469 252.765625 256.660156 252.335938 C 254.335938 251.90625 251.328125 258.273438 248.832031 259.738281 C 246.339844 261.199219 242.125 260.769531 237.480469 249.152344 C 232.75 237.535156 225.441406 242.695312 225.441406 242.695312 L 225.441406 283.921875 C 274.546875 288.136719 300.085938 261.371094 300.085938 261.371094 L 300.691406 230.90625 C 299.65625 234.519531 297.25 238.996094 295.789062 239.425781 Z M 295.789062 239.425781 " fill-opacity="1" fill-rule="nonzero"/><path fill="#e05353" d="M 167.390625 16.179688 L 167.390625 3.617188 C 167.390625 1.722656 165.84375 0.171875 163.953125 0.171875 L 119.320312 0.171875 C 117.425781 0.171875 115.878906 1.722656 115.878906 3.617188 L 115.878906 27.28125 C 115.878906 29.175781 117.425781 30.726562 119.320312 30.726562 L 163.953125 30.726562 C 165.84375 30.726562 167.390625 29.175781 167.390625 27.28125 L 167.390625 24.703125 L 175.476562 24.703125 Z M 167.390625 16.179688 " fill-opacity="1" fill-rule="nonzero"/><path fill="#ffffff" d="M 145.03125 14.890625 C 145.03125 13.339844 143.828125 12.136719 142.28125 12.136719 C 140.734375 12.136719 139.527344 13.339844 139.527344 14.890625 C 139.527344 16.4375 140.734375 17.644531 142.28125 17.644531 C 143.742188 17.644531 145.03125 16.4375 145.03125 14.890625 Z M 145.03125 14.890625 " fill-opacity="1" fill-rule="nonzero"/><path fill="#ffffff" d="M 132.648438 14.890625 C 132.648438 13.339844 131.445312 12.136719 129.898438 12.136719 C 128.347656 12.136719 127.144531 13.339844 127.144531 14.890625 C 127.144531 16.4375 128.347656 17.644531 129.898438 17.644531 C 131.445312 17.644531 132.648438 16.4375 132.648438 14.890625 Z M 132.648438 14.890625 " fill-opacity="1" fill-rule="nonzero"/><path fill="#ffffff" d="M 158.277344 14.890625 C 158.277344 13.339844 157.074219 12.136719 155.523438 12.136719 C 153.976562 12.136719 152.773438 13.339844 152.773438 14.890625 C 152.773438 16.4375 153.976562 17.644531 155.523438 17.644531 C 156.988281 17.644531 158.277344 16.4375 158.277344 14.890625 Z M 158.277344 14.890625 " fill-opacity="1" fill-rule="nonzero"/><path fill="#e4eff4" d="M 238.339844 77.457031 C 238.339844 77.457031 278.675781 89.074219 296.648438 107.492188 L 296.648438 139.59375 C 296.648438 139.59375 314.535156 140.800781 318.40625 127.890625 L 318.40625 60.933594 C 318.40625 60.933594 296.390625 26.59375 238.339844 25.046875 Z M 238.339844 77.457031 " fill-opacity="1" fill-rule="nonzero"/><path fill="#d2e5ef" d="M 238.339844 25.046875 L 238.339844 77.542969 C 238.339844 77.542969 278.675781 89.160156 296.648438 107.578125 L 296.648438 68.679688 C 296.648438 68.679688 317.203125 74.015625 318.40625 61.019531 C 318.40625 60.933594 296.304688 26.59375 238.339844 25.046875 Z M 238.339844 25.046875 " fill-opacity="0.69" fill-rule="nonzero"/><path fill="#aac7d1" d="M 296.648438 81.15625 C 296.5625 81.15625 296.476562 81.15625 296.390625 81.070312 C 283.402344 72.207031 266.71875 66.699219 266.546875 66.613281 C 266.375 66.527344 266.203125 66.269531 266.289062 66.097656 C 266.375 65.925781 266.546875 65.753906 266.804688 65.839844 C 266.976562 65.925781 283.75 71.519531 296.820312 80.382812 C 296.992188 80.46875 297.078125 80.726562 296.90625 80.984375 C 296.90625 81.070312 296.734375 81.15625 296.648438 81.15625 Z M 296.648438 81.15625 " fill-opacity="1" fill-rule="nonzero"/><path fill="#aac7d1" d="M 296.648438 89.9375 C 296.5625 89.9375 296.476562 89.9375 296.390625 89.851562 C 283.316406 80.984375 266.71875 75.476562 266.546875 75.390625 C 266.375 75.304688 266.203125 75.046875 266.289062 74.875 C 266.375 74.703125 266.546875 74.53125 266.804688 74.617188 C 266.976562 74.703125 283.75 80.296875 296.820312 89.160156 C 296.992188 89.246094 297.078125 89.507812 296.90625 89.765625 C 296.90625 89.9375 296.734375 89.9375 296.648438 89.9375 Z M 296.648438 89.9375 " fill-opacity="1" fill-rule="nonzero"/><path fill="#aac7d1" d="M 310.148438 69.023438 C 310.0625 69.023438 309.890625 68.9375 309.804688 68.851562 C 295.015625 51.121094 266.890625 44.238281 266.546875 44.238281 C 266.289062 44.152344 266.203125 43.980469 266.203125 43.722656 C 266.289062 43.460938 266.460938 43.375 266.71875 43.375 C 266.976562 43.460938 295.359375 50.347656 310.40625 68.335938 C 310.578125 68.507812 310.492188 68.765625 310.320312 68.9375 C 310.320312 69.023438 310.234375 69.023438 310.148438 69.023438 Z M 310.148438 69.023438 " fill-opacity="1" fill-rule="nonzero"/><path fill="#aac7d1" d="M 300.605469 69.023438 C 300.519531 69.023438 300.433594 69.023438 300.347656 68.9375 C 286.929688 57.578125 266.804688 52.414062 266.632812 52.328125 C 266.375 52.242188 266.289062 52.070312 266.375 51.8125 C 266.460938 51.550781 266.632812 51.464844 266.890625 51.550781 C 267.066406 51.640625 287.359375 56.886719 300.949219 68.335938 C 301.121094 68.507812 301.121094 68.765625 301.035156 68.9375 C 300.863281 69.023438 300.691406 69.023438 300.605469 69.023438 Z M 300.605469 69.023438 " fill-opacity="1" fill-rule="nonzero"/><path fill="#e05353" d="M 257.863281 43.808594 C 257.863281 40.96875 255.539062 38.644531 252.703125 38.644531 C 249.863281 38.644531 247.542969 40.96875 247.542969 43.808594 C 247.542969 46.648438 249.863281 48.972656 252.703125 48.972656 C 255.539062 48.972656 257.863281 46.648438 257.863281 43.808594 Z M 257.863281 43.808594 " fill-opacity="1" fill-rule="nonzero"/><path fill="#e05353" d="M 257.863281 66.699219 C 257.863281 67.039062 257.828125 67.375 257.761719 67.707031 C 257.699219 68.039062 257.597656 68.363281 257.46875 68.675781 C 257.339844 68.988281 257.179688 69.285156 256.992188 69.570312 C 256.804688 69.851562 256.589844 70.109375 256.351562 70.351562 C 256.113281 70.589844 255.851562 70.804688 255.570312 70.992188 C 255.289062 71.179688 254.992188 71.339844 254.675781 71.46875 C 254.363281 71.601562 254.042969 71.699219 253.710938 71.765625 C 253.378906 71.832031 253.042969 71.863281 252.703125 71.863281 C 252.363281 71.863281 252.027344 71.832031 251.695312 71.765625 C 251.363281 71.699219 251.042969 71.601562 250.726562 71.46875 C 250.414062 71.339844 250.117188 71.179688 249.835938 70.992188 C 249.554688 70.804688 249.292969 70.589844 249.054688 70.351562 C 248.816406 70.109375 248.601562 69.851562 248.414062 69.570312 C 248.222656 69.285156 248.066406 68.988281 247.9375 68.675781 C 247.804688 68.363281 247.707031 68.039062 247.640625 67.707031 C 247.574219 67.375 247.542969 67.039062 247.542969 66.699219 C 247.542969 66.359375 247.574219 66.023438 247.640625 65.691406 C 247.707031 65.359375 247.804688 65.035156 247.9375 64.722656 C 248.066406 64.410156 248.222656 64.113281 248.414062 63.832031 C 248.601562 63.550781 248.816406 63.289062 249.054688 63.046875 C 249.292969 62.808594 249.554688 62.59375 249.835938 62.40625 C 250.117188 62.21875 250.414062 62.058594 250.726562 61.929688 C 251.042969 61.800781 251.363281 61.703125 251.695312 61.636719 C 252.027344 61.570312 252.363281 61.535156 252.703125 61.535156 C 253.042969 61.535156 253.378906 61.570312 253.710938 61.636719 C 254.042969 61.703125 254.363281 61.800781 254.675781 61.929688 C 254.992188 62.058594 255.289062 62.21875 255.570312 62.40625 C 255.851562 62.59375 256.113281 62.808594 256.351562 63.046875 C 256.589844 63.289062 256.804688 63.550781 256.992188 63.832031 C 257.179688 64.113281 257.339844 64.410156 257.46875 64.722656 C 257.597656 65.035156 257.699219 65.359375 257.761719 65.691406 C 257.828125 66.023438 257.863281 66.359375 257.863281 66.699219 Z M 257.863281 66.699219 " fill-opacity="1" fill-rule="nonzero"/><g clip-path="url(#54a071b368)"><path fill="#ef8f8f" d="M 338.183594 177.460938 C 338.183594 178.574219 338.164062 179.679688 338.125 180.785156 C 338.085938 181.890625 338.027344 182.988281 337.945312 184.078125 C 337.867188 185.167969 337.769531 186.242188 337.652344 187.304688 C 337.535156 188.367188 337.398438 189.410156 337.242188 190.4375 C 337.085938 191.464844 336.914062 192.464844 336.722656 193.445312 C 336.53125 194.425781 336.324219 195.378906 336.097656 196.300781 C 335.871094 197.222656 335.632812 198.113281 335.375 198.972656 C 335.117188 199.832031 334.84375 200.652344 334.558594 201.4375 C 334.269531 202.222656 333.972656 202.96875 333.65625 203.671875 C 333.34375 204.378906 333.019531 205.039062 332.679688 205.65625 C 332.34375 206.273438 331.996094 206.84375 331.640625 207.367188 C 331.28125 207.890625 330.914062 208.363281 330.539062 208.789062 C 330.164062 209.214844 329.785156 209.589844 329.394531 209.910156 C 329.007812 210.234375 328.613281 210.503906 328.21875 210.71875 C 327.820312 210.933594 327.417969 211.097656 327.015625 211.207031 C 326.613281 211.316406 326.207031 211.371094 325.800781 211.371094 C 325.394531 211.371094 324.992188 211.316406 324.585938 211.207031 C 324.183594 211.097656 323.78125 210.933594 323.386719 210.71875 C 322.988281 210.503906 322.59375 210.234375 322.207031 209.910156 C 321.816406 209.589844 321.4375 209.214844 321.0625 208.789062 C 320.6875 208.363281 320.320312 207.890625 319.964844 207.367188 C 319.605469 206.84375 319.257812 206.273438 318.921875 205.65625 C 318.585938 205.039062 318.257812 204.378906 317.945312 203.671875 C 317.632812 202.96875 317.332031 202.222656 317.042969 201.4375 C 316.757812 200.652344 316.484375 199.832031 316.230469 198.972656 C 315.972656 198.113281 315.730469 197.222656 315.503906 196.300781 C 315.277344 195.378906 315.070312 194.425781 314.878906 193.445312 C 314.6875 192.464844 314.515625 191.464844 314.359375 190.4375 C 314.203125 189.410156 314.070312 188.367188 313.949219 187.304688 C 313.832031 186.242188 313.734375 185.167969 313.65625 184.078125 C 313.578125 182.988281 313.515625 181.890625 313.476562 180.785156 C 313.4375 179.679688 313.417969 178.574219 313.417969 177.460938 C 313.417969 176.351562 313.4375 175.242188 313.476562 174.136719 C 313.515625 173.03125 313.578125 171.9375 313.65625 170.847656 C 313.734375 169.757812 313.832031 168.679688 313.949219 167.617188 C 314.070312 166.554688 314.203125 165.511719 314.359375 164.484375 C 314.515625 163.460938 314.6875 162.457031 314.878906 161.476562 C 315.070312 160.496094 315.277344 159.546875 315.503906 158.625 C 315.730469 157.699219 315.972656 156.808594 316.226562 155.949219 C 316.484375 155.09375 316.757812 154.269531 317.042969 153.484375 C 317.332031 152.699219 317.632812 151.953125 317.945312 151.25 C 318.257812 150.546875 318.582031 149.886719 318.921875 149.269531 C 319.257812 148.652344 319.605469 148.082031 319.964844 147.558594 C 320.320312 147.035156 320.6875 146.558594 321.0625 146.132812 C 321.4375 145.710938 321.816406 145.335938 322.207031 145.011719 C 322.59375 144.691406 322.988281 144.421875 323.386719 144.203125 C 323.78125 143.988281 324.183594 143.824219 324.585938 143.714844 C 324.992188 143.609375 325.394531 143.554688 325.800781 143.554688 C 326.207031 143.554688 326.613281 143.609375 327.015625 143.714844 C 327.417969 143.824219 327.820312 143.988281 328.21875 144.203125 C 328.613281 144.421875 329.007812 144.691406 329.394531 145.011719 C 329.785156 145.335938 330.164062 145.710938 330.539062 146.132812 C 330.914062 146.558594 331.28125 147.035156 331.640625 147.558594 C 331.996094 148.082031 332.34375 148.652344 332.679688 149.269531 C 333.019531 149.886719 333.34375 150.546875 333.65625 151.25 C 333.972656 151.953125 334.269531 152.699219 334.558594 153.484375 C 334.84375 154.269531 335.117188 155.09375 335.375 155.949219 C 335.632812 156.808594 335.871094 157.699219 336.097656 158.625 C 336.324219 159.546875 336.53125 160.496094 336.722656 161.476562 C 336.914062 162.457031 337.085938 163.460938 337.242188 164.484375 C 337.398438 165.511719 337.535156 166.554688 337.652344 167.617188 C 337.769531 168.679688 337.867188 169.757812 337.945312 170.847656 C 338.027344 171.9375 338.085938 173.03125 338.125 174.136719 C 338.164062 175.242188 338.183594 176.351562 338.183594 177.460938 Z M 338.183594 177.460938 " fill-opacity="1" fill-rule="nonzero"/></g><path fill="#e05353" d="M 313.417969 177.460938 C 313.417969 172.46875 313.847656 167.738281 314.535156 163.519531 L 325.199219 178.0625 L 322.535156 210.164062 C 317.289062 206.121094 313.417969 193.039062 313.417969 177.460938 Z M 313.417969 177.460938 " fill-opacity="1" fill-rule="nonzero"/><path fill="#f9cfcf" d="M 322.101562 145.1875 L 325.199219 178.0625 L 314.105469 166.617188 C 315.308594 156.375 318.320312 148.371094 322.101562 145.1875 Z M 322.101562 145.1875 " fill-opacity="1" fill-rule="nonzero"/></svg>