<svg width="326" height="208" viewBox="0 0 326 208" fill="none" xmlns="http://www.w3.org/2000/svg">
<path fill-rule="evenodd" clip-rule="evenodd" d="M262.308 155.6C259.685 160.116 256.731 164.416 253.478 168.467H318.717C322.27 168.467 325.15 171.347 325.15 174.9C325.15 178.453 322.27 181.333 318.717 181.333H241.201C222.929 197.469 198.923 207.261 172.631 207.261C118.328 207.261 73.7805 165.495 69.3603 112.333H35.3834C31.8303 112.333 28.95 109.453 28.95 105.9C28.95 102.347 31.8303 99.4668 35.3833 99.4668H69.0821C69.2545 95.1031 69.6968 90.8088 70.3927 86.6001H62.1889C58.6359 86.6001 55.7556 83.7198 55.7556 80.1667C55.7556 76.6137 58.6359 73.7334 62.1889 73.7334H73.3778C74.7075 69.3129 76.3245 65.0167 78.207 60.8667H47.1778C43.6247 60.8667 40.7444 57.9864 40.7444 54.4333C40.7444 50.8803 43.6247 48 47.1778 48H85.1821C103.579 19.1409 135.87 0 172.631 0C229.864 0 276.261 46.397 276.261 103.631C276.261 108.161 275.97 112.623 275.407 117H301.561C305.114 117 307.994 119.88 307.994 123.433C307.994 126.986 305.114 129.867 301.561 129.867H272.911C271.761 134.277 270.327 138.572 268.63 142.733H282.261C285.814 142.733 288.694 145.613 288.694 149.166C288.694 152.72 285.814 155.6 282.261 155.6H262.308Z" fill="#F5F5F5"/>
<rect x="251.167" y="129.866" width="39.6722" height="12.8667" rx="6.43333" fill="white"/>
<rect x="230.794" y="155.6" width="39.6722" height="12.8667" rx="6.43333" fill="white"/>
<rect x="33.2389" y="61.939" width="53.6111" height="12.8667" rx="6.43333" fill="white"/>
<rect y="86.6001" width="98.6444" height="12.8667" rx="6.43333" fill="white"/>
<path d="M207.636 54C205.948 54 204.33 53.3295 203.136 52.136L195.485 44.4853C190.052 39.0522 182.684 36 175 36V36C167.317 36 159.948 39.0522 154.515 44.4853L146.864 52.136C145.671 53.3295 144.052 54 142.364 54V54C138.849 54 136 56.8492 136 60.364V138C136 144.6 141.4 150 148 150H202C208.6 150 214 144.6 214 138V60.364C214 56.8492 211.151 54 207.636 54V54Z" fill="url(#paint0_linear_905_2600)"/>
<path d="M176.5 135H173.5C171.1 135 169 132.9 169 130.5V73.5C169 71.1 171.1 69 173.5 69H176.5C178.9 69 181 71.1 181 73.5V130.5C181 132.9 178.9 135 176.5 135ZM197.5 135C195.1 135 193 132.9 193 130.5V73.5C193 71.1 195.1 69 197.5 69C199.9 69 202 71.1 202 73.5V130.5C202 132.9 199.9 135 197.5 135ZM152.5 135C150.1 135 148 132.9 148 130.5V73.5C148 71.1 150.1 69 152.5 69C154.9 69 157 71.1 157 73.5V130.5C157 132.9 154.9 135 152.5 135Z" fill="#E14D00"/>
<path d="M136 42H214C217.3 42 220 44.7 220 48V54H130V48C130 44.7 132.7 42 136 42Z" fill="#E14D00"/>
<defs>
<linearGradient id="paint0_linear_905_2600" x1="143" y1="69.5" x2="127.089" y2="127.323" gradientUnits="userSpaceOnUse">
<stop stop-color="#FF7A00"/>
<stop offset="1" stop-color="#FF8B00"/>
</linearGradient>
</defs>
</svg>
