<svg width="850" height="500" viewBox="0 0 850 500" fill="none" xmlns="http://www.w3.org/2000/svg">
<path d="M695 109.31C695.59 105.03 689.55 101.51 685 101.14C682.83 100.97 680.59 101.3 678.54 100.59C674.07 99 672.29 93.3 668 91.48C664.76 90.11 661 91.33 657.89 92.91C654.78 94.49 651.65 96.48 648.14 96.7C645.09 96.9 641.77 95.76 639.14 97.25C637.14 98.36 636.14 100.66 634.27 102.01C632.4 103.36 630.14 103.61 627.91 103.73C625.68 103.85 623.38 103.88 621.35 104.81C619.32 105.74 617.65 107.88 618.07 110.07L695 109.31Z" fill="#EBEBEB"/>
<path d="M522.12 348.91C522.93 347.82 487.72 292.3 487.72 292.3L462.52 288.3L436.58 322.2L425.58 317.04L348.58 347.13L294.58 278.33L286.34 286.9L264.7 254.73L250.8 285.52L229.38 338.61L214.89 327.8L174.65 368.73H559.56C559.56 368.73 521.3 350 522.12 348.91Z" fill="#F5F5F5"/>
<path d="M661.74 367.76C661.74 367.9 546.79 368.02 405.02 368.02C263.25 368.02 148.26 367.9 148.26 367.76C148.26 367.62 263.2 367.5 405 367.5C546.8 367.5 661.74 367.62 661.74 367.76Z" fill="#E0E0E0"/>
<path d="M643.09 382.53C643.09 382.68 618.09 382.8 587.2 382.8C556.31 382.8 531.31 382.68 531.31 382.53C531.31 382.38 556.31 382.27 587.2 382.27C618.09 382.27 643.09 382.39 643.09 382.53Z" fill="#E0E0E0"/>
<path d="M255.41 152.71C256.28 146.46 247.41 141.31 240.81 140.78C237.65 140.52 234.37 141.01 231.37 139.96C224.88 137.7 222.28 129.31 215.95 126.64C211.21 124.64 205.76 126.42 201.16 128.73C196.56 131.04 192 134 186.9 134.28C182.44 134.56 177.59 132.91 173.69 135.09C170.78 136.71 169.26 140.09 166.58 142.04C163.9 143.99 160.58 144.39 157.28 144.57C153.98 144.75 150.65 144.78 147.69 146.13C144.73 147.48 142.27 150.62 142.89 153.83L255.41 152.71Z" fill="#EBEBEB"/>
<path d="M712.59 256.43C713.34 250.99 705.66 246.51 699.89 246.05C697.14 245.82 694.28 246.25 691.68 245.34C686.03 243.34 683.77 236.07 678.26 233.75C674.14 232.01 669.39 233.56 665.4 235.57C661.41 237.58 657.46 240.11 652.99 240.39C649.11 240.64 644.9 239.2 641.5 241.1C638.97 242.51 637.64 245.43 635.31 247.15C632.98 248.87 630.05 249.15 627.22 249.34C624.39 249.53 621.46 249.52 618.88 250.7C616.3 251.88 614.17 254.61 614.7 257.4L712.59 256.43Z" fill="#F5F5F5"/>
<path d="M523.65 85.62C524.18 81.78 518.76 78.62 514.65 78.29C512.7 78.13 510.65 78.43 508.85 77.79C504.85 76.4 503.27 71.25 499.38 69.61C496.47 68.38 493.12 69.48 490.3 70.89C487.48 72.3 484.69 74.1 481.54 74.3C478.81 74.48 475.83 73.46 473.43 74.8C471.65 75.8 470.71 77.8 469.06 79.07C467.347 80.1281 465.363 80.6665 463.35 80.62C461.345 80.5859 459.351 80.925 457.47 81.62C455.65 82.45 454.14 84.38 454.52 86.34L523.65 85.62Z" fill="#F5F5F5"/>
<path d="M803 455C801.6 427.39 802.21 437 800.81 409.38L751.59 381.96L707.34 399.36L699.56 411.97C694.828 419.589 688.384 425.999 680.74 430.69C671.28 436.52 658.52 445.69 653.9 455H803Z" fill="#E0E0E0"/>
<path d="M109.86 387.59L160.4 404.34L219.91 454.97H109.86V387.59Z" fill="#E0E0E0"/>
<path d="M717.17 320.45L727.67 395.24L730.4 395.32C728.66 369.93 726.8 344 717.17 320.45Z" fill="#E0E0E0"/>
<path d="M746.33 317C739 325 736.05 336.09 734.19 346.81C731.55 362.01 731.31 379.96 732.1 395.37L735.94 395.46C734.418 368.885 737.944 342.263 746.33 317Z" fill="#E0E0E0"/>
<path d="M719.1 364.7C718.25 360.99 717.29 357.22 715.18 354.07C712.32 349.8 707.66 347.07 702.98 345.01C698.3 342.95 693.37 341.23 689.14 338.33C693.86 346.07 704.58 348.13 710.03 355.33C712.75 358.93 713.88 363.45 714.94 367.83C717.26 377.39 718.69 385.66 721.01 395.22H724.11C723.085 384.951 721.412 374.758 719.1 364.7Z" fill="#E0E0E0"/>
<path d="M738.74 395.32C738.74 395.32 741.37 365.62 743.32 360.17C745.27 354.72 763.7 339.65 763.52 340.36C763.34 341.07 749.7 357.55 747.75 360.92C745.8 364.29 742.43 395.32 742.43 395.32H738.74Z" fill="#E0E0E0"/>
<path d="M626.93 390.2C626.719 390.238 626.505 390.255 626.29 390.25L624.48 390.3L617.8 390.38L595.8 390.46L573.8 390.38L567.13 390.3L565.31 390.25C565.099 390.254 564.888 390.238 564.68 390.2C564.887 390.156 565.099 390.139 565.31 390.15H567.13L573.8 390.07L595.8 389.99L617.8 390.07L624.48 390.15H626.29C626.505 390.139 626.72 390.155 626.93 390.2Z" fill="#E0E0E0"/>
<path d="M664.7 405C665.345 405.461 665.89 406.048 666.302 406.725C666.714 407.402 666.986 408.156 667.1 408.94C667.321 410.515 667.177 412.119 666.68 413.63C665.583 416.624 663.729 419.284 661.3 421.35C659.17 418.7 659.3 414.76 659.45 412.76C659.74 409.6 662.16 404.07 664.7 405Z" fill="#FF5800"/>
<path d="M663.35 426.8C663.328 425.913 663.542 425.036 663.971 424.259C664.4 423.483 665.028 422.834 665.79 422.38C666.557 421.935 667.405 421.648 668.284 421.536C669.164 421.425 670.057 421.491 670.91 421.73C671.321 421.789 671.714 421.94 672.06 422.17C672.406 422.4 672.696 422.704 672.91 423.06C673.049 423.419 673.09 423.808 673.029 424.188C672.967 424.567 672.805 424.924 672.56 425.22C672.058 425.801 671.413 426.242 670.69 426.5C668.26 427.5 665.69 427.98 663.39 426.8" fill="#FF5800"/>
<path d="M658.48 435.41C658.525 435.204 658.592 435.002 658.68 434.81C658.83 434.39 659.03 433.81 659.28 433.2C659.891 431.401 660.789 429.712 661.94 428.2C663.127 426.693 664.694 425.53 666.48 424.83C667.021 424.626 667.585 424.488 668.16 424.42C668.36 424.42 668.52 424.42 668.63 424.42H668.79C668.021 424.535 667.267 424.733 666.54 425.01C664.8 425.732 663.275 426.889 662.11 428.37C660.98 429.875 660.074 431.535 659.42 433.3C659.15 433.97 658.92 434.51 658.76 434.88C658.677 435.062 658.583 435.239 658.48 435.41Z" fill="#263238"/>
<path d="M663.22 409.35C663.231 409.443 663.231 409.537 663.22 409.63C663.22 409.83 663.19 410.09 663.13 410.41C663.05 411.09 662.92 412.06 662.74 413.27C662.39 415.69 661.86 419.01 661.19 422.68C660.52 426.35 659.84 429.68 659.31 432.02C659.05 433.22 658.83 434.18 658.67 434.84C658.59 435.15 658.52 435.41 658.48 435.6C658.462 435.693 658.432 435.784 658.39 435.87C658.39 435.87 658.39 435.77 658.39 435.59C658.39 435.41 658.48 435.14 658.54 434.82L659.12 431.99C659.6 429.6 660.26 426.3 660.93 422.64C661.6 418.98 662.15 415.64 662.54 413.25C662.74 412.06 662.89 411.1 663.01 410.4C663.06 410.08 663.11 409.82 663.14 409.62C663.156 409.527 663.183 409.436 663.22 409.35Z" fill="#263238"/>
<path d="M658.66 427.85C658.679 425.98 658.252 424.132 657.416 422.46C656.58 420.787 655.357 419.337 653.85 418.23C653.08 417.67 652.02 417.23 651.22 417.72C650.42 418.21 650.37 419.38 650.55 420.31C650.961 422.253 651.942 424.03 653.366 425.414C654.791 426.798 656.596 427.726 658.55 428.08" fill="#FF5800"/>
<path d="M653.75 421.14C653.922 421.237 654.085 421.348 654.24 421.47C654.433 421.601 654.616 421.745 654.79 421.9C655.027 422.095 655.254 422.302 655.47 422.52C655.71 422.77 655.98 423.03 656.24 423.34C656.519 423.658 656.78 423.992 657.02 424.34C657.58 425.171 658.043 426.063 658.4 427C658.737 427.925 658.972 428.884 659.1 429.86C659.147 430.288 659.171 430.719 659.17 431.15C659.191 431.523 659.191 431.897 659.17 432.27C659.149 432.576 659.109 432.88 659.05 433.18C659.016 433.412 658.969 433.643 658.91 433.87C658.869 434.061 658.812 434.248 658.74 434.43C658.69 434.43 658.92 433.61 659.01 432.26C659.031 431.89 659.031 431.52 659.01 431.15C659 430.728 658.967 430.308 658.91 429.89C658.782 428.93 658.547 427.988 658.21 427.08C657.857 426.178 657.408 425.316 656.87 424.51C656.64 424.162 656.389 423.829 656.12 423.51C655.87 423.2 655.61 422.93 655.38 422.68C654.42 421.66 653.72 421.18 653.75 421.14Z" fill="#263238"/>
<path d="M196.77 453.91L197.19 453.86C196.32 440.86 189.79 426.92 185.05 414.73C180.18 402.18 175.61 389.3 164.52 381.68C176.509 405.184 187.274 429.293 196.77 453.91Z" fill="#455A64"/>
<path d="M204.55 387.83C204.55 387.83 204.55 387.89 204.55 388L204.4 388.48L203.78 390.34C203.65 390.74 203.5 391.19 203.33 391.67L202.85 393.28C202.51 394.43 202.08 395.74 201.72 397.21C201.53 397.94 201.32 398.71 201.11 399.51C200.9 400.31 200.73 401.15 200.53 402.02C200.11 403.75 199.77 405.62 199.39 407.59C198.71 411.59 198.12 415.9 197.77 420.51C197.42 425.12 197.4 429.51 197.49 433.51C197.58 435.51 197.63 437.41 197.79 439.18C197.86 440.07 197.9 440.93 197.99 441.75C198.08 442.57 198.16 443.37 198.23 444.12C198.37 445.63 198.59 446.98 198.74 448.18L198.97 449.84C199.06 450.35 199.14 450.84 199.21 451.23C199.34 452.05 199.44 452.7 199.52 453.16L199.59 453.66C199.595 453.717 199.595 453.773 199.59 453.83C199.59 453.83 198.75 450.17 198.02 444.14C197.94 443.39 197.85 442.6 197.76 441.77C197.67 440.94 197.62 440.09 197.54 439.2C197.37 437.42 197.31 435.52 197.22 433.51C197.11 429.51 197.16 425.08 197.48 420.46C197.8 415.84 198.48 411.46 199.13 407.52C199.51 405.52 199.86 403.67 200.29 401.94C200.5 401.07 200.68 400.23 200.89 399.43C201.1 398.63 201.31 397.86 201.51 397.13C201.89 395.66 202.33 394.36 202.68 393.2L203.19 391.6L203.66 390.27C203.94 389.49 204.17 388.87 204.32 388.44C204.4 388.24 204.46 388.08 204.5 387.96L204.55 387.83Z" fill="#455A64"/>
<path d="M202.593 380.632L198.133 396.373C197.685 397.956 198.604 399.603 200.188 400.052L200.852 400.24C202.435 400.689 204.083 399.769 204.531 398.185L208.991 382.445C209.44 380.862 208.52 379.214 206.937 378.766L206.273 378.577C204.689 378.129 203.042 379.049 202.593 380.632Z" fill="#F5F5F5"/>
<path d="M200.86 400.25C200.86 400.25 201.04 400.3 201.39 400.32C201.898 400.361 202.409 400.268 202.87 400.05C203.232 399.886 203.556 399.648 203.821 399.352C204.086 399.056 204.287 398.708 204.41 398.33C204.67 397.43 204.95 396.38 205.28 395.23C205.92 392.92 206.69 390.18 207.54 387.14C207.96 385.62 208.41 384.02 208.88 382.37C208.986 381.965 209.001 381.542 208.925 381.131C208.849 380.72 208.684 380.33 208.44 379.99C208.193 379.64 207.868 379.352 207.49 379.15C207.09 378.955 206.666 378.81 206.23 378.72C205.615 378.554 204.962 378.6 204.376 378.851C203.79 379.101 203.306 379.541 203 380.1C202.819 380.483 202.681 380.886 202.59 381.3C202.12 382.95 201.66 384.55 201.23 386.07C200.36 389.07 199.57 391.83 198.91 394.14C198.74 394.71 198.59 395.26 198.44 395.78C198.269 396.249 198.168 396.741 198.14 397.24C198.147 397.637 198.233 398.029 198.392 398.393C198.552 398.757 198.782 399.086 199.07 399.36C199.446 399.702 199.899 399.949 200.39 400.08L200.77 400.2L200.9 400.25H200.76L200.37 400.15C199.863 400.038 199.392 399.801 199 399.46C198.694 399.18 198.447 398.84 198.275 398.462C198.103 398.084 198.01 397.675 198 397.26C198.026 396.746 198.123 396.237 198.29 395.75C198.43 395.23 198.58 394.68 198.74 394.11C199.39 391.8 200.16 389.11 201.01 386.02C201.43 384.5 201.88 382.9 202.35 381.25C202.444 380.815 202.588 380.392 202.78 379.99C203.005 379.596 203.312 379.255 203.68 378.99C204.062 378.71 204.503 378.521 204.969 378.436C205.435 378.351 205.914 378.373 206.37 378.5C206.822 378.607 207.261 378.761 207.68 378.96C208.078 379.188 208.42 379.502 208.68 379.88C208.947 380.253 209.128 380.68 209.211 381.131C209.294 381.582 209.277 382.046 209.16 382.49C208.69 384.14 208.23 385.74 207.8 387.26L205.48 395.33C205.15 396.48 204.86 397.51 204.57 398.43C204.347 399.074 203.912 399.622 203.336 399.986C202.76 400.349 202.077 400.506 201.4 400.43C201.212 400.396 201.03 400.335 200.86 400.25Z" fill="#263238"/>
<path d="M199.57 453.86C199.16 443.81 199.15 432.75 204.85 424.45C208.08 419.76 212.94 416.37 218.14 414.04C223.411 411.864 228.871 410.177 234.45 409C228.28 417.64 214.31 417.74 208.45 426.56C206.69 429.18 205.87 432.29 205.08 435.34C203.43 441.64 201.99 447.62 200.34 453.93" fill="#455A64"/>
<path d="M155.52 418.56H155.66H156.06C156.41 418.61 156.93 418.65 157.59 418.78C159.46 419.095 161.302 419.557 163.1 420.16C165.775 421.053 168.346 422.229 170.77 423.67C172.19 424.53 173.559 425.472 174.87 426.49C176.285 427.6 177.622 428.806 178.87 430.1C180.11 431.389 181.247 432.773 182.27 434.24C182.79 434.93 183.27 435.66 183.69 436.35C184.11 437.04 184.55 437.76 184.92 438.46C186.281 440.927 187.393 443.523 188.24 446.21C188.822 448.016 189.26 449.865 189.55 451.74C189.67 452.4 189.7 452.92 189.74 453.27V453.67C189.74 453.76 189.74 453.81 189.74 453.81V453.68C189.74 453.57 189.74 453.44 189.68 453.28C189.61 452.93 189.57 452.41 189.43 451.76C189.101 449.898 188.637 448.064 188.04 446.27C187.176 443.604 186.054 441.028 184.69 438.58C184.32 437.88 183.88 437.2 183.46 436.49C183.04 435.78 182.56 435.08 182.05 434.39C181.024 432.941 179.891 431.57 178.66 430.29C177.438 429.007 176.128 427.811 174.74 426.71C173.437 425.694 172.079 424.753 170.67 423.89C166.645 421.46 162.219 419.766 157.6 418.89C156.94 418.74 156.43 418.69 156.08 418.62L155.68 418.55L155.52 418.56Z" fill="#455A64"/>
<path d="M145.606 412.113L145.307 412.735C144.594 414.218 145.218 415.998 146.701 416.712L161.445 423.801C162.928 424.514 164.709 423.89 165.422 422.407L165.721 421.785C166.434 420.302 165.81 418.521 164.327 417.808L149.583 410.718C148.1 410.005 146.319 410.63 145.606 412.113Z" fill="#F5F5F5"/>
<path d="M165.73 421.78C165.73 421.78 165.81 421.61 165.89 421.27C166.043 420.641 165.984 419.98 165.722 419.388C165.46 418.796 165.009 418.308 164.44 418C163.6 417.58 162.61 417.13 161.54 416.61L154 413L149.52 410.86C149.141 410.682 148.728 410.59 148.31 410.59C147.892 410.59 147.479 410.682 147.1 410.86C146.712 411.05 146.371 411.323 146.1 411.66C145.845 412.022 145.631 412.411 145.46 412.82C145.272 413.208 145.175 413.634 145.175 414.065C145.175 414.496 145.272 414.922 145.46 415.31C145.646 415.695 145.912 416.036 146.24 416.31C146.587 416.558 146.963 416.763 147.36 416.92L151.81 419L159.37 422.67L160.9 423.41C161.334 423.661 161.802 423.846 162.29 423.96C162.684 424.021 163.085 424.002 163.471 423.906C163.858 423.81 164.221 423.638 164.54 423.4C164.939 423.09 165.258 422.689 165.47 422.23L165.66 421.87C165.68 421.828 165.704 421.788 165.73 421.75C165.737 421.793 165.737 421.837 165.73 421.88L165.57 422.25C165.371 422.733 165.055 423.159 164.65 423.49C164.323 423.747 163.946 423.935 163.544 424.041C163.142 424.148 162.722 424.171 162.31 424.11C161.806 424.003 161.321 423.821 160.87 423.57L159.33 422.84L151.75 419.23C150.33 418.54 148.83 417.83 147.28 417.09C146.869 416.92 146.48 416.702 146.12 416.44C145.757 416.154 145.46 415.792 145.25 415.38C145.042 414.955 144.935 414.488 144.935 414.015C144.935 413.542 145.042 413.075 145.25 412.65C145.424 412.221 145.649 411.815 145.92 411.44C146.351 410.891 146.956 410.504 147.635 410.342C148.314 410.181 149.028 410.254 149.66 410.55L154.12 412.7L161.68 416.37C162.75 416.89 163.68 417.37 164.58 417.79C164.94 418 165.252 418.283 165.497 418.62C165.741 418.958 165.913 419.343 166 419.75C166.142 420.253 166.142 420.786 166 421.29C165.938 421.467 165.846 421.633 165.73 421.78Z" fill="#263238"/>
<path d="M738.2 188.94C739.178 188.684 740.192 188.596 741.2 188.68C742.207 188.599 743.221 188.687 744.2 188.94C743.221 189.193 742.207 189.281 741.2 189.2C740.192 189.284 739.178 189.196 738.2 188.94Z" fill="#263238"/>
<path d="M714.22 188.94C718.212 188.593 722.227 188.593 726.22 188.94C722.227 189.287 718.212 189.287 714.22 188.94Z" fill="#263238"/>
<path d="M690.25 188.94C694.242 188.592 698.257 188.592 702.25 188.94C698.257 189.288 694.242 189.288 690.25 188.94Z" fill="#263238"/>
<path d="M666.27 188.94C670.262 188.593 674.277 188.593 678.27 188.94C674.277 189.287 670.262 189.287 666.27 188.94Z" fill="#263238"/>
<path d="M642.3 188.94C646.292 188.592 650.307 188.592 654.3 188.94C650.307 189.288 646.292 189.288 642.3 188.94Z" fill="#263238"/>
<path d="M618.34 188.41C620.341 188.353 622.344 188.407 624.34 188.57C626.346 188.558 628.351 188.681 630.34 188.94C628.351 189.202 626.34 189.252 624.34 189.09C622.32 189.105 620.305 188.877 618.34 188.41Z" fill="#263238"/>
<path d="M597.14 178.71C597.27 178.6 598.93 180.71 601.6 182.64C604.27 184.57 606.76 185.57 606.69 185.73C606.102 185.645 605.534 185.459 605.01 185.18C603.697 184.609 602.45 183.898 601.29 183.06C599.599 181.939 598.181 180.452 597.14 178.71Z" fill="#263238"/>
<path d="M590.59 156.05C590.72 156.05 590.89 158.72 591.3 161.99C591.71 165.26 592.3 167.88 592.12 167.92C591.386 166.044 590.934 164.069 590.78 162.06C590.436 160.075 590.372 158.052 590.59 156.05Z" fill="#263238"/>
<path d="M581.86 134.22C583.349 135.581 584.614 137.167 585.61 138.92C586.745 140.591 587.593 142.44 588.12 144.39C587.98 144.45 586.91 141.99 585.17 139.19C583.43 136.39 581.74 134.32 581.86 134.22Z" fill="#263238"/>
<path d="M562.18 121.05C564.159 121.419 566.069 122.093 567.84 123.05C569.687 123.859 571.4 124.945 572.92 126.27C572.84 126.4 570.58 124.96 567.62 123.52C564.66 122.08 562.13 121.19 562.18 121.05Z" fill="#263238"/>
<path d="M538.46 120.13C540.361 119.459 542.355 119.084 544.37 119.02C545.789 118.933 547.211 118.933 548.63 119.02C549.218 118.998 549.807 119.056 550.38 119.19C549.812 119.353 549.22 119.42 548.63 119.39C547.54 119.39 546.05 119.46 544.41 119.59C541.13 119.78 538.49 120.28 538.46 120.13Z" fill="#263238"/>
<path d="M517.63 131.34C518.861 129.739 520.344 128.348 522.02 127.22C523.589 125.949 525.351 124.936 527.24 124.22C527.31 124.36 524.97 125.67 522.33 127.63C519.69 129.59 517.74 131.45 517.63 131.34Z" fill="#263238"/>
<path d="M507.16 152.43C507.313 148.385 508.508 144.448 510.63 141C510.77 141.07 509.63 143.48 508.63 146.64C507.63 149.8 507.32 152.45 507.16 152.43Z" fill="#263238"/>
<path d="M506.61 176.39C506.383 174.399 506.326 172.391 506.44 170.39C506.38 168.384 506.497 166.376 506.79 164.39C507.017 166.382 507.074 168.389 506.96 170.39C507.02 172.396 506.903 174.404 506.61 176.39Z" fill="#263238"/>
<path d="M506.27 200.36C506.035 198.369 505.975 196.362 506.09 194.36C506.035 192.354 506.152 190.346 506.44 188.36C506.675 190.351 506.735 192.359 506.62 194.36C506.674 196.366 506.557 198.374 506.27 200.36Z" fill="#263238"/>
<path d="M505.92 224.33C505.692 222.339 505.635 220.331 505.75 218.33C505.69 216.324 505.807 214.316 506.1 212.33C506.328 214.322 506.385 216.329 506.27 218.33C506.331 220.336 506.214 222.344 505.92 224.33Z" fill="#263238"/>
<path d="M499.31 246.93C499.18 246.84 500.69 244.62 502.13 241.66C503.57 238.7 504.36 236.15 504.51 236.19C504.198 238.185 503.549 240.113 502.59 241.89C501.784 243.741 500.676 245.444 499.31 246.93Z" fill="#263238"/>
<path d="M480.51 261.24C480.46 261.1 482.95 260.1 485.83 258.51C488.71 256.92 490.89 255.36 490.98 255.51C489.541 256.922 487.887 258.096 486.08 258.99C484.352 260.026 482.473 260.785 480.51 261.24Z" fill="#263238"/>
<path d="M456.87 264C458.86 263.761 460.866 263.677 462.87 263.75H465.2H467.1C467.689 263.701 468.282 263.738 468.86 263.86C468.293 264.035 467.703 264.123 467.11 264.12L465.2 264.26C464.49 264.26 463.7 264.26 462.87 264.26C460.866 264.364 458.857 264.277 456.87 264Z" fill="#263238"/>
<path d="M434.22 257.12C434.31 256.99 436.58 258.41 439.57 259.78C442.56 261.15 445.1 262 445.06 262.15C443.069 261.821 441.142 261.179 439.35 260.25C437.489 259.477 435.759 258.421 434.22 257.12Z" fill="#263238"/>
<path d="M419.27 238.87C419.42 238.82 420.42 241.31 422.09 244.14C423.76 246.97 425.42 249.07 425.3 249.14C423.827 247.761 422.591 246.15 421.64 244.37C420.551 242.68 419.75 240.822 419.27 238.87Z" fill="#263238"/>
<path d="M417 215.17C417.258 217.159 417.345 219.166 417.26 221.17C417.344 223.174 417.257 225.181 417 227.17C416.737 225.182 416.65 223.174 416.74 221.17C416.649 219.166 416.736 217.158 417 215.17Z" fill="#263238"/>
<path d="M417 191.2C417.258 193.189 417.345 195.196 417.26 197.2C417.345 199.204 417.258 201.211 417 203.2C416.736 201.212 416.649 199.204 416.74 197.2C416.649 195.196 416.736 193.188 417 191.2Z" fill="#263238"/>
<path d="M417 167.22C417.257 169.209 417.344 171.216 417.26 173.22C417.345 175.224 417.258 177.231 417 179.22C416.736 177.232 416.649 175.224 416.74 173.22C416.65 171.216 416.737 169.209 417 167.22Z" fill="#263238"/>
<path d="M417 143.25C417.258 145.239 417.345 147.246 417.26 149.25C417.344 151.254 417.257 153.261 417 155.25C416.737 153.262 416.65 151.254 416.74 149.25C416.649 147.246 416.736 145.238 417 143.25Z" fill="#263238"/>
<path d="M417 119.27C417.159 119.843 417.236 120.435 417.23 121.03C417.28 122.11 417.31 123.61 417.31 125.27C417.395 127.274 417.308 129.281 417.05 131.27C416.786 129.282 416.7 127.274 416.79 125.27C416.79 123.61 416.79 122.11 416.86 121.03C416.822 120.44 416.869 119.847 417 119.27Z" fill="#263238"/>
<path d="M407.9 97.55C409.417 98.8829 410.707 100.453 411.72 102.2C412.867 103.862 413.729 105.704 414.27 107.65C414.12 107.71 413.04 105.25 411.27 102.48C409.5 99.71 407.78 97.65 407.9 97.55Z" fill="#263238"/>
<path d="M387.76 85.16C391.739 85.8795 395.501 87.4972 398.76 89.89C398.68 90.02 396.36 88.67 393.34 87.38C390.32 86.09 387.72 85.31 387.76 85.16Z" fill="#263238"/>
<path d="M364 84.3801C365.914 83.7463 367.914 83.4091 369.93 83.3801C371.6 83.2901 373.1 83.3801 374.19 83.3801C374.779 83.357 375.369 83.4211 375.94 83.5701C375.369 83.7178 374.779 83.7785 374.19 83.7501C373.1 83.8101 371.6 83.7501 369.96 83.8901C366.64 84.1001 364 84.5301 364 84.3801Z" fill="#263238"/>
<path d="M342.85 95.0501C345.535 92.0358 348.888 89.6902 352.64 88.2001C352.71 88.3401 350.34 89.5901 347.64 91.4801C344.94 93.3701 343 95.1601 342.85 95.0501Z" fill="#263238"/>
<path d="M331.76 115.82C331.815 113.801 332.214 111.805 332.94 109.92C333.505 107.982 334.398 106.156 335.58 104.52C335.72 104.59 334.48 106.97 333.43 110.09C332.38 113.21 331.91 115.84 331.76 115.82Z" fill="#263238"/>
<path d="M331.35 139.77C331.086 137.782 330.999 135.774 331.09 133.77C330.999 131.766 331.086 129.758 331.35 127.77C331.608 129.759 331.695 131.766 331.61 133.77C331.695 135.774 331.608 137.781 331.35 139.77Z" fill="#263238"/>
<path d="M331.35 163.75C331.086 161.762 330.999 159.754 331.09 157.75C331 155.746 331.087 153.738 331.35 151.75C331.607 153.739 331.694 155.746 331.61 157.75C331.695 159.754 331.608 161.761 331.35 163.75Z" fill="#263238"/>
<path d="M330.74 187.69C330.59 187.69 331.04 185.01 331.08 181.69C330.995 179.686 331.085 177.678 331.35 175.69C331.607 177.679 331.691 179.687 331.6 181.69C331.661 183.725 331.37 185.755 330.74 187.69Z" fill="#263238"/>
<path d="M319 208.1C318.9 207.98 320.87 206.16 323 203.61C325.13 201.06 326.48 198.78 326.62 198.86C324.872 202.515 322.255 205.688 319 208.1Z" fill="#263238"/>
<path d="M297.58 218.17C297.58 218.02 300.19 217.54 303.34 216.57C306.49 215.6 308.94 214.57 309.01 214.67C307.304 215.748 305.442 216.558 303.49 217.07C301.589 217.743 299.595 218.114 297.58 218.17Z" fill="#263238"/>
<path d="M273.63 219C275.617 218.72 277.624 218.606 279.63 218.66C281.631 218.54 283.639 218.6 285.63 218.84C283.643 219.12 281.636 219.234 279.63 219.18C277.629 219.3 275.62 219.24 273.63 219Z" fill="#263238"/>
<path d="M249.66 219.31C251.646 219.024 253.654 218.91 255.66 218.97C257.661 218.856 259.668 218.913 261.66 219.14C259.674 219.433 257.666 219.55 255.66 219.49C253.658 219.598 251.651 219.538 249.66 219.31Z" fill="#263238"/>
<path d="M225.69 219.65C227.676 219.357 229.684 219.24 231.69 219.3C233.691 219.186 235.699 219.246 237.69 219.48C235.704 219.767 233.696 219.88 231.69 219.82C229.689 219.934 227.681 219.877 225.69 219.65Z" fill="#263238"/>
<path d="M201.72 220C203.706 219.714 205.714 219.6 207.72 219.66C209.721 219.545 211.729 219.602 213.72 219.83C211.734 220.124 209.726 220.241 207.72 220.18C205.719 220.295 203.711 220.234 201.72 220Z" fill="#263238"/>
<path d="M183.66 220.23C184.637 219.967 185.65 219.866 186.66 219.93C187.665 219.834 188.679 219.909 189.66 220.15C188.684 220.418 187.67 220.519 186.66 220.45C185.655 220.556 184.639 220.482 183.66 220.23Z" fill="#263238"/>
<path d="M383.1 68.6901C383.102 67.5929 382.851 66.51 382.366 65.5257C381.882 64.5414 381.176 63.6822 380.305 63.0151C379.434 62.3479 378.421 61.8908 377.344 61.6793C376.268 61.4678 375.157 61.5076 374.098 61.7956C373.04 62.0836 372.062 62.612 371.241 63.3398C370.42 64.0676 369.777 64.975 369.364 65.9915C368.951 67.0079 368.779 68.106 368.859 69.2002C368.94 70.2944 369.272 71.3552 369.83 72.3001C370.11 72.7601 370.45 73.0901 370.83 73.5801L375 79.08C375.12 79.2376 375.275 79.3653 375.453 79.4532C375.631 79.5411 375.827 79.5868 376.025 79.5868C376.223 79.5868 376.419 79.5411 376.597 79.4532C376.774 79.3653 376.93 79.2376 377.05 79.08L381.12 73.6901C381.476 73.2504 381.81 72.7931 382.12 72.32C382.766 71.2197 383.104 69.966 383.1 68.6901ZM376 71.8001C375.379 71.8001 374.772 71.6159 374.255 71.2709C373.739 70.9258 373.337 70.4354 373.099 69.8617C372.861 69.2879 372.799 68.6566 372.92 68.0475C373.041 67.4384 373.341 66.8789 373.78 66.4397C374.219 66.0006 374.778 65.7015 375.387 65.5804C375.996 65.4592 376.628 65.5214 377.202 65.7591C377.775 65.9967 378.266 66.3992 378.611 66.9156C378.956 67.4319 379.14 68.039 379.14 68.6601C379.14 69.4928 378.809 70.2915 378.22 70.8804C377.631 71.4692 376.833 71.8001 376 71.8001Z" fill="#FF5800"/>
<path d="M653.42 174.25C653.421 173.154 653.169 172.072 652.685 171.089C652.2 170.106 651.495 169.248 650.625 168.582C649.755 167.915 648.743 167.459 647.667 167.247C646.592 167.035 645.482 167.074 644.424 167.361C643.367 167.648 642.389 168.174 641.568 168.9C640.747 169.626 640.104 170.532 639.689 171.546C639.275 172.561 639.1 173.658 639.178 174.751C639.256 175.844 639.585 176.905 640.14 177.85C640.41 178.31 640.75 178.64 641.14 179.12L645.28 184.6C645.4 184.75 645.552 184.871 645.725 184.955C645.898 185.038 646.088 185.081 646.28 185.081C646.472 185.081 646.662 185.038 646.835 184.955C647.008 184.871 647.16 184.75 647.28 184.6L651.35 179.21C651.706 178.77 652.04 178.313 652.35 177.84C653.021 176.76 653.39 175.521 653.42 174.25ZM646.29 177.35C645.668 177.352 645.06 177.17 644.543 176.826C644.025 176.482 643.621 175.992 643.382 175.419C643.143 174.845 643.079 174.213 643.199 173.604C643.319 172.994 643.617 172.433 644.056 171.993C644.495 171.553 645.054 171.253 645.664 171.131C646.273 171.009 646.905 171.071 647.479 171.308C648.054 171.546 648.545 171.948 648.89 172.465C649.236 172.981 649.42 173.589 649.42 174.21C649.421 174.622 649.341 175.03 649.185 175.411C649.028 175.792 648.797 176.138 648.507 176.43C648.216 176.722 647.87 176.953 647.49 177.111C647.11 177.269 646.702 177.35 646.29 177.35Z" fill="#FF5800"/>
<path d="M553.23 103.65C553.234 102.552 552.984 101.469 552.5 100.484C552.017 99.4983 551.312 98.638 550.441 97.9697C549.571 97.3014 548.557 96.8431 547.481 96.6306C546.404 96.418 545.292 96.457 544.233 96.7443C543.174 97.0317 542.195 97.5598 541.373 98.2874C540.552 99.015 539.909 99.9225 539.495 100.939C539.082 101.956 538.909 103.054 538.989 104.149C539.07 105.244 539.402 106.305 539.96 107.25C540.23 107.71 540.57 108.04 540.96 108.53L545.1 114.01C545.22 114.168 545.375 114.295 545.553 114.383C545.731 114.471 545.927 114.517 546.125 114.517C546.323 114.517 546.519 114.471 546.697 114.383C546.874 114.295 547.03 114.168 547.15 114.01L551.22 108.62C551.576 108.18 551.91 107.723 552.22 107.25C552.872 106.162 553.22 104.919 553.23 103.65ZM546.11 106.75C545.488 106.752 544.88 106.57 544.363 106.226C543.845 105.882 543.441 105.392 543.202 104.819C542.963 104.245 542.899 103.613 543.019 103.004C543.139 102.394 543.437 101.833 543.876 101.393C544.315 100.953 544.874 100.653 545.484 100.531C546.093 100.409 546.725 100.471 547.299 100.708C547.874 100.946 548.365 101.348 548.71 101.865C549.056 102.381 549.24 102.989 549.24 103.61C549.24 104.441 548.91 105.238 548.324 105.827C547.737 106.415 546.941 106.747 546.11 106.75Z" fill="#455A64"/>
<path d="M259.38 198.55C259.389 197.191 259.083 195.849 258.487 194.628C257.891 193.407 257.02 192.341 255.944 191.512C254.867 190.683 253.613 190.115 252.28 189.851C250.947 189.587 249.572 189.636 248.26 189.992C246.949 190.348 245.738 191.003 244.722 191.905C243.706 192.806 242.912 193.931 242.403 195.191C241.893 196.45 241.682 197.811 241.786 199.165C241.889 200.52 242.305 201.833 243 203C243.369 203.544 243.767 204.068 244.19 204.57L249.3 211.35C249.447 211.549 249.638 211.71 249.859 211.821C250.079 211.932 250.323 211.99 250.57 211.99C250.817 211.99 251.06 211.932 251.281 211.821C251.502 211.71 251.693 211.549 251.84 211.35L256.84 204.69C257.299 204.148 257.726 203.581 258.12 202.99C258.929 201.649 259.364 200.116 259.38 198.55ZM250.56 202.39C249.793 202.39 249.042 202.163 248.404 201.736C247.766 201.31 247.269 200.704 246.975 199.995C246.682 199.286 246.605 198.506 246.754 197.753C246.904 197 247.274 196.309 247.816 195.767C248.359 195.224 249.05 194.854 249.803 194.705C250.556 194.555 251.336 194.632 252.045 194.925C252.754 195.219 253.36 195.716 253.786 196.354C254.212 196.993 254.44 197.743 254.44 198.51C254.44 199.539 254.031 200.526 253.304 201.254C252.576 201.981 251.589 202.39 250.56 202.39Z" fill="#455A64"/>
<path d="M419 171.11C413.526 170.815 408.07 171.953 403.17 174.41C397.94 176.85 393 180.46 390.4 185.61C387.8 190.76 388.09 197.61 392.19 201.69C384.31 203.78 378.38 210.79 375.9 218.55C373.42 226.31 373.95 234.75 375.52 242.75C376.27 246.53 377.6 250.75 381.09 252.37C383.33 253.37 386.09 253.17 388.19 254.46C390.29 255.75 391.25 258.11 392.58 260.12C393.851 262.043 395.499 263.688 397.425 264.954C399.351 266.22 401.514 267.081 403.783 267.485C406.052 267.889 408.38 267.828 410.624 267.304C412.869 266.781 414.984 265.806 416.84 264.44L433 178.56C429.83 174.12 424.43 171.57 419 171.11Z" fill="#455A64"/>
<path d="M429.86 180.36C429.526 180.835 429.155 181.283 428.75 181.7C428 182.54 426.91 183.7 425.53 185.2C421.989 189.07 418.016 192.523 413.69 195.49C409.323 198.465 404.325 200.389 399.09 201.11C397.508 201.307 395.909 201.341 394.32 201.21C393.76 201.21 393.32 201.09 393.03 201.05C392.879 201.039 392.731 201.005 392.59 200.95C392.59 200.95 393.22 200.95 394.33 201.01C395.905 201.062 397.481 200.975 399.04 200.75C404.186 199.93 409.089 197.987 413.4 195.06C417.687 192.117 421.664 188.746 425.27 185L428.6 181.61C428.986 181.16 429.407 180.742 429.86 180.36Z" fill="#263238"/>
<path d="M398.36 206.09C398.3 206.09 398.04 205.69 397.82 204.93C397.563 203.917 397.512 202.863 397.67 201.83C397.835 200.798 398.209 199.811 398.77 198.93C399.21 198.26 399.59 197.93 399.64 197.93C398.976 199.166 398.488 200.489 398.19 201.86C398.044 203.271 398.101 204.695 398.36 206.09Z" fill="#263238"/>
<path d="M403.8 209.28C403.892 209.427 403.966 209.585 404.02 209.75C404.15 210.06 404.35 210.52 404.56 211.14C405.18 212.859 405.691 214.616 406.09 216.4C407.49 222.318 407.49 228.482 406.09 234.4C404.609 240.323 401.362 245.655 396.78 249.69C395.395 250.894 393.874 251.935 392.25 252.79C391.69 253.11 391.25 253.28 390.91 253.43C390.753 253.505 390.589 253.565 390.42 253.61C390.981 253.245 391.562 252.911 392.16 252.61C393.724 251.698 395.192 250.629 396.54 249.42C400.972 245.363 404.118 240.096 405.59 234.27C406.973 228.434 407.031 222.362 405.76 216.5C405.3 214.24 404.76 212.5 404.41 211.22C404.165 210.587 403.961 209.939 403.8 209.28Z" fill="#263238"/>
<path d="M406.58 222.81C406.165 222.765 405.756 222.674 405.36 222.54C404.58 222.33 403.45 222.05 402.05 221.72C394.764 220.009 387.274 219.336 379.8 219.72C378.37 219.79 377.21 219.87 376.41 219.94C375.995 219.988 375.575 219.988 375.16 219.94C375.559 219.81 375.972 219.726 376.39 219.69C377.18 219.56 378.34 219.43 379.78 219.31C387.293 218.711 394.853 219.387 402.14 221.31C403.54 221.68 404.65 222.02 405.41 222.31C405.82 222.426 406.213 222.594 406.58 222.81Z" fill="#263238"/>
<g opacity="0.3">
<path d="M393.29 201C398.73 204.5 406.07 204.1 411.83 201.15C417.59 198.2 421.83 192.73 424.06 186.66C416.53 195.36 405.35 201.67 393.29 201Z" fill="black"/>
</g>
<g opacity="0.3">
<path d="M390.38 253.59C392.641 253.431 394.838 252.775 396.816 251.669C398.793 250.563 400.502 249.033 401.82 247.19C404.185 243.443 405.618 239.184 406 234.77C404.549 238.546 402.713 242.161 400.52 245.56C399.254 247.163 397.807 248.616 396.21 249.89C394.421 251.356 392.46 252.598 390.37 253.59" fill="black"/>
</g>
<path d="M396 220.23C396.366 221.056 396.605 221.933 396.71 222.83C396.88 223.65 397.07 224.6 397.36 225.66C397.536 226.261 397.536 226.899 397.36 227.5C397.262 227.852 397.052 228.163 396.761 228.385C396.471 228.607 396.116 228.728 395.75 228.73C395.392 228.681 395.057 228.529 394.783 228.293C394.51 228.057 394.311 227.747 394.21 227.4C394.04 226.802 394.04 226.168 394.21 225.57C394.5 224.48 394.81 223.57 395.06 222.76C395.283 221.89 395.588 221.043 395.97 220.23C395.87 221.126 395.683 222.01 395.41 222.87C395.19 223.72 394.94 224.66 394.68 225.67C394.541 226.184 394.541 226.726 394.68 227.24C394.75 227.492 394.89 227.719 395.082 227.896C395.275 228.072 395.513 228.192 395.77 228.24C396.024 228.233 396.269 228.143 396.467 227.984C396.666 227.825 396.807 227.606 396.87 227.36C397.005 226.849 397.005 226.311 396.87 225.8C396.632 224.855 396.448 223.896 396.32 222.93C396.16 221.25 396 220.25 396 220.23Z" fill="#263238"/>
<path d="M419.67 188.09C418.566 187.537 417.497 186.916 416.47 186.23C413.948 184.66 411.333 183.244 408.64 181.99C405.953 180.743 403.121 179.836 400.21 179.29C397.97 178.88 396.55 178.87 396.55 178.78C396.879 178.715 397.216 178.695 397.55 178.72C398.457 178.724 399.362 178.791 400.26 178.92C403.236 179.369 406.132 180.241 408.86 181.51C411.578 182.768 414.19 184.242 416.67 185.92C417.62 186.55 418.38 187.08 418.9 187.46C419.182 187.637 419.441 187.849 419.67 188.09Z" fill="#263238"/>
<path d="M418.17 187.42C418.23 187.42 418.28 187.76 418 188.19C417.81 188.473 417.541 188.694 417.226 188.826C416.912 188.958 416.565 188.994 416.23 188.93L415.9 188.87L416.05 188.56C416.34 187.98 416.846 187.538 417.46 187.33C417.92 187.18 418.22 187.24 418.23 187.33C418.24 187.42 417.97 187.49 417.61 187.7C417.143 187.957 416.764 188.347 416.52 188.82L416.35 188.45C416.6 188.491 416.856 188.471 417.097 188.391C417.337 188.311 417.555 188.173 417.73 187.99C418 187.68 418.09 187.41 418.17 187.42Z" fill="#263238"/>
<path d="M502.64 185.5C502.64 185.5 498.64 180.24 498.64 178.11L500.3 165.73C500.3 165.73 501.02 164.48 502.14 166.55C503.14 168.45 502.58 171.39 502.58 171.39L503.28 174.3L504.79 172.1L506.49 163.83C506.49 163.83 507.57 157.83 508.49 158.48C509.41 159.13 509.69 160.84 509.22 163.42C508.75 166 508.15 169.27 508.15 169.27C508.15 169.27 508.03 170.27 508.99 168.58C509.95 166.89 510.99 159.65 511.38 158.68C511.77 157.71 511.89 155.13 513.38 155.27C514.87 155.41 514 158.7 514 158.7L512.58 169.36C512.58 169.36 513.96 165.07 514.22 164.36C514.48 163.65 514.89 161.29 515.39 160.01C515.89 158.73 516.63 158.07 517.28 158.15C517.591 158.168 517.884 158.304 518.098 158.531C518.312 158.758 518.431 159.058 518.43 159.37L516.25 168.49C516.25 168.49 515.04 172.64 515.12 172.91C515.2 173.18 516.73 171.18 516.73 171.18L517.91 168.18C517.91 168.18 518.91 163.99 520.01 163.87C521.11 163.75 521.17 164.6 521.17 164.6L519.32 172.26L515.93 181L512.72 187.57C512.72 187.57 508.24 186.87 508.07 187.1C507.9 187.33 502.64 185.5 502.64 185.5Z" fill="#FFBE9D"/>
<path d="M510.58 181.81C510.223 181.196 509.915 180.554 509.66 179.89C509.038 178.334 507.853 177.07 506.34 176.35C505.599 176.026 504.771 175.963 503.99 176.17L503.73 176.24L503.67 175.96C503.38 174.69 502.98 173.52 502.8 172.72C502.636 172.297 502.564 171.843 502.59 171.39C502.798 171.782 502.966 172.194 503.09 172.62C503.506 173.691 503.866 174.782 504.17 175.89L503.84 175.68C504.731 175.418 505.686 175.475 506.54 175.84C507.464 176.226 508.268 176.851 508.87 177.65C509.337 178.292 509.72 178.991 510.01 179.73C510.318 180.385 510.511 181.089 510.58 181.81Z" fill="#EB996E"/>
<path d="M468 179.51L490.15 212.62L500.15 183.76L513.77 187.11C513.77 187.11 508.21 225.91 506.09 229.76C503.97 233.61 497.32 239.17 489.09 238.05C480.86 236.93 464.47 214.86 464.47 214.86L468 179.51Z" fill="#FF5800"/>
<path d="M492.88 225.91C493.378 221.069 492.327 216.196 489.88 211.99C490.401 212.489 490.828 213.079 491.14 213.73C492.01 215.247 492.637 216.89 493 218.6C493.378 220.306 493.492 222.059 493.34 223.8C493.312 224.525 493.156 225.239 492.88 225.91Z" fill="#263238"/>
<g opacity="0.3">
<path d="M469.67 221.9C470.394 221.516 471.016 220.967 471.485 220.295C471.955 219.624 472.258 218.851 472.37 218.04C472.585 216.419 472.534 214.774 472.22 213.17C471.33 206.64 470.08 199.84 469.22 193.31L469.57 221.22" fill="black"/>
</g>
<g opacity="0.3">
<path d="M493.11 224.3C493.549 224.219 493.962 224.03 494.311 223.751C494.66 223.472 494.934 223.111 495.11 222.7C495.457 221.866 495.577 220.956 495.46 220.06C495.302 218.373 494.718 216.754 493.763 215.355C492.808 213.956 491.513 212.822 490 212.06C492.181 215.752 493.251 219.995 493.08 224.28" fill="black"/>
</g>
<path d="M493.46 395.23L506.12 424.05L542.32 408.81C540.65 405.45 517.55 407.16 517.55 407.16L509.55 387.59L493.46 395.23Z" fill="#FF5800"/>
<g opacity="0.6">
<path d="M507.14 409.55C506.837 409.804 506.638 410.16 506.581 410.551C506.524 410.942 506.613 411.34 506.83 411.67C507.073 411.981 507.426 412.187 507.817 412.246C508.207 412.306 508.605 412.214 508.93 411.99C509.249 411.721 509.458 411.343 509.515 410.929C509.572 410.516 509.474 410.096 509.24 409.75C508.955 409.452 508.567 409.275 508.155 409.257C507.743 409.238 507.34 409.379 507.03 409.65" fill="white"/>
</g>
<g opacity="0.6">
<path d="M506.12 424.05L504.98 421.05L540.11 407.55C540.11 407.55 542.02 407.55 542.32 408.78L506.12 424.05Z" fill="white"/>
</g>
<path d="M518.23 407.25C518.3 407.43 517.45 407.89 516.82 408.82C516.19 409.75 516.04 410.69 515.82 410.69C515.6 410.69 515.46 409.56 516.25 408.44C517.04 407.32 518.2 407.08 518.23 407.25Z" fill="#263238"/>
<path d="M523.66 406.9C523.78 407.05 523.14 407.67 522.85 408.67C522.56 409.67 522.73 410.54 522.55 410.6C522.37 410.66 521.83 409.72 522.21 408.48C522.59 407.24 523.59 406.73 523.66 406.9Z" fill="#263238"/>
<path d="M527.58 410.39C527.44 410.49 526.82 409.71 526.87 408.56C526.92 407.41 527.58 406.67 527.71 406.78C527.84 406.89 527.56 407.63 527.53 408.58C527.5 409.53 527.75 410.3 527.58 410.39Z" fill="#263238"/>
<path d="M515.91 402.53C515.91 402.72 514.99 402.82 514.02 403.31C513.05 403.8 512.4 404.44 512.24 404.31C512.08 404.18 512.57 403.25 513.72 402.69C514.87 402.13 515.93 402.36 515.91 402.53Z" fill="#263238"/>
<path d="M366.6 423.5L365.05 408.11L377.89 391.94L362.15 381.82L361.73 382.44L353.73 394.52L343.34 402.72L359.84 429.83L375.91 428.75C375.91 428.75 374.47 425 366.6 423.5Z" fill="#FF5800"/>
<g opacity="0.6">
<path d="M343.32 402.72L359.82 429.83L375.89 428.75L373.92 426.46L360.8 426.62L345.53 400.98L343.32 402.72Z" fill="white"/>
</g>
<path d="M366 416.44C365.9 416.61 364.93 416.15 363.69 416.27C362.45 416.39 361.57 416.96 361.44 416.81C361.31 416.66 362.12 415.68 363.64 415.56C365.16 415.44 366.16 416.31 366 416.44Z" fill="#263238"/>
<path d="M365.51 412.63C365.35 412.76 364.57 411.86 363.28 411.7C361.99 411.54 360.99 412.19 360.88 412.03C360.77 411.87 360.99 411.68 361.42 411.4C362.004 411.045 362.692 410.901 363.37 410.99C364.049 411.078 364.677 411.396 365.15 411.89C365.49 412.27 365.58 412.58 365.51 412.63Z" fill="#263238"/>
<path d="M365.28 407.71C365.11 407.82 364.5 406.92 363.36 406.61C362.22 406.3 361.23 406.73 361.14 406.56C361.05 406.39 361.28 406.24 361.71 406.05C362.291 405.803 362.939 405.761 363.548 405.929C364.156 406.098 364.689 406.469 365.06 406.98C365.33 407.37 365.36 407.67 365.28 407.71Z" fill="#263238"/>
<path d="M369.33 403.62C369.14 403.7 368.63 402.81 367.59 402.24C366.55 401.67 365.59 401.63 365.52 401.43C365.45 401.23 366.68 400.89 367.94 401.62C369.2 402.35 369.52 403.58 369.33 403.62Z" fill="#263238"/>
<path d="M371.2 400.18C371.12 400.24 370.55 399.63 369.69 398.59C369.2 397.99 368.69 397.38 368.2 396.75C367.86 396.383 367.58 395.964 367.37 395.51C367.301 395.353 367.265 395.182 367.265 395.01C367.265 394.838 367.301 394.668 367.37 394.51C367.452 394.333 367.583 394.184 367.749 394.081C367.914 393.978 368.105 393.926 368.3 393.93C368.875 394.001 369.417 394.238 369.86 394.61C370.931 395.42 371.662 396.6 371.91 397.92C372.125 398.661 372.046 399.456 371.69 400.14C371.638 399.432 371.548 398.728 371.42 398.03C371.227 397.302 370.887 396.621 370.42 396.03C370.147 395.694 369.831 395.395 369.48 395.14C369.146 394.872 368.751 394.69 368.33 394.61C368.269 394.606 368.208 394.619 368.154 394.65C368.101 394.68 368.058 394.725 368.03 394.78C367.98 394.926 367.98 395.084 368.03 395.23C368.218 395.618 368.453 395.981 368.73 396.31C369.19 396.97 369.65 397.61 370.1 398.24C370.573 398.82 370.945 399.476 371.2 400.18Z" fill="#263238"/>
<path d="M371.81 400.62C371.73 400.62 371.74 399.77 372.54 398.75C373.087 398.064 373.844 397.577 374.695 397.364C375.547 397.15 376.444 397.223 377.25 397.57C377.337 397.633 377.409 397.716 377.459 397.811C377.51 397.906 377.537 398.012 377.54 398.12C377.538 398.308 377.482 398.492 377.38 398.65C377.226 398.854 377.044 399.036 376.84 399.19C375.92 399.931 374.831 400.433 373.67 400.65C373.019 400.854 372.321 400.854 371.67 400.65C371.67 400.53 372.43 400.54 373.56 400.21C374.597 399.912 375.561 399.401 376.39 398.71C376.54 398.598 376.674 398.467 376.79 398.32C376.85 398.17 376.79 398.21 376.79 398.17C376.64 398.095 376.477 398.047 376.31 398.03C376.112 397.998 375.911 397.982 375.71 397.98C375.324 397.971 374.939 398.025 374.57 398.14C373.937 398.325 373.362 398.669 372.9 399.14C372.11 399.9 371.92 400.66 371.81 400.62Z" fill="#263238"/>
<g opacity="0.6">
<path d="M356.11 401.38C356.135 401.758 356.048 402.136 355.858 402.464C355.668 402.792 355.385 403.056 355.044 403.223C354.703 403.39 354.321 403.451 353.945 403.4C353.57 403.349 353.218 403.187 352.934 402.934C352.651 402.682 352.449 402.352 352.355 401.984C352.26 401.617 352.277 401.23 352.403 400.873C352.529 400.515 352.759 400.203 353.063 399.976C353.367 399.75 353.731 399.619 354.11 399.6C354.61 399.575 355.1 399.748 355.474 400.081C355.848 400.414 356.077 400.88 356.11 401.38Z" fill="white"/>
</g>
<path d="M441.06 127.77C441.749 124.466 442.935 121.287 444.58 118.34C446.257 115.375 448.971 113.134 452.2 112.05C455.556 111.172 459.091 111.258 462.4 112.3C464.741 113.099 466.875 114.407 468.65 116.13C471.65 118.72 473.18 122.76 474.44 126.51" fill="#FF5800"/>
<path d="M476.56 126.77C475.976 123.135 474.022 119.86 471.1 117.62C468.129 115.539 464.624 114.353 461 114.2C455.39 113.77 448.83 115.3 445 119.4C441.17 123.5 438.91 129.08 439.39 134.08C439.6 136.33 441.78 142.42 443.51 143.89L475.65 143.06C477.57 140 477.14 130.36 476.56 126.77Z" fill="#FF5800"/>
<path d="M476 133.5C475.653 129.049 473.642 124.893 470.367 121.859C467.092 118.825 462.794 117.137 458.33 117.13H457.41C447.49 117.69 442.41 126.42 443.26 136.32L445 182.06H467.73L467.53 167.17C467.53 167.17 477.07 165.71 477.2 156.17C477.26 151.57 476.62 142.08 476 133.5Z" fill="#FFBE9D"/>
<path d="M467.6 167.16C463.174 167.152 458.843 165.875 455.12 163.48C455.12 163.48 458.04 170.34 467.55 169.48L467.6 167.16Z" fill="#EB996E"/>
<path d="M472.24 141C472.24 141.355 472.103 141.696 471.857 141.952C471.61 142.207 471.275 142.357 470.92 142.37C470.747 142.384 470.573 142.362 470.408 142.308C470.243 142.253 470.091 142.165 469.96 142.051C469.83 141.936 469.724 141.796 469.648 141.64C469.572 141.484 469.529 141.314 469.52 141.14C469.52 140.785 469.657 140.444 469.903 140.189C470.15 139.933 470.485 139.783 470.84 139.77C471.013 139.757 471.187 139.778 471.352 139.833C471.517 139.887 471.669 139.975 471.8 140.089C471.93 140.204 472.036 140.344 472.112 140.5C472.188 140.657 472.231 140.827 472.24 141Z" fill="#263238"/>
<path d="M473.89 138.16C473.72 138.34 472.69 137.57 471.23 137.57C469.77 137.57 468.69 138.3 468.53 138.12C468.37 137.94 468.62 137.73 469.09 137.39C469.725 136.951 470.478 136.717 471.25 136.72C472.012 136.721 472.754 136.963 473.37 137.41C473.82 137.76 474 138.08 473.89 138.16Z" fill="#263238"/>
<path d="M458.15 141.69C458.153 142.044 458.018 142.385 457.773 142.641C457.528 142.897 457.194 143.047 456.84 143.06C456.667 143.072 456.494 143.05 456.329 142.995C456.165 142.939 456.013 142.852 455.883 142.737C455.753 142.623 455.647 142.484 455.571 142.328C455.495 142.172 455.45 142.003 455.44 141.83C455.435 141.474 455.569 141.131 455.814 140.873C456.058 140.615 456.395 140.463 456.75 140.45C456.924 140.438 457.098 140.46 457.263 140.516C457.428 140.572 457.58 140.661 457.71 140.776C457.841 140.892 457.947 141.032 458.022 141.189C458.098 141.346 458.141 141.516 458.15 141.69Z" fill="#263238"/>
<path d="M459.47 138.89C459.31 139.07 458.27 138.3 456.81 138.31C455.35 138.32 454.27 139.04 454.11 138.86C453.95 138.68 454.21 138.46 454.68 138.12C455.313 137.678 456.069 137.448 456.84 137.46C457.601 137.456 458.344 137.694 458.96 138.14C459.4 138.49 459.56 138.81 459.47 138.89Z" fill="#263238"/>
<path d="M464.79 149.28C465.563 149.039 466.362 148.895 467.17 148.85C467.54 148.85 467.89 148.74 467.96 148.49C467.992 148.103 467.905 147.716 467.71 147.38L466.61 144.53C465.08 140.47 463.98 137.13 464.14 137.07C464.3 137.01 465.68 140.25 467.2 144.31C467.57 145.31 467.92 146.31 468.26 147.18C468.493 147.633 468.56 148.153 468.45 148.65C468.396 148.782 468.311 148.899 468.204 148.993C468.096 149.087 467.968 149.154 467.83 149.19C467.625 149.25 467.413 149.28 467.2 149.28C466.4 149.382 465.59 149.382 464.79 149.28Z" fill="#263238"/>
<path d="M460.47 150.28C460.71 150.28 460.71 151.86 462.07 152.99C463.43 154.12 465.12 153.99 465.13 154.17C465.14 154.35 464.76 154.48 464.04 154.5C463.108 154.508 462.202 154.189 461.48 153.6C460.788 153.034 460.347 152.219 460.25 151.33C460.19 150.67 460.36 150.27 460.47 150.28Z" fill="#263238"/>
<path d="M460.23 135.57C460.09 135.97 458.62 135.8 456.91 136.03C455.2 136.26 453.81 136.73 453.57 136.38C453.47 136.21 453.71 135.83 454.26 135.44C455.003 134.96 455.846 134.656 456.725 134.55C457.603 134.445 458.494 134.54 459.33 134.83C460 135.07 460.29 135.38 460.23 135.57Z" fill="#263238"/>
<path d="M474.25 133.93C473.97 134.29 472.7 134.07 471.25 134.2C469.8 134.33 468.55 134.7 468.25 134.39C468.11 134.23 468.25 133.88 468.79 133.51C469.507 133.042 470.335 132.769 471.19 132.72C472.039 132.636 472.896 132.781 473.67 133.14C474.16 133.43 474.37 133.75 474.25 133.93Z" fill="#263238"/>
<path d="M444.63 143.38C444.47 143.31 438.09 141.43 438.28 147.95C438.47 154.47 444.98 152.95 444.99 152.74C445 152.53 444.63 143.38 444.63 143.38Z" fill="#FFBE9D"/>
<path d="M443.5 150.33C443.5 150.33 443.38 150.41 443.19 150.51C442.921 150.62 442.619 150.62 442.35 150.51C441.921 150.256 441.567 149.893 441.324 149.457C441.081 149.021 440.959 148.529 440.97 148.03C440.938 147.47 441.03 146.91 441.24 146.39C441.295 146.185 441.4 145.997 441.545 145.842C441.689 145.687 441.87 145.569 442.07 145.5C442.2 145.462 442.338 145.47 442.462 145.523C442.586 145.576 442.688 145.67 442.75 145.79C442.84 145.97 442.8 146.1 442.84 146.11C442.88 146.12 442.97 146 442.91 145.73C442.871 145.571 442.779 145.431 442.65 145.33C442.465 145.197 442.235 145.143 442.01 145.18C441.744 145.242 441.499 145.371 441.298 145.555C441.096 145.739 440.946 145.971 440.86 146.23C440.596 146.799 440.479 147.424 440.52 148.05C440.503 148.632 440.66 149.206 440.969 149.699C441.279 150.193 441.728 150.583 442.26 150.82C442.431 150.863 442.61 150.867 442.783 150.833C442.956 150.798 443.119 150.725 443.26 150.62C443.49 150.49 443.52 150.34 443.5 150.33Z" fill="#EB996E"/>
<path d="M448.91 124L452.13 121.22L462.37 122.79L469.57 120.94L471.46 123.01C470.65 124.1 472.37 119.45 470.73 118.21C467.2 115.53 464.22 115.63 459.73 115.55C455.24 115.47 446.28 120.87 443.07 123.93C440.5 126.38 440.52 128.49 440.52 128.49C440.11 132.02 442.08 136.02 442.86 139.49C443.27 141.27 444.05 146.67 444.05 146.67C445.55 146.67 446.05 145.48 445.88 144L445.6 138.19C447.102 137.007 448.177 135.365 448.66 133.515C449.144 131.665 449.011 129.707 448.28 127.94C447.94 127.42 447.11 125 448.91 124Z" fill="#263238"/>
<path d="M447.58 125.56C447.928 124.646 448.554 123.864 449.371 123.326C450.187 122.787 451.153 122.519 452.13 122.56C454.089 122.688 455.933 123.531 457.31 124.93C457.66 125.307 458.053 125.643 458.48 125.93C458.694 126.062 458.938 126.139 459.19 126.153C459.441 126.167 459.692 126.118 459.92 126.01C460.06 125.94 460.2 125.83 460.35 125.87C460.454 125.912 460.539 125.99 460.59 126.09C460.961 126.69 461.481 127.183 462.1 127.52C462.412 127.68 462.765 127.738 463.112 127.686C463.458 127.634 463.779 127.475 464.03 127.23C464.388 127.559 464.834 127.776 465.314 127.855C465.793 127.934 466.285 127.871 466.73 127.675C467.174 127.478 467.552 127.157 467.817 126.749C468.081 126.342 468.222 125.866 468.22 125.38C468.66 125.471 469.116 125.435 469.536 125.275C469.956 125.116 470.322 124.84 470.59 124.48C471.064 123.943 471.413 123.308 471.612 122.62C471.81 121.932 471.854 121.208 471.739 120.501C471.624 119.794 471.354 119.121 470.948 118.532C470.542 117.942 470.01 117.449 469.39 117.09C468.407 116.591 467.338 116.282 466.24 116.18C464.53 115.94 462.807 115.81 461.08 115.79C460.32 115.748 459.559 115.84 458.83 116.06C457.83 116.42 457.01 117.23 455.97 117.36C455.289 117.391 454.608 117.282 453.97 117.04C453.048 116.722 452.075 116.58 451.1 116.62C449.19 116.79 447.61 118.16 446.35 119.62C445.399 120.583 444.71 121.775 444.35 123.08C444.183 123.735 444.214 124.426 444.44 125.063C444.667 125.701 445.077 126.257 445.62 126.66C445.84 126.811 446.092 126.908 446.356 126.942C446.62 126.977 446.889 126.949 447.14 126.86C447.262 126.81 447.372 126.736 447.465 126.643C447.558 126.549 447.632 126.439 447.682 126.317C447.732 126.195 447.758 126.065 447.758 125.933C447.757 125.802 447.731 125.671 447.68 125.55" fill="#263238"/>
<path d="M443.07 140.48C442.37 135.48 443.21 129.48 446.84 125.21C450.47 120.94 456.89 118.33 461.14 119.14C464.45 119.77 471.65 120.03 474.28 126.96L473.91 121.24C473.91 121.24 470.71 114.74 461.26 114.94C451.81 115.14 447.69 116.24 443.12 121.8C441.596 123.494 440.552 125.564 440.093 127.796C439.634 130.028 439.778 132.342 440.51 134.5C441.17 136.571 442.027 138.573 443.07 140.48Z" fill="#FF5800"/>
<path d="M469.1 116.35C468.979 116.323 468.862 116.283 468.75 116.23C468.53 116.15 468.21 116.01 467.75 115.87C466.546 115.436 465.309 115.101 464.05 114.87C462.187 114.559 460.296 114.448 458.41 114.54C456.102 114.648 453.823 115.103 451.65 115.89C449.48 116.714 447.454 117.879 445.65 119.34C444.868 119.977 444.148 120.687 443.5 121.46C443.18 121.81 442.92 122.18 442.65 122.53C442.38 122.88 442.15 123.23 441.95 123.58C441.282 124.667 440.72 125.816 440.27 127.01C440.1 127.42 440 127.76 439.92 128.01C439.887 128.129 439.84 128.243 439.78 128.35L439.87 128C439.95 127.77 440.03 127.43 440.19 127C440.608 125.787 441.15 124.621 441.81 123.52C442.01 123.17 442.26 122.82 442.5 122.45C442.74 122.08 443.03 121.71 443.35 121.35C444.007 120.57 444.734 119.85 445.52 119.2C447.318 117.717 449.344 116.536 451.52 115.7C453.714 114.903 456.018 114.451 458.35 114.36C460.252 114.267 462.158 114.395 464.03 114.74C465.29 114.965 466.528 115.3 467.73 115.74C468.16 115.9 468.47 116.06 468.73 116.15L469.1 116.35Z" fill="#263238"/>
<path d="M443.7 132.11C443.597 132.082 443.499 132.039 443.41 131.98C443.16 131.826 442.923 131.652 442.7 131.46C441.962 130.82 441.398 130.004 441.059 129.089C440.72 128.173 440.617 127.186 440.76 126.22C440.805 125.931 440.875 125.647 440.97 125.37C441.04 125.17 441.09 125.07 441.1 125.08C441.11 125.09 440.99 125.52 440.92 126.24C440.831 127.178 440.951 128.124 441.27 129.01C441.602 129.892 442.129 130.689 442.81 131.34C443.33 131.84 443.72 132.08 443.7 132.11Z" fill="#263238"/>
<path d="M446.46 126.39C446.148 126.254 445.869 126.053 445.64 125.8C445.046 125.219 444.597 124.507 444.33 123.72C444.053 122.934 443.988 122.089 444.14 121.27C444.177 120.917 444.29 120.576 444.47 120.27C444.47 120.27 444.38 120.65 444.29 121.27C444.198 122.062 444.283 122.865 444.54 123.62C444.804 124.362 445.216 125.042 445.75 125.62C446.16 126.14 446.48 126.36 446.46 126.39Z" fill="#263238"/>
<path d="M450.93 122.22C450.673 122.102 450.44 121.94 450.24 121.74C449.726 121.284 449.3 120.738 448.98 120.13C448.666 119.508 448.485 118.826 448.45 118.13C448.413 117.848 448.437 117.562 448.52 117.29C448.57 118.226 448.794 119.145 449.18 120C449.658 120.817 450.247 121.564 450.93 122.22Z" fill="#263238"/>
<path d="M455.24 114.84C455.417 115.021 455.556 115.235 455.65 115.47C455.929 116.004 456.147 116.567 456.3 117.15C456.449 117.736 456.536 118.336 456.56 118.94C456.583 119.192 456.563 119.445 456.5 119.69C456.43 119.69 456.43 118.55 456.08 117.21C455.73 115.87 455.18 114.87 455.24 114.84Z" fill="#263238"/>
<path d="M463.54 114.68C463.696 114.878 463.808 115.106 463.87 115.35C464.058 115.927 464.136 116.534 464.1 117.14C464.069 117.745 463.923 118.339 463.67 118.89C463.583 119.128 463.443 119.344 463.26 119.52C463.589 118.76 463.798 117.954 463.88 117.13C463.89 116.301 463.775 115.475 463.54 114.68Z" fill="#263238"/>
<path d="M468.87 116.18C469.059 116.376 469.208 116.607 469.31 116.86C469.586 117.464 469.739 118.117 469.76 118.78C469.78 119.441 469.661 120.098 469.41 120.71C469.327 120.972 469.191 121.213 469.01 121.42C469.338 120.578 469.514 119.684 469.53 118.78C469.467 117.881 469.244 117 468.87 116.18Z" fill="#263238"/>
<path d="M474 120.67C474.086 120.872 474.124 121.091 474.11 121.31C474.148 122.379 473.792 123.426 473.11 124.25C472.84 124.56 472.63 124.7 472.62 124.68C473.052 124.1 473.412 123.468 473.69 122.8C473.883 122.106 473.987 121.39 474 120.67Z" fill="#263238"/>
<path d="M476.59 126.26C476.589 126.816 476.407 127.357 476.07 127.8C475.799 128.283 475.373 128.66 474.86 128.87C475.218 128.491 475.552 128.09 475.86 127.67C476.37 127 476.52 126.25 476.59 126.26Z" fill="#263238"/>
<path d="M476.94 132.55C476.99 132.55 476.94 132.94 476.59 133.24C476.24 133.54 475.87 133.57 475.87 133.51C475.87 133.45 476.16 133.33 476.44 133.07C476.72 132.81 476.87 132.53 476.94 132.55Z" fill="#263238"/>
<path d="M443 137.74C442.257 137.636 441.548 137.362 440.929 136.939C440.309 136.516 439.796 135.955 439.43 135.3C440.392 136.405 441.621 137.245 443 137.74Z" fill="#263238"/>
<path d="M443.55 140.89C443.55 140.94 443.23 141.27 442.65 141.3C442.07 141.33 441.65 141.05 441.71 141C441.77 140.95 442.13 141.11 442.64 141.07C443.15 141.03 443.52 140.84 443.55 140.89Z" fill="#263238"/>
<g opacity="0.3">
<path d="M468.32 116.13C466.276 114.789 463.984 113.872 461.579 113.434C459.174 112.996 456.705 113.046 454.32 113.58C451.914 114.195 449.654 115.281 447.671 116.776C445.688 118.272 444.022 120.146 442.77 122.29C442.77 122.29 448.66 114.84 457.1 114.58C465.54 114.32 468.32 116.13 468.32 116.13Z" fill="black"/>
</g>
<path d="M461.8 141.24C461.761 140.846 461.698 140.456 461.61 140.07C461.33 139.023 460.707 138.101 459.84 137.45C459.251 137.005 458.566 136.703 457.84 136.57C457.003 136.418 456.14 136.49 455.34 136.78C454.459 137.104 453.694 137.682 453.14 138.44C452.543 139.253 452.221 140.236 452.221 141.245C452.221 142.254 452.543 143.237 453.14 144.05C453.694 144.808 454.459 145.386 455.34 145.71C456.088 145.982 456.892 146.063 457.68 145.946C458.467 145.829 459.213 145.518 459.85 145.04C460.715 144.388 461.338 143.466 461.62 142.42C461.709 142.031 461.772 141.637 461.81 141.24C461.838 141.643 461.801 142.049 461.7 142.44C461.45 143.525 460.831 144.489 459.95 145.17C459.338 145.636 458.626 145.954 457.87 146.1C457.001 146.271 456.102 146.202 455.27 145.9C454.818 145.743 454.393 145.517 454.01 145.23C453.611 144.952 453.257 144.615 452.96 144.23C452.331 143.381 451.991 142.352 451.991 141.295C451.991 140.238 452.331 139.209 452.96 138.36C453.253 137.957 453.607 137.603 454.01 137.31C454.393 137.023 454.818 136.797 455.27 136.64C456.048 136.355 456.886 136.273 457.704 136.401C458.523 136.528 459.296 136.862 459.95 137.37C460.831 138.051 461.45 139.015 461.7 140.1C461.792 140.473 461.826 140.857 461.8 141.24Z" fill="#455A64"/>
<path d="M476.32 140.67C476.32 140.67 476.32 140.24 476.12 139.5C475.84 138.453 475.217 137.531 474.35 136.88C473.762 136.433 473.077 136.131 472.35 136C471.513 135.848 470.65 135.92 469.85 136.21C469.42 136.367 469.016 136.586 468.65 136.86C468.056 137.303 467.574 137.879 467.242 138.541C466.91 139.203 466.737 139.934 466.737 140.675C466.737 141.416 466.91 142.147 467.242 142.809C467.574 143.471 468.056 144.047 468.65 144.49C469.016 144.764 469.42 144.983 469.85 145.14C470.598 145.412 471.402 145.493 472.19 145.376C472.977 145.259 473.723 144.948 474.36 144.47C475.225 143.818 475.848 142.896 476.13 141.85C476.32 141.11 476.29 140.67 476.33 140.67C476.352 141.073 476.315 141.477 476.22 141.87C475.961 142.954 475.34 143.917 474.46 144.6C473.848 145.066 473.136 145.384 472.38 145.53C471.511 145.701 470.612 145.632 469.78 145.33C469.329 145.171 468.904 144.945 468.52 144.66C467.995 144.276 467.55 143.792 467.213 143.236C466.876 142.68 466.652 142.062 466.554 141.419C466.456 140.775 466.487 140.119 466.644 139.488C466.801 138.856 467.082 138.262 467.47 137.74C468.052 136.95 468.856 136.351 469.78 136.02C470.558 135.735 471.396 135.653 472.214 135.781C473.033 135.908 473.806 136.242 474.46 136.75C475.34 137.433 475.961 138.396 476.22 139.48C476.311 139.87 476.345 140.271 476.32 140.67Z" fill="#455A64"/>
<path d="M466.77 138.82C466.77 138.82 466.49 138.63 466.01 138.4C465.382 138.083 464.681 137.938 463.979 137.978C463.277 138.019 462.598 138.243 462.01 138.63C461.55 138.92 461.32 139.17 461.3 139.14C461.451 138.879 461.664 138.659 461.92 138.5C462.501 138.065 463.196 137.807 463.92 137.76C464.654 137.721 465.383 137.894 466.02 138.26C466.311 138.385 466.568 138.577 466.77 138.82Z" fill="#455A64"/>
<path d="M452.42 140.34C452.42 140.4 450.49 141.06 448.06 141.82C445.63 142.58 443.65 143.13 443.64 143.08C443.63 143.03 445.57 142.36 447.99 141.6C450.41 140.84 452.4 140.28 452.42 140.34Z" fill="#455A64"/>
<path d="M456.77 145.27C456.482 145.292 456.193 145.255 455.92 145.16C455.254 144.97 454.641 144.628 454.13 144.16C453.617 143.683 453.22 143.095 452.97 142.44C452.853 142.176 452.795 141.889 452.8 141.6C452.921 141.854 453.028 142.114 453.12 142.38C453.698 143.599 454.733 144.54 456 145C456.261 145.076 456.518 145.167 456.77 145.27Z" fill="white"/>
<path d="M468.67 143.68C468.67 143.68 468.36 143.62 468.02 143.25C467.607 142.762 467.334 142.171 467.23 141.54C467.101 140.917 467.101 140.273 467.23 139.65C467.268 139.39 467.375 139.145 467.54 138.94C467.54 138.94 467.46 139.22 467.38 139.69C467.286 140.29 467.286 140.9 467.38 141.5C467.483 142.095 467.719 142.659 468.07 143.15C468.256 143.342 468.457 143.519 468.67 143.68Z" fill="white"/>
<path d="M461.64 150.62C461.64 150.57 461.78 150.32 462.06 150.05C462.34 149.78 462.58 149.59 462.63 149.64C462.68 149.69 462.49 149.94 462.21 150.21C461.93 150.48 461.69 150.66 461.64 150.62Z" fill="#263238"/>
<path d="M462.34 151.05C462.34 151.05 462.48 150.7 462.75 150.36C463.02 150.02 463.28 149.76 463.32 149.8C463.36 149.84 463.19 150.15 462.92 150.49C462.65 150.83 462.39 151.09 462.34 151.05Z" fill="#263238"/>
<path d="M463.06 151.58C463 151.58 463.12 151.23 463.31 150.86C463.5 150.49 463.71 150.22 463.77 150.24C463.83 150.26 463.71 150.6 463.51 150.97C463.31 151.34 463.11 151.61 463.06 151.58Z" fill="#263238"/>
<path d="M464.15 151.59C464.09 151.59 464.06 151.36 464.08 151.09C464.1 150.82 464.17 150.6 464.23 150.6C464.29 150.6 464.32 150.83 464.3 151.1C464.28 151.37 464.22 151.59 464.15 151.59Z" fill="#263238"/>
<path d="M465.2 151.76C465.13 151.76 465.08 151.56 465.08 151.32C465.08 151.08 465.13 150.87 465.2 150.87C465.27 150.87 465.31 151.07 465.31 151.32C465.31 151.57 465.26 151.76 465.2 151.76Z" fill="#263238"/>
<path d="M466.18 151.85C466.12 151.85 466.01 151.62 465.93 151.3C465.85 150.98 465.85 150.7 465.93 150.69C466.01 150.68 466.1 150.93 466.17 151.25C466.24 151.57 466.24 151.84 466.18 151.85Z" fill="#263238"/>
<path d="M443.64 153C443.686 153.393 443.582 153.789 443.35 154.11C443.236 154.3 443.083 154.463 442.9 154.587C442.717 154.712 442.509 154.794 442.29 154.83C442.019 154.866 441.744 154.827 441.494 154.718C441.244 154.608 441.028 154.433 440.87 154.21C440.715 153.992 440.604 153.746 440.546 153.484C440.488 153.223 440.482 152.953 440.53 152.69C440.632 152.26 440.893 151.885 441.26 151.64C441.415 151.519 441.595 151.432 441.786 151.386C441.977 151.339 442.176 151.334 442.37 151.37C442.012 151.43 441.671 151.567 441.37 151.77C441.049 152.017 440.829 152.372 440.75 152.77C440.681 153.244 440.795 153.727 441.07 154.12C441.207 154.31 441.392 154.461 441.607 154.555C441.821 154.65 442.057 154.686 442.29 154.66C442.481 154.633 442.663 154.566 442.825 154.462C442.988 154.359 443.126 154.222 443.23 154.06C443.433 153.736 443.572 153.376 443.64 153Z" fill="#263238"/>
<path d="M430.17 300C431.38 300 481.34 352 481.34 355.61C481.34 359.22 488.76 395.85 492.34 401.49C495.92 407.13 498.07 405.81 498.07 405.81L514.68 398.07C514.68 398.07 505.48 341.07 503.46 334.66C501.44 328.25 463.34 277.84 463.34 277.84L427.34 284.69L430.17 300Z" fill="#263238"/>
<path d="M411.72 274L401.34 338.1C401.34 338.1 368.87 370.61 366.85 374.23C366.85 374.23 363.23 373.02 362.02 376.23C361.055 379.25 360.303 382.334 359.77 385.46L375.89 399C375.89 399 418.48 363.69 422.51 358.45C426.54 353.21 443.42 318.66 446.65 309.8C449.88 300.94 453.65 281.29 453.65 281.29L411.72 274Z" fill="#263238"/>
<path d="M489.71 344C489.57 344.699 489.328 345.373 488.99 346C488.276 347.562 487.419 349.055 486.43 350.46C485.453 351.88 484.327 353.191 483.07 354.37C482.575 354.892 481.989 355.319 481.34 355.63C481.797 355.093 482.288 354.585 482.81 354.11C483.968 352.855 485.035 351.519 486 350.11C488.3 346.91 489.56 343.91 489.71 344Z" fill="#455A64"/>
<path d="M407.16 342.54C405.884 342.452 404.677 341.93 403.74 341.06C402.706 340.328 401.946 339.273 401.58 338.06C402.356 338.987 403.187 339.865 404.07 340.69C405.061 341.37 406.093 341.988 407.16 342.54Z" fill="#455A64"/>
<path d="M373.65 382.6C372.022 381.771 370.616 380.563 369.549 379.079C368.483 377.596 367.787 375.878 367.52 374.07C368.196 375.708 369.019 377.281 369.98 378.77C371.077 380.162 372.306 381.445 373.65 382.6Z" fill="#455A64"/>
<path d="M425.12 283.48C425.087 283.729 425.016 283.972 424.91 284.2C424.675 284.839 424.394 285.461 424.07 286.06C421.916 290.069 418.505 293.26 414.36 295.14C413.742 295.426 413.103 295.666 412.45 295.86C412.218 295.957 411.971 296.011 411.72 296.02C411.72 295.93 412.72 295.58 414.2 294.81C416.165 293.8 417.982 292.524 419.6 291.02C421.21 289.503 422.606 287.774 423.75 285.88C424.62 284.42 425 283.44 425.12 283.48Z" fill="#455A64"/>
<path d="M450.58 299.86C450.433 300.42 450.246 300.968 450.02 301.5C449.58 302.62 449.02 304.1 448.31 305.9C446.83 309.59 444.75 314.69 442.26 320.24C439.77 325.79 437.34 330.74 435.56 334.3L433.42 338.5C433.176 339.025 432.892 339.529 432.57 340.01C432.754 339.461 432.978 338.926 433.24 338.41L435.24 334.14C436.94 330.53 439.31 325.57 441.79 320.03C444.27 314.49 446.41 309.42 447.97 305.75C448.74 303.99 449.37 302.53 449.84 301.42C450.047 300.882 450.294 300.36 450.58 299.86Z" fill="#455A64"/>
<path d="M441.82 169.9C441.82 169.9 430.82 174.33 428.27 182.06C426.97 185.97 419.39 214.56 419.39 214.56C419.39 214.56 409.39 269.46 410.77 274.69L468 283.48C469.417 281.763 470.132 279.573 470 277.35L469.07 260.9L469.74 190.39C469.749 189.865 469.712 189.339 469.63 188.82L467.63 175.82L468.27 170.21L442.62 163.43L441.82 169.9Z" fill="#FF5800"/>
<path d="M440.28 165.48C440.349 165.042 440.51 164.624 440.751 164.252C440.992 163.88 441.308 163.562 441.679 163.32C442.051 163.078 442.469 162.916 442.906 162.846C443.344 162.775 443.791 162.797 444.22 162.91L467.67 169.1C468.376 169.287 468.995 169.711 469.425 170.301C469.855 170.891 470.068 171.611 470.03 172.34L469.97 173.34C469.941 173.82 469.804 174.286 469.569 174.705C469.333 175.124 469.006 175.484 468.611 175.757C468.216 176.031 467.764 176.211 467.289 176.284C466.814 176.357 466.329 176.322 465.87 176.18L442.48 169C441.75 168.778 441.125 168.299 440.721 167.652C440.317 167.005 440.16 166.233 440.28 165.48Z" fill="#FF5800"/>
<path d="M468 175.9C467.587 175.864 467.178 175.787 466.78 175.67L463.53 174.85C460.78 174.13 457 173.11 452.84 171.95L447.26 170.37C446.559 170.261 445.867 170.1 445.19 169.89C444.868 169.788 444.556 169.654 444.26 169.49C444.1 169.408 443.954 169.3 443.83 169.17C443.723 169.036 443.629 168.892 443.55 168.74C443.31 168.19 443.234 167.582 443.33 166.99C443.396 166.498 443.527 166.017 443.72 165.56C443.98 164.918 444.345 164.323 444.8 163.8C445.13 163.45 445.35 163.31 445.36 163.33C444.777 164.029 444.314 164.82 443.99 165.67C443.604 166.59 443.575 167.62 443.91 168.56C444.13 169.06 444.71 169.25 445.33 169.46C445.985 169.654 446.653 169.798 447.33 169.89L452.92 171.43C457.08 172.59 460.85 173.67 463.57 174.43L466.78 175.43C467.201 175.547 467.609 175.705 468 175.9Z" fill="#263238"/>
<path d="M468.23 179.9C468.285 180.068 468.319 180.243 468.33 180.42C468.38 180.82 468.44 181.31 468.51 181.91C468.65 183.21 468.83 185.09 469 187.42C469.37 192.08 469.74 198.52 469.95 205.64C470.16 212.76 470.14 219.22 469.95 223.89C469.88 226.22 469.78 228.11 469.69 229.41C469.64 230.02 469.59 230.51 469.56 230.91C469.56 231.086 469.533 231.262 469.48 231.43C469.458 231.257 469.458 231.083 469.48 230.91C469.48 230.5 469.48 230.01 469.48 229.4C469.48 228.1 469.56 226.21 469.58 223.88C469.65 219.22 469.58 212.77 469.4 205.65C469.22 198.53 468.88 192.1 468.61 187.45C468.47 185.17 468.36 183.31 468.27 181.93C468.27 181.33 468.22 180.83 468.2 180.43C468.19 180.253 468.2 180.075 468.23 179.9Z" fill="#263238"/>
<path d="M451.59 165.21C451.204 166.15 450.893 167.12 450.66 168.11C450.588 169.109 450.588 170.111 450.66 171.11C450.366 170.653 450.168 170.14 450.079 169.604C449.989 169.067 450.01 168.518 450.14 167.99C450.185 167.454 450.337 166.932 450.586 166.454C450.835 165.977 451.176 165.554 451.59 165.21Z" fill="#263238"/>
<path d="M458.25 166.74C458.3 166.74 458.54 167.02 458.74 167.6C458.983 168.373 459.028 169.195 458.871 169.99C458.713 170.785 458.359 171.528 457.84 172.15C457.44 172.61 457.1 172.8 457.06 172.75C457.641 171.871 458.08 170.906 458.36 169.89C458.482 168.84 458.445 167.779 458.25 166.74Z" fill="#263238"/>
<path d="M464.74 168.54C464.79 168.54 465.06 168.78 465.3 169.34C465.612 170.085 465.709 170.902 465.58 171.699C465.451 172.497 465.101 173.242 464.57 173.85C464.16 174.31 463.82 174.48 463.78 174.43C464.463 173.63 464.916 172.66 465.092 171.623C465.268 170.586 465.16 169.521 464.78 168.54H464.74Z" fill="#263238"/>
<path d="M461.36 184.41C459.2 178.03 453.96 172.46 447.36 171.15C440.76 169.84 434.56 171.24 429.85 176.73L423.85 189.48C426.51 188 430.77 179.35 435.73 176.41C440.69 173.47 446.21 173.41 450.29 177.5C453.29 180.5 455.54 184.86 455.47 189.14C455.33 197.52 451.84 205.38 449.3 213.38C446.04 223.64 443.46 234.58 435.93 242.29C429.88 248.48 421.78 252.17 413.93 255.72C412.07 257.25 407.77 262.81 409.99 263.72C412.21 264.63 420.28 261.72 422.57 261.01C428.28 259.27 434.21 257.4 438.57 253.3C442.57 249.49 444.79 244.18 446.87 239.04C450.87 229.12 453.49 218.78 457.5 208.85C460.9 200.4 464.28 193.05 461.36 184.41Z" fill="#455A64"/>
<path d="M452.23 291.18L447.67 283.48L432.41 288.8C432.41 288.8 433.41 302.36 435.41 302.75C436.011 302.854 436.628 302.826 437.217 302.667C437.806 302.508 438.353 302.222 438.82 301.83C438.82 301.83 439.96 305.37 442.24 305.52L443.51 305.58C443.92 305.9 446.24 307.58 448.16 306.96C448.16 306.96 449.92 310.78 451.34 310.38C452.76 309.98 453.68 305.38 453.68 305.38L452.23 291.18Z" fill="#FFBE9D"/>
<path d="M438.45 174.57C435.846 175.481 433.522 177.05 431.703 179.125C429.884 181.199 428.633 183.709 428.07 186.41C425.07 200.78 417.91 238.41 418.2 243.71C418.57 250.45 431.42 290.39 431.42 290.39L449.42 284.97L441.25 239.97C441.25 239.97 454 197.87 455 191.47C456.1 184.48 450 170.57 438.45 174.57Z" fill="#FF5800"/>
<path d="M438.45 174.6C438.906 174.419 439.374 174.269 439.85 174.15C441.238 173.771 442.691 173.696 444.11 173.93C446.399 174.355 448.487 175.514 450.06 177.23C453.387 180.941 455.246 185.737 455.29 190.72C455.27 191.707 455.146 192.689 454.92 193.65C454.72 194.65 454.47 195.65 454.23 196.65C453.23 200.65 451.99 204.98 450.67 209.56C448.02 218.72 444.94 228.97 441.52 240.04V239.93L449.71 284.93V285.16L449.49 285.23L441.05 287.76L431.45 290.65L431.2 290.72L431.13 290.48C428.46 282.29 425.94 274.29 423.62 266.55C422.47 262.68 421.35 258.88 420.34 255.13C419.84 253.26 419.34 251.41 418.91 249.56C418.68 248.64 418.49 247.71 418.31 246.79C418.142 245.868 418.038 244.936 418 244C418.05 242.165 418.213 240.335 418.49 238.52C418.74 236.74 418.99 234.99 419.27 233.26C419.81 229.81 420.4 226.48 420.97 223.26C422.12 216.82 423.26 210.85 424.31 205.42L427.2 190.78C427.542 188.756 427.996 186.753 428.56 184.78C429.117 183.152 429.913 181.615 430.92 180.22C432.314 178.289 434.121 176.694 436.21 175.55C436.927 175.14 437.684 174.805 438.47 174.55C438.47 174.55 438.28 174.65 437.9 174.81C437.336 175.044 436.788 175.315 436.26 175.62C434.211 176.785 432.443 178.386 431.08 180.31C430.099 181.697 429.324 183.22 428.78 184.83C428.243 186.786 427.805 188.769 427.47 190.77C426.64 195.08 425.7 199.99 424.65 205.42C423.6 210.85 422.51 216.84 421.38 223.27C420.82 226.49 420.25 229.82 419.71 233.27C419.43 234.99 419.18 236.74 418.94 238.52C418.678 240.309 418.521 242.112 418.47 243.92C418.533 244.834 418.66 245.743 418.85 246.64C419.02 247.56 419.22 248.47 419.45 249.39C419.87 251.23 420.38 253.08 420.88 254.94C421.88 258.68 423.02 262.48 424.17 266.34C426.5 274.07 429.02 282.07 431.69 290.26L431.37 290.09L440.97 287.21L449.41 284.67L449.23 284.97C446.33 268.97 443.58 253.74 441.08 239.97V239.91V239.85C444.51 228.78 447.62 218.55 450.3 209.4C451.63 204.83 452.87 200.53 453.9 196.52C454.463 194.623 454.829 192.672 454.99 190.7C454.954 185.787 453.151 181.052 449.91 177.36C448.375 175.663 446.334 174.506 444.09 174.06C442.688 173.812 441.25 173.863 439.87 174.21C439.515 174.283 439.164 174.377 438.82 174.49C438.699 174.533 438.575 174.57 438.45 174.6Z" fill="#263238"/>
<path d="M441.47 239.73C438.608 237.671 435.194 236.518 431.67 236.42C433.45 236.126 435.274 236.274 436.983 236.851C438.692 237.428 440.233 238.417 441.47 239.73Z" fill="#263238"/>
<g opacity="0.3">
<path d="M427.07 277.79C418.68 265.35 414.27 247.96 419.07 235.59C417.76 243 419.01 249.77 421.22 256.96C423.43 264.15 426.07 271.32 426.5 278.83" fill="black"/>
</g>
<path d="M401.25 454.97L376.41 428.76L356.05 429.91L341.63 435.61L332.48 454.97" fill="#F5F5F5"/>
<path d="M356.05 429.91L377.14 454.97H401.25L376.41 428.76L356.05 429.91Z" fill="#E0E0E0"/>
<path d="M332.48 455C332.513 454.872 332.56 454.748 332.62 454.63L333.07 453.58C333.51 452.63 334.07 451.31 334.87 449.64L341.43 435.55V435.47H341.52L355.92 429.73H356L365.78 429.17L376.37 428.58H376.49L376.57 428.67L394.27 447.47L399.41 453.01C399.98 453.63 400.41 454.13 400.77 454.51C400.941 454.672 401.092 454.853 401.22 455.05C401.041 454.9 400.87 454.74 400.71 454.57L399.28 453.13L394.03 447.69C389.55 443.01 383.33 436.49 376.2 429.02L376.4 429.1L365.81 429.7L356.03 430.24H356.11L341.68 435.9L341.79 435.79C339.02 441.58 336.71 446.4 335.07 449.79L333.16 453.68L332.65 454.68C332.604 454.792 332.547 454.899 332.48 455Z" fill="#263238"/>
<path d="M220.28 454.97L229.76 438.51L247.05 433.69L263.22 447.44V454.97" fill="#EBEBEB"/>
<path d="M229.76 438.51L263.22 447.44L247.05 433.69L229.76 438.51Z" fill="#E0E0E0"/>
<path d="M263.22 455C263.182 454.829 263.165 454.655 263.17 454.48C263.17 454.1 263.17 453.61 263.17 453.01C263.17 451.65 263.17 449.79 263.1 447.47L263.15 447.59L246.92 433.91L247.16 433.96L243.18 435L229.82 438.7L229.96 438.59L223 450.46C222.16 451.86 221.49 452.98 221 453.8L220.46 454.68C220.398 454.782 220.327 454.879 220.25 454.97C220.283 454.855 220.33 454.744 220.39 454.64L220.87 453.73L222.76 450.32L229.52 438.4V438.31H229.62L243 434.53L246.94 433.44H247.07L247.17 433.53L263.29 447.35L263.35 447.4V447.48C263.35 449.8 263.29 451.66 263.27 453.02C263.27 453.62 263.27 454.11 263.27 454.49C263.274 454.661 263.257 454.833 263.22 455Z" fill="#263238"/>
<path d="M563.56 425.38L539.56 411.71L497.42 427.06L463.38 454.97L583.8 454.35L563.56 425.38Z" fill="#F5F5F5"/>
<path d="M463.38 454.97L506.56 429.91L563.56 425.38L538.6 410.61L497.42 427.06L463.38 454.97Z" fill="#E0E0E0"/>
<path d="M525.42 454.65L546.99 439.87L566.66 438.47L550.2 442.13L541.68 454.57L525.42 454.65Z" fill="#E0E0E0"/>
<path d="M463.38 455C463.38 455 463.38 454.94 463.53 454.85L463.99 454.44L465.81 452.9L472.75 447.13L497.27 426.91L527.27 414.71L538.35 410.23L538.47 410.18L538.58 410.25L563.58 425.25L578.2 446.33L582.25 452.23L583.25 453.8C583.373 453.974 583.486 454.154 583.59 454.34C583.59 454.34 583.45 454.18 583.2 453.83L582.09 452.31C581.09 450.94 579.72 448.97 577.94 446.48L563.17 425.48L563.24 425.54L538.24 410.59H538.46L527.39 415.08L497.33 427.23H497.39L472.75 447.31L465.75 452.98L464 454.47L463.51 454.85L463.38 455Z" fill="#263238"/>
<path d="M567.33 438.42C566.818 438.538 566.295 438.609 565.77 438.63L561.48 439.01L547 440.13H547.13L544.76 441.75C539.46 445.38 534.65 448.65 531.15 450.99L527 453.7L525.85 454.43C525.59 454.59 525.44 454.67 525.43 454.65C525.538 454.534 525.659 454.43 525.79 454.34L526.88 453.53L530.95 450.65C534.4 448.23 539.18 444.91 544.48 441.28L546.85 439.66H546.91H547L561.48 438.72L565.79 438.49C566.301 438.431 566.816 438.407 567.33 438.42Z" fill="#263238"/>
<path d="M677.03 440.6L662.61 434.89L638.57 439.26L626.92 454.92L683.97 454.97L677.03 440.6Z" fill="#F5F5F5"/>
<path d="M638.57 439.26C639.27 439.13 677.03 440.6 677.03 440.6L662.61 434.9L638.57 439.26Z" fill="#E0E0E0"/>
<path d="M626.93 454.92C626.975 454.809 627.036 454.704 627.11 454.61L627.71 453.75L630.03 450.52L638.39 439.12L638.44 439.05H638.53L656.42 435.77L662.57 434.65H662.64H662.71L677.11 440.39H677.19V440.46L682.19 450.96L683.53 453.88L683.87 454.65C683.914 454.739 683.948 454.833 683.97 454.93C683.904 454.855 683.851 454.771 683.81 454.68L683.42 453.93C683.06 453.23 682.57 452.26 681.97 451.06C680.71 448.52 678.97 444.95 676.84 440.65L676.95 440.75L662.52 435.09H662.66L656.51 436.21L638.62 439.42L638.76 439.34C635.26 443.97 632.34 447.85 630.24 450.62L627.82 453.77L627.17 454.59C627.017 454.817 626.937 454.927 626.93 454.92Z" fill="#263238"/>
<path d="M784.1 455C784.1 455.14 634.1 455.26 449.02 455.26C263.94 455.26 113.9 455.11 113.9 455C113.9 454.89 263.9 454.74 449.02 454.74C634.14 454.74 784.1 454.82 784.1 455Z" fill="#263238"/>
<path d="M372.6 462.91C372.6 463.06 351.11 463.17 324.6 463.17C298.09 463.17 276.6 463.06 276.6 462.91C276.6 462.76 298.08 462.65 324.6 462.65C351.12 462.65 372.6 462.77 372.6 462.91Z" fill="#263238"/>
<path d="M337 469.17C337 469.31 330.21 469.43 321.85 469.43C313.49 469.43 306.69 469.31 306.69 469.17C306.69 469.03 313.48 468.91 321.85 468.91C330.22 468.91 337 469 337 469.17Z" fill="#263238"/>
<path d="M700 455.04C701.4 427.43 700.79 437.04 702.19 409.42L751.41 382L795.66 399.4L803.44 412.01C808.172 419.629 814.616 426.039 822.26 430.73C831.72 436.56 844.48 445.73 849.1 455.04H700Z" fill="#E0E0E0"/>
<path d="M110.05 388L59.51 404.75L4.57764e-05 455.38H110.05V388Z" fill="#E0E0E0"/>
</svg>
