<svg width="404" height="258" viewBox="0 0 404 258" fill="none" xmlns="http://www.w3.org/2000/svg">
<path fill-rule="evenodd" clip-rule="evenodd" d="M325.694 193.621C322.442 199.219 318.78 204.55 314.748 209.571H395.62C400.025 209.571 403.595 213.141 403.595 217.546C403.595 221.95 400.025 225.521 395.62 225.521H299.528C276.879 245.524 247.12 257.662 214.526 257.662C147.21 257.662 91.9875 205.886 86.508 139.986H44.3888C39.9844 139.986 36.4138 136.415 36.4138 132.011C36.4138 127.606 39.9844 124.036 44.3888 124.036H86.1632C86.377 118.626 86.9252 113.303 87.7878 108.086H77.6181C73.2136 108.086 69.6431 104.515 69.6431 100.111C69.6431 95.7062 73.2136 92.1356 77.6181 92.1356H91.4883C93.1367 86.6557 95.1411 81.3301 97.4748 76.1855H59.0097C54.6052 76.1855 51.0347 72.6149 51.0347 68.2105C51.0347 63.806 54.6052 60.2354 59.0097 60.2354H106.121C128.927 24.4605 168.956 0.732666 214.526 0.732666C285.475 0.732666 342.991 58.2483 342.991 129.197C342.991 134.813 342.63 140.345 341.932 145.771H374.354C378.758 145.771 382.329 149.341 382.329 153.746C382.329 158.15 378.758 161.721 374.354 161.721H338.838C337.412 167.188 335.634 172.513 333.531 177.671H350.429C354.833 177.671 358.404 181.241 358.404 185.646C358.404 190.05 354.833 193.621 350.429 193.621H325.694Z" fill="#F5F5F5"/>
<rect x="311.883" y="161.72" width="49.1793" height="15.95" rx="7.97502" fill="white"/>
<rect x="286.628" y="193.621" width="49.1793" height="15.95" rx="7.97502" fill="white"/>
<rect x="41.7306" y="77.5146" width="66.4585" height="15.95" rx="7.97502" fill="white"/>
<rect x="0.526245" y="108.086" width="122.284" height="15.95" rx="7.97502" fill="white"/>
<path d="M180.673 78.6974V89.987H218.305V78.6974C218.305 68.3015 209.884 59.8814 199.489 59.8814C189.093 59.8814 180.673 68.3015 180.673 78.6974ZM165.62 89.987V78.6974C165.62 59.999 180.79 44.8286 199.489 44.8286C218.187 44.8286 233.357 59.999 233.357 78.6974V89.987H237.121C245.423 89.987 252.173 96.7372 252.173 105.04V150.198C252.173 158.501 245.423 165.251 237.121 165.251H161.857C153.554 165.251 146.804 158.501 146.804 150.198V105.04C146.804 96.7372 153.554 89.987 161.857 89.987H165.62Z" fill="#089024"/>
<ellipse cx="247.035" cy="147.957" rx="27.5876" ry="25.2887" fill="white"/>
<path d="M244.736 191.637C255.914 191.637 266.634 187.197 274.539 179.293C282.443 171.388 286.883 160.668 286.883 149.49C286.883 138.311 282.443 127.591 274.539 119.687C266.634 111.782 255.914 107.342 244.736 107.342C233.557 107.342 222.837 111.782 214.933 119.687C207.028 127.591 202.588 138.311 202.588 149.49C202.588 160.668 207.028 171.388 214.933 179.293C222.837 187.197 233.557 191.637 244.736 191.637ZM263.34 141.752L242.266 162.825C240.718 164.373 238.216 164.373 236.685 162.825L226.148 152.288C224.6 150.741 224.6 148.238 226.148 146.707C227.695 145.176 230.198 145.16 231.729 146.707L239.467 154.445L257.742 136.154C259.29 134.606 261.792 134.606 263.323 136.154C264.855 137.701 264.871 140.204 263.323 141.735L263.34 141.752Z" fill="#7ABB53"/>
</svg>
