<svg width="404" height="258" viewBox="0 0 404 258" fill="none" xmlns="http://www.w3.org/2000/svg">
<path fill-rule="evenodd" clip-rule="evenodd" d="M325.694 193.317C322.442 198.915 318.78 204.246 314.748 209.267H395.62C400.025 209.267 403.596 212.838 403.596 217.242C403.596 221.647 400.025 225.217 395.62 225.217H299.528C276.879 245.22 247.12 257.358 214.526 257.358C147.21 257.358 91.9876 205.583 86.5081 139.682H44.3889C39.9844 139.682 36.4139 136.112 36.4139 131.707C36.4139 127.303 39.9844 123.732 44.3889 123.732H86.1633C86.377 118.323 86.9253 112.999 87.7879 107.782H77.6181C73.2137 107.782 69.6431 104.211 69.6431 99.8069C69.6431 95.4024 73.2137 91.8319 77.6181 91.8319H91.4883C93.1367 86.352 95.1412 81.0264 97.4748 75.8818H59.0098C54.6053 75.8818 51.0347 72.3112 51.0347 67.9067C51.0347 63.5023 54.6053 59.9317 59.0098 59.9317H106.121C128.927 24.1568 168.956 0.428955 214.526 0.428955C285.475 0.428955 342.991 57.9445 342.991 128.894C342.991 134.51 342.63 140.041 341.932 145.467H374.354C378.758 145.467 382.329 149.037 382.329 153.442C382.329 157.846 378.758 161.417 374.354 161.417H338.838C337.412 166.884 335.634 172.209 333.531 177.367H350.429C354.833 177.367 358.404 180.937 358.404 185.342C358.404 189.746 354.833 193.317 350.429 193.317H325.694Z" fill="#F5F5F5"/>
<rect x="311.883" y="161.417" width="49.1793" height="15.95" rx="7.97502" fill="white"/>
<rect x="286.628" y="193.317" width="49.1793" height="15.95" rx="7.97502" fill="white"/>
<rect x="41.7305" y="77.2109" width="66.4585" height="15.95" rx="7.97502" fill="white"/>
<rect x="0.526245" y="107.782" width="122.284" height="15.95" rx="7.97502" fill="white"/>
<rect x="200.993" y="90.7458" width="33.9952" height="77.3392" fill="black"/>
<path d="M217.495 61C221.24 61 224.694 62.9777 226.592 66.2211L283.55 163.259C285.475 166.529 285.475 170.564 283.602 173.833C281.73 177.103 278.223 179.133 274.452 179.133H160.538C156.767 179.133 153.26 177.103 151.388 173.833C149.516 170.564 149.542 166.503 151.441 163.259L208.398 66.2211C210.296 62.9777 213.751 61 217.495 61ZM217.495 94.7524C213.988 94.7524 211.167 97.5739 211.167 101.081V130.614C211.167 134.121 213.988 136.943 217.495 136.943C221.002 136.943 223.824 134.121 223.824 130.614V101.081C223.824 97.5739 221.002 94.7524 217.495 94.7524ZM225.933 153.819C225.933 151.581 225.044 149.435 223.462 147.853C221.879 146.27 219.733 145.381 217.495 145.381C215.257 145.381 213.111 146.27 211.528 147.853C209.946 149.435 209.057 151.581 209.057 153.819C209.057 156.057 209.946 158.203 211.528 159.786C213.111 161.368 215.257 162.257 217.495 162.257C219.733 162.257 221.879 161.368 223.462 159.786C225.044 158.203 225.933 156.057 225.933 153.819Z" fill="url(#paint0_linear_906_3261)"/>
<defs>
<linearGradient id="paint0_linear_906_3261" x1="175.071" y1="95.4202" x2="166.572" y2="207.371" gradientUnits="userSpaceOnUse">
<stop stop-color="#FFBC0E"/>
<stop offset="1" stop-color="#FF9900"/>
</linearGradient>
</defs>
</svg>
