<svg xmlns="http://www.w3.org/2000/svg" xmlns:xlink="http://www.w3.org/1999/xlink" width="529" zoomAndPan="magnify" viewBox="0 0 396.75 396.749984" height="529" preserveAspectRatio="xMidYMid meet" version="1.0"><defs><clipPath id="455a58414c"><path d="M 7 367 L 389 367 L 389 369.195312 L 7 369.195312 Z M 7 367 " clip-rule="nonzero"/></clipPath><clipPath id="96f3a676cc"><path d="M 311 100 L 396.5 100 L 396.5 182 L 311 182 Z M 311 100 " clip-rule="nonzero"/></clipPath><clipPath id="8bfc50dfc8"><path d="M 311 100 L 396.5 100 L 396.5 112 L 311 112 Z M 311 100 " clip-rule="nonzero"/></clipPath></defs><path fill="#f7fafc" d="M 13.839844 368.386719 C 13.839844 368.386719 5.855469 357.285156 7.273438 330.371094 C 8.695312 303.460938 20.847656 285.078125 19.164062 261.71875 C 17.476562 238.359375 0.355469 208.871094 0.175781 180.628906 C 0 152.386719 16.5 95.722656 48.707031 69.253906 C 80.910156 42.785156 149.3125 28.042969 205.648438 36.214844 C 261.984375 44.386719 325.597656 69.078125 342.097656 91.8125 C 358.601562 114.550781 368.714844 149.097656 367.027344 170.769531 C 365.34375 192.441406 356.472656 234.273438 354.964844 253.191406 C 353.542969 272.109375 356.648438 282.324219 360.019531 293.515625 C 363.390625 304.703125 371.289062 350.800781 364.191406 368.386719 Z M 13.839844 368.386719 " fill-opacity="1" fill-rule="nonzero"/><path fill="#d2e5ef" d="M 341.035156 296.355469 C 338.992188 286.054688 328.96875 279.480469 318.765625 281.523438 C 308.476562 283.566406 301.910156 293.601562 303.949219 303.816406 C 305.992188 314.03125 316.015625 320.691406 326.21875 318.648438 C 336.421875 316.605469 343.074219 306.570312 341.035156 296.355469 Z M 312.289062 302.128906 C 311.136719 296.535156 314.773438 291.027344 320.453125 289.871094 C 326.042969 288.71875 331.542969 292.359375 332.695312 298.042969 C 333.847656 303.640625 330.210938 309.144531 324.53125 310.300781 C 318.855469 311.367188 313.355469 307.722656 312.289062 302.128906 Z M 312.289062 302.128906 " fill-opacity="1" fill-rule="nonzero"/><path fill="#d2e5ef" d="M 345.46875 300.175781 L 343.695312 291.117188 C 343.609375 290.671875 343.253906 290.40625 342.808594 290.496094 L 337.042969 291.648438 C 336.597656 291.738281 336.332031 292.09375 336.421875 292.535156 L 338.195312 301.597656 C 338.285156 302.039062 338.640625 302.308594 339.082031 302.21875 L 344.847656 301.0625 C 345.292969 300.972656 345.558594 300.53125 345.46875 300.175781 Z M 345.46875 300.175781 " fill-opacity="1" fill-rule="nonzero"/><path fill="#d2e5ef" d="M 308.476562 307.636719 L 306.699219 298.578125 C 306.613281 298.132812 306.257812 297.867188 305.8125 297.953125 L 300.046875 299.109375 C 299.601562 299.199219 299.335938 299.554688 299.425781 299.996094 L 301.199219 309.058594 C 301.289062 309.5 301.644531 309.765625 302.085938 309.679688 L 307.855469 308.523438 C 308.296875 308.433594 308.5625 307.992188 308.476562 307.636719 Z M 308.476562 307.636719 " fill-opacity="1" fill-rule="nonzero"/><path fill="#d2e5ef" d="M 335.089844 319.359375 L 341.65625 312.789062 C 341.921875 312.519531 341.921875 311.988281 341.65625 311.722656 L 337.484375 307.546875 C 337.21875 307.28125 336.6875 307.28125 336.421875 307.546875 L 329.855469 314.121094 C 329.589844 314.386719 329.589844 314.917969 329.855469 315.183594 L 334.027344 319.359375 C 334.378906 319.625 334.824219 319.625 335.089844 319.359375 Z M 335.089844 319.359375 " fill-opacity="1" fill-rule="nonzero"/><path fill="#d2e5ef" d="M 308.386719 292.535156 L 314.953125 285.964844 C 315.21875 285.699219 315.21875 285.164062 314.953125 284.898438 L 310.78125 280.722656 C 310.515625 280.457031 309.984375 280.457031 309.71875 280.722656 L 303.152344 287.296875 C 302.886719 287.5625 302.886719 288.097656 303.152344 288.363281 L 307.320312 292.535156 C 307.675781 292.890625 308.121094 292.890625 308.386719 292.535156 Z M 308.386719 292.535156 " fill-opacity="1" fill-rule="nonzero"/><path fill="#d2e5ef" d="M 326.75 277.347656 L 335.269531 280.8125 C 335.621094 280.992188 335.800781 281.433594 335.710938 281.789062 L 333.492188 287.207031 C 333.316406 287.5625 332.871094 287.742188 332.519531 287.652344 L 324 284.1875 C 323.644531 284.011719 323.46875 283.566406 323.558594 283.210938 L 325.773438 277.792969 C 325.863281 277.4375 326.308594 277.261719 326.75 277.347656 Z M 326.75 277.347656 " fill-opacity="1" fill-rule="nonzero"/><path fill="#d2e5ef" d="M 312.378906 312.433594 L 320.894531 315.894531 C 321.25 316.074219 321.429688 316.515625 321.339844 316.871094 L 319.121094 322.289062 C 318.945312 322.644531 318.5 322.824219 318.144531 322.734375 L 309.628906 319.269531 C 309.273438 319.09375 309.097656 318.648438 309.183594 318.292969 L 311.402344 312.875 C 311.578125 312.433594 312.023438 312.253906 312.378906 312.433594 Z M 312.378906 312.433594 " fill-opacity="1" fill-rule="nonzero"/><path fill="#d2e5ef" d="M 384.417969 242.710938 C 382.023438 230.722656 370.402344 222.996094 358.421875 225.390625 C 346.445312 227.789062 338.726562 239.425781 341.125 251.414062 C 343.519531 263.40625 355.140625 271.132812 367.117188 268.734375 C 379.09375 266.335938 386.8125 254.703125 384.417969 242.710938 Z M 350.882812 249.460938 C 349.550781 242.890625 353.808594 236.496094 360.375 235.160156 C 366.941406 233.828125 373.328125 238.09375 374.660156 244.664062 C 375.988281 251.238281 371.730469 257.632812 365.167969 258.964844 C 358.601562 260.207031 352.214844 256.035156 350.882812 249.460938 Z M 350.882812 249.460938 " fill-opacity="1" fill-rule="nonzero"/><path fill="#d2e5ef" d="M 389.652344 247.152344 L 387.523438 236.582031 C 387.433594 236.140625 386.992188 235.785156 386.457031 235.871094 L 379.714844 237.203125 C 379.273438 237.292969 378.917969 237.738281 379.007812 238.269531 L 381.136719 248.839844 C 381.222656 249.285156 381.667969 249.640625 382.199219 249.550781 L 388.941406 248.21875 C 389.476562 248.039062 389.742188 247.597656 389.652344 247.152344 Z M 389.652344 247.152344 " fill-opacity="1" fill-rule="nonzero"/><path fill="#d2e5ef" d="M 346.445312 255.855469 L 344.316406 245.285156 C 344.226562 244.84375 343.785156 244.488281 343.253906 244.578125 L 336.511719 245.910156 C 336.066406 245.996094 335.710938 246.441406 335.800781 246.972656 L 337.929688 257.542969 C 338.019531 257.988281 338.460938 258.34375 338.992188 258.253906 L 345.738281 256.921875 C 346.269531 256.746094 346.535156 256.300781 346.445312 255.855469 Z M 346.445312 255.855469 " fill-opacity="1" fill-rule="nonzero"/><path fill="#d2e5ef" d="M 377.585938 269.535156 L 385.214844 261.894531 C 385.570312 261.539062 385.570312 261.007812 385.214844 260.652344 L 380.335938 255.765625 C 379.980469 255.410156 379.449219 255.410156 379.09375 255.765625 L 371.464844 263.40625 C 371.109375 263.761719 371.109375 264.292969 371.464844 264.648438 L 376.34375 269.535156 C 376.699219 269.890625 377.230469 269.890625 377.585938 269.535156 Z M 377.585938 269.535156 " fill-opacity="1" fill-rule="nonzero"/><path fill="#d2e5ef" d="M 346.445312 238.269531 L 354.078125 230.632812 C 354.429688 230.277344 354.429688 229.746094 354.078125 229.390625 L 349.195312 224.503906 C 348.84375 224.148438 348.308594 224.148438 347.953125 224.503906 L 340.324219 232.140625 C 339.96875 232.496094 339.96875 233.03125 340.324219 233.386719 L 345.203125 238.269531 C 345.558594 238.625 346.089844 238.625 346.445312 238.269531 Z M 346.445312 238.269531 " fill-opacity="1" fill-rule="nonzero"/><path fill="#d2e5ef" d="M 367.738281 220.597656 L 377.675781 224.683594 C 378.117188 224.859375 378.386719 225.390625 378.117188 225.835938 L 375.546875 232.230469 C 375.367188 232.675781 374.835938 232.941406 374.394531 232.675781 L 364.457031 228.589844 C 364.011719 228.410156 363.746094 227.878906 364.011719 227.433594 L 366.585938 221.039062 C 366.761719 220.597656 367.296875 220.417969 367.738281 220.597656 Z M 367.738281 220.597656 " fill-opacity="1" fill-rule="nonzero"/><path fill="#d2e5ef" d="M 351.058594 261.453125 L 360.996094 265.535156 C 361.441406 265.714844 361.707031 266.246094 361.441406 266.691406 L 358.867188 273.085938 C 358.691406 273.53125 358.15625 273.796875 357.714844 273.53125 L 347.777344 269.445312 C 347.332031 269.265625 347.066406 268.734375 347.332031 268.289062 L 349.90625 261.894531 C 350.082031 261.453125 350.617188 261.273438 351.058594 261.453125 Z M 351.058594 261.453125 " fill-opacity="1" fill-rule="nonzero"/><path fill="#a5c3ce" d="M 242.378906 54.597656 L 221.621094 54.597656 C 220.109375 54.597656 218.867188 53.355469 218.867188 51.847656 C 218.867188 50.335938 220.109375 49.09375 221.621094 49.09375 L 242.378906 49.09375 C 243.886719 49.09375 245.128906 50.335938 245.128906 51.847656 C 245.128906 53.355469 243.886719 54.597656 242.378906 54.597656 Z M 242.378906 54.597656 " fill-opacity="1" fill-rule="nonzero"/><path fill="#a5c3ce" d="M 274.40625 54.597656 L 257.726562 54.597656 C 256.21875 54.597656 254.976562 53.355469 254.976562 51.847656 C 254.976562 50.335938 256.21875 49.09375 257.726562 49.09375 L 274.40625 49.09375 C 275.914062 49.09375 277.15625 50.335938 277.15625 51.847656 C 277.15625 53.355469 275.914062 54.597656 274.40625 54.597656 Z M 274.40625 54.597656 " fill-opacity="1" fill-rule="nonzero"/><path fill="#a5c3ce" d="M 299.957031 54.597656 L 283.277344 54.597656 C 281.769531 54.597656 280.527344 53.355469 280.527344 51.847656 C 280.527344 50.335938 281.769531 49.09375 283.277344 49.09375 L 299.957031 49.09375 C 301.464844 49.09375 302.707031 50.335938 302.707031 51.847656 C 302.707031 53.355469 301.464844 54.597656 299.957031 54.597656 Z M 299.957031 54.597656 " fill-opacity="1" fill-rule="nonzero"/><path fill="#e4eff4" d="M 321.074219 258.34375 L 40.988281 258.34375 C 39.570312 258.34375 38.503906 257.1875 38.503906 255.765625 L 38.503906 54.511719 C 38.503906 53.089844 39.65625 52.023438 40.988281 52.023438 L 321.074219 52.023438 C 322.492188 52.023438 323.558594 53.179688 323.558594 54.511719 L 323.558594 255.855469 C 323.558594 257.1875 322.402344 258.34375 321.074219 258.34375 Z M 321.074219 258.34375 " fill-opacity="1" fill-rule="nonzero"/><path fill="#d2e5ef" d="M 59.796875 61.527344 L 315.660156 61.527344 L 315.660156 248.75 L 59.796875 248.75 Z M 59.796875 61.527344 " fill-opacity="0.55" fill-rule="nonzero"/><path fill="#e4eff4" d="M 299.25 238.980469 L 76.210938 238.980469 C 73.902344 238.980469 72.039062 237.117188 72.039062 234.894531 L 72.039062 78.578125 C 72.039062 76.269531 73.902344 74.40625 76.210938 74.40625 L 299.25 74.40625 C 301.554688 74.40625 303.328125 76.269531 303.328125 78.578125 L 303.328125 234.894531 C 303.417969 237.117188 301.554688 238.980469 299.25 238.980469 Z M 299.25 238.980469 " fill-opacity="1" fill-rule="nonzero"/><path fill="#d2e5ef" d="M 178.679688 162.953125 C 178.679688 162.953125 186.753906 144.835938 193.585938 136.222656 C 200.328125 127.695312 205.296875 123.785156 208.488281 125.386719 C 211.683594 126.984375 213.632812 134.621094 217.449219 134.179688 C 221.265625 133.734375 227.03125 128.671875 230.046875 128.671875 C 233.0625 128.671875 233.773438 132.402344 236.96875 131.78125 C 240.160156 131.160156 242.734375 127.160156 244.6875 127.515625 C 246.636719 127.871094 247.171875 130.449219 249.832031 130.804688 C 252.492188 131.246094 255.777344 128.316406 255.777344 128.316406 L 255.777344 149.808594 Z M 178.679688 162.953125 " fill-opacity="1" fill-rule="nonzero"/><path fill="#e4eff4" d="M 178.679688 162.953125 C 178.679688 162.953125 180.363281 156.914062 189.058594 150.164062 C 197.753906 143.414062 201.835938 143.414062 204.941406 145.992188 C 208.046875 148.566406 210.882812 150.078125 216.652344 145.636719 C 222.328125 141.195312 225.433594 141.726562 228.628906 141.550781 C 231.820312 141.371094 235.8125 136.308594 240.160156 135.953125 C 244.507812 135.597656 247.171875 137.910156 250.007812 134.710938 C 252.847656 131.425781 256.574219 124.054688 260.746094 123.519531 L 260.746094 154.515625 Z M 178.679688 162.953125 " fill-opacity="1" fill-rule="nonzero"/><path fill="#ffffff" d="M 178.679688 162.953125 C 178.679688 162.953125 186.664062 150.785156 197.664062 152.207031 C 208.667969 153.71875 213.546875 155.050781 220.199219 149.808594 C 226.855469 144.570312 229.605469 143.769531 234.21875 145.546875 C 238.832031 147.410156 240.074219 145.371094 243.621094 144.214844 C 247.171875 143.058594 250.007812 143.503906 252.582031 137.730469 C 255.242188 131.867188 259.855469 118.015625 265.179688 117.746094 C 270.503906 117.390625 275.117188 128.226562 281.503906 131.867188 C 287.890625 135.511719 295.253906 141.90625 297.5625 148.742188 C 299.871094 155.582031 298.007812 162.953125 298.007812 162.953125 Z M 178.679688 162.953125 " fill-opacity="1" fill-rule="nonzero"/><path fill="#d3e8ef" d="M 55.894531 155.140625 C 55.894531 151.765625 53.140625 149.011719 49.769531 149.011719 C 46.398438 149.011719 43.648438 151.765625 43.648438 155.140625 C 43.648438 158.515625 46.398438 161.265625 49.769531 161.265625 C 53.140625 161.265625 55.894531 158.515625 55.894531 155.140625 Z M 55.894531 155.140625 " fill-opacity="1" fill-rule="nonzero"/><path fill="#ffffff" d="M 298.09375 74.40625 L 77.273438 74.40625 C 74.347656 74.40625 72.039062 76.714844 72.039062 79.644531 L 72.039062 89.59375 L 303.417969 89.59375 L 303.417969 79.644531 C 303.417969 76.804688 301.023438 74.40625 298.09375 74.40625 Z M 298.09375 74.40625 " fill-opacity="1" fill-rule="nonzero"/><path fill="#e1f0f4" d="M 82.332031 81.953125 C 82.332031 80.890625 81.445312 80 80.378906 80 C 79.316406 80 78.425781 80.890625 78.425781 81.953125 C 78.425781 83.019531 79.316406 83.910156 80.378906 83.910156 C 81.445312 83.910156 82.332031 83.109375 82.332031 81.953125 Z M 82.332031 81.953125 " fill-opacity="1" fill-rule="nonzero"/><path fill="#e1f0f4" d="M 89.695312 81.953125 C 89.695312 80.890625 88.808594 80 87.742188 80 C 86.679688 80 85.789062 80.890625 85.789062 81.953125 C 85.789062 83.019531 86.679688 83.910156 87.742188 83.910156 C 88.808594 83.996094 89.695312 83.109375 89.695312 81.953125 Z M 89.695312 81.953125 " fill-opacity="1" fill-rule="nonzero"/><path fill="#e1f0f4" d="M 96.878906 81.953125 C 96.878906 80.890625 95.992188 80 94.929688 80 C 93.863281 80 92.976562 80.890625 92.976562 81.953125 C 92.976562 83.019531 93.863281 83.910156 94.929688 83.910156 C 95.992188 83.996094 96.878906 83.109375 96.878906 81.953125 Z M 96.878906 81.953125 " fill-opacity="1" fill-rule="nonzero"/><path fill="#e1f0f4" d="M 82.332031 81.953125 C 82.332031 80.890625 81.445312 80 80.378906 80 C 79.316406 80 78.425781 80.890625 78.425781 81.953125 C 78.425781 83.019531 79.316406 83.910156 80.378906 83.910156 C 81.445312 83.910156 82.332031 83.109375 82.332031 81.953125 Z M 82.332031 81.953125 " fill-opacity="1" fill-rule="nonzero"/><path fill="#e05353" d="M 134.585938 115.703125 C 141.683594 118.546875 146.742188 125.472656 146.742188 133.644531 C 146.742188 133.824219 146.742188 134 146.742188 134.179688 L 161.910156 134.179688 C 161.910156 134 161.910156 133.824219 161.910156 133.644531 C 161.910156 119.167969 152.949219 106.734375 140.351562 101.671875 Z M 134.585938 115.703125 " fill-opacity="1" fill-rule="nonzero"/><path fill="#e07373" d="M 110.542969 143.238281 C 108.945312 140.394531 108.058594 137.199219 108.058594 133.734375 C 108.058594 123.078125 116.753906 114.371094 127.398438 114.371094 C 128.910156 114.371094 130.328125 114.550781 131.746094 114.90625 L 137.515625 100.785156 C 134.320312 99.804688 130.949219 99.273438 127.398438 99.273438 C 108.414062 99.273438 92.976562 114.726562 92.976562 133.734375 C 92.976562 140.660156 95.019531 147.144531 98.566406 152.472656 Z M 110.542969 143.238281 " fill-opacity="1" fill-rule="nonzero"/><path fill="#ef8f8f" d="M 146.386719 137.199219 C 144.699219 146.167969 136.894531 153.007812 127.398438 153.007812 C 121.277344 153.007812 115.777344 150.078125 112.230469 145.636719 L 100.253906 154.871094 C 106.550781 162.953125 116.398438 168.195312 127.398438 168.195312 C 145.234375 168.195312 159.871094 154.605469 161.644531 137.199219 Z M 146.386719 137.199219 " fill-opacity="1" fill-rule="nonzero"/><path fill="#ffffff" d="M 97.234375 186.046875 C 97.234375 183.027344 94.839844 180.628906 91.824219 180.628906 C 88.808594 180.628906 86.410156 183.027344 86.410156 186.046875 C 86.410156 189.066406 88.808594 191.464844 91.824219 191.464844 C 94.75 191.464844 97.234375 189.066406 97.234375 186.046875 Z M 97.234375 186.046875 " fill-opacity="1" fill-rule="nonzero"/><path fill="#ffffff" d="M 97.234375 203.097656 C 97.234375 200.078125 94.839844 197.683594 91.824219 197.683594 C 88.808594 197.683594 86.410156 200.078125 86.410156 203.097656 C 86.410156 206.121094 88.808594 208.515625 91.824219 208.515625 C 94.75 208.515625 97.234375 206.121094 97.234375 203.097656 Z M 97.234375 203.097656 " fill-opacity="1" fill-rule="nonzero"/><path fill="#ffffff" d="M 97.234375 220.152344 C 97.234375 217.132812 94.839844 214.734375 91.824219 214.734375 C 88.808594 214.734375 86.410156 217.132812 86.410156 220.152344 C 86.410156 223.171875 88.808594 225.570312 91.824219 225.570312 C 94.75 225.570312 97.234375 223.082031 97.234375 220.152344 Z M 97.234375 220.152344 " fill-opacity="1" fill-rule="nonzero"/><path fill="#cadee5" d="M 188.972656 183.738281 L 101.671875 183.738281 C 101.316406 183.738281 101.140625 183.472656 101.140625 183.203125 C 101.140625 182.847656 101.40625 182.671875 101.671875 182.671875 L 188.972656 182.671875 C 189.324219 182.671875 189.503906 182.9375 189.503906 183.203125 C 189.503906 183.472656 189.238281 183.738281 188.972656 183.738281 Z M 188.972656 183.738281 " fill-opacity="1" fill-rule="nonzero"/><path fill="#cadee5" d="M 188.972656 189.511719 L 101.671875 189.511719 C 101.316406 189.511719 101.140625 189.246094 101.140625 188.976562 C 101.140625 188.621094 101.40625 188.445312 101.671875 188.445312 L 188.972656 188.445312 C 189.324219 188.445312 189.503906 188.710938 189.503906 188.976562 C 189.503906 189.246094 189.238281 189.511719 188.972656 189.511719 Z M 188.972656 189.511719 " fill-opacity="1" fill-rule="nonzero"/><path fill="#cadee5" d="M 188.972656 200.703125 L 101.671875 200.703125 C 101.316406 200.703125 101.140625 200.433594 101.140625 200.167969 C 101.140625 199.8125 101.40625 199.636719 101.671875 199.636719 L 188.972656 199.636719 C 189.324219 199.636719 189.503906 199.902344 189.503906 200.167969 C 189.503906 200.523438 189.238281 200.703125 188.972656 200.703125 Z M 188.972656 200.703125 " fill-opacity="1" fill-rule="nonzero"/><path fill="#cadee5" d="M 188.972656 206.5625 L 101.671875 206.5625 C 101.316406 206.5625 101.140625 206.296875 101.140625 206.03125 C 101.140625 205.765625 101.40625 205.496094 101.671875 205.496094 L 188.972656 205.496094 C 189.324219 205.496094 189.503906 205.765625 189.503906 206.03125 C 189.503906 206.296875 189.238281 206.5625 188.972656 206.5625 Z M 188.972656 206.5625 " fill-opacity="1" fill-rule="nonzero"/><path fill="#cadee5" d="M 188.972656 217.753906 L 101.671875 217.753906 C 101.316406 217.753906 101.140625 217.488281 101.140625 217.222656 C 101.140625 216.867188 101.40625 216.6875 101.671875 216.6875 L 188.972656 216.6875 C 189.324219 216.6875 189.503906 216.953125 189.503906 217.222656 C 189.503906 217.488281 189.238281 217.753906 188.972656 217.753906 Z M 188.972656 217.753906 " fill-opacity="1" fill-rule="nonzero"/><path fill="#cadee5" d="M 188.972656 223.617188 L 101.671875 223.617188 C 101.316406 223.617188 101.140625 223.347656 101.140625 223.082031 C 101.140625 222.816406 101.40625 222.550781 101.671875 222.550781 L 188.972656 222.550781 C 189.324219 222.550781 189.503906 222.816406 189.503906 223.082031 C 189.503906 223.347656 189.238281 223.617188 188.972656 223.617188 Z M 188.972656 223.617188 " fill-opacity="1" fill-rule="nonzero"/><path fill="#31333a" d="M 279.019531 297.6875 L 279.019531 367.054688 C 279.019531 367.941406 279.730469 368.652344 280.617188 368.652344 L 281.414062 368.652344 C 282.304688 368.652344 283.011719 367.941406 283.011719 367.054688 L 283.011719 297.777344 Z M 279.019531 297.6875 " fill-opacity="1" fill-rule="nonzero"/><path fill="#31333a" d="M 236.082031 297.6875 L 236.082031 367.054688 C 236.082031 367.941406 236.789062 368.652344 237.675781 368.652344 L 238.476562 368.652344 C 239.363281 368.652344 240.074219 367.941406 240.074219 367.054688 L 240.074219 297.777344 Z M 236.082031 297.6875 " fill-opacity="1" fill-rule="nonzero"/><path fill="#31333a" d="M 309.007812 297.6875 L 309.007812 367.054688 C 309.007812 367.941406 309.71875 368.652344 310.605469 368.652344 L 311.402344 368.652344 C 312.289062 368.652344 313 367.941406 313 367.054688 L 313 297.777344 Z M 309.007812 297.6875 " fill-opacity="1" fill-rule="nonzero"/><path fill="#729edd" d="M 226.5 296.800781 L 317.703125 298.488281 L 339.347656 208.695312 C 339.347656 208.695312 337.042969 201.234375 335.179688 200.613281 L 288.691406 199.015625 L 268.195312 269.535156 L 226.5 281.433594 Z M 226.5 296.800781 " fill-opacity="1" fill-rule="nonzero"/><path fill="#5987cc" d="M 288.601562 199.101562 L 268.109375 269.621094 L 226.410156 281.523438 L 226.410156 296.800781 L 275.027344 297.6875 C 275.027344 297.6875 275.648438 285.433594 281.414062 283.390625 L 311.046875 283.390625 C 311.046875 283.390625 327.992188 213.578125 335 200.613281 Z M 288.601562 199.101562 " fill-opacity="1" fill-rule="nonzero"/><path fill="#396099" d="M 275.292969 295.734375 C 275.027344 295.734375 274.761719 295.46875 274.761719 295.203125 C 274.761719 294.847656 274.9375 285.785156 281.238281 282.945312 L 281.328125 282.855469 L 310.691406 282.855469 C 311.933594 277.882812 325.152344 226.28125 328.96875 215.445312 C 329.058594 215.179688 329.324219 215 329.589844 215.089844 C 329.855469 215.179688 330.035156 215.445312 329.945312 215.710938 C 325.953125 226.992188 311.757812 282.855469 311.667969 283.390625 L 311.578125 283.746094 L 281.683594 283.746094 C 276.09375 286.320312 275.914062 294.933594 275.914062 295.023438 C 275.828125 295.46875 275.558594 295.734375 275.292969 295.734375 Z M 275.292969 295.734375 " fill-opacity="1" fill-rule="nonzero"/><path fill="#a6c7ed" d="M 161.203125 342.894531 L 154.28125 359.59375 L 180.984375 359.59375 L 187.019531 344.40625 Z M 161.203125 342.894531 " fill-opacity="1" fill-rule="nonzero"/><path fill="#a6c7ed" d="M 218.78125 346.269531 L 224.636719 359.859375 L 251.785156 359.859375 L 247.523438 347.070312 Z M 218.78125 346.269531 " fill-opacity="1" fill-rule="nonzero"/><path fill="#7a164d" d="M 188.171875 270.867188 L 161.113281 335.433594 C 161.113281 335.433594 156.5 337.566406 157.121094 341.03125 C 157.742188 344.496094 160.582031 344.226562 160.582031 344.226562 L 189.859375 345.472656 C 189.859375 345.472656 192.964844 344.496094 191.988281 338.542969 L 206.980469 306.214844 Z M 188.171875 270.867188 " fill-opacity="1" fill-rule="nonzero"/><path fill="#59113c" d="M 191.632812 339.078125 L 173.621094 338.808594 C 173.355469 338.808594 173.089844 338.542969 173.089844 338.277344 C 173.089844 338.011719 173.355469 337.746094 173.621094 337.746094 L 191.632812 338.011719 C 191.898438 338.011719 192.164062 338.277344 192.164062 338.542969 C 192.164062 338.898438 191.898438 339.078125 191.632812 339.078125 Z M 191.632812 339.078125 " fill-opacity="1" fill-rule="nonzero"/><path fill="#59113c" d="M 185.6875 338.808594 C 185.597656 338.808594 185.511719 338.808594 185.511719 338.808594 C 185.246094 338.722656 185.15625 338.367188 185.246094 338.101562 L 201.390625 301.152344 C 201.480469 300.886719 201.835938 300.796875 202.101562 300.886719 C 202.367188 300.972656 202.457031 301.328125 202.367188 301.597656 L 186.132812 338.542969 C 186.042969 338.722656 185.867188 338.808594 185.6875 338.808594 Z M 185.6875 338.808594 " fill-opacity="1" fill-rule="nonzero"/><path fill="#7a164d" d="M 188.171875 270.867188 L 161.113281 335.433594 C 161.113281 335.433594 156.5 337.566406 157.121094 341.03125 C 157.742188 344.496094 160.582031 344.226562 160.582031 344.226562 L 189.859375 345.472656 C 189.859375 345.472656 192.964844 344.496094 191.988281 338.542969 L 206.980469 306.214844 Z M 188.171875 270.867188 " fill-opacity="0.33" fill-rule="nonzero"/><path fill="#7a164d" d="M 214.609375 250.792969 L 202.277344 250.792969 C 202.277344 250.792969 193.230469 252.480469 189.769531 259.320312 C 186.308594 266.070312 188.972656 274.328125 188.972656 274.328125 L 214.699219 340.941406 C 214.699219 340.941406 212.746094 342.363281 213.191406 345.203125 C 213.722656 348.046875 217.273438 348.3125 217.273438 348.3125 L 251.695312 348.3125 C 251.695312 348.3125 253.824219 342.894531 248.234375 340.765625 L 227.386719 283.476562 L 286.738281 283.476562 C 286.738281 283.476562 305.722656 279.925781 307.144531 257.011719 L 307.144531 239.335938 Z M 214.609375 250.792969 " fill-opacity="1" fill-rule="nonzero"/><path fill="#f0f3f7" d="M 261.632812 186.667969 L 263.496094 186.136719 L 283.898438 183.738281 L 286.472656 184.09375 L 282.035156 242.445312 L 246.371094 242.445312 C 246.371094 242.355469 256.484375 196.703125 261.632812 186.667969 Z M 261.632812 186.667969 " fill-opacity="1" fill-rule="nonzero"/><path fill="#59113c" d="M 237.675781 341.207031 C 237.5 341.207031 237.234375 341.03125 237.234375 340.851562 L 216.917969 281.878906 C 216.207031 279.746094 216.472656 277.4375 217.804688 275.574219 C 219.136719 273.707031 221.175781 272.640625 223.480469 272.640625 L 275.738281 272.640625 C 285.140625 272.640625 293.835938 266.871094 297.296875 258.34375 C 297.828125 257.097656 298.007812 256.300781 298.007812 256.210938 C 298.09375 255.945312 298.359375 255.765625 298.628906 255.855469 C 298.894531 255.945312 299.070312 256.210938 298.980469 256.476562 C 298.980469 256.476562 298.804688 257.367188 298.273438 258.699219 C 294.722656 267.667969 285.675781 273.707031 275.828125 273.707031 L 223.570312 273.707031 C 221.621094 273.707031 219.84375 274.597656 218.78125 276.195312 C 217.628906 277.792969 217.359375 279.746094 217.980469 281.523438 L 238.296875 340.496094 C 238.386719 340.765625 238.210938 341.03125 237.945312 341.121094 C 237.765625 341.207031 237.675781 341.207031 237.675781 341.207031 Z M 237.675781 341.207031 " fill-opacity="1" fill-rule="nonzero"/><path fill="#fda345" d="M 244.507812 194.128906 C 244.507812 194.128906 243.089844 195.460938 239.894531 200.96875 C 236.96875 205.941406 219.84375 238.535156 219.84375 238.535156 L 234.484375 246.707031 L 250.097656 238.535156 C 250.1875 238.535156 251.339844 205.496094 244.507812 194.128906 Z M 244.507812 194.128906 " fill-opacity="1" fill-rule="nonzero"/><path fill="#c1610a" d="M 247.613281 218.109375 C 247.347656 218.109375 247.171875 217.933594 247.082031 217.664062 L 244.597656 202.121094 C 244.597656 201.855469 244.773438 201.589844 245.042969 201.5 C 245.308594 201.5 245.574219 201.679688 245.660156 201.945312 L 248.144531 217.488281 C 248.144531 217.84375 247.96875 218.109375 247.613281 218.109375 Z M 247.613281 218.109375 " fill-opacity="1" fill-rule="nonzero"/><path fill="#fda345" d="M 261.632812 186.667969 C 261.632812 186.667969 251.960938 217.488281 255.511719 244.398438 L 252.226562 244.398438 L 244.507812 194.128906 C 244.507812 194.128906 256.664062 188.089844 261.632812 186.667969 Z M 261.632812 186.667969 " fill-opacity="1" fill-rule="nonzero"/><path fill="#fda345" d="M 291.53125 184.890625 L 286.472656 184.003906 C 286.472656 184.003906 276.179688 206.652344 275.207031 229.476562 C 274.230469 252.304688 278.84375 260.121094 278.84375 260.121094 L 308.828125 256.65625 Z M 291.53125 184.890625 " fill-opacity="1" fill-rule="nonzero"/><path fill="#fda345" d="M 322.667969 239.425781 L 316.902344 199.28125 C 316.902344 199.28125 313.621094 189.953125 308.5625 188.621094 C 303.507812 187.289062 291.53125 184.890625 291.53125 184.890625 L 291.882812 200.078125 L 297.296875 234.363281 Z M 322.667969 239.425781 " fill-opacity="1" fill-rule="nonzero"/><path fill="#fda345" d="M 282.925781 227.96875 L 322.667969 239.425781 C 322.667969 239.425781 324.53125 246.175781 324.53125 249.371094 C 324.53125 252.570312 324.179688 260.5625 313.265625 260.207031 L 279.996094 249.371094 Z M 282.925781 227.96875 " fill-opacity="1" fill-rule="nonzero"/><path fill="#e58833" d="M 280.085938 249.371094 L 283.632812 250.527344 C 290.109375 241.023438 288.78125 232.765625 287.804688 229.300781 L 282.925781 227.878906 Z M 280.085938 249.371094 " fill-opacity="1" fill-rule="nonzero"/><path fill="#f9c1c0" d="M 223.128906 250.792969 L 214.609375 250.792969 C 214.609375 250.792969 212.835938 241.289062 219.757812 238.003906 Z M 223.128906 250.792969 " fill-opacity="1" fill-rule="nonzero"/><path fill="#bfd7e2" d="M 273.964844 248.394531 L 262.429688 215.445312 C 262.164062 214.644531 261.367188 214.113281 260.566406 214.113281 L 210.085938 214.113281 C 208.3125 214.113281 207.070312 215.976562 207.777344 217.664062 L 221 249.285156 C 221.351562 250.171875 222.242188 250.792969 223.214844 250.792969 L 272.367188 250.792969 C 273.519531 250.792969 274.316406 249.550781 273.964844 248.394531 Z M 273.964844 248.394531 " fill-opacity="1" fill-rule="nonzero"/><path fill="#bfd7e2" d="M 262.339844 215.445312 C 262.074219 214.644531 261.277344 214.113281 260.476562 214.113281 L 258.4375 214.113281 L 271.921875 250.703125 L 272.277344 250.703125 C 273.519531 250.703125 274.316406 249.460938 273.964844 248.308594 Z M 262.339844 215.445312 " fill-opacity="0.44" fill-rule="nonzero"/><path fill="#f9c1c0" d="M 255.511719 151.941406 C 255.511719 151.941406 251.25 160.558594 254.976562 169.703125 C 257.992188 177.253906 265.800781 179.472656 265.800781 179.472656 L 267.21875 185.070312 L 263.582031 186.136719 C 263.582031 186.136719 262.695312 194.039062 269.351562 194.75 C 276.003906 195.460938 283.191406 189.332031 283.988281 183.648438 L 281.59375 183.117188 L 280.617188 174.855469 L 282.65625 172.992188 C 282.65625 172.992188 291.175781 170.59375 292.503906 165.796875 C 294.015625 160.378906 290.289062 158.78125 290.289062 158.78125 L 277.421875 143.59375 Z M 255.511719 151.941406 " fill-opacity="1" fill-rule="nonzero"/><path fill="#f4807d" d="M 288.070312 162.15625 C 288.070312 162.15625 290.109375 161.976562 289.84375 164.285156 C 289.578125 166.597656 286.828125 168.550781 285.761719 168.015625 C 284.699219 167.574219 285.675781 163.578125 288.070312 162.15625 Z M 288.070312 162.15625 " fill-opacity="0.33" fill-rule="nonzero"/><path fill="#f4807d" d="M 266.601562 182.847656 C 266.601562 182.847656 273.074219 183.203125 275.207031 178.585938 C 275.207031 178.585938 271.214844 180.984375 265.800781 179.472656 Z M 266.601562 182.847656 " fill-opacity="0.33" fill-rule="nonzero"/><path fill="#e26060" d="M 266.066406 169.082031 C 265.089844 169.082031 264.117188 168.996094 263.496094 168.460938 C 263.140625 168.195312 262.875 167.839844 262.875 167.394531 C 262.695312 165.886719 263.847656 164.996094 264.46875 164.554688 L 264.117188 160.113281 C 264.117188 159.847656 264.292969 159.578125 264.558594 159.578125 C 264.824219 159.578125 265.089844 159.757812 265.089844 160.023438 L 265.535156 164.820312 C 265.535156 164.996094 265.445312 165.265625 265.269531 165.351562 C 265.269531 165.351562 263.761719 166.152344 263.9375 167.308594 C 263.9375 167.484375 264.027344 167.574219 264.203125 167.660156 C 264.914062 168.195312 266.953125 168.105469 268.109375 167.929688 C 268.375 167.839844 268.640625 168.105469 268.730469 168.371094 C 268.816406 168.640625 268.550781 168.90625 268.285156 168.996094 C 267.929688 168.90625 267.042969 169.082031 266.066406 169.082031 Z M 266.066406 169.082031 " fill-opacity="1" fill-rule="nonzero"/><path fill="#79154d" d="M 253.113281 139.328125 C 253.113281 139.328125 246.636719 146.347656 252.136719 151.941406 C 256.042969 155.9375 267.839844 150.253906 267.839844 150.253906 C 267.839844 150.253906 271.480469 151.320312 275.914062 149.1875 C 275.914062 149.1875 275.382812 152.121094 276.449219 152.917969 C 277.601562 153.628906 278.929688 152.5625 278.929688 152.5625 C 278.929688 152.5625 280.085938 160.289062 282.835938 161.800781 C 282.835938 161.800781 286.296875 158.070312 286.828125 157.804688 C 287.359375 157.535156 289.222656 157.625 290.289062 158.601562 C 290.289062 158.601562 291.707031 149.097656 287.449219 143.949219 C 283.101562 138.796875 279.550781 137.640625 276.535156 137.910156 C 273.609375 138.175781 265.625 140.128906 262.695312 138.707031 C 259.855469 137.285156 260.746094 135.242188 260.746094 135.242188 C 260.746094 135.242188 254.710938 137.820312 254.710938 144.035156 C 254.621094 144.125 253.027344 143.683594 253.113281 139.328125 Z M 253.113281 139.328125 " fill-opacity="1" fill-rule="nonzero"/><path fill="#79154d" d="M 256.21875 159.492188 C 256.21875 159.492188 257.640625 155.761719 260.476562 156.738281 C 260.476562 156.738281 260.65625 155.496094 259.148438 154.960938 C 259.148438 154.960938 256.484375 154.785156 255.597656 158.867188 C 255.511719 158.871094 255.597656 159.402344 256.21875 159.492188 Z M 256.21875 159.492188 " fill-opacity="1" fill-rule="nonzero"/><path fill="#79154d" d="M 266.953125 156.648438 C 266.953125 156.648438 269.261719 153.183594 273.253906 154.605469 C 273.253906 154.605469 273.34375 153.628906 272.898438 153.183594 C 272.457031 152.742188 268.90625 151.585938 266.601562 155.496094 C 266.601562 155.496094 266.421875 156.472656 266.953125 156.648438 Z M 266.953125 156.648438 " fill-opacity="1" fill-rule="nonzero"/><path fill="#79154d" d="M 261.097656 162.953125 C 261.453125 164.019531 261.367188 165.085938 260.832031 165.265625 C 260.300781 165.441406 259.589844 164.730469 259.234375 163.578125 C 258.882812 162.511719 258.96875 161.445312 259.503906 161.265625 C 260.035156 161.089844 260.746094 161.890625 261.097656 162.953125 Z M 261.097656 162.953125 " fill-opacity="1" fill-rule="nonzero"/><path fill="#79154d" d="M 273.875 161.089844 C 274.230469 162.15625 274.140625 163.222656 273.609375 163.398438 C 273.074219 163.578125 272.367188 162.867188 272.011719 161.710938 C 271.65625 160.644531 271.746094 159.578125 272.277344 159.402344 C 272.808594 159.222656 273.519531 160.023438 273.875 161.089844 Z M 273.875 161.089844 " fill-opacity="1" fill-rule="nonzero"/><path fill="#434a4f" d="M 264.558594 164.640625 C 264.558594 161.265625 261.808594 158.515625 258.4375 158.515625 C 255.066406 158.515625 252.316406 161.265625 252.316406 164.640625 C 252.316406 168.015625 255.066406 170.769531 258.4375 170.769531 C 261.808594 170.769531 264.558594 168.015625 264.558594 164.640625 Z M 264.558594 164.640625 " fill-opacity="0.15" fill-rule="nonzero"/><path fill="#434a4f" d="M 279.109375 161.445312 C 279.109375 161.847656 279.070312 162.246094 278.992188 162.640625 C 278.914062 163.035156 278.796875 163.417969 278.644531 163.789062 C 278.488281 164.160156 278.300781 164.515625 278.078125 164.847656 C 277.855469 165.183594 277.601562 165.492188 277.316406 165.777344 C 277.03125 166.0625 276.722656 166.316406 276.386719 166.539062 C 276.054688 166.765625 275.703125 166.953125 275.328125 167.105469 C 274.957031 167.261719 274.574219 167.375 274.183594 167.457031 C 273.789062 167.535156 273.390625 167.574219 272.988281 167.574219 C 272.585938 167.574219 272.1875 167.535156 271.792969 167.457031 C 271.398438 167.375 271.015625 167.261719 270.644531 167.105469 C 270.273438 166.953125 269.921875 166.765625 269.585938 166.539062 C 269.253906 166.316406 268.941406 166.0625 268.660156 165.777344 C 268.375 165.492188 268.121094 165.183594 267.898438 164.847656 C 267.675781 164.515625 267.484375 164.160156 267.332031 163.789062 C 267.179688 163.417969 267.0625 163.035156 266.984375 162.640625 C 266.90625 162.246094 266.867188 161.847656 266.867188 161.445312 C 266.867188 161.042969 266.90625 160.644531 266.984375 160.25 C 267.0625 159.855469 267.179688 159.472656 267.332031 159.097656 C 267.484375 158.726562 267.675781 158.375 267.898438 158.039062 C 268.121094 157.707031 268.375 157.394531 268.660156 157.113281 C 268.941406 156.828125 269.253906 156.574219 269.585938 156.347656 C 269.921875 156.125 270.273438 155.9375 270.644531 155.78125 C 271.015625 155.628906 271.398438 155.511719 271.792969 155.433594 C 272.1875 155.355469 272.585938 155.316406 272.988281 155.316406 C 273.390625 155.316406 273.789062 155.355469 274.183594 155.433594 C 274.574219 155.511719 274.957031 155.628906 275.328125 155.78125 C 275.703125 155.9375 276.054688 156.125 276.386719 156.347656 C 276.722656 156.574219 277.03125 156.828125 277.316406 157.113281 C 277.601562 157.394531 277.855469 157.707031 278.078125 158.039062 C 278.300781 158.375 278.488281 158.726562 278.644531 159.097656 C 278.796875 159.472656 278.914062 159.855469 278.992188 160.25 C 279.070312 160.644531 279.109375 161.042969 279.109375 161.445312 Z M 279.109375 161.445312 " fill-opacity="0.15" fill-rule="nonzero"/><path fill="#e4eff9" d="M 258.347656 171.125 C 254.800781 171.125 251.871094 168.195312 251.871094 164.640625 C 251.871094 161.089844 254.800781 158.160156 258.347656 158.160156 C 261.898438 158.160156 264.824219 161.089844 264.824219 164.640625 C 264.914062 168.195312 261.984375 171.125 258.347656 171.125 Z M 258.347656 158.78125 C 255.15625 158.78125 252.492188 161.355469 252.492188 164.640625 C 252.492188 167.839844 255.066406 170.503906 258.347656 170.503906 C 261.542969 170.503906 264.203125 167.929688 264.203125 164.640625 C 264.203125 161.355469 261.542969 158.78125 258.347656 158.78125 Z M 258.347656 158.78125 " fill-opacity="1" fill-rule="nonzero"/><path fill="#e4eff9" d="M 272.988281 167.929688 C 269.4375 167.929688 266.511719 164.996094 266.511719 161.445312 C 266.511719 157.890625 269.4375 154.960938 272.988281 154.960938 C 276.535156 154.960938 279.464844 157.890625 279.464844 161.445312 C 279.464844 164.996094 276.625 167.929688 272.988281 167.929688 Z M 272.988281 155.582031 C 269.792969 155.582031 267.132812 158.160156 267.132812 161.445312 C 267.132812 164.640625 269.703125 167.308594 272.988281 167.308594 C 276.269531 167.308594 278.84375 164.730469 278.84375 161.445312 C 278.84375 158.246094 276.179688 155.582031 272.988281 155.582031 Z M 272.988281 155.582031 " fill-opacity="1" fill-rule="nonzero"/><path fill="#e4eff9" d="M 264.738281 163.84375 L 264.203125 163.398438 C 264.292969 163.308594 265.003906 162.511719 267.042969 162.511719 L 267.042969 163.222656 C 265.269531 163.222656 264.738281 163.84375 264.738281 163.84375 Z M 264.738281 163.84375 " fill-opacity="1" fill-rule="nonzero"/><path fill="#e4eff9" d="M 278.929688 160.023438 C 278.753906 160.023438 278.664062 159.933594 278.578125 159.757812 C 278.488281 159.578125 278.578125 159.402344 278.753906 159.3125 L 285.675781 157.003906 L 285.761719 157.003906 C 285.941406 157.003906 287.449219 157.09375 288.160156 157.359375 C 288.335938 157.449219 288.425781 157.625 288.335938 157.804688 C 288.246094 157.980469 288.070312 158.070312 287.890625 157.980469 C 287.449219 157.804688 286.296875 157.714844 285.761719 157.714844 L 278.929688 159.933594 C 278.929688 160.023438 278.929688 160.023438 278.929688 160.023438 Z M 278.929688 160.023438 " fill-opacity="1" fill-rule="nonzero"/><path fill="#e26060" d="M 269.351562 180.273438 C 267.574219 180.273438 266.15625 180.007812 266.066406 180.007812 C 265.890625 180.007812 265.800781 179.828125 265.800781 179.5625 C 265.800781 179.386719 265.980469 179.296875 266.246094 179.296875 C 266.332031 179.296875 272.101562 180.453125 275.648438 177.964844 C 275.828125 177.875 276.003906 177.875 276.09375 178.054688 C 276.179688 178.230469 276.179688 178.410156 276.003906 178.496094 C 273.964844 179.917969 271.390625 180.273438 269.351562 180.273438 Z M 269.351562 180.273438 " fill-opacity="1" fill-rule="nonzero"/><path fill="#e26060" d="M 269.082031 173.257812 C 272.101562 172.191406 275.382812 170.414062 276.625 167.21875 C 276.714844 166.863281 277.246094 167.039062 277.15625 167.394531 C 276.625 169.082031 275.382812 170.503906 274.050781 171.660156 C 272.632812 172.722656 271.035156 173.523438 269.351562 174.058594 C 269.171875 174.144531 268.90625 173.96875 268.816406 173.789062 C 268.730469 173.523438 268.816406 173.257812 269.082031 173.257812 Z M 269.082031 173.257812 " fill-opacity="1" fill-rule="nonzero"/><path fill="#e26060" d="M 284.699219 167.308594 C 284.609375 167.308594 284.609375 167.308594 284.519531 167.308594 C 284.253906 167.21875 284.078125 166.953125 284.253906 166.683594 C 285.761719 162.511719 288.335938 161.535156 288.511719 161.535156 C 288.78125 161.445312 289.046875 161.535156 289.132812 161.800781 C 289.222656 162.066406 289.132812 162.332031 288.867188 162.421875 C 288.867188 162.421875 286.5625 163.308594 285.230469 167.039062 C 285.140625 167.128906 284.964844 167.308594 284.699219 167.308594 Z M 284.699219 167.308594 " fill-opacity="1" fill-rule="nonzero"/><path fill="#e26060" d="M 288.601562 165.085938 C 288.511719 165.085938 288.425781 165.085938 288.335938 164.996094 C 288.246094 164.996094 287.183594 164.375 286.027344 164.996094 C 285.761719 165.175781 285.496094 165.085938 285.320312 164.820312 C 285.140625 164.554688 285.230469 164.285156 285.496094 164.109375 C 287.183594 163.132812 288.78125 164.109375 288.867188 164.109375 C 289.132812 164.285156 289.222656 164.554688 289.046875 164.820312 C 288.957031 164.996094 288.78125 165.085938 288.601562 165.085938 Z M 288.601562 165.085938 " fill-opacity="1" fill-rule="nonzero"/><path fill="#f9c1c0" d="M 280.085938 249.371094 C 280.085938 249.371094 286.472656 241.203125 282.925781 227.96875 C 282.925781 227.96875 269.261719 223.703125 267.664062 223.703125 C 266.066406 223.703125 253.824219 226.191406 253.824219 226.191406 C 253.824219 226.191406 252.050781 228.410156 254.179688 229.476562 C 254.179688 229.476562 252.050781 232.675781 254.890625 233.917969 C 254.890625 233.917969 252.9375 237.117188 255.953125 238.535156 C 255.953125 238.535156 254.621094 240.046875 256.21875 241.644531 C 257.816406 243.15625 266.953125 241.644531 266.953125 241.644531 C 266.953125 241.644531 271.300781 249.285156 280.085938 249.371094 Z M 280.085938 249.371094 " fill-opacity="1" fill-rule="nonzero"/><path fill="#daeaef" d="M 238.03125 230.453125 C 238.03125 228.589844 238.832031 226.992188 240.160156 225.925781 C 239.984375 225.925781 239.804688 225.835938 239.628906 225.835938 C 236.257812 225.835938 233.597656 228.5 233.597656 231.875 C 233.597656 235.25 236.257812 237.914062 239.628906 237.914062 C 241.136719 237.914062 242.46875 237.382812 243.53125 236.40625 C 240.425781 236.226562 238.03125 233.652344 238.03125 230.453125 Z M 238.03125 230.453125 " fill-opacity="1" fill-rule="nonzero"/><path fill="#e26060" d="M 254.269531 229.832031 C 254.089844 229.832031 253.914062 229.746094 253.914062 229.566406 C 253.914062 229.390625 254 229.210938 254.179688 229.210938 L 268.019531 227.433594 C 268.195312 227.433594 268.375 227.523438 268.375 227.703125 C 268.375 227.878906 268.285156 228.058594 268.109375 228.058594 Z M 254.269531 229.832031 " fill-opacity="1" fill-rule="nonzero"/><path fill="#e26060" d="M 254.890625 234.273438 C 254.710938 234.273438 254.535156 234.183594 254.535156 234.007812 C 254.535156 233.828125 254.621094 233.652344 254.800781 233.652344 L 268.90625 232.140625 C 269.082031 232.140625 269.261719 232.230469 269.261719 232.410156 C 269.261719 232.585938 269.171875 232.765625 268.996094 232.765625 L 254.890625 234.273438 C 254.976562 234.273438 254.976562 234.273438 254.890625 234.273438 Z M 254.890625 234.273438 " fill-opacity="1" fill-rule="nonzero"/><path fill="#e26060" d="M 255.953125 238.890625 C 255.777344 238.890625 255.597656 238.804688 255.597656 238.625 C 255.597656 238.449219 255.6875 238.269531 255.863281 238.269531 L 268.460938 236.9375 C 268.640625 236.9375 268.816406 237.027344 268.816406 237.203125 C 268.816406 237.382812 268.730469 237.558594 268.550781 237.558594 L 255.953125 238.890625 C 256.042969 238.890625 255.953125 238.890625 255.953125 238.890625 Z M 255.953125 238.890625 " fill-opacity="1" fill-rule="nonzero"/><path fill="#e58833" d="M 291.53125 184.890625 L 286.472656 184.003906 C 286.472656 184.003906 283.457031 190.753906 280.441406 200.523438 C 280.527344 200.433594 289.222656 187.289062 291.53125 184.890625 Z M 291.53125 184.890625 " fill-opacity="1" fill-rule="nonzero"/><path fill="#e58833" d="M 257.640625 203.097656 C 259.503906 193.328125 261.542969 186.667969 261.542969 186.667969 C 260.210938 187.023438 258.347656 187.824219 256.398438 188.621094 C 256.398438 188.621094 256.132812 199.722656 257.640625 203.097656 Z M 257.640625 203.097656 " fill-opacity="1" fill-rule="nonzero"/><path fill="#c1610a" d="M 296.765625 231.785156 C 296.496094 231.785156 296.320312 231.609375 296.230469 231.34375 L 291.351562 200.167969 C 291.351562 199.902344 291.53125 199.636719 291.796875 199.546875 C 292.0625 199.546875 292.328125 199.722656 292.417969 199.992188 L 297.296875 231.164062 C 297.296875 231.433594 297.117188 231.699219 296.765625 231.785156 Z M 296.765625 231.785156 " fill-opacity="1" fill-rule="nonzero"/><path fill="#c1610a" d="M 312.734375 237.027344 C 312.644531 237.027344 312.644531 237.027344 312.554688 237.027344 L 283.8125 228.765625 C 283.546875 228.679688 283.367188 228.410156 283.457031 228.144531 C 283.546875 227.878906 283.8125 227.703125 284.078125 227.789062 L 312.820312 236.050781 C 313.089844 236.140625 313.265625 236.40625 313.175781 236.671875 C 313.175781 236.9375 313 237.027344 312.734375 237.027344 Z M 312.734375 237.027344 " fill-opacity="1" fill-rule="nonzero"/><path fill="#c1610a" d="M 314.242188 260.742188 C 313.621094 260.742188 313.265625 260.742188 313.175781 260.742188 L 313.089844 260.742188 L 279.820312 249.90625 C 279.550781 249.816406 279.375 249.550781 279.464844 249.285156 C 279.550781 249.015625 279.820312 248.839844 280.085938 248.929688 L 313.265625 259.675781 C 313.886719 259.765625 320.097656 260.121094 322.582031 255.589844 C 322.757812 255.324219 323.023438 255.234375 323.289062 255.410156 C 323.558594 255.589844 323.644531 255.855469 323.46875 256.121094 C 321.25 260.207031 316.371094 260.742188 314.242188 260.742188 Z M 314.242188 260.742188 " fill-opacity="1" fill-rule="nonzero"/><path fill="#59113c" d="M 229.957031 341.917969 C 229.691406 341.917969 229.425781 341.742188 229.425781 341.386719 C 229.425781 341.121094 229.605469 340.851562 229.957031 340.851562 L 248.234375 340.140625 C 248.5 340.140625 248.765625 340.320312 248.765625 340.675781 C 248.765625 340.941406 248.589844 341.207031 248.234375 341.207031 Z M 229.957031 341.917969 " fill-opacity="1" fill-rule="nonzero"/><path fill="#4374af" d="M 151.175781 352.398438 L 161.203125 352.398438 L 163.953125 359.59375 L 180.984375 359.59375 L 178.148438 367.941406 C 177.96875 368.386719 177.613281 368.652344 177.082031 368.652344 L 145.320312 368.652344 C 145.320312 368.652344 140.175781 368.652344 140 364.566406 C 139.820312 359.949219 153.21875 356.308594 153.21875 356.308594 L 150.734375 353.375 C 150.378906 353.109375 150.644531 352.398438 151.175781 352.398438 Z M 151.175781 352.398438 " fill-opacity="1" fill-rule="nonzero"/><path fill="#4374af" d="M 251.785156 359.859375 L 232.53125 359.859375 L 229.25 353.730469 L 217.539062 353.730469 L 220.289062 357.371094 C 220.289062 357.371094 209.820312 361.191406 209.996094 365.011719 C 210.261719 368.828125 214.167969 368.5625 214.167969 368.5625 L 252.847656 368.5625 C 253.648438 368.5625 254.269531 367.765625 254 366.964844 Z M 251.785156 359.859375 " fill-opacity="1" fill-rule="nonzero"/><path fill="#365b91" d="M 153.75 361.28125 C 153.660156 361.28125 153.570312 361.191406 153.484375 361.101562 C 152.0625 359.238281 149.667969 357.996094 149.667969 357.996094 C 149.492188 357.90625 149.402344 357.726562 149.492188 357.550781 C 149.578125 357.371094 149.757812 357.285156 149.933594 357.371094 C 150.023438 357.460938 152.417969 358.703125 154.015625 360.660156 C 154.105469 360.835938 154.105469 361.015625 153.925781 361.101562 C 153.925781 361.28125 153.839844 361.28125 153.75 361.28125 Z M 153.75 361.28125 " fill-opacity="1" fill-rule="nonzero"/><path fill="#365b91" d="M 156.855469 360.125 C 156.765625 360.125 156.675781 360.039062 156.589844 359.949219 C 155.167969 358.082031 152.773438 356.839844 152.773438 356.839844 C 152.597656 356.75 152.507812 356.574219 152.597656 356.394531 C 152.683594 356.21875 152.863281 356.128906 153.039062 356.21875 C 153.128906 356.308594 155.523438 357.550781 157.121094 359.503906 C 157.210938 359.683594 157.210938 359.859375 157.03125 359.949219 C 157.03125 360.039062 156.941406 360.125 156.855469 360.125 Z M 156.855469 360.125 " fill-opacity="1" fill-rule="nonzero"/><path fill="#365b91" d="M 224.015625 362.257812 C 223.925781 362.257812 223.835938 362.257812 223.835938 362.167969 C 220.644531 359.683594 217.007812 359.503906 217.007812 359.503906 C 216.828125 359.503906 216.652344 359.328125 216.652344 359.148438 C 216.652344 358.972656 216.828125 358.792969 217.007812 358.792969 C 217.183594 358.792969 220.820312 358.972656 224.28125 361.546875 C 224.457031 361.636719 224.457031 361.902344 224.371094 361.992188 C 224.28125 362.257812 224.191406 362.257812 224.015625 362.257812 Z M 224.015625 362.257812 " fill-opacity="1" fill-rule="nonzero"/><path fill="#365b91" d="M 227.742188 361.191406 C 227.652344 361.191406 227.5625 361.191406 227.476562 361.101562 C 224.457031 358.351562 220.109375 358.082031 220.109375 358.082031 C 219.933594 358.082031 219.757812 357.90625 219.757812 357.726562 C 219.757812 357.550781 219.933594 357.371094 220.109375 357.371094 C 220.289062 357.371094 224.722656 357.640625 227.917969 360.570312 C 228.097656 360.660156 228.097656 360.925781 227.917969 361.015625 C 227.917969 361.191406 227.828125 361.191406 227.742188 361.191406 Z M 227.742188 361.191406 " fill-opacity="1" fill-rule="nonzero"/><path fill="#8abc69" d="M 99.363281 299.109375 C 99.363281 299.109375 108.058594 303.90625 113.117188 299.109375 C 118.171875 294.3125 119.59375 291.203125 119.59375 291.203125 C 119.59375 291.203125 124.648438 294.136719 127.398438 296.976562 C 130.238281 299.820312 136.714844 299.730469 138.136719 296.179688 C 139.554688 292.625 132.902344 281.433594 127.667969 278.769531 C 122.34375 276.105469 110.1875 274.773438 103.535156 280.015625 C 96.261719 285.609375 93.421875 293.160156 99.363281 299.109375 Z M 99.363281 299.109375 " fill-opacity="1" fill-rule="nonzero"/><path fill="#8abc69" d="M 83.484375 310.566406 C 86.5 310.210938 88.894531 307.902344 89.164062 304.882812 C 89.515625 301.0625 88.1875 295.46875 79.402344 290.761719 C 64.585938 282.679688 53.496094 292.269531 50.125 296.179688 C 46.753906 300.175781 45.335938 305.949219 45.335938 305.949219 C 45.335938 305.949219 47.554688 309.855469 54.03125 308.613281 C 60.507812 307.371094 62.722656 301.597656 62.722656 301.597656 C 62.722656 301.597656 69.734375 302.484375 74.96875 308.96875 C 75.054688 308.878906 78.695312 311.101562 83.484375 310.566406 Z M 83.484375 310.566406 " fill-opacity="1" fill-rule="nonzero"/><path fill="#8abc69" d="M 91.46875 288.363281 C 91.46875 288.363281 99.808594 278.058594 88.097656 259.941406 C 76.386719 241.824219 60.949219 238.535156 55.359375 238.804688 C 49.769531 239.160156 47.109375 242.445312 50.390625 248.394531 C 50.390625 248.394531 63.523438 262.074219 65.742188 265.359375 C 67.957031 268.644531 76.386719 293.871094 91.46875 288.363281 Z M 91.46875 288.363281 " fill-opacity="1" fill-rule="nonzero"/><path fill="#578c35" d="M 95.816406 327.085938 C 95.550781 327.085938 95.285156 326.820312 95.285156 326.554688 C 95.460938 319.269531 96.96875 282.589844 113.738281 276.90625 C 123.585938 273.53125 130.503906 280.457031 130.59375 280.457031 C 130.769531 280.636719 130.769531 280.992188 130.59375 281.167969 C 130.417969 281.347656 130.0625 281.347656 129.882812 281.167969 C 129.796875 281.078125 123.40625 274.683594 114.09375 277.792969 C 107.4375 280.015625 102.46875 287.828125 99.363281 300.886719 C 96.792969 311.808594 96.347656 323.265625 96.347656 326.464844 C 96.347656 326.820312 96.082031 327.085938 95.816406 327.085938 Z M 95.816406 327.085938 " fill-opacity="1" fill-rule="nonzero"/><path fill="#578c35" d="M 103.445312 327.085938 C 103.179688 327.085938 103.003906 326.910156 102.914062 326.640625 C 102.824219 326.199219 94.308594 277.972656 67.070312 253.371094 C 66.894531 253.191406 66.804688 252.835938 67.070312 252.660156 C 67.25 252.480469 67.605469 252.390625 67.78125 252.660156 C 95.285156 277.4375 103.890625 326.019531 103.890625 326.464844 C 103.976562 326.730469 103.800781 326.996094 103.445312 327.085938 Z M 103.445312 327.085938 " fill-opacity="1" fill-rule="nonzero"/><path fill="#578c35" d="M 92.179688 327.085938 C 91.914062 327.085938 91.644531 326.820312 91.644531 326.554688 C 91.644531 326.289062 91.378906 300.175781 69.378906 296.089844 C 69.113281 296 68.933594 295.734375 68.933594 295.46875 C 69.023438 295.203125 69.289062 295.023438 69.554688 295.023438 C 92.445312 299.375 92.710938 326.289062 92.710938 326.554688 C 92.710938 326.820312 92.535156 327.085938 92.179688 327.085938 Z M 92.179688 327.085938 " fill-opacity="1" fill-rule="nonzero"/><path fill="#79154d" d="M 79.847656 331.527344 L 78.515625 331.527344 C 77.804688 331.527344 77.183594 330.996094 76.917969 330.371094 L 76.03125 326.996094 C 75.765625 326.109375 76.476562 325.222656 77.453125 325.222656 L 114.179688 325.222656 C 115.15625 325.222656 115.777344 326.109375 115.601562 326.996094 L 114.714844 330.371094 C 114.535156 331.082031 113.914062 331.527344 113.117188 331.527344 L 111.785156 331.527344 C 111.785156 331.527344 117.285156 339.519531 116.578125 350.621094 C 115.867188 361.726562 106.195312 367.941406 106.195312 367.941406 L 85.4375 367.941406 C 85.4375 367.941406 75.855469 361.726562 75.054688 350.621094 C 74.347656 339.519531 79.847656 331.527344 79.847656 331.527344 Z M 79.847656 331.527344 " fill-opacity="1" fill-rule="nonzero"/><path fill="#8abc69" d="M 45.335938 305.949219 C 45.335938 305.949219 45.691406 304.617188 46.398438 302.75 C 53.410156 299.910156 62.722656 301.597656 62.722656 301.597656 C 62.722656 301.597656 60.507812 307.371094 54.03125 308.613281 C 47.554688 309.855469 45.335938 305.949219 45.335938 305.949219 Z M 45.335938 305.949219 " fill-opacity="0.55" fill-rule="nonzero"/><path fill="#8abc69" d="M 132.8125 283.65625 C 136.273438 288.007812 139.023438 293.871094 138.046875 296.265625 C 136.625 299.820312 130.148438 299.820312 127.3125 297.066406 C 124.472656 294.222656 119.503906 291.292969 119.503906 291.292969 C 125.535156 280.371094 132.632812 283.566406 132.8125 283.65625 Z M 132.8125 283.65625 " fill-opacity="0.55" fill-rule="nonzero"/><g clip-path="url(#455a58414c)"><path fill="#acc7d1" d="M 388.144531 369.097656 L 7.894531 369.097656 C 7.542969 369.097656 7.1875 368.828125 7.1875 368.386719 C 7.1875 367.941406 7.453125 367.675781 7.894531 367.675781 L 388.054688 367.675781 C 388.410156 367.675781 388.765625 367.941406 388.765625 368.386719 C 388.765625 368.828125 388.5 369.097656 388.144531 369.097656 Z M 388.144531 369.097656 " fill-opacity="1" fill-rule="nonzero"/></g><g clip-path="url(#96f3a676cc)"><path fill="#dfeff7" d="M 393.554688 100.25 L 314.773438 100.25 C 313 100.25 311.578125 101.671875 311.578125 103.449219 L 311.578125 178.765625 C 311.578125 180.539062 313 181.960938 314.773438 181.960938 L 393.554688 181.960938 C 395.332031 181.960938 396.75 180.539062 396.75 178.765625 L 396.75 103.449219 C 396.75 101.671875 395.332031 100.25 393.554688 100.25 Z M 393.554688 100.25 " fill-opacity="1" fill-rule="nonzero"/></g><g clip-path="url(#8bfc50dfc8)"><path fill="#e05353" d="M 391.871094 100.25 L 316.546875 100.25 C 313.796875 100.25 311.667969 102.472656 311.667969 105.136719 L 311.667969 111.441406 L 396.75 111.441406 L 396.75 105.136719 C 396.75 102.472656 394.53125 100.25 391.871094 100.25 Z M 391.871094 100.25 " fill-opacity="1" fill-rule="nonzero"/></g><path fill="#dfeff7" d="M 318.589844 105.847656 C 318.589844 104.957031 317.878906 104.335938 317.082031 104.335938 C 316.195312 104.335938 315.574219 105.046875 315.574219 105.847656 C 315.574219 106.734375 316.28125 107.355469 317.082031 107.355469 C 317.878906 107.445312 318.589844 106.734375 318.589844 105.847656 Z M 318.589844 105.847656 " fill-opacity="1" fill-rule="nonzero"/><path fill="#dfeff7" d="M 324.976562 105.847656 C 324.976562 104.957031 324.265625 104.335938 323.46875 104.335938 C 322.582031 104.335938 321.960938 105.046875 321.960938 105.847656 C 321.960938 106.734375 322.667969 107.355469 323.46875 107.355469 C 324.265625 107.445312 324.976562 106.734375 324.976562 105.847656 Z M 324.976562 105.847656 " fill-opacity="1" fill-rule="nonzero"/><path fill="#dfeff7" d="M 331.1875 105.847656 C 331.1875 104.957031 330.476562 104.335938 329.679688 104.335938 C 328.792969 104.335938 328.171875 105.046875 328.171875 105.847656 C 328.171875 106.734375 328.878906 107.355469 329.679688 107.355469 C 330.476562 107.445312 331.1875 106.734375 331.1875 105.847656 Z M 331.1875 105.847656 " fill-opacity="1" fill-rule="nonzero"/><path fill="#ffffff" d="M 317.703125 118.28125 L 352.125 118.28125 L 352.125 158.335938 L 317.703125 158.335938 Z M 317.703125 118.28125 " fill-opacity="1" fill-rule="nonzero"/><path fill="#b2ccd3" d="M 335.710938 137.996094 C 335.535156 137.996094 335.355469 137.910156 335.269531 137.820312 L 328.792969 128.671875 C 328.613281 128.40625 328.703125 128.140625 328.878906 127.960938 C 329.144531 127.785156 329.414062 127.871094 329.589844 128.050781 L 335.710938 136.664062 L 342.988281 128.671875 C 343.164062 128.492188 343.519531 128.40625 343.695312 128.671875 C 343.875 128.847656 343.960938 129.203125 343.695312 129.382812 L 335.976562 137.910156 C 336.066406 137.910156 335.890625 137.996094 335.710938 137.996094 Z M 335.710938 137.996094 " fill-opacity="1" fill-rule="nonzero"/><path fill="#b2ccd3" d="M 344.050781 149.453125 C 343.875 149.453125 343.785156 149.367188 343.695312 149.277344 L 336.863281 140.929688 L 334.027344 140.929688 L 325.953125 149.367188 C 325.773438 149.542969 325.421875 149.542969 325.242188 149.367188 C 325.066406 149.1875 325.066406 148.832031 325.242188 148.65625 L 333.40625 140.128906 C 333.492188 140.039062 333.671875 139.953125 333.757812 139.953125 L 337.042969 139.953125 C 337.21875 139.953125 337.308594 140.039062 337.398438 140.128906 L 344.40625 148.65625 C 344.582031 148.832031 344.582031 149.1875 344.316406 149.367188 C 344.316406 149.367188 344.226562 149.453125 344.050781 149.453125 Z M 344.050781 149.453125 " fill-opacity="1" fill-rule="nonzero"/><path fill="#dfeff7" d="M 342.453125 138.265625 C 342.453125 138.679688 342.414062 139.089844 342.332031 139.492188 C 342.253906 139.898438 342.132812 140.292969 341.972656 140.675781 C 341.816406 141.058594 341.621094 141.421875 341.390625 141.765625 C 341.164062 142.113281 340.902344 142.429688 340.609375 142.722656 C 340.316406 143.015625 340 143.277344 339.65625 143.507812 C 339.3125 143.738281 338.949219 143.929688 338.566406 144.089844 C 338.183594 144.25 337.789062 144.367188 337.382812 144.449219 C 336.976562 144.53125 336.570312 144.570312 336.15625 144.570312 C 335.742188 144.570312 335.332031 144.53125 334.925781 144.449219 C 334.519531 144.367188 334.125 144.25 333.746094 144.089844 C 333.363281 143.929688 333 143.738281 332.65625 143.507812 C 332.3125 143.277344 331.992188 143.015625 331.699219 142.722656 C 331.410156 142.429688 331.148438 142.113281 330.917969 141.765625 C 330.6875 141.421875 330.492188 141.058594 330.335938 140.675781 C 330.175781 140.292969 330.058594 139.898438 329.976562 139.492188 C 329.894531 139.089844 329.855469 138.679688 329.855469 138.265625 C 329.855469 137.851562 329.894531 137.441406 329.976562 137.035156 C 330.058594 136.628906 330.175781 136.234375 330.335938 135.851562 C 330.492188 135.46875 330.6875 135.105469 330.917969 134.761719 C 331.148438 134.417969 331.410156 134.097656 331.699219 133.804688 C 331.992188 133.511719 332.3125 133.25 332.65625 133.019531 C 333 132.789062 333.363281 132.597656 333.746094 132.4375 C 334.125 132.28125 334.519531 132.160156 334.925781 132.078125 C 335.332031 132 335.742188 131.957031 336.15625 131.957031 C 336.570312 131.957031 336.976562 132 337.382812 132.078125 C 337.789062 132.160156 338.183594 132.28125 338.566406 132.4375 C 338.949219 132.597656 339.3125 132.789062 339.65625 133.019531 C 340 133.25 340.316406 133.511719 340.609375 133.804688 C 340.902344 134.097656 341.164062 134.417969 341.390625 134.761719 C 341.621094 135.105469 341.816406 135.46875 341.972656 135.851562 C 342.132812 136.234375 342.253906 136.628906 342.332031 137.035156 C 342.414062 137.441406 342.453125 137.851562 342.453125 138.265625 Z M 342.453125 138.265625 " fill-opacity="1" fill-rule="nonzero"/><path fill="#dfeff7" d="M 347.867188 127.695312 C 347.867188 125.5625 346.179688 123.875 344.050781 123.875 C 341.921875 123.875 340.234375 125.5625 340.234375 127.695312 C 340.234375 129.828125 341.921875 131.515625 344.050781 131.515625 C 346.179688 131.515625 347.867188 129.828125 347.867188 127.695312 Z M 347.867188 127.695312 " fill-opacity="1" fill-rule="nonzero"/><path fill="#dfeff7" d="M 333.050781 126.183594 C 333.050781 123.429688 330.832031 121.300781 328.171875 121.300781 C 325.421875 121.300781 323.289062 123.519531 323.289062 126.183594 C 323.289062 128.9375 325.507812 131.070312 328.171875 131.070312 C 330.832031 131.160156 333.050781 128.9375 333.050781 126.183594 Z M 333.050781 126.183594 " fill-opacity="1" fill-rule="nonzero"/><path fill="#dfeff7" d="M 328.703125 148.921875 C 328.703125 147.234375 327.285156 145.8125 325.597656 145.8125 C 323.910156 145.8125 322.492188 147.234375 322.492188 148.921875 C 322.492188 150.609375 323.910156 152.03125 325.597656 152.03125 C 327.285156 152.03125 328.703125 150.609375 328.703125 148.921875 Z M 328.703125 148.921875 " fill-opacity="1" fill-rule="nonzero"/><path fill="#dfeff7" d="M 348.664062 148.921875 C 348.664062 146.433594 346.625 144.390625 344.140625 144.390625 C 341.65625 144.390625 339.613281 146.433594 339.613281 148.921875 C 339.613281 151.410156 341.65625 153.453125 344.140625 153.453125 C 346.625 153.453125 348.664062 151.410156 348.664062 148.921875 Z M 348.664062 148.921875 " fill-opacity="1" fill-rule="nonzero"/><path fill="#cadee5" d="M 366.40625 137.730469 C 366.230469 137.730469 366.140625 137.640625 366.054688 137.554688 L 361.441406 132.3125 L 356.292969 137.640625 C 356.117188 137.820312 355.761719 137.820312 355.585938 137.640625 C 355.40625 137.464844 355.40625 137.109375 355.585938 136.929688 L 361.085938 131.246094 C 361.171875 131.160156 361.351562 131.070312 361.441406 131.070312 C 361.617188 131.070312 361.707031 131.160156 361.792969 131.246094 L 366.320312 136.398438 L 375.902344 122.453125 C 375.988281 122.277344 376.167969 122.1875 376.34375 122.277344 C 376.523438 122.277344 376.699219 122.453125 376.789062 122.632812 L 381.84375 135.953125 L 388.5 127.074219 C 388.675781 126.804688 389.03125 126.804688 389.207031 126.984375 C 389.476562 127.160156 389.476562 127.515625 389.296875 127.695312 L 382.023438 137.375 C 381.933594 137.554688 381.757812 137.640625 381.578125 137.554688 C 381.402344 137.554688 381.222656 137.375 381.136719 137.199219 L 376.167969 123.964844 L 366.761719 137.640625 C 366.761719 137.640625 366.585938 137.730469 366.40625 137.730469 C 366.496094 137.730469 366.40625 137.730469 366.40625 137.730469 Z M 366.40625 137.730469 " fill-opacity="1" fill-rule="nonzero"/><path fill="#cadee5" d="M 389.207031 131.867188 C 388.941406 131.867188 388.675781 131.691406 388.675781 131.335938 L 388.5 127.785156 L 385.570312 128.316406 C 385.304688 128.40625 385.039062 128.226562 384.949219 127.871094 C 384.863281 127.605469 385.039062 127.339844 385.394531 127.25 L 388.941406 126.628906 C 389.121094 126.628906 389.207031 126.628906 389.386719 126.71875 C 389.476562 126.804688 389.5625 126.984375 389.5625 127.074219 L 389.742188 131.246094 C 389.742188 131.691406 389.476562 131.867188 389.207031 131.867188 Z M 389.207031 131.867188 " fill-opacity="1" fill-rule="nonzero"/><path fill="#b2ccd3" d="M 362.683594 131.515625 C 362.683594 130.890625 362.148438 130.269531 361.441406 130.269531 C 360.820312 130.269531 360.199219 130.804688 360.199219 131.515625 C 360.199219 132.136719 360.730469 132.757812 361.441406 132.757812 C 362.0625 132.757812 362.683594 132.222656 362.683594 131.515625 Z M 362.683594 131.515625 " fill-opacity="1" fill-rule="nonzero"/><path fill="#b2ccd3" d="M 377.496094 122.722656 C 377.496094 122.097656 376.964844 121.476562 376.257812 121.476562 C 375.636719 121.476562 375.015625 122.011719 375.015625 122.722656 C 375.015625 123.34375 375.546875 123.964844 376.257812 123.964844 C 376.964844 123.875 377.496094 123.34375 377.496094 122.722656 Z M 377.496094 122.722656 " fill-opacity="1" fill-rule="nonzero"/><path fill="#b2ccd3" d="M 383.175781 136.578125 C 383.175781 135.953125 382.644531 135.332031 381.933594 135.332031 C 381.3125 135.332031 380.691406 135.867188 380.691406 136.578125 C 380.691406 137.199219 381.222656 137.820312 381.933594 137.820312 C 382.554688 137.820312 383.175781 137.285156 383.175781 136.578125 Z M 383.175781 136.578125 " fill-opacity="1" fill-rule="nonzero"/><path fill="#cadee5" d="M 384.417969 165.085938 L 322.492188 165.085938 C 322.226562 165.085938 321.960938 164.820312 321.960938 164.554688 C 321.960938 164.285156 322.226562 164.019531 322.492188 164.019531 L 384.417969 164.019531 C 384.683594 164.019531 384.949219 164.285156 384.949219 164.554688 C 384.949219 164.910156 384.683594 165.085938 384.417969 165.085938 Z M 384.417969 165.085938 " fill-opacity="1" fill-rule="nonzero"/><path fill="#cadee5" d="M 383.085938 171.925781 L 321.160156 171.925781 C 320.894531 171.925781 320.628906 171.660156 320.628906 171.390625 C 320.628906 171.125 320.894531 170.859375 321.160156 170.859375 L 383.085938 170.859375 C 383.351562 170.859375 383.621094 171.125 383.621094 171.390625 C 383.621094 171.660156 383.441406 171.925781 383.085938 171.925781 Z M 383.085938 171.925781 " fill-opacity="1" fill-rule="nonzero"/><path fill="#7a164d" d="M 40.898438 92.523438 C 40.898438 92.523438 26.703125 107.265625 23.511719 116.328125 C 23.332031 116.949219 24.042969 117.480469 24.574219 117.125 C 27.414062 115.261719 34.066406 109.84375 43.828125 95.367188 Z M 40.898438 92.523438 " fill-opacity="1" fill-rule="nonzero"/><path fill="#7a164d" d="M 40.632812 87.992188 L 39.570312 90.035156 C 39.390625 90.304688 39.390625 90.570312 39.570312 90.835938 C 40.011719 91.902344 41.609375 94.65625 45.691406 96.164062 C 46.046875 96.253906 46.398438 96.164062 46.667969 95.898438 L 48.351562 94.210938 C 48.261719 94.300781 42.320312 91.546875 40.632812 87.992188 Z M 40.632812 87.992188 " fill-opacity="1" fill-rule="nonzero"/><path fill="#7a164d" d="M 40.632812 87.992188 L 39.570312 90.035156 C 39.390625 90.304688 39.390625 90.570312 39.570312 90.835938 C 40.011719 91.902344 41.609375 94.65625 45.691406 96.164062 C 46.046875 96.253906 46.398438 96.164062 46.667969 95.898438 L 48.351562 94.210938 C 48.261719 94.300781 42.320312 91.546875 40.632812 87.992188 Z M 40.632812 87.992188 " fill-opacity="0.33" fill-rule="nonzero"/><path fill="#e05353" d="M 74.347656 77.515625 C 74.347656 78.125 74.316406 78.734375 74.257812 79.34375 C 74.195312 79.949219 74.105469 80.554688 73.988281 81.152344 C 73.871094 81.75 73.722656 82.34375 73.542969 82.929688 C 73.367188 83.511719 73.160156 84.085938 72.929688 84.652344 C 72.695312 85.214844 72.433594 85.765625 72.144531 86.304688 C 71.859375 86.84375 71.546875 87.367188 71.207031 87.875 C 70.867188 88.382812 70.503906 88.875 70.117188 89.347656 C 69.730469 89.816406 69.320312 90.269531 68.890625 90.703125 C 68.457031 91.132812 68.007812 91.542969 67.535156 91.929688 C 67.0625 92.320312 66.574219 92.683594 66.066406 93.023438 C 65.558594 93.359375 65.035156 93.675781 64.496094 93.960938 C 63.960938 94.25 63.410156 94.511719 62.84375 94.746094 C 62.28125 94.980469 61.707031 95.183594 61.125 95.363281 C 60.539062 95.539062 59.949219 95.6875 59.351562 95.808594 C 58.75 95.925781 58.148438 96.015625 57.542969 96.074219 C 56.933594 96.136719 56.324219 96.164062 55.714844 96.164062 C 55.105469 96.164062 54.496094 96.136719 53.890625 96.074219 C 53.28125 96.015625 52.679688 95.925781 52.082031 95.808594 C 51.480469 95.6875 50.890625 95.539062 50.308594 95.363281 C 49.722656 95.183594 49.148438 94.980469 48.585938 94.746094 C 48.023438 94.511719 47.472656 94.25 46.933594 93.960938 C 46.394531 93.675781 45.871094 93.359375 45.363281 93.023438 C 44.855469 92.683594 44.367188 92.320312 43.894531 91.929688 C 43.425781 91.542969 42.972656 91.132812 42.542969 90.703125 C 42.109375 90.269531 41.699219 89.816406 41.3125 89.347656 C 40.925781 88.875 40.5625 88.382812 40.222656 87.875 C 39.886719 87.367188 39.570312 86.84375 39.285156 86.304688 C 38.996094 85.765625 38.734375 85.214844 38.503906 84.652344 C 38.269531 84.085938 38.0625 83.511719 37.886719 82.929688 C 37.710938 82.34375 37.5625 81.75 37.441406 81.152344 C 37.324219 80.554688 37.234375 79.949219 37.175781 79.34375 C 37.113281 78.734375 37.085938 78.125 37.085938 77.515625 C 37.085938 76.902344 37.113281 76.292969 37.175781 75.6875 C 37.234375 75.078125 37.324219 74.472656 37.441406 73.875 C 37.5625 73.277344 37.710938 72.683594 37.886719 72.097656 C 38.0625 71.515625 38.269531 70.941406 38.503906 70.375 C 38.734375 69.8125 38.996094 69.261719 39.285156 68.722656 C 39.570312 68.183594 39.886719 67.660156 40.222656 67.152344 C 40.5625 66.644531 40.925781 66.152344 41.3125 65.679688 C 41.699219 65.210938 42.109375 64.757812 42.542969 64.324219 C 42.972656 63.894531 43.425781 63.484375 43.894531 63.097656 C 44.367188 62.707031 44.855469 62.34375 45.363281 62.003906 C 45.871094 61.667969 46.394531 61.351562 46.933594 61.066406 C 47.472656 60.777344 48.023438 60.515625 48.585938 60.28125 C 49.148438 60.046875 49.722656 59.84375 50.308594 59.664062 C 50.890625 59.488281 51.480469 59.339844 52.082031 59.222656 C 52.679688 59.101562 53.28125 59.011719 53.890625 58.953125 C 54.496094 58.890625 55.105469 58.863281 55.714844 58.863281 C 56.324219 58.863281 56.933594 58.890625 57.542969 58.953125 C 58.148438 59.011719 58.75 59.101562 59.351562 59.222656 C 59.949219 59.339844 60.539062 59.488281 61.125 59.664062 C 61.707031 59.84375 62.28125 60.046875 62.84375 60.28125 C 63.410156 60.515625 63.960938 60.777344 64.496094 61.066406 C 65.035156 61.351562 65.558594 61.667969 66.066406 62.003906 C 66.574219 62.34375 67.0625 62.707031 67.535156 63.097656 C 68.007812 63.484375 68.457031 63.894531 68.890625 64.324219 C 69.320312 64.757812 69.730469 65.210938 70.117188 65.679688 C 70.503906 66.152344 70.867188 66.644531 71.207031 67.152344 C 71.546875 67.660156 71.859375 68.183594 72.144531 68.722656 C 72.433594 69.261719 72.695312 69.8125 72.929688 70.375 C 73.160156 70.941406 73.367188 71.515625 73.542969 72.097656 C 73.722656 72.683594 73.871094 73.277344 73.988281 73.875 C 74.105469 74.472656 74.195312 75.078125 74.257812 75.6875 C 74.316406 76.292969 74.347656 76.902344 74.347656 77.515625 Z M 74.347656 77.515625 " fill-opacity="1" fill-rule="nonzero"/><path fill="#efbfbf" d="M 70.976562 77.425781 C 70.976562 78.429688 70.878906 79.421875 70.683594 80.40625 C 70.484375 81.390625 70.195312 82.34375 69.8125 83.269531 C 69.429688 84.199219 68.960938 85.078125 68.402344 85.910156 C 67.847656 86.746094 67.214844 87.519531 66.503906 88.226562 C 65.796875 88.9375 65.027344 89.570312 64.191406 90.125 C 63.359375 90.683594 62.480469 91.15625 61.554688 91.539062 C 60.628906 91.921875 59.675781 92.210938 58.691406 92.40625 C 57.710938 92.601562 56.71875 92.703125 55.714844 92.703125 C 54.714844 92.703125 53.722656 92.601562 52.738281 92.40625 C 51.753906 92.210938 50.800781 91.921875 49.875 91.539062 C 48.949219 91.15625 48.070312 90.683594 47.238281 90.125 C 46.40625 89.570312 45.632812 88.9375 44.925781 88.226562 C 44.214844 87.519531 43.585938 86.746094 43.027344 85.910156 C 42.472656 85.078125 42 84.199219 41.617188 83.269531 C 41.234375 82.34375 40.945312 81.390625 40.75 80.40625 C 40.554688 79.421875 40.457031 78.429688 40.457031 77.425781 C 40.457031 76.421875 40.554688 75.429688 40.75 74.445312 C 40.945312 73.460938 41.234375 72.503906 41.617188 71.578125 C 42 70.652344 42.472656 69.773438 43.027344 68.9375 C 43.585938 68.105469 44.214844 67.332031 44.925781 66.621094 C 45.632812 65.914062 46.40625 65.28125 47.238281 64.722656 C 48.070312 64.164062 48.949219 63.695312 49.875 63.3125 C 50.800781 62.925781 51.753906 62.636719 52.738281 62.441406 C 53.722656 62.246094 54.714844 62.148438 55.714844 62.148438 C 56.71875 62.148438 57.710938 62.246094 58.691406 62.441406 C 59.675781 62.636719 60.628906 62.925781 61.554688 63.3125 C 62.480469 63.695312 63.359375 64.164062 64.191406 64.722656 C 65.027344 65.28125 65.796875 65.914062 66.503906 66.621094 C 67.214844 67.332031 67.847656 68.105469 68.402344 68.9375 C 68.960938 69.773438 69.429688 70.652344 69.8125 71.578125 C 70.195312 72.503906 70.484375 73.460938 70.683594 74.445312 C 70.878906 75.429688 70.976562 76.421875 70.976562 77.425781 Z M 70.976562 77.425781 " fill-opacity="1" fill-rule="nonzero"/><path fill="#f4d7d7" d="M 59.617188 62.679688 L 40.8125 74.050781 C 40.722656 74.582031 40.632812 75.027344 40.542969 75.558594 C 40.457031 76.625 40.367188 77.691406 40.457031 78.667969 L 62.8125 63.835938 C 61.835938 63.390625 60.773438 62.949219 59.617188 62.679688 Z M 59.617188 62.679688 " fill-opacity="1" fill-rule="nonzero"/><path fill="#f4d7d7" d="M 48.796875 91.101562 L 71.0625 76.804688 C 70.886719 73.339844 69.644531 70.140625 67.515625 67.65625 L 41.699219 83.375 C 43.027344 86.660156 45.511719 89.414062 48.796875 91.101562 Z M 48.796875 91.101562 " fill-opacity="1" fill-rule="nonzero"/><path fill="#f4d7d7" d="M 68.226562 86.304688 C 69.113281 84.972656 69.820312 83.554688 70.355469 81.953125 L 53.054688 92.523438 C 53.320312 92.613281 53.585938 92.613281 53.851562 92.703125 C 55.980469 92.96875 58.109375 92.789062 60.0625 92.167969 Z M 68.226562 86.304688 " fill-opacity="1" fill-rule="nonzero"/><path fill="#e05353" d="M 372.707031 180.71875 L 374.660156 162.511719 C 365.078125 162.597656 357.269531 170.414062 357.269531 180.097656 C 357.269531 189.777344 365.167969 197.683594 374.835938 197.683594 C 384.507812 197.683594 392.402344 189.777344 392.402344 180.097656 C 392.402344 179.917969 392.402344 179.828125 392.402344 179.652344 Z M 372.707031 180.71875 " fill-opacity="1" fill-rule="nonzero"/><path fill="#e07373" d="M 375.457031 177.964844 L 392.136719 176.808594 C 390.804688 169.347656 384.683594 163.488281 377.054688 162.597656 Z M 375.457031 177.964844 " fill-opacity="1" fill-rule="nonzero"/><path fill="#e05353" d="M 79.226562 202.566406 L 79.226562 189.332031 C 79.226562 187.289062 77.628906 185.691406 75.589844 185.691406 L 28.832031 185.691406 C 26.792969 185.691406 25.195312 187.289062 25.195312 189.332031 L 25.195312 214.113281 C 25.195312 216.15625 26.792969 217.753906 28.832031 217.753906 L 75.5 217.753906 C 77.539062 217.753906 79.136719 216.15625 79.136719 214.113281 L 79.136719 202.566406 Z M 79.226562 202.566406 " fill-opacity="1" fill-rule="nonzero"/><path fill="#ffffff" d="M 55.804688 201.144531 C 55.804688 199.546875 54.5625 198.304688 52.964844 198.304688 C 51.367188 198.304688 50.125 199.546875 50.125 201.144531 C 50.125 202.746094 51.367188 203.988281 52.964844 203.988281 C 54.472656 204.078125 55.804688 202.746094 55.804688 201.144531 Z M 55.804688 201.144531 " fill-opacity="1" fill-rule="nonzero"/><path fill="#ffffff" d="M 42.851562 201.144531 C 42.851562 199.546875 41.609375 198.304688 40.011719 198.304688 C 38.414062 198.304688 37.171875 199.546875 37.171875 201.144531 C 37.171875 202.746094 38.414062 203.988281 40.011719 203.988281 C 41.609375 204.078125 42.851562 202.746094 42.851562 201.144531 Z M 42.851562 201.144531 " fill-opacity="1" fill-rule="nonzero"/><path fill="#ffffff" d="M 69.644531 201.144531 C 69.644531 199.546875 68.402344 198.304688 66.804688 198.304688 C 65.207031 198.304688 63.964844 199.546875 63.964844 201.144531 C 63.964844 202.746094 65.207031 203.988281 66.804688 203.988281 C 68.3125 204.078125 69.644531 202.746094 69.644531 201.144531 Z M 69.644531 201.144531 " fill-opacity="1" fill-rule="nonzero"/></svg>